<svg width="882" height="882" xmlns="http://www.w3.org/2000/svg" xmlns:xlink="http://www.w3.org/1999/xlink" xml:space="preserve" overflow="hidden"><defs><clipPath id="clip0"><rect x="199" y="-81" width="882" height="882"/></clipPath><clipPath id="clip1"><path d="M199.756 104.295 895.705-80.2444 1080.24 615.705 384.295 800.244Z" fill-rule="evenodd" clip-rule="evenodd"/></clipPath><clipPath id="clip2"><path d="M199.756 104.295 895.705-80.2444 1080.24 615.705 384.295 800.244Z" fill-rule="evenodd" clip-rule="evenodd"/></clipPath><clipPath id="clip3"><path d="M199.756 104.295 895.705-80.2444 1080.24 615.705 384.295 800.244Z" fill-rule="evenodd" clip-rule="evenodd"/></clipPath></defs><g clip-path="url(#clip0)" transform="translate(-199 81)"><g clip-path="url(#clip1)"><g clip-path="url(#clip2)"><g clip-path="url(#clip3)"><path d="M755.591 176.414C847.962 239.485 953.182 294.515 975.74 377.092 998.298 459.668 938.216 569.869 851.817 632.009 765.438 694.227 652.763 708.462 561.683 680.223 470.602 651.984 401.215 581.328 356.902 497.237 312.686 413.202 293.741 315.846 322.442 225.885 351.143 135.923 427.646 53.3158 505.612 47.7052 583.635 41.9968 663.199 113.265 755.591 176.414" fill="#F2B705" fill-opacity="0.4"/></g></g></g></g></svg>