<svg width="206" height="696" xmlns="http://www.w3.org/2000/svg" xmlns:xlink="http://www.w3.org/1999/xlink" xml:space="preserve" overflow="hidden"><defs><clipPath id="clip0"><rect x="1558" y="577" width="206" height="696"/></clipPath></defs><g clip-path="url(#clip0)" transform="translate(-1558 -577)"><path d="M24.6398 54.6253 15.7662-2.28809-2.41892-0.739445-3.36072 61.8351-3.36072 96.7119 24.6398 54.6253" fill="#FFAA9C" fill-rule="evenodd" transform="matrix(1 0 0 -1 1612 1232)"/><path d="M29.3959 55.9562 27.1604-1.76771 8.73918-2.29882 0.465888 59.948-3.6041 94.7011 29.3959 55.9562" fill="#FFAA9C" fill-rule="evenodd" transform="matrix(1 0 0 -1 1697 1230)"/><path d="M25.4595 13.5322C25.2771 15.2418 25.0681 16.9201 24.9636 18.442 24.6242 23.8851 23.1232 35.4615 22.7314 35.4615 19.1681 44.1676 7.74651 45.9871 3.6086 36.9679 3.30839 36.3405 0.632376 26.944-0.425175 22.9918-1.10387 20.4961-2.08278 17.909-2.70941 15.289-3.11412 13.5953-3.37518 11.8687-3.27069 10.1591-2.85305 2.67797 2.94247-0.931217 9.70433-1.88874 14.9386-2.64049 23.5929-1.33844 25.2379 4.84204 25.9166 7.44505 25.7339 10.5364 25.4595 13.5322" fill="#36303A" fill-rule="evenodd" transform="matrix(1 0 0 -1 1606 1270)"/><path d="M54.2638 3.30746C53.5062-0.573138 49.7832-1.48374 46.0731-1.79846 39.6595-2.33262 34.7086-2.06481 28.3076-1.79846 21.3844-1.51514-1.85468-1.82877-3.14804 1.42238-3.56598 2.49142-3.60515 3.93618-3.53975 5.33437-3.47434 6.49689-3.37013 7.65941-3.35719 8.60141-3.29178 11.9164-3.14804 13.6615-2.76927 16.9596-2.54718 19.0338-2.86055 23.8249-0.352537 24.6883-0.222088 24.8929 8.07314 24.2959 11.8874 24.7669 13.5725 24.9716 15.1533 25.3484 16.7076 26.0081 17.988 26.5578 19.2027 27.8791 20.6006 27.8936 21.5411 27.8936 24.4278 25.0503 28.5429 22.3636 28.9609 22.0814 29.418 21.8139 29.8751 21.5461 30.4501 21.1856 31.0639 20.8405 31.691 20.5099 31.9001 20.3995 32.2006 20.2436 32.566 20.0389 32.971 19.8354 33.4544 19.5679 33.9902 19.2846 36.9424 17.6984 41.4359 15.2632 42.4288 14.7767 44.9239 13.5814 47.4057 12.4048 49.8353 11.0849 53.3625 9.16805 54.9954 6.98377 54.2638 3.30746" fill="#36303A" fill-rule="evenodd" transform="matrix(1 0 0 -1 1705 1255)"/><path d="M49.8347 11.172C47.4051 12.5033 44.9233 13.6932 42.4283 14.9005 41.9579 14.083 40.4295 8.32316 40.0637 7.10419 39.267 4.4021 38.7053 4.49439 36.1582 4.09037 28.7776 2.90845 21.4883 3.22019 14.0036 3.40476 10.5943 3.48288 7.23717 3.85929 3.84085 4.29892 1.76374 4.58449-1.11007 5.35039-3.5397 5.382-3.60511 3.97555-3.56594 2.5335-3.148 1.45296-1.85466-1.81956 21.3841-1.50927 28.3072-1.79449 34.7081-2.05754 39.659-2.32422 46.0726-1.79594 49.7826-1.47512 53.5056-0.553351 54.2631 3.35353 54.9948 7.05659 53.3748 9.25292 49.8347 11.172" fill="#F8F0EC" fill-rule="evenodd" transform="matrix(1 0 0 -1 1705 1255)"/><path d="M1.75081 2.47391C0.41848 1.35588-1.24661-0.033448-1.82934-1.39429-2.18598-2.19022-3.53009-1.78513-3.197-0.976805-2.50728 0.613832-0.758761 1.98954 0.537578 3.17508 0.918104 2.9332 1.33429 2.7034 1.75081 2.47391" fill="#F8F0EC" fill-rule="evenodd" transform="matrix(1 0 0 -1 1733 1236)"/><path d="M1.3997 2.99596C0.046271 1.5357-1.13617-0.0743142-2.17438-1.8307-2.6736-2.75076-4.01401-1.84729-3.47503-0.94496-2.4896 0.763513-1.34656 2.3392-0.0325343 3.78437 0.374868 3.57199 0.861075 3.29208 1.3997 2.99596" fill="#F8F0EC" fill-rule="evenodd" transform="matrix(1 0 0 -1 1737 1239)"/><path d="M25.4595 13.8331C24.2328 14.5207 22.9666 15.1124 21.7654 15.5595 13.8422 18.5185 5.04428 18.8682-2.70941 15.6237-3.11412 13.8974-3.37518 12.1376-3.27069 10.395-2.85305 2.76992 2.94247-0.908737 9.70433-1.88469 14.9386-2.65128 23.5929-1.3238 25.2379 4.97565 25.9166 7.6284 25.7339 10.7796 25.4595 13.8331" fill="#F8F0EC" fill-rule="evenodd" transform="matrix(1 0 0 -1 1606 1270)"/><path d="M8.13678-0.419834C4.55297 0.594336 0.798456 0.593479-2.78535-0.420976-3.73386-0.689727-3.32539-1.89211-2.37688-1.61993 0.969528-0.67202 4.3819-0.671163 7.72831-1.61793 8.67682-1.88897 9.08529-0.687728 8.13678-0.419834" fill="#F8F0EC" fill-rule="evenodd" transform="matrix(1 0 0 -1 1615 1244)"/><path d="M8.1379-0.434669C4.55683 0.579749 0.791406 0.578606-2.78966-0.436668-3.7379-0.704552-3.3163-1.9066-2.36842-1.63472 0.975766-0.686845 4.37247-0.685988 7.71666-1.63272 8.67794-1.90375 9.08614-0.703409 8.1379-0.434669" fill="#F8F0EC" fill-rule="evenodd" transform="matrix(1 0 0 -1 1615 1238)"/><path d="M29.1069 119.657C29.1069 119.657 13.9694 111.496 10.845 104.687 7.70772 97.8776-3.24664 21.9448-3.24664 14.0898-3.24664 6.23333 34.8456-4.76252 42.9374-3.1921 51.0159-1.62168 76.5852 85.3103 69.5392 86.096 62.4935 86.8821 29.1069 119.657 29.1069 119.657" fill="#36303A" fill-rule="evenodd" transform="matrix(1 0 0 -1 1562 905)"/><path d="M26.9417-3.37829 26.7285-3.34736-2.68984 5.03166C-3.1165 5.15239-3.35643 5.60067-3.23647 6.03143-3.1165 6.46219-2.67627 6.7085-2.2496 6.59373L27.1552-1.78566C27.5819-1.90602 27.8218-2.35429 27.7018-2.78506 27.6087-3.14278 27.2884-3.37829 26.9417-3.37829" fill="#1A161C" fill-rule="evenodd" transform="matrix(1 0 0 -1 1565 871)"/><path d="M32.4297 74.4649C32.4297 74.4649 30.3098 12.2089 20.6726 0.823314 11.0351-10.5681-3.57042 3.97075-3.57042 3.97075L6.27498 68.3639 32.4297 74.4649" fill="#FFAA9C" fill-rule="evenodd" transform="matrix(1 0 0 -1 1725 821)"/><path d="M-3.77707 4.83155C-3.77707 4.83155-0.763704 5.74171 0.322287 4.22452 1.40828 2.70733 2.22277-3.89824 2.22277-3.89824L-3.66877-3.25024-3.77707 4.83155" fill="#FFAA9C" fill-rule="evenodd" transform="matrix(1 0 0 -1 1760 731)"/><path d="M-0.0869838-3.57626-3.19692-3.31303 0.706609 43.4238 3.80331 43.1606-0.0869838-3.57626" fill="#36303A" fill-rule="evenodd" transform="matrix(1 0 0 -1 1581 796)"/><path d="M22.4815 45.6479C22.3389 45.9481 21.9118 46.1179 21.6007 46.0134 16.1615 44.1989 13.0533 37.9986 10.062 33.4951 5.94342 27.3077 2.82243 21.2902 0.361622 14.2805-0.687259 11.2909-2.96672 8.11898-3.41991 4.98616-3.61408 3.57668-3.2774 2.07526-2.07318 1.21377 0.271127-0.470067 3.98781 0.156569 6.60396-0.992204 9.19409-2.14098 9.86746-3.89017 12.95-3.95517 13.442-3.96846 13.6882-3.58996 13.6882-3.19818 13.9728-3.18525 14.2319-3.02832 14.2839-2.6369 15.4881 6.10908 20.0987 13.7192 22.4166 22.1517 24.4242 29.4225 25.9135 38.6252 22.4815 45.6479" fill="#7D4949" fill-rule="evenodd" transform="matrix(1 0 0 -1 1693 666)"/><path d="M62.028-1.16607C55.904-5.0641 36.4887-4.05979 24.8159-2.80467 13.1689-1.57572-3.38723 11.6767-3.38723 11.6767-3.38723 11.6767 17.7652 23.1454 22.322 28.1532 23.5102 29.4745 25.1553 32.2359 26.8917 35.6316 27.1399 36.0808 27.3748 36.5563 27.623 37.0452 32.3626 46.5057 37.5983 59.5465 37.0893 60.075L42.9388 54.0367 53.6325 43.0307 60.8006 35.6577C60.8006 35.6577 60.3696 34.865 59.769 33.6629 58.8157 31.7997 57.3925 28.959 56.4525 26.8715 56.1914 26.2899 55.9565 25.7484 55.7999 25.3256 55.6562 24.9821 55.5646 24.6913 55.5125 24.4932L55.4863 24.2817C55.4863 23.0527 74.4972 13.3284 75.5284 12.496 76.5471 11.6767 68.1645 2.75814 62.028-1.16607" fill="#FFAA9C" fill-rule="evenodd" transform="matrix(1 0 0 -1 1620 698)"/><path d="M9.04612 11.4638C8.72882 11.9854 8.28395 13.0416 7.71258 14.3848 5.59101 19.4971 1.93251 28.5866-1.43349 26.8782-2.04329 26.5782-2.43713 25.9913-2.69119 25.2612-3.50404 22.9921-3.00885 19.2492-3.04694 17.7625-3.1738 13.2375-3.73293 8.09932-2.80547 3.63924-2.15757 0.470332-0.595131-0.0774918 2.09781-0.859943 4.0796-1.42068 5.22268-2.63329 6.9885-3.41574 7.77584-3.76804 8.6397-3.87244 9.54166-3.91154 9.82123-2.60745 12.2601 2.34807 13.6702 5.13885L13.6702 5.15213C12.019 7.08189 10.3419 9.2861 9.04612 11.4638" fill="#F07D67" fill-rule="evenodd" transform="matrix(1 0 0 -1 1666 669)"/><path d="M54.0588 63.3102C52.0659 66.6303 49.0897 68.7778 45.6603 69.9902 41.532 74.1008 36.4465 77.1574 30.5193 77.8294 22.4316 78.7649 15.974 74.4829 10.2928 69.0943 4.01646 63.1391 1.15666 56.1296-0.771465 47.7635-2.51839 40.2009-5.62418 29.3443-0.991477 22.2431-0.901051 22.1111-0.771465 22.0321-0.655051 21.9662-0.163407 16.604 3.33079 12.2694 6.85062 8.26395 10.4224 4.21933 15.0939-3.34328 20.9951-3.98881 26.0418-4.54227 31.7746-0.642269 35.5404 2.4009 42.1792 7.81596 47.2908 16.38 50.5261 24.1402 51.587 26.6831 52.6999 29.3577 53.7224 32.1243 54.0848 33.0863 54.4212 34.0743 54.7576 35.0758 57.8634 44.4039 59.3903 54.4431 54.0588 63.3102" fill="#FFAA9C" fill-rule="evenodd" transform="matrix(1 0 0 -1 1656 666)"/><path d="M173.495 54.2301C169.819 62.6235 169.713 71.8591 167.105 80.5551 165.84 84.8178 163.627 88.7121 162.244 92.9481 160.939 96.9083 160.939 101.158 159.345 105.039 156.974 110.801 152.06 115.05 146.935 118.379 144.524 119.957 142.034 121.405 139.491 122.76 136.698 124.299 133.839 125.72 130.954 127.088 128.148 128.43 125.302 129.719 122.496 130.995 120.546 131.877 116.317 122.155 114.262 121.115 112.075 119.997 108.004 120.155 105.567 119.826 98.8214 118.892 92.0497 118.142 85.2385 118.01 78.9677 117.892 71.1286 117.195 66.5837 122.155 64.3438 124.588 57.7566 133.285 54.9108 132.245 54.1863 131.969 53.4748 131.561 52.7369 131.219 50.2075 130.048 47.7045 128.812 45.2277 127.535 44.9642 127.391 44.6742 127.246 44.4107 127.088 43.9233 126.838 43.4228 126.575 42.9353 126.299 40.4059 124.983 37.9025 123.562 35.4521 122.076 34.8197 121.707 34.2006 121.326 33.5682 120.944 32.2112 120.129 30.8673 119.286 29.5499 118.418 29.3524 118.3 29.1549 118.168 28.957 118.05 27.9164 117.366 26.8625 116.708 25.8346 116.011 18.5758 111.222 11.7512 106.039 7.60131 98.1185 4.24192 91.7378 2.71354 84.5547 2.0945 77.411 1.54107 70.925 2.00208 64.4128 1.50156 57.9402 0.948125 50.7567-2.22679 44.4552-3.37317 37.4694-3.90014 34.3908 0.974583 32.0886 3.17455 31.1545 10.1438 28.1549 16.5994 31.5754 23.5821 31.5888 28.43 31.6018 33.2123 30.4705 38.0475 30.5363 40.9328 30.5758 43.7917 30.8519 46.6372 31.3123 48.2841 26.8787 48.113 21.9319 48.7585 17.1697 49.5225 11.6308 51.4459 6.23705 53.3034 0.921822 53.7778-0.433224 54.2523-1.77524 54.6868-3.13029 54.7658-3.41947 54.9768-3.57763 55.2007-3.64314 55.4247-3.69598 55.6748-3.66956 55.8593-3.55121 56.0307-3.60369 56.2282-3.59066 56.4127-3.45892 60.497-0.972492 62.3149 3.18494 65.0553 6.92109 66.8867 9.39448 69.1127 11.4994 71.4316 13.4991 74.027 15.7618 77.0044 18.6695 80.3377 19.7615 83.908 20.9059 87.1489 19.0246 90.5213 18.1169 93.0775 17.4459 95.7255 17.2222 98.3604 17.2881 104.118 17.4589 109.967 18.8273 115.514 20.3007 120.388 21.5899 124.63 23.5106 128.161 27.1682 129.439 28.4838 130.453 29.9703 132.377 30.5758 133.615 30.9703 134.933 30.6547 136.197 30.9569 138.253 31.444 139.939 32.4306 141.441 33.9171 145.683 38.1534 146.948 43.9554 152.508 47.0864 158.555 50.507 165.972 52.178 172.81 53.0462 173.442 53.1248 173.758 53.651 173.495 54.2301" fill="#F7F0F0" fill-rule="evenodd" transform="matrix(1 0 0 -1 1569 810)"/><path d="M10.5302-3.75075C10.5302-3.75075 7.81697-3.67218 7.42957-3.75075 7.04181-3.81635 2.055-1.40572 2.055-1.40572 2.055-1.40572-0.296415 18.2084-0.994092 25.2702-1.69177 32.3323-0.567596 31.8082-2.3635 40.4426-3.7457 47.1115-3.51326 54.9857-3.33236 58.248-0.50291 56.8856 2.30024 55.4705 5.03941 53.9375 5.03941 52.2211 5.0522 50.2167 5.12968 48.2905 5.33654 43.5737 7.42957 33.3805 7.97193 25.7287 8.4759 18.6799 10.5302-3.75075 10.5302-3.75075" fill="#7B9FBA" fill-rule="evenodd" transform="matrix(1 0 0 -1 1703 742)"/><path d="M0.887606 0.30303 0.899096 0.353361 0.899096 0.429032C0.968675 0.832724 0.957184 1.21142 0.829837 1.50161 0.667061 1.86747 0.319168 2.10732-0.307359 2.13232-0.643762 2.14516-0.910586 1.96848-1.14262 1.7918-2.29131 0.858064-4.01992-2.59918-2.39567-3.65892-0.71334-4.78183 0.644081-1.05974 0.887606 0.30303" fill="#36303A" fill-rule="evenodd" transform="matrix(1 0 0 -1 1681 629)"/><path d="M1.05401 0.323143 1.06838 0.373471 1.06838 0.449137C1.14105 0.852806 1.14105 1.23148 0.981348 1.52165 0.763759 1.88749 0.32858 2.12733-0.440768 2.15232-0.861574 2.16516-1.19534 1.98849-1.4856 1.81182-2.93686 0.890639-5.0848-2.5789-3.05304-3.63857-0.94861-4.76141 0.734614-1.03954 1.05401 0.323143" fill="#36303A" fill-rule="evenodd" transform="matrix(1 0 0 -1 1703 636)"/><path d="M4.65161 2.77013C4.78858 5.27901 5.03467 7.77487 5.36278 10.2704 5.48583 11.2688 3.8584 11.2554 3.72144 10.2704 3.42079 7.94543 3.17432 5.60748 3.03773 3.26952 2.98279 2.31049 3.0652 1.20728 2.91469 0.261258 3.13331-0.973124 2.51809-1.84037 1.05434-2.32639-0.16293-2.56272-1.31172-2.3918-2.37886-1.81399-3.33612-1.38037-4.1568-2.73328-3.21308-3.17991-1.13412-4.13894 2.61366-4.62496 4.13196-2.3918 5.03467-1.05226 4.56958 1.27269 4.65161 2.77013" fill="#F07D67" fill-rule="evenodd" transform="matrix(1 0 0 -1 1688 647)"/><path d="M-1.91872 3.46222C-3.79046 4.80121-3.62659 3.95978-3.58562 3.09238-3.42175 0.337204-1.04449-2.66009 2.04313-3.54012 4.66657-4.28014 8.19131-3.60398 10.3637-1.93305 10.9373-1.48672 2.79483 0.0950908-1.91872 3.46222" fill="#F07D67" fill-rule="evenodd" transform="matrix(1 0 0 -1 1678 654)"/><path d="M9.65253-2.11294C9.05838-0.555909 7.43606 0.726935 5.66519 1.16551 3.0893 1.77933-0.551563 1.922-2.91691 0.628301-3.57307 0.266342-3.25112-0.534191-2.53297-0.599947-0.440161-0.786356 1.68978-0.88499 3.73319-1.3673 4.73615-1.60861 5.71459-1.93739 6.61876-2.39798 7.20064-2.69388 7.758-3.18735 8.43902-3.34088 9.31832-3.54931 9.94994-2.90231 9.65253-2.11294" fill="#7D4949" fill-rule="evenodd" transform="matrix(1 0 0 -1 1680 621)"/><path d="M7.26079-1.15045C6.89871-2.21104 6.53663-3.25781 6.14657-4.27694 4.9768-3.41141 3.79285-2.5601 2.4974-1.86199 1.4671-1.30366 0.380473-0.871285-0.761329-0.577913-1.51346-0.410491-2.39089-0.452346-3.08746-0.0894708-3.99286 0.398971-3.9373 1.48798-3.03191 1.99025-1.17935 2.99516 1.2579 2.93948 3.09628 1.99025 4.50322 1.25067 6.03508 0.147838 7.26079-1.15045" fill="#7D4949" fill-rule="evenodd" transform="matrix(1 0 0 -1 1704 630)"/><path d="M88.2529 33.3274C87.7304 42.5665 89.4284 51.872 87.7041 61.0452 86.842 65.5924 84.8564 69.797 82.0346 73.4345 80.6366 75.2536 79.056 76.9407 77.3839 78.5089 76.5346 79.3262 75.6466 80.117 74.7449 80.8948 73.0339 82.3575 70.9043 83.5174 69.0624 84.8354 67.0506 86.2984 64.83 87.4714 62.5178 88.3942 57.9717 90.213 53.0205 91.0828 48.1348 90.9247 41.3026 90.7006 34.1046 88.3942 28.0696 85.2176 24.6206 83.4119 21.6159 80.8683 18.9249 78.0608 17.5926 76.6771 16.3384 75.2271 15.1104 73.751 13.3599 71.6288 11.5702 69.4674 10.2638 67.0424 9.08832 64.8676 8.61789 62.3897 8.25204 59.9643 7.53365 55.0748 7.29861 49.5522 3.52299 45.8882 1.32862 43.766-0.996915 42.9096-1.12737 39.3507-1.16654 38.3888-0.77482 37.6506-0.748585 36.7278-0.72235 35.8184-0.474379 34.8825-0.618131 33.9732-0.813992 32.7473-1.53239 32.7737-2.0941 31.7588-2.76038 30.5333-3.36127 29.703-3.42667 28.2399-3.6096 24.4175-0.918571 24.0353 1.08029 21.3467 3.1575 18.5392 5.27388 18.2491 8.43497 17.2212 10.9693 16.3909 12.0406 14.6642 14.0653 13.2407 15.6067 12.1467 17.4097 11.4749 19.1603 10.8287 22.1125 9.7348 26.6324 6.00484 27.2725 10.8817 27.8604 15.2574 29.0101 18.7238 30.7865 22.7568 32.0278 25.5905 34.4967 26.9085 35.0584 30.3092 35.7768 34.764 33.0729 39.8645 36.0381 43.8189 38.102 46.5605 41.133 48.4057 42.9619 51.4369 43.7978 52.8209 44.2941 54.3496 44.7121 55.9182 47.2335 56.0367 49.7549 56.2478 52.263 56.6564 54.7973 57.0516 57.3446 58.172 59.931 57.961 61.2373 57.8555 62.5045 57.3417 63.4454 56.4189 64.3204 55.5491 64.8559 54.6662 66.0972 54.3366 67.5865 53.9674 69.1541 54.297 70.5909 54.6923 71.7014 52.5309 73.3603 51.1208 75.2675 49.091 78.8472 45.2686 79.3957 38.1908 80.0619 33.1824 80.1141 32.8002 80.3624 32.6287 80.6499 32.6156 79.5786 27.2116 78.5073 21.821 77.4101 16.4304 76.7309 13.1486 76.2475 9.81384 75.3591 6.57157 74.9149 4.93738 74.3662 3.31624 73.6478 1.77415 73.269 0.94382 71.1526-1.52106 72.3935-2.16683 73.504-2.74661 75.0845-2.95764 76.2867-3.36628 77.1618-3.6694 78.481-4.31518 79.4219-3.94606 80.6628-3.48485 82.4001 4.42323 82.753 7.5734 83.2888 12.4499 85.614 16.1008 87.3904 20.5294 89.115 24.8261 88.5009 28.8197 88.2529 33.3274" fill="#7D4949" fill-rule="evenodd" transform="matrix(1 0 0 -1 1633 668)"/><path d="M13.6227 2.66579C12.8576 3.74867 11.9869 4.42238 10.9976 5.24145 9.75745 5.91517 8.66248 6.7604 7.68619 7.80404 7.21111 8.72849 6.84165 9.70599 6.59122 10.7231 4.9025 15.4783 2.18486 18.8466-2.57791 20.7754-3.51428 21.1715-3.9233 19.6391-2.98657 19.2561-0.216308 18.1336 2.10574 16.2974 3.64929 13.6952 4.73083 11.859 4.94206 9.85134 5.83923 7.97555 6.41956 6.73387 7.07937 5.91517 8.17434 5.10918 11.3801 2.70503 13.7548 1.11995 13.9-3.39728 13.9395-4.41439 15.5096-4.41439 15.4831-3.39728 15.417-1.17809 14.9158 0.829606 13.6227 2.66579" fill="#522E2E" fill-rule="evenodd" transform="matrix(1 0 0 -1 1690 603)"/><path d="M11.4491 4.88868C5.8472 3.72325 0.847399 1.11716-3.29728-2.75885-4.04611-3.45306-2.90962-4.56589-2.16079-3.87204 1.79631-0.166078 6.52909 2.26962 11.8768 3.36984 12.893 3.57915 12.4653 5.09835 11.4491 4.88868" fill="#522E2E" fill-rule="evenodd" transform="matrix(1 0 0 -1 1682 606)"/><path d="M30.6013 36.8249C22.4159 34.771 11.0014 29.7628 7.23179 21.5215 6.53341 19.9847 6.20381 18.2887 6.07182 16.6058 5.94019 14.8836 6.23028 13.1478 5.39955 11.4915 4.70117 10.1269 3.33053 9.08039 2.30218 7.96721-0.716145 4.69474-3.04914 1.15692-3.41828-3.38765-3.51038-4.40788-1.9287-4.39476-1.84965-3.38765-1.36194 2.44214 2.76341 5.25097 5.95325 9.53055 8.12815 12.472 7.13969 15.3472 7.95664 18.6995 10.1845 27.8018 22.917 33.274 31.01 35.301 31.9984 35.5397 31.5898 37.0764 30.6013 36.8249" fill="#522E2E" fill-rule="evenodd" transform="matrix(1 0 0 -1 1643 619)"/><path d="M2.32944 13.5562C-1.41327 8.71733-2.4902 2.82422-3.36988-3.15033-3.51438-4.164-2.0043-4.61022-1.84642-3.58279-1.0325 2.05374-0.113076 7.82525 3.43238 12.4076 4.06278 13.2186 2.95984 14.3672 2.32944 13.5562" fill="#522E2E" fill-rule="evenodd" transform="matrix(1 0 0 -1 1645 628)"/><path d="M1.32687 37.5771C0.981411 38.4775-0.449644 38.079-0.0919648 37.1655 1.05539 34.2068 2.23939 31.222 2.83157 28.0831 3.73221 23.2717 2.70838 19.3607 0.52498 15.1282-0.572829 12.9669-1.39949 10.9471-1.59666 8.48995-1.91735 4.5665-0.967837 0.732594-3.20044-2.77926-3.73085-3.61555-2.4481-4.38742-1.9299-3.56423-0.387881-1.14561-0.128954 1.40184-0.141171 4.2448-0.153388 7.16491-0.239923 9.8794 0.931865 12.6197 1.70898 14.408 2.78236 16.0159 3.51027 17.83 6.17454 24.4425 3.75698 31.3249 1.32687 37.5771" fill="#522E2E" fill-rule="evenodd" transform="matrix(1 0 0 -1 1712 656)"/><path d="M39.3349-0.229407 31.2457-3.69191C31.2457-3.69191 29.6835 4.1543 28.4787 10.6647 27.2739 17.1491 25.0365 23.8408 19.2378 32.3874 13.4257 40.9339 12.8961 42.477 10.3011 50.5048 8.84496 55.0697 1.6692 62.1767-3.36171 66.1451-0.899247 67.6108 1.61639 69.0115 4.15824 70.3083 7.36225 67.1049 13.2403 61.0354 16.987 55.9517 23.077 47.6645 20.9456 43.7871 31.4842 27.7315 42.0093 11.689 39.3349-0.229407 39.3349-0.229407" fill="#7B9FBA" fill-rule="evenodd" transform="matrix(1 0 0 -1 1608 755)"/><path d="M133.529 385.465C133.529 385.465 126.374 431.374 119.718 458.832 118.104 458.963 116.475 459.042 114.861 459.042 103.951 459.107 88.4081 458.937 77.7479 456.956 68.9394 455.316 42.2632 453.02 35.4367 452.141 32.693 433.605 34.5967 414.779 32.706 396.151 31.6558 385.801 22.9126 380.742 19.1581 371.08 14.6422 359.486 7.3166 344.245 4.1659 322.645 0.293256 296.077 0.135794 262.065-1.164 235.46-2.20123 214.349-4.34106 170.007-1.164 124.451-0.730974 118.247-1.84658 59.0471-2.1225 52.7935-2.38505 46.7027-3.65848 40.7494-3.38256 34.6268-3.05463 27.232-1.37419 19.9828-1.164 12.5682-1.0329 8.19159-1.21672 3.81285-1.42655-0.566244 9.3647-1.18554 20.1162-2.3386 30.9075-2.78611 38.0229-3.07988 45.0203-3.03657 51.9121-2.11015 52.5557 4.51985 53.33 11.1369 54.052 17.7629 55.0368 26.887 54.8924 36.2721 56.3363 45.3158 57.6361 53.5438 60.8785 61.3428 63.6225 69.1615 67.4952 80.1746 68.5324 92.3357 70.5278 104.054 72.9959 118.607 75.0176 133.225 76.1202 147.949 77.2886 163.409 77.7613 172.659 79.9929 188.021 87.6468 240.864 131.835 297.333 134.54 351.349 134.816 356.853 133.529 385.465 133.529 385.465" fill="#7B9FBA" fill-rule="evenodd" transform="matrix(1 0 0 -1 1597 1201)"/><path d="M43.2933 115.893C41.5644 103.936 38.4496 91.4423 34.6487 79.2231 21.4511 36.7951-0.0740659-2.2019-0.338016-2.70396-0.641541-3.22189-1.18251-3.50537-1.73692-3.50537-1.9878-3.50537-2.25175-3.44226-2.48919-3.31638-3.26798-2.89295-3.53193-1.93465-3.12275-1.18192-2.84536-0.662916 19.7883 40.3113 32.7484 83.7726 35.9949 94.6674 38.6344 105.72 40.1655 116.326 48.8493 176.674 13.3743 195.08 5.23145 198.463 6.26075 199.158 7.31655 199.814 8.35928 200.495 19.6826 195.094 51.7132 174.366 43.2933 115.893" fill="#36303A" fill-rule="evenodd" transform="matrix(1 0 0 -1 1590 893)"/><path d="M32.2868 56.9412 42.6569 14.9209C42.6569 14.9209 28.0346-3.21155 22.4362-3.47483 16.8511-3.73666 13.2392 6.69326 8.84029 15.8676 3.9218 26.1498-3.34279 54.9664-3.34279 54.9664-3.34279 54.9664 5.14803 57.5203 12.9858 57.5203 20.8367 57.5203 32.2868 56.9412 32.2868 56.9412" fill="#FFAA9C" fill-rule="evenodd" transform="matrix(1 0 0 -1 1589 834)"/><path d="M-3.536 8.32248C-3.536 8.32248-2.9451 12.9904-1.77667 13.0969-0.594872 13.1898 18.5342 11.2084 26.6085 9.21334 34.6831 7.2187 48.3898 1.67306 48.3898 1.67306 48.3898 1.67306 62.5825 9.81188 68.5825 13.0969 74.5825 16.3816 81.2522 18.3766 81.751 18.2701 82.2368 18.1768 86.4641 14.6928 86.4641 14.6928L56.9892-1.66501C56.9892-1.66501 33.4096-3.72624 32.1227-3.72624 30.8492-3.72624-3.536 8.32248-3.536 8.32248" fill="#FFFFFF" fill-rule="evenodd" transform="matrix(1 0 0 -1 1669 748)"/><path d="M53.8906-2.83881C58.5392 9.19029 73.5422 63.259 73.5422 64.3114 73.5422 65.4956 11.9759 77.7038 11.5843 76.3224 11.1795 74.941-3.45781 4.98058-3.45781 5.03341L48.6022-3.56914C48.6022-3.56914 51.2924-3.27563 53.8906-2.83881" fill="#36303A" fill-rule="evenodd" transform="matrix(1 0 0 -1 1651 814)"/><path d="M-3.58766 0.949886 7.28645 1.42554 8.41238-0.939631 0.0149395-3.57498-3.58766 0.949886" fill="#36303A" fill-rule="evenodd" transform="matrix(1 0 0 -1 1717 748)"/><path d="M11.331 64.9647 6.33467 45.7199-3.55446-3.61087C-1.73284-3.3086 0.0758858-2.98372 1.8975-2.69749 10.8234 2.1006 30.0418 16.0172 30.7445 17.0115 31.7202 18.4029 51.4459 85.3895 51.4459 85.3895 51.4459 85.3895 12.3067 65.7866 11.331 64.9647" fill="#36303A" fill-rule="evenodd" transform="matrix(1 0 0 -1 1708 814)"/><path d="M-0.207116 13.5172C-0.207116 13.5172-3.65198-3.28189-3.65198-3.68105-3.65198-4.08057 18.4816 8.00625 18.4816 8.00625L24.3479 26.3097-0.207116 13.5172" fill="#E66C6C" fill-rule="evenodd" transform="matrix(1 0 0 -1 1729 764)"/><path d="M-2.68714 1.24891-3.61933-3.74746 6.62142 2.06846 8.3807 7.25291-2.68714 1.24891" fill="#F8F0EC" fill-rule="evenodd" transform="matrix(1 0 0 -1 1743 747)"/><path d="M-2.72007-3.50639-2.88867-3.48035C-3.30322-3.40258-3.57555-2.98769-3.48466-2.57245L9.96456 61.8761C10.0423 62.291 10.4568 62.576 10.8846 62.4726 11.2991 62.3948 11.5714 61.9795 11.4805 61.5518L-1.96867-2.88388C-2.04638-3.24704-2.37039-3.50639-2.72007-3.50639" fill="#635E66" fill-rule="evenodd" transform="matrix(1 0 0 -1 1712 811)"/><path d="M-2.7287-3.53761-2.88551-3.52177C-3.30379-3.43677-3.57821-3.02586-3.4998-2.5937L9.93979 63.843C10.0311 64.2619 10.4365 64.537 10.8681 64.4452 11.2863 64.3667 11.5608 63.9478 11.4694 63.529L-1.95724-2.90773C-2.03565-3.28768-2.36257-3.53761-2.7287-3.53761" fill="#635E66" fill-rule="evenodd" transform="matrix(1 0 0 -1 1703 813)"/><path d="M13.7809-4.0474 13.6371-4.03264-2.78854-0.769661C-3.21956-0.68268-3.49421-0.233013-3.42879 0.231018-3.35042 0.709812-2.94528 1.01424-2.51425 0.942027L13.9114-2.32135C14.3428-2.40833 14.6175-2.858 14.552-3.32203 14.4733-3.74257 14.1469-4.0474 13.7809-4.0474" fill="#635E66" fill-rule="evenodd" transform="matrix(1 0 0 -1 1671 744)"/><path d="M19.8215-3.93139 19.6793-3.91738-2.76377 0.396485C-3.19019 0.466911-3.46191 0.905808-3.39718 1.37233-3.31965 1.82484-2.91883 2.15013-2.4924 2.0513L19.951-2.24857C20.3774-2.33339 20.6488-2.7719 20.584-3.22441 20.5197-3.63451 20.1836-3.93139 19.8215-3.93139" fill="#635E66" fill-rule="evenodd" transform="matrix(1 0 0 -1 1670 749)"/><path d="M-3.01863-3.29984C-3.32995-3.29984-3.62687-3.15479-3.78253-2.90096-3.99501-2.53801-3.82495-2.11484-3.40077-1.93353L4.90289 1.62181C5.32706 1.80312 5.82245 1.65807 6.03454 1.30743 6.24662 0.944808 6.07695 0.509331 5.66679 0.328021L-2.65088-3.22732-3.01863-3.29984" fill="#635E66" fill-rule="evenodd" transform="matrix(1 0 0 -1 1734 770)"/><path d="M-2.81422-3.60994C-3.10373-3.60994-3.38018-3.43681-3.52512-3.15755-3.70954-2.7586-3.53852-2.2795-3.14322-2.0932L16.2705 7.3132C16.6654 7.4995 17.1397 7.33956 17.3241 6.94061 17.5085 6.54129 17.3506 6.06255 16.9553 5.87626L-2.47146-3.53015-2.81422-3.60994" fill="#635E66" fill-rule="evenodd" transform="matrix(1 0 0 -1 1725 780)"/><path d="M94.8113 44.5905C93.7496 46.2378 89.6875 50.5968 89.6875 50.5968 89.6875 50.5968 49.2082 33.2263 39.1181 31.5789 32.6838 30.5279 22.5018 28.9712 17.8236 23.4581 12.4243 23.7565-3.37935 25.326-3.37935 25.326-3.37935 25.326 4.40461 4.15873 10.5768-0.847592 16.3426-5.53058 27.4944-2.71194 33.6403-0.781212 42.1582 1.89361 51.3441 6.30679 59.3116 10.3181 68.76 15.075 99.6204 34.5107 99.6204 34.5107 99.6204 34.5107 96.0561 42.6447 94.8113 44.5905" fill="#FFAA9C" fill-rule="evenodd" transform="matrix(1 0 0 -1 1600 839)"/><path d="M49.3084 20.0241C49.0077 20.9144 48.1969 21.8306 47.2555 22.3211 47.3339 22.4887 47.4123 22.6694 47.4253 22.8373 47.6609 24.4113 46.2223 25.1468 44.9147 25.1209 43.8557 25.1081 42.7704 24.4627 41.8157 24.0886 39.7106 23.2757 32.8589 22.6175 30.6357 22.2047 27.0791 21.5338 23.4963 21.4564 19.9393 21.8692 21.4562 22.4369 22.9732 23.0176 24.4898 23.6115 25.8499 24.1276 27.9943 24.6306 28.7918 26.0243 30.5703 29.0824 27.432 29.8953 25.1438 29.392 21.4562 28.5663 17.782 27.5855 14.1074 26.6952 11.6494 26.0885 8.30177 25.8951 6.18334 24.3857 4.26132 23.0048 3.03213 20.3336 1.8159 18.3855-0.119429 15.2755-1.85835 12.0498-3.44078 8.73357-3.83289 7.93345-2.82601 7.21071-2.26376 7.63668-0.956153 4.81069 0.442823 2.02339 2.07742-0.634704 2.9404-2.04113 3.41129-2.99603 5.04588-3.35705 7.45173-3.88632 11.0609-2.41528 13.3753-1.75715 16.9712-0.737648 41.1487 7.75276 42.025 9.54648 42.0905 9.70125 42.1427 9.86915 42.1819 10.0239 45.3856 11.5464 47.9875 13.6884 48.4192 16.7078 49.23 17.6368 49.753 18.7465 49.3084 20.0241" fill="#FFAA9C" fill-rule="evenodd" transform="matrix(1 0 0 -1 1691 801)"/><path d="M11.5639 2.30533C6.8716 0.276802 2.0502-1.1741-2.96448-2.07398-3.93159-2.24878-3.51879-3.79355-2.55203-3.61912 2.46265-2.73254 7.28405-1.28164 11.9767 0.746884 12.8789 1.1364 12.4792 2.69484 11.5639 2.30533" fill="#F07D67" fill-rule="evenodd" transform="matrix(1 0 0 -1 1725 781)"/><path d="M14.1627 2.82118C8.70306 0.542133 2.84437-0.632066-3.05378-1.74863-4.05003-1.94433-3.625-3.268-2.62875-3.08402 3.40243-1.93293 9.38026-0.7011 14.9733 1.63558 15.8898 2.01527 15.0928 3.21258 14.1627 2.82118" fill="#F07D67" fill-rule="evenodd" transform="matrix(1 0 0 -1 1723 785)"/><path d="M7.06003 1.4466C3.82687-0.152143 0.443598-1.27353-3.1307-1.94382-4.15376-2.13745-3.71729-3.63264-2.69424-3.43936 1.01667-2.73042 4.53618-1.54448 7.87855 0.118807 8.80628 0.582684 7.98776 1.91048 7.06003 1.4466" fill="#F07D67" fill-rule="evenodd" transform="matrix(1 0 0 -1 1724 790)"/><path d="M69.0656 259.206C67.7532 318.173 62.8184 368.814 60.1282 385.54 59.9704 386.538 58.2381 397.144 58.2381 397.144 58.2381 397.144-1.25319 283.694-3.11655 241.387-4.08776 219.279-3.0512 201.198-2.55223 180.644-1.59438 180.964-0.347687 180.473-0.360685 179.17-0.465749 170.245-1.46296 161.371-2.34247 152.493-2.38182 140.197-2.47353 127.903-2.56559 115.607-0.465749 103.053 3.76029 90.9173 4.99399 78.1581 5.72871 70.4513 3.90471 63.0923 2.9205 55.5022 1.66045 45.8342 4.36396 38.7381 7.50073 29.8707 11.1885 19.4873 9.22003 8.07365 12.5402-1.86882 16.1102-2.39786 19.7452-2.51053 23.3283-2.63801 32.8563-2.97675 42.45-3.13564 51.8733-1.44486 56.8864-0.544214 61.7291 0.848642 66.4147 2.61129 66.5722 5.51653 66.5982 8.4438 66.7166 11.3382 67.9896 42.4187 67.4383 65.6444 67.7532 96.7523 68.0813 128.379 70.4173 198.104 69.0656 259.206" fill="#7B9FBA" fill-rule="evenodd" transform="matrix(1 0 0 -1 1670 1200)"/><path d="M14.372-3.33673 14.3586-3.33673C13.9106-3.32334 13.5809-2.95915 13.5939-2.52327 13.6204-1.71525 16.2181 78.3822 16.1786 81.2179 16.0204 82.901 6.31523 91.7169-2.96771 99.2704-3.29746 99.5466-3.35042 100.034-3.07327 100.376-2.79649 100.718-2.30858 100.757-1.96578 100.481 2.64957 96.7305 17.7083 84.2643 17.7479 81.2433 17.8005 78.3692 15.2688 0.728383 15.1632-2.57468 15.1498-3.00114 14.807-3.33673 14.372-3.33673" fill="#1A161C" fill-rule="evenodd" transform="matrix(1 0 0 -1 1579 901)"/><path d="M2.62002-0.651243C2.62002 1.00673 1.27779 2.34867-0.38008 2.34867-2.03795 2.34867-3.38018 1.00673-3.38018-0.651243-3.38018-2.30958-2.03795-3.65152-0.38008-3.65152 1.27779-3.65152 2.62002-2.30958 2.62002-0.651243" fill="#FFFFFF" fill-rule="evenodd" transform="matrix(1 0 0 -1 1643 751)"/><path d="M8.33662 2.16483C8.24413 3.81936 6.38522 4.47843 4.77658 4.08839 2.53537 3.53663 0.122597 2.12413-1.68372 0.752326-2.55387 0.0932544-3.96483-1.39993-3.59558-2.75877-3.26588-4.0636-1.39355-3.88856-0.470803-3.59251 1.11136-3.08146 2.64092-2.43572 4.14401-1.70929 5.5546-1.00989 7.69063-0.606523 8.21801 1.1827 8.32356 1.54573 8.3631 1.86879 8.33662 2.16483" fill="#FFAA9C" fill-rule="evenodd" transform="matrix(1 0 0 -1 1752 730)"/><path d="M7.7644 3.32771C9.81434 5.28905 11.2885 7.78046 9.42581 10.0331 9.7878 10.8945 9.80107 11.9015 9.05091 12.5511 7.4695 13.9426 5.5401 13.0677 4.05269 12.3389 3.14144 11.8883 1.4664 10.7356 0.582063 10.2186-1.06607 9.2511-2.80784 8.21757-3.53145 6.38893-4.29525 4.42759-2.59366 3.06268-1.09261 2.96971-1.40078 2.20122-1.40078 1.35325-0.784439 0.571267-0.503177 0.213633-0.181733-0.0116659 0.16662-0.15749-0.811349-1.37658-1.09261-3.32479 0.890236-3.65618 3.19526-4.05355 6.47789-2.25116 8.07257-0.674438 9.3189 0.558143 9.86816 2.7579 7.7644 3.32771" fill="#FFAA9C" fill-rule="evenodd" transform="matrix(1 0 0 -1 1753 746)"/><path d="M4.17489 2.17171C1.64216 0.778763-0.837866-0.680597-3.27854-2.23265-4.13157-2.7764-3.34425-4.1427-2.47822-3.59895-0.0505391-2.0469 2.42949-0.587904 4.96222 0.791901 5.8546 1.28273 5.06727 2.66217 4.17489 2.17171" fill="#F07D67" fill-rule="evenodd" transform="matrix(1 0 0 -1 1756 737)"/><path d="M0.695239-0.0994454C-0.468018-0.938858-1.66618-1.7215-2.8999-2.41918-3.72216-2.88861-3.00559-4.35445-2.18333-3.88503-0.961247-3.18773 0.236918-2.41918 1.40018-1.57938 2.17557-1.01011 1.47064 0.455726 0.695239-0.0994454" fill="#F07D67" fill-rule="evenodd" transform="matrix(1 0 0 -1 1758 742)"/><path d="M26.5492-2.44601C26.2842-3.04151 26.0458-3.59606 25.8868-4.02892 15.3787-3.37982 5.21542 0.246015-3.4507 6.52368-3.19917 6.9837-2.9604 7.47052-2.70887 7.97112 5.97074 1.69382 16.0812-1.89145 26.5492-2.44601" fill="#36303A" fill-rule="evenodd" transform="matrix(1 0 0 -1 1650 669)"/><path d="M50.4566 9.78149C42.9464 8.77587 35.7233 8.57231 28.1348 8.56309 20.703 8.55203 11.8863 7.25471 4.75489 9.63546 2.90008 10.2531 0.0136542 11.3484-1.84116 10.2465-3.83934 9.06572-3.26479 5.5643-3.12106 3.58993-2.87277 0.382041 0.000718642-0.867335 2.87421-1.42896 9.56153-2.73845 17.0067-2.18493 23.7723-2.05771 31.5045-1.91278 39.2109-1.41569 46.891-0.567161 48.7717-0.360652 52.7814-0.718354 54.3096 0.588549 55.5636 1.65428 55.4982 3.79754 55.6549 5.37143 56.0206 8.84446 53.6437 10.2078 50.4566 9.78149" fill="#F8F0EC" fill-rule="evenodd" transform="matrix(1 0 0 -1 1596 1206)"/><path d="M57.301 11.7193C56.4437 13.2037 55.3792 12.7122 53.8339 12.3503 50.1204 11.4742 46.4069 10.529 42.6801 9.63311 34.7726 7.72788 26.5665 7.54548 18.4772 7.87145 14.4001 8.03662 10.3229 8.33475 6.24576 8.62116 4.24612 8.76107-4.32363 10.7579-3.42776 6.76391-3.34988 6.39399-3.12913 6.07169-2.99911 5.71899-2.41507 4.2225-3.16807 2.57144-2.50581 1.07385-1.97357-0.145768-0.830863-0.961773 0.337918-1.44779 2.8698-2.49673 5.77818-2.24511 8.45294-2.24658 23.2945-2.25317 38.1486-2.38502 52.2629 2.95784 54.3015 3.72586 55.4699 3.91228 56.4047 5.74427 56.8595 6.60935 57.9629 10.5608 57.301 11.7193" fill="#F8F0EC" fill-rule="evenodd" transform="matrix(1 0 0 -1 1682 1205)"/><path d="M29.9285-1.08486C19.0899-1.31738 8.26433-1.23367-2.56127-0.833361-3.56801-0.796529-3.56801-2.41526-2.56127-2.45321 8.26433-2.85352 19.0899-2.9376 29.9285-2.70359 30.9352-2.68201 30.9352-1.06291 29.9285-1.08486" fill="#F8F0EC" fill-rule="evenodd" transform="matrix(1 0 0 -1 1611 1035)"/><path d="M18.936 3.11346C11.6221 2.11551 4.3861 0.667577-2.75812-1.25541-3.7362-1.51743-3.31872-3.11194-2.35427-2.84954 4.67303-0.962632 11.7523 0.481126 18.936 1.46123 19.927 1.59527 19.9399 3.24865 18.936 3.11346" fill="#F8F0EC" fill-rule="evenodd" transform="matrix(1 0 0 -1 1620 1041)"/><path d="M30.9543-1.28774C19.7766-1.63764 8.59886-1.33517-2.5527-0.378536-3.55467-0.292627-3.54142-2.24079-2.5527-2.32536 8.59886-3.28199 19.7766-3.5858 30.9543-3.23456 31.943-3.20368 31.9562-1.25686 30.9543-1.28774" fill="#F8F0EC" fill-rule="evenodd" transform="matrix(1 0 0 -1 1610 1044)"/><path d="M8.9083-0.606104C4.97904-0.332304 1.11544-0.651971-2.76122-1.52813-3.76348-1.75466-3.32819-3.71806-2.33934-3.49341 1.39222-2.64767 5.12378-2.38042 8.9083-2.64439 9.92362-2.71413 9.92362-0.677713 8.9083-0.606104" fill="#F8F0EC" fill-rule="evenodd" transform="matrix(1 0 0 -1 1615 1049)"/><path d="M17.7645 1.75423C10.9256 0.707787 4.074-0.338654-2.76486-1.38509-3.74529-1.5341-3.75807-3.37934-2.76486-3.22822 4.074-2.18051 10.9256-1.13407 17.7645-0.0876267 18.7321 0.061381 18.7449 1.90493 17.7645 1.75423" fill="#F8F0EC" fill-rule="evenodd" transform="matrix(1 0 0 -1 1716 1033)"/><path d="M22.711 4.29969C13.929 3.54369 5.64234 0.441411-2.97011-1.19528-3.9605-1.38198-3.54363-2.86811-2.55359-2.68141 5.91584-1.07164 14.0723 2.01505 22.711 2.75829 23.7146 2.84437 23.7146 4.38577 22.711 4.29969" fill="#F8F0EC" fill-rule="evenodd" transform="matrix(1 0 0 -1 1712 1038)"/><path d="M13.774-1.48174-2.73948-1.48174C-3.72747-1.48174-3.74018-3.4819-2.73948-3.4819L13.774-3.4819C14.762-3.4819 14.762-1.48174 13.774-1.48174" fill="#F8F0EC" fill-rule="evenodd" transform="matrix(1 0 0 -1 1718 1040)"/><path d="M21.6754 3.32186C13.3087 2.51914 5.08664 1.03425-3.01654-1.15409-3.9916-1.41682-3.58309-2.90667-2.59497-2.64253 5.36358-0.490355 13.4403 0.988155 21.6754 1.77918 22.6769 1.87455 22.6769 3.42007 21.6754 3.32186" fill="#F8F0EC" fill-rule="evenodd" transform="matrix(1 0 0 -1 1712 1046)"/><path d="M10.377 131.101C10.5416 132.173 8.96339 132.635 8.7848 131.553 7.09671 120.596 5.38143 109.582 5.16169 98.4637 4.95591 87.3325 7.46747 76.2366 6.43823 65.1227 5.39502 53.8959 1.62089 43.0881-0.163486 31.9782-1.96145 20.7315-2.78492 9.35002-3.60839-2.01058-3.69069-3.10513-2.04376-3.10008-1.96145-2.01058-1.12401 9.74601-0.273357 21.5325 1.68922 33.1553 3.43244 43.3622 6.72632 53.2756 7.92017 63.5755 9.14197 74.1431 6.87734 84.6006 6.79503 95.1628 6.68516 107.243 8.53787 119.208 10.377 131.101" fill="#517996" fill-rule="evenodd" transform="matrix(1 0 0 -1 1673 1075)"/><path d="M4.2999 4.93041C2.49442 7.11957-1.35306 0.972919-2.25598-0.0962766-2.89487-0.872441-3.8257-1.8142-3.27011-2.85784-2.76992-3.8122-1.81159-3.7996-0.991961-3.09941-0.131064-2.37401 0.397014-1.2796 1.21626-0.490835 2.09129 0.374603 3.10542 1.11261 3.73055 2.16885 4.16119 2.89425 4.98044 4.10348 4.2999 4.93041" fill="#6F5E61" fill-rule="evenodd" transform="matrix(1 0 0 -1 1591 729)"/><path d="M4.16146 4.90629C2.35736 7.10786-1.50132 0.96074-2.38943-0.120793-3.04158-0.884413-3.95795-1.82625-3.41653-2.86997-2.91673-3.8244-1.95912-3.8244-1.12637-3.12451-0.265747-2.39905 0.247801-1.30456 1.06642-0.502778 1.95492 0.362728 2.95414 1.10079 3.5788 2.14451 4.00873 2.88257 4.84148 4.09155 4.16146 4.90629" fill="#6F5E61" fill-rule="evenodd" transform="matrix(1 0 0 -1 1648 723)"/><path d="M3.48408 4.87113C1.8929 7.07425-1.47155 0.92378-2.26079-0.145731-2.81947-0.922729-3.63344-1.86508-3.1476-2.90901-2.71021-3.86432-1.87219-3.85136-1.15579-3.16369-0.402638-2.42523 0.0588086-1.33014 0.775539-0.540536 1.54072 0.325442 2.42753 1.06391 2.97384 2.10819 3.35042 2.84666 4.06715 4.05629 3.48408 4.87113" fill="#6F5E61" fill-rule="evenodd" transform="matrix(1 0 0 -1 1722 712)"/><path d="M3.64068-3.4447C6.4974-2.49012 1.13587 2.67781 0.263257 3.77282-0.370108 4.56177-1.08787 5.64382-2.35421 5.46558-3.50828 5.31291-3.78973 4.47283-3.29729 3.54346-2.77658 2.57626-1.77737 1.79957-1.17227 0.84498-0.524965-0.173338-0.0321328-1.268 0.896621-2.12103 1.54353-2.71914 2.57101-3.80119 3.64068-3.4447" fill="#6F5E61" fill-rule="evenodd" transform="matrix(1 0 0 -1 1608 758)"/><path d="M2.98325-3.90615C5.48334-2.85958 0.77893 2.88214 0.0274438 4.09834-0.526515 4.98928-1.15467 6.19147-2.26327 5.99344-3.27293 5.80942-3.51925 4.87607-3.08828 3.84351-2.63257 2.76893-1.7581 1.90639-1.22853 0.859819-0.66204-0.285958-0.23107-1.50215 0.581741-2.44951 1.14824-3.11441 2.04744-4.30221 2.98325-3.90615" fill="#6F5E61" fill-rule="evenodd" transform="matrix(1 0 0 -1 1699 735)"/><path d="M3.0307-4.02014C5.51945-2.97396 0.825291 2.76815 0.061685 3.98435-0.480601 4.8609-1.12118 6.07709-2.23015 5.87945-3.2405 5.69543-3.47436 4.76207-3.04324 3.72951-2.59958 2.65493-1.71261 1.792-1.18286 0.73143-0.616172-0.399952-0.197256-1.61615 0.615833-2.56351 1.18252-3.22841 2.09424-4.4162 3.0307-4.02014" fill="#6F5E61" fill-rule="evenodd" transform="matrix(1 0 0 -1 1680 701)"/></g></svg>