<svg width="470" height="682" xmlns="http://www.w3.org/2000/svg" xmlns:xlink="http://www.w3.org/1999/xlink" xml:space="preserve" overflow="hidden"><defs><clipPath id="clip0"><rect x="3438" y="1211" width="470" height="682"/></clipPath></defs><g clip-path="url(#clip0)" transform="translate(-3438 -1211)"><path d="M94.2287 40.9841C94.7853 36.3012 95.449 31.6205 96.1343 26.9546 95.0424 27.6147 93.9508 28.2427 92.8375 28.8407 93.2442 32.9086 93.715 36.9613 94.2287 40.9841ZM173.285 340.297C174.185 347.899 172.729 355.132 165.236 360.863 138.52 381.26 118.826 339.967 114.48 319.739 113.11 313.312 112.917 306.745 112.211 300.225 111.697 295.418 110.734 290.723 109.556 286.055 109 283.858 108.379 281.674 107.737 279.49 103.99 266.873 100.159 254.606 99.3665 241.378 99.1524 237.765 98.4462 230.474 97.5042 221.723 94.914 197.28 90.5469 161.319 90.5469 161.319 90.5469 161.319 82.6689 202.904 83.4826 217.484 83.6538 220.467 84.0605 223.39 84.66 226.232 85.4733 230.319 86.6936 234.278 88.0422 238.204 88.77 240.308 89.5192 242.398 90.2899 244.488 91.9168 248.87 93.5867 253.253 94.9782 257.763 95.0211 257.904 95.064 258.046 95.1065 258.187 100.116 274.681 97.7183 291.571 96.8189 308.41 96.2627 318.764 96.2627 329.101 98.917 339.313 98.9812 339.532 99.0453 339.769 99.1095 339.988 102.385 352.431 107.651 364.463 108.85 377.378 109.728 386.898 107.951 398.131 99.2382 403.643 98.7245 403.96 98.2321 404.256 97.7183 404.492 97.2472 404.759 96.7335 404.995 96.2627 405.184 88.5772 408.326 81.2349 404.838 76.632 397.518 70.1672 387.211 65.2435 375.698 62.2038 363.913 59.2711 352.603 58.1579 340.727 59.8703 329.131 60.4485 325.142 61.5188 321.357 62.8033 317.664 65.4151 310.296 68.9256 303.29 71.302 295.766 71.58 294.87 71.8583 293.959 72.0937 293.048 75.8829 278.987 74.2772 264.739 71.6229 250.568 71.4091 249.359 71.1733 248.166 70.9163 246.955 69.5464 239.901 67.9837 232.878 66.8063 225.904 66.1855 231.228 65.201 236.474 63.3812 241.582 62.7175 243.468 61.9255 245.336 60.9835 247.175 59.4211 250.3 57.6225 253.303 55.6531 256.207 53.2771 259.79 50.7082 263.247 48.0964 266.655 42.916 273.395 37.7781 280.339 31.3988 286.008 25.7472 291.021 18.9828 294.964 11.4473 296.158 9.04997 296.55 5.49617 296.88 2.39227 296.299 1.81439 296.205 1.27905 296.078 0.74371 295.905-1.48237 295.198-3.25927 293.897-3.92295 291.587-5.44282 286.308-3.53758 279.16-1.86775 274.147 0.0374919 268.32 2.90598 262.868 6.05278 257.621 12.9246 246.044 21.4876 235.062 25.6405 222.087 28.1665 214.262 27.9953 206.172 28.9156 198.097 29.7293 190.981 32.0841 184.571 35.8087 178.476 38.1423 174.674 40.8395 171.062 43.5797 167.447 46.3627 163.739 49.1667 160.049 51.6285 156.169 51.6073 155.557 51.586 154.943 51.5644 154.331 51.3506 149.161 51.1148 143.992 50.7936 138.84 52.1639 136.705 53.5125 134.568 54.8611 132.429 57.6013 128.017 60.2556 123.554 62.7604 119.03 63.852 117.097 64.8798 115.149 65.9072 113.186 71.73 102.048 76.5466 90.4702 79.6508 77.9797 80.1429 76.0484 80.5712 74.1006 80.9778 72.1523 83.8034 58.9865 85.2808 45.5724 86.2653 32.124 82.9902 33.6008 79.6508 34.8886 76.1828 35.9883 75.2409 36.286 74.6626 34.8417 75.6046 34.5287 79.2867 33.3648 82.9044 31.9504 86.394 30.3472 86.8223 23.9348 87.1431 17.5203 87.4643 11.1165 87.5068 10.4092 87.5497 9.70212 87.5926 8.99256 87.6355 7.99607 89.1983 8.23175 89.1341 9.22824 89.0912 9.97642 89.0483 10.7116 89.0271 11.4446 88.7271 17.4795 88.4059 23.5277 87.9996 29.5781 88.8558 29.1536 89.6904 28.7465 90.5469 28.3069 90.4399 25.8253 90.3544 23.3328 90.2257 20.8252 90.0758 17.7819 89.9262 14.7387 89.7546 11.6825 89.5408 7.85026 89.3054 4.02059 89.07 0.190563 88.9842-0.821082 90.5469-0.992517 90.6111 0.0191285 90.8894 4.11263 91.1248 8.19097 91.3177 12.2975 91.4889 15.1458 91.6385 18.0046 91.7456 20.8382 91.9381 20.9558 92.0668 21.1272 92.0881 21.3911 92.2809 23.3328 92.4734 25.2464 92.6663 27.1433 93.9291 26.4381 95.1711 25.7203 96.4339 24.9465 96.6264 23.6071 96.8189 22.2695 97.0118 20.945 97.0759 20.5635 97.333 20.3538 97.6325 20.3152 97.0759 27.3812 95.9843 34.4493 95.064 41.4854 94.3574 47.1265 93.7366 52.7651 93.5654 58.4058 93.3084 67.1865 93.1584 76.2523 93.4154 85.3478 93.4796 86.951 93.5438 88.5689 93.6296 90.1721 94.2287 103.179 95.8131 116.154 99.2808 128.314 101.957 137.725 107.801 146.381 111.697 155.415 116.15 165.766 119.96 176.386 123.15 187.179 126.789 199.449 129.765 212.361 136.765 223.264 140.083 228.448 142.973 231.543 144.493 237.576 146.355 244.897 147.468 252.342 149.138 259.696 155.153 286.213 161.255 312.967 172.236 337.946 172.579 338.73 172.943 339.512 173.285 340.297" fill="#98B5A5" fill-rule="evenodd" transform="matrix(1 0 0 -1 3547 1689)"/><path d="M88.8387 149.748C88.7095 150.001 88.5803 150.254 88.4511 150.49 88.1927 150.963 87.913 151.39 87.6117 151.783 82.7461 158.348 72.714 157.558 66.6648 152.652 61.7133 148.643 59.8619 142.442 55.7286 137.803 51.6812 133.276 46.0196 130.625 41.9721 126.097 33.8777 117.024 31.2082 104.039 25.1159 93.6879 21.1331 86.9025 16.2896 80.8613 11.1444 74.9582 8.28104 71.7081 5.63317 68.3652 3.48045 64.7193 2.36096 62.8902 1.37067 60.9636 0.530873 58.9438-0.524016 56.3252-2.09534 51.7176-3.19354 46.2426-4.14052 41.4617-4.76486 36.0019-4.39892 30.6524-4.48517 26.3772-4.57106 6.98587-4.50682 2.7908-4.48517 2.2525-2.67674 4.70002-1.5356 2.18979-1.32051 1.70079-1.12671 1.02403-0.975853 0.092072-0.825361-0.82466 0.552526-0.556419 0.552526 0.295428 1.06896 14.2922 8.47484 26.4573 16.548 37.4073 17.4733 38.6528 18.3561 39.8853 19.2388 41.1134 21.6929 44.6814 23.8243 48.2772 25.4389 52.4763 27.7638 58.5331 30.8209 63.8523 35.1264 68.7285 42.5106 77.0729 51.7888 83.3998 60.2495 90.5633 69.2267 98.1683 76.8906 107.084 82.4448 117.53 87.0732 126.192 93.5318 139.918 88.8387 149.748" fill="#98B5A5" fill-rule="evenodd" transform="matrix(1 0 0 -1 3643 1650)"/><path d="M15.9022 68.6493C17.0467 74.7739 20.2933 79.7385 22.7492 85.3464 23.3526 86.7716 18.7326 112.186 18.6493 111.734 18.0248 117.043 17.0467 122.273 15.2153 127.364 13.8831 124.091 12.3639 120.991 10.9905 118.282 8.32646 113.004 5.66238 107.568 4.70518 101.666 3.72704 95.4314 4.91344 89.1971 5.51693 82.9793 6.26623 75.4482 5.24622 68.8839 1.20878 62.3697-0.643551 59.3466-2.78716 56.4818-4.61855 53.4587-1.82959 49.7617 0.979945 46.0835 3.4567 42.2141 3.43576 41.6021 3.41483 40.9922 3.37332 40.3823 3.16506 35.2289 2.93622 30.0754 2.62401 24.9384 3.97681 22.8098 5.35053 20.6791 6.68239 18.5487 9.42949 14.1482 12.0936 9.69998 14.5909 5.18983 15.6733 3.26451 16.7139 1.32048 17.7336-0.635775 18.0667-0.27705 18.3786 0.0672835 18.6908 0.428528 21.5837 3.73549 23.8107 7.38248 24.2683 11.8142 24.8928 17.7186 22.8116 23.6086 21.1675 29.1831 17.4214 41.9464 13.4045 55.243 15.9022 68.6493" fill="#789E88" fill-rule="evenodd" transform="matrix(1 0 0 -1 3595 1575)"/><path d="M193.602 185.635C188.655 183.611 183.86 181.287 179.216 178.649 172.866 175.054 166.818 170.907 161.203 166.184 156.235 161.992 151.526 157.407 147.746 152.085 143.75 146.449 141.094 140.028 137.53 134.14 130.38 122.396 120.92 112.569 112.648 101.688 108.933 96.7903 105.671 91.4976 103.943 85.5491 102.971 82.1576 102.496 78.6557 101.589 75.2663 101.243 73.9783 100.789 72.77 100.314 71.5899 95.3248 75.9718 94.6121 84.4491 95.0226 92.0177 93.921 90.1966 92.9273 88.2806 92.0849 86.2698 91.0265 83.6656 89.4714 79.0788 88.3697 73.6331 88.413 75.2339 88.4777 76.8523 88.5643 78.453 87.2251 75.1563 85.6269 72.0147 83.6179 69.2382 82.9485 68.278 82.214 67.3695 81.4799 66.4742L81.4366 66.5669C80.0757 77.3374 78.7368 88.1234 76.5552 98.7687 74.4168 109.162 71.5658 119.412 70.0322 129.915 68.5201 140.011 69.1898 150.311 67.4184 160.359 65.8636 169.199 61.6732 176.748 56.4462 183.924 51.2622 191.035 45.3441 197.709 41.2617 205.558 36.4886 214.713 35.9914 225.231 31.8231 234.603 27.2009 244.949 19.8786 253.883 13.1827 262.926 7.84772 270.102 2.51276 277.275-2.8222 284.45-3.40535 284.357-3.92386 284.23-4.46368 284.057 0.0505512 277.981 4.58644 271.89 9.079 265.815 15.1051 257.73 21.4984 249.801 26.6391 241.134 29.3389 236.597 31.5422 231.824 33.011 226.737 34.5012 221.556 35.3436 216.188 37.1581 211.085 39.9228 203.189 44.9123 196.453 49.9663 189.875 55.2366 182.998 60.8092 176.057 63.8332 167.846 67.5264 157.753 66.7276 146.842 67.6777 136.321 68.585 126.401 70.9176 116.711 73.1422 107.026 75.6694 95.925 77.5055 84.7488 78.974 73.4452 79.3629 70.5864 79.7301 67.7146 80.119 64.8558 78.7798 63.3175 77.3542 61.8592 75.9074 60.4439 78.7368 47.2889 80.2053 33.8797 81.1774 20.4423 77.9161 21.9161 74.5681 23.2041 71.1122 24.3024 70.1402 24.6021 69.5784 23.1565 70.5287 22.8437 74.2222 21.6809 77.8294 20.2699 81.307 18.6666 81.7392 12.2587 82.0844 5.84637 82.4086-0.550769 82.9051-0.486206 83.4236-0.380525 83.9421-0.222904 84.1797-0.158342 84.439-0.078269 84.6979 0.0122634 84.9138 0.0768263 85.1301 0.156899 85.346 0.247431 85.6482 0.379082 85.9508 0.497748 86.2531 0.629399 86.426 3.47305 86.5556 6.33186 86.6853 9.16469 86.8579 9.28119 86.9875 9.45144 87.0308 9.71474 87.2251 11.6545 87.3977 13.5683 87.5923 15.4648 88.8669 14.7593 90.1195 14.0408 91.3721 13.2682 91.5667 11.9308 91.761 10.593 91.9556 9.26821 92.0202 8.88841 92.2795 8.67921 92.5817 8.64025 92.0202 15.7 90.9186 22.7658 90.0115 29.7974 90.2491 29.3119 90.4217 28.6367 90.573 27.7112 90.7456 26.7987 92.1065 27.0659 92.1065 27.9139 92.625 41.8411 100.033 53.945 108.112 64.8407 109.04 66.0793 109.926 67.3071 110.79 68.5283 109.3 68.4829 107.831 68.5626 106.362 68.7978 104.483 69.1108 102.884 69.7558 101.546 70.6513 102.301 72.4075 102.971 74.2283 103.446 76.207 105.001 82.8804 106.276 89.0337 109.904 94.9844 116.708 106.085 126.428 115.222 133.944 125.85 141.698 136.809 146.278 149.62 155.911 159.213 163.039 166.34 171.246 172.4 180.037 177.361 184.552 179.919 189.239 182.165 194.012 184.129 194.941 184.504 194.53 186.03 193.602 185.635" fill="#789E88" fill-rule="evenodd" transform="matrix(1 0 0 -1 3552 1677)"/><path d="M31.4389 199.953C30.1719 198.491 28.9463 196.983 27.7 195.491 22.4856 189.252 16.9599 185.245 9.23214 182.699 8.77524 182.556 8.2976 182.401 7.8196 182.243 6.84322 192.111 8.17282 201.95 10.728 211.489 13.5534 221.94 17.6041 232.012 21.4678 242.103 24.3343 249.567 27.2013 257.033 30.0682 264.482 29.5902 264.748 29.0918 264.983 28.6138 265.172 22.5689 249.867 16.316 234.559 11.2889 218.922 8.46384 210.106 6.30337 200.992 5.95014 191.704 5.82537 188.356 5.97088 185.054 6.3241 181.757 2.75109 180.609-1.09185 179.336-4.56119 177.622-1.96455 170.252 1.50479 163.241 3.85224 155.716 5.95014 157.697 8.11061 159.581 10.3748 161.246 12.286 153.405 14.2803 145.546 14.675 137.469 15.1941 127.459 11.7666 118.927 9.27397 109.449 4.9945 93.3103 7.05094 76.4774 9.6272 60.2446 12.7637 40.397 16.9391 20.027 11.8288 0.150194 11.58-0.825343 13.0754-1.25101 13.3454-0.275475 22.195 34.1246 3.6649 68.2435 9.41912 102.753 10.8317 111.398 14.7579 119.397 15.9005 128.105 17.0224 136.7 15.6306 145.343 13.7612 153.719 13.1377 156.564 12.4316 159.377 11.7458 162.205 16.9391 165.773 22.6726 168.194 29.1748 168.366 28.6138 178.721 28.6138 189.063 31.2519 199.278 31.3145 199.498 31.3767 199.735 31.4389 199.953" fill="#789E88" fill-rule="evenodd" transform="matrix(1 0 0 -1 3614 1549)"/><path d="M34.1304 78.9319C30.9929 74.983 27.918 70.9231 24.654 67.0704 21.3687 63.1535 16.0408 65.3473 11.5762 64.844 10.1441 64.6843 8.75399 64.3687 7.40615 63.8785 6.85855 61.6694 6.24789 59.4731 5.59493 57.279 1.88863 44.5946-1.92303 32.2618-2.70214 18.9631-2.934 15.3299-3.62889 7.99932-4.55565-0.796086-4.30263-0.623371-4.02919-0.401671-3.75504-0.162918-0.0487388 3.12085 3.21533 6.18472 7.89067 8.03343 12.1234 9.69019 16.525 10.3063 21.0527 10.0548 21.3687 10.0378 21.7056 10.3063 21.7898 10.639 27.3285 32.94 31.877 55.4622 35.4363 78.1728 35.5413 78.8506 34.678 79.6267 34.1304 78.9319" fill="#789E88" fill-rule="evenodd" transform="matrix(1 0 0 -1 3649 1467)"/><path d="M-2.18434-0.118962-2.26539-0.106383C-3.52352-0.0812251-4.49725 1.00381-4.47698 2.29802L-2.04214 88.6011C-2.02187 89.8931-0.926212 90.9785 0.291035 90.8739 1.54881 90.847 2.5428 89.7637 2.52289 88.4699L0.0880443 2.16648C0.047516 0.899585-0.967089-0.118962-2.18434-0.118962" fill="#915851" fill-rule="evenodd" transform="matrix(1 0 0 -1 3641 1801)"/><path d="M102.452 113.891 102.452 3.67034C102.452 1.52655 100.685-0.22517 98.5347-0.22517L-0.652114-0.22517C-2.80257-0.22517-4.54817 1.52655-4.54817 3.67034L-4.54817 113.891C-4.54817 116.035-2.80257 117.775-0.652114 117.775L98.5347 117.775C100.685 117.775 102.452 116.035 102.452 113.891" fill="#E0CFC7" fill-rule="evenodd" transform="matrix(1 0 0 -1 3590 1759)"/><path d="M102.452 1.02656 102.452-0.314602-4.54817-0.314602-4.54817 0.877457C-0.758752 4.02124 9.14081 12.1744 9.2901 12.662 9.48132 13.2632 22.2764 2.11126 22.2764 2.11126L36.1356 11.2504 47.4829 1.907 61.5128 11.8516 74.3927 1.31208 89.7637 12.662 102.452 1.02656" fill="#FFFFFF" fill-rule="evenodd" transform="matrix(1 0 0 -1 3590 1668)"/><path d="M102.452 10.8077 102.452-0.192666-4.54817-0.192666-4.54817 10.8077 102.452 10.8077" fill="#915851" fill-rule="evenodd" transform="matrix(1 0 0 -1 3590 1716)"/><path d="M-2.24402-0.0967956C-2.36723-0.0967956-2.49045-0.0842014-2.61366-0.071967-3.88701 0.138537-4.76993 1.34147-4.56469 2.62284L13.7546 117.923C13.9602 119.204 15.1719 120.081 16.4245 119.873 17.7183 119.677 18.5808 118.472 18.3755 117.191L0.0562348 1.89021C-0.128588 0.726507-1.11467-0.0967956-2.24402-0.0967956" fill="#915851" fill-rule="evenodd" transform="matrix(1 0 0 -1 3582 1830)"/><path d="M9.10593-0.0795178C7.90238-0.0795178 6.88922 0.822524 6.76253 2.03868L-4.55225 117.332C-4.65783 118.627-3.72912 119.777-2.44147 119.909-1.17492 120.038-0.0135995 119.085 0.112733 117.804L11.4279 2.49708C11.5546 1.21508 10.6047 0.0647657 9.33784-0.0665647L9.10593-0.0795178" fill="#915851" fill-rule="evenodd" transform="matrix(1 0 0 -1 3686 1830)"/><path d="M110.011-0.201772C109.833-0.201772 109.654-0.174749 109.453-0.134755L-2.66998 27.3156C-3.96643 27.6316-4.72592 28.9003-4.4133 30.1578-4.10031 31.4286-2.84872 32.1895-1.55263 31.8869L107.732 5.13042 115.8 301.509C115.845 302.784 116.895 303.798 118.169 303.798L118.236 303.796C119.532 303.761 120.56 302.679 120.516 301.38L112.381 2.09051C112.358 1.38286 112.001 0.715211 111.442 0.283562 111.04-0.0302658 110.526-0.201772 110.011-0.201772" fill="#36303A" fill-rule="evenodd" transform="matrix(1 0 0 -1 3741 1847)"/><path d="M119.492-0.217505C119.307-0.217505 119.123-0.19113 118.938-0.152109L-2.77696 30.0547C-4.02822 30.3708-4.80787 31.6437-4.5002 32.9184-4.17195 34.179-2.89974 34.9406-1.64812 34.6386L117.194 5.14027 122.714 307.467C122.734 308.771 123.821 309.741 125.114 309.783 126.407 309.758 127.453 308.682 127.433 307.381L121.852 2.09376C121.852 1.38343 121.503 0.702013 120.928 0.26881 120.518-0.0473308 120.005-0.217505 119.492-0.217505" fill="#36303A" fill-rule="evenodd" transform="matrix(1 0 0 -1 3443 1871)"/><path d="M398.703 31.8614 398.703 22.3667 110.893-0.504948-4.29767 27.6919-4.29767 38.1267 239.655 53.4954 398.703 31.8614" fill="#F8F0EC" fill-rule="evenodd" transform="matrix(1 0 0 -1 3462 1569)"/><path d="M398.703 32.181 398.703 22.5958 110.893-0.494143-4.29767 27.9717-4.29767 38.5061 109.712 9.51733 398.703 32.181" fill="#36303A" fill-rule="evenodd" transform="matrix(1 0 0 -1 3462 1569)"/><path d="M133.362 4.88057 37.7809-0.559912C37.2789-0.588029 36.7773-0.543597 36.2753-0.420715L-4.5207 9.0964 4.07341 10.8029 47.5463 19.432 99.4039 18.3608 131.522 7.78323 133.634 7.16396C134.91 6.78455 134.68 4.97117 133.362 4.88057" fill="#6F5E61" fill-rule="evenodd" transform="matrix(1 0 0 -1 3511 1540)"/><path d="M122.442 7.59236 29.9089-0.0306347 17.0696-0.689822 15.8854 3.67004-4.45359 79.2052C-4.95237 81.04-3.60195 82.8435-1.71123 82.8932L98.5089 85.3087C99.8387 85.3541 101.023 84.4772 101.397 83.1898L122.442 7.59236" fill="#6F5E61" fill-rule="evenodd" transform="matrix(1 0 0 -1 3489 1530)"/><path d="M134.355 5.0511 38.648-0.57032C38.1454-0.599733 37.6431-0.55382 37.1404-0.426484L-3.70947 9.40741-4.52595 12.4211 37.4546 2.5998 132.513 8.05048 134.628 7.41057C135.905 7.01852 135.675 5.14472 134.355 5.0511" fill="#36303A" fill-rule="evenodd" transform="matrix(1 0 0 -1 3510 1540)"/><path d="M-3.79488-0.600471C-4.21143-0.600471-4.56531-0.289076-4.58631 0.120448-4.60732 0.544143-4.27409 0.910803-3.83654 0.939498L98.5576 7.39518C98.9741 7.44194 99.37 7.10185 99.4117 6.67603 99.4323 6.25234 99.0991 5.88355 98.6615 5.85734L-3.73222-0.600471-3.79488-0.600471" fill="#36303A" fill-rule="evenodd" transform="matrix(1 0 0 -1 3511 1529)"/><path d="M15.0226 0.0853254-4.54407 68.858C-4.75239 69.5308-4.2316 70.2033-3.54388 70.2261L91.3718 73.3025C91.8719 73.3173 92.3299 72.989 92.4551 72.5074L110.376 6.44785C110.542 5.79417 110.084 5.13796 109.396 5.09639L16.1269-0.695257C15.6061-0.726351 15.1474-0.402403 15.0226 0.0853254" fill="#36303A" fill-rule="evenodd" transform="matrix(1 0 0 -1 3495 1523)"/><path d="M61.2953 39.4827C60.5355 46.0995 56.303 53.3959 50.5288 56.7336 47.1642 59.6178 42.7578 61.3983 38.2212 61.973 33.1854 62.6091 27.4115 64.6924 22.3321 63.6222 20.3786 63.2166 18.6203 62.3963 17.0358 61.2843 12.6294 61.0979 6.26921 58.8502 3.16548 55.5517-0.655221 51.4463-3.08625 45.2485-3.30323 39.336-3.36854 37.2039-3.47703 35.0744-3.69401 32.9518-3.88922 30.8901-4.49733 28.7937-4.4752 26.7255-4.43202 23.223-1.11095 21.1285-0.698403 17.7536 0.0831517 11.205 2.36215 5.75716 4.07693-0.504071 4.35922-1.51077 5.85702-1.08098 5.57474-0.0721132 5.5312 0.149274 5.44448 0.359845 5.37917 0.576906 6.11754 0.292058 7.029 0.338211 7.91904 0.695532 9.43861 1.30092 10.6541 2.87768 11.8696 3.91935 14.518 6.16496 17.1442 7.71792 20.3786 8.80574 29.9075 12.0076 58.8857 24.4247 58.8857 24.4247 58.8857 24.4247 62.4459 29.6995 61.2953 39.4827" fill="#36303A" fill-rule="evenodd" transform="matrix(1 0 0 -1 3743 1297)"/><path d="M-4.52758 20.8653C-4.52758 20.8653-2.84479 26.0974-1.75299 26.0974-0.661553 26.0974 32.3157 17.6051 35.8864 16.3233 37.6605 15.6858 39.4117 14.0546 39.4117 14.0546 39.4117 14.0546 39.7983 17.2241 41.0948 19.2976 42.3685 21.3692 54.4448 37.1396 55.741 37.0532 57.015 36.9647 61.4724 35.4402 61.4724 35.4402L38.0246-0.946938C38.0246-0.946938 11.8927 8.52752 8.14012 9.61451 4.36501 10.699-4.52758 20.8653-4.52758 20.8653" fill="#F8F0EC" fill-rule="evenodd" transform="matrix(1 0 0 -1 3845 1333)"/><path d="M8.89769 67.0448 55.5201 55.2298 40.6863-0.889007-2.80827 9.66634C-3.94759 9.93758-4.66249 11.0694-4.43915 12.2213L6.23915 65.3572C6.46249 66.5783 7.69122 67.3495 8.89769 67.0448" fill="#7B9FBA" fill-rule="evenodd" transform="matrix(1 0 0 -1 3832 1378)"/><path d="M8.8212 55.7085 28.883 81.7452C29.4675 82.5217 30.7045 81.9257 30.4795 80.9709L15.6357 20.1723-4.49328-0.898093-2.15407 42.3489 8.8212 55.7085" fill="#7B9FBA" fill-rule="evenodd" transform="matrix(1 0 0 -1 3877 1378)"/><path d="M15.3272 55.8787-4.59148 21.2668-4.59148 5.27161 9.21739-0.759025 29.4089 53.1603 23.5717 58.2411 15.3272 55.8787" fill="#915851" fill-rule="evenodd" transform="matrix(1 0 0 -1 3846 1442)"/><path d="M-1.34135 20.5981C-1.18052 21.1544-0.456292 21.1479-0.295462 20.5874 0.690406 17.0959 1.37418 13.4827 2.03773 9.91313 2.29936 8.62478 2.92312 6.84538 2.78219 5.51979 2.60113 3.41016 0.589598 1.10711-0.496748-0.722075-1.50251-2.43629-4.19782 4.62257-4.19782 6.07388-4.19782 7.90772-2.30699 17.448-1.34135 20.5981" fill="#F8F0EC" fill-rule="evenodd" transform="matrix(1 0 0 -1 3793 1318)"/><path d="M26.9475 8.77966C26.2478 11.4506 26.0294 13.7812 25.6355 16.4917 25.1109 20.2687 23.2526 23.9576 19.2079 24.6973 17.043 25.0901 14.8349 24.5219 12.7578 23.9841 10.0688 23.2882 6.89845 22.9349 4.38415 21.8245 0.645184 20.1806-0.250925 16.4848-1.51891 12.9691-2.89665 9.22506-6.32908 5.50532-3.42124 1.55255-2.50275 0.321455-1.19108-0.457719 0.273671-0.795482 2.15398-1.22131 3.8155-0.416043 5.54273-0.143875 6.52694-0.911815 7.55446-1.04591 8.93184-1.08106 11.0306-1.12926 13.1734-0.824112 15.2941-0.975598 16.1249-1.03685 16.8683-1.19051 17.7211-1.17094 21.416-1.08758 26.0511 1.15753 27.2096 4.95663 27.6909 6.50157 27.3411 7.34888 26.9475 8.77966" fill="#36303A" fill-rule="evenodd" transform="matrix(1 0 0 -1 3762 1236)"/><path d="M35.3763 64.7429 17.2331 24.4276 16.5288 22.8625 13.7328 16.6149 13.007 15.0328 12.5162 13.9049 11.8544 12.4473 11.1287 10.8019 10.4458 9.33216 7.20144 6.5124 5.45107 4.97677-1.01626-0.643684-4.62389 10.4598-4.23956 12.2278-3.68435 14.6864-3.62035 15.0645-3.5989 15.1278-2.72408 19.1515-2.36121 20.7335-1.25114 25.8071-0.888272 27.3744 9.25032 73.3562 35.3763 64.7429" fill="#915851" fill-rule="evenodd" transform="matrix(1 0 0 -1 3646 1535)"/><path d="M84.4829 164.155C84.4829 164.155 61.8875 161.563 55.0636 160.656 49.8704 159.968 45.0855 160.438 40.1712 158.417 35.0427 156.303 31.6092 152.397 28.455 147.92 25.0218 143.019 21.6742 137.9 20.215 132.01 17.2106 119.878 18.1764 104.649 14.2066 92.6643 12.3614 87.0755 8.82079 82.1441 8.45562 76.1095 8.00491 68.9174 10.344 62.5689 8.15515 55.3938 5.83764 47.907 3.027 40.6109 0.902494 33.0552-1.22201 25.4862-3.00328 17.8287-4.50528 10.1063-4.56962 9.67361-4.37625 9.27531-3.94711 9.13687 2.89797 6.88663 9.74341 4.63856 16.6101 2.38832 19.6356 1.39494 22.704 0.0536376 25.8154-0.636765 27.2103-0.941919 28.0686-1.04122 29.163-0.0177584 31.0302 1.74793 32.296 5.10173 33.3905 7.36937 34.7422 10.0911 35.901 12.889 36.9738 15.7212 39.2917 21.8577 41.1582 28.163 43.0897 34.427 47.4886 48.5583 51.8662 62.69 56.2439 76.8213 60.1921 89.5704 64.784 102.468 63.2605 116.035 62.5312 122.758 84.4829 164.155 84.4829 164.155" fill="#F5D2B5" fill-rule="evenodd" transform="matrix(1 0 0 -1 3655 1476)"/><path d="M113.697 91.1695C113.281 104.735 110.464 118.259 110.289 131.767 110.289 131.91 110.333 132.027 110.377 132.128 106.663 140.445 98.4728 146.322 90.7407 150.708 77.439 158.257 63.4164 167.614 47.9087 169.179 47.2752 169.244 47.0566 168.614 47.2314 168.13 38.2981 166.248 29.3429 164.393 20.3877 162.571 15.8664 161.65 11.3669 160.738 6.84559 159.832 4.02823 159.272-0.493092 159.345-2.78654 157.563-4.64316 156.126-3.92216 153.645-3.68206 151.62-3.13593 147.002-2.54645 142.387-1.9566 137.773-1.56349 134.774-1.14852 131.778-0.733546 128.784-1.738 123.13-3.37639 117.58-4.20633 111.896-5.23265 104.711-2.93956 100.24-0.798766 93.8795 2.43357 84.2623 5.09827 74.2945 8.04714 64.6158 11.105 54.5909 16.4344 45.4935 19.361 35.4092 22.4407 24.9017 23.4674 14.1455 23.686 3.21284 34.6286 2.73677 53.1288 3.32743 61.9529 1.24964 66.5835 0.161221 71.1048-0.821285 75.8662-0.816947 77.6136-0.816947 80.3876-0.739951 83.5328-0.658257 89.976 3.84507 95.7641 9.36633 100.023 16.0136 106.467 26.0671 108.716 38.985 111.338 50.4949 112.888 57.281 114.111 64.1661 114.461 71.1286 114.81 77.8373 113.915 84.4738 113.697 91.1695" fill="#F5D2B5" fill-rule="evenodd" transform="matrix(1 0 0 -1 3698 1479)"/><path d="M43.44 65.9754C43.3746 65.849 43.4617 62.4541 43.3312 57.74 43.3091 57.08 43.2875 56.3897 43.2437 55.682 43.2437 55.3838 43.2437 55.0856 43.222 54.7697 43.1349 53.3237 43.0695 51.8149 42.9386 50.275 42.5027 44.5395 40.4968 27.3628 38.8397 22.9465 34.85 12.2134 33.2801-0.908748 33.2801-0.908748 33.2801-0.908748 20.9401 19.2686 17.6697 32.3604 16.9938 35.1105 15.7076 38.0959 14.0722 41.1294 12.9607 43.1719 11.6958 45.2471 10.3876 47.2896 8.60009 50.0552 6.68132 52.7597 4.82799 55.2878 4.17407 56.2005 3.51978 57.0952 2.8879 57.9599-0.687906 62.8007-3.67486 66.6986-4.37252 68.632-6.2038 73.597 6.15826 78.0913 6.15826 78.0913L33.6506 72.5583C33.6506 72.5583 43.6146 66.2715 43.44 65.9754" fill="#915851" fill-rule="evenodd" transform="matrix(1 0 0 -1 3732 1394)"/><path d="M35.5498 31.9222C35.5498 31.9222 34.4426 28.6869 32.8882 24.3459 32.1218 22.2003 31.27 19.7859 30.3544 17.3842L30.2905 17.2113C28.7361 12.9972 27.0541 8.75232 25.7124 5.81469 25.1163 4.52085 24.6052 3.49425 24.1795 2.83065 21.0281-2.04448 4.33478-0.877552 4.33478-0.877552 4.33478-0.877552-6.09867 13.2184-4.22508 17.984L6.59175 45.0003 35.5498 31.9222" fill="#915851" fill-rule="evenodd" transform="matrix(1 0 0 -1 3743 1334)"/><path d="M15.5842 13.8396C11.0942 19.432 0.265451 27.2797-4.40094 30.0031-4.26876 29.9247-4.62075 26.7307-4.62075 26.3559-4.59884 25.0858-4.51084 23.8154-4.33485 22.5562-4.00477 20.0005-3.54215 17.1925-2.13383 14.9679-0.791241 12.8265 0.683527 10.8133 1.78404 8.5211 3.5447 4.82402 6.55996 2.77832 10.0817 0.795871 11.0504 0.262037 12.2608-0.398297 13.5815-0.997188 14.9898 1.93076 16.7066 6.15951 18.3355 10.3622L18.3793 10.5343C17.147 12.0443 16.0465 13.2576 15.5842 13.8396" fill="#733832" fill-rule="evenodd" transform="matrix(1 0 0 -1 3755 1327)"/><path d="M50.2866 56.7318C49.3761 60.8956 45.5114 61.9515 42.5797 65.0892 42.0022 65.7094 41.3805 66.2843 40.7361 66.8132 37.7822 69.1901 33.7621 68.5068 30.1195 69.7169 25.1221 71.3801 19.7917 72.4992 14.5943 71.7056 5.48794 70.3392-3.3962 65.4903-4.26243 53.4381-5.46199 36.9899-3.46309 25.3491 2.73392 14.8795 6.35417 8.76028 14.9276 0.923168 22.2793-0.614494 30.5859-2.34485 35.7168 1.43275 39.981 7.87102 45.2449 15.8209 48.7544 27.613 50.1316 35.4676 50.3977 37.083 50.6422 38.59 50.8421 40.0345 51.0198 41.3245 51.1751 42.5803 51.2639 43.7946 51.5973 47.9387 51.375 51.8223 50.2866 56.7318" fill="#915851" fill-rule="evenodd" transform="matrix(1 0 0 -1 3751 1318)"/><path d="M-2.87981 4.28545C-2.20253 5.00123-1.3821 5.28987-0.705502 4.61547-0.459341 4.36582-0.377401 4.03785-0.336261 3.73656-0.13124 2.21403-1.30016-1.47499-3.24871-0.95312-5.09491-0.459974-4.25375 2.81627-2.87981 4.28545" fill="#1A161C" fill-rule="evenodd" transform="matrix(1 0 0 -1 3777 1283)"/><path d="M-2.76309 4.95781C-2.21094 5.76408-1.4341 6.2864-0.657252 5.37185-0.391454 5.08036-0.309592 4.7028-0.289043 4.35102-0.0845568 2.58698-1.25016-1.69266-3.19261-1.08627-5.23713-0.443391-3.84683 2.79162-3.21282 4.12734-3.0902 4.40655-2.94702 4.69765-2.76309 4.95781" fill="#1A161C" fill-rule="evenodd" transform="matrix(1 0 0 -1 3798 1288)"/><path d="M1.65849 5.84969C1.33324 8.05629 0.891764 10.2432 0.38087 12.4215 0.148436 13.3992-1.45482 12.983-1.22239 12.0057-0.734507 9.86388-0.293036 7.71167 0.0322186 5.53763 0.217859 4.35846 0.61292 3.24442-0.0375883 2.21663-0.850724 0.96624-2.61622 0.660622-4.05686 0.538947-5.12505 0.450196-5.12505-1.10831-4.05686-1.01706-2.03552-0.852438 1.19362-0.148157 1.98336 1.89168 2.42483 2.99713 1.82112 4.7378 1.65849 5.84969" fill="#733832" fill-rule="evenodd" transform="matrix(1 0 0 -1 3788 1299)"/><path d="M9.83194 1.86832C5.63708 1.78432-3.92596 5.67365-4.27385 5.96231-4.81706 6.40189-4.8605 3.35507-1.2092 0.515398 1.96388-1.95837 8.26695-1.06639 9.89693 0.849267 10.3536 1.37712 10.9184 1.88789 9.83194 1.86832" fill="#733832" fill-rule="evenodd" transform="matrix(1 0 0 -1 3778 1306)"/><path d="M11.0543 1.59465C10.39 3.32158 7.91439 4.01181 6.287 4.32328 2.96396 4.96237-1.4598 5.39958-4.41618 3.33542-5.05811 2.88706-4.87459 1.76654-4.00402 1.77807-1.80333 1.80383 0.37386 1.58042 2.5283 1.0367 3.62864 0.755219 4.75136 0.406834 5.7827-0.0815206 6.74541-0.527576 7.63949-1.07399 8.71671-1.14129 10.2292-1.23434 11.6731-0.00692156 11.0543 1.59465" fill="#36303A" fill-rule="evenodd" transform="matrix(1 0 0 -1 3772 1273)"/><path d="M2.49858 2.88281C2.41214 1.59427 2.26096 0.257557 2.08772-1.11406 1.33146-0.947915 0.531802-0.816671-0.246514-0.765842-1.21905-0.701358-2.21329-0.749531-3.12109-0.304971-4.39635 0.322041-5.08787 2.07373-3.85601 3.1802-2.58075 4.36708-0.224815 3.80683 1.26672 3.31144 1.65552 3.1802 2.06638 3.03037 2.49858 2.88281" fill="#36303A" fill-rule="evenodd" transform="matrix(1 0 0 -1 3800 1277)"/><path d="M39.9173 45.2637C35.4269 47.0358 30.8043 48.6088 25.9616 48.8406 22.8796 48.9871 20.2161 48.8733 17.1344 49.4794 15.2412 49.858 13.6127 50.1358 11.6753 49.7266 3.31093 47.9632-2.34658 39.9742-3.66726 32.1209-5.45038 21.6073-4.01961 1.07892-3.75526 0.560335-3.49127 0.0352684-1.81824-1.07173-1.81824-1.07173-1.81824-1.07173 0.691301 4.97068 1.43982 7.21742 1.5499 7.56507 1.61581 7.91055 1.68172 8.2564 0.801387 12.7452 0.449038 17.731 2.8264 21.6292 4.41143 24.2236 8.10948 25.232 10.0465 22.8543L10.2446 22.9878C11.7633 24.1844 11.4993 25.882 12.3138 27.3999 13.0181 28.7146 14.845 29.7733 16.144 30.4362 17.6628 31.1978 20.3483 31.2938 21.6031 32.5452 22.4396 33.3941 22.5497 34.7833 23.0997 35.8287 24.3766 38.2309 26.4458 39.9306 28.8891 40.9261 29.0871 40.8581 29.3073 40.8624 29.5275 40.9829 33.2476 42.967 38.5528 37.0843 41.6783 35.8377 42.6691 35.4458 42.9331 35.5052 44.1216 35.4764 46.6753 35.413 48.5464 35.7193 50.021 33.289 50.8575 31.8693 52.4204 28.7365 52.6623 27.1156 52.7724 26.3588 53.3229 28.3932 53.367 28.8175 54.2915 38.0384 47.5335 42.258 39.9173 45.2637" fill="#36303A" fill-rule="evenodd" transform="matrix(1 0 0 -1 3749 1292)"/><path d="M62.9711 26.3473C59.5572 35.3146 51.5915 43.0285 46.6156 51.1951 46.3254 51.6659 45.7898 51.6702 45.3883 51.3534 43.6481 49.9616 44.2951 46.66 42.8003 45.0471 40.0778 51.2197 39.1407 58.1774 36.3513 64.3586 32.5136 72.8642 26.9577 80.413 24.8825 89.6614 23.0751 97.7792 23.0306 106.345 19.3934 113.976 16.2026 120.671 10.7135 125.924 4.06438 129.125 3.14966 129.562 2.34589 128.208 3.26097 127.769 3.86343 127.47 4.4659 127.129 5.04596 126.796 4.53276 126.526 4.4659 125.569 5.18004 125.308 5.87177 125.065 6.54109 124.82 7.23283 124.577 2.54683 108.341-3.99065 91.5355-4.45939 74.5193-4.70479 65.9849-4.05751 57.3944-3.72285 48.8661-3.45541 42.0114-3.7008 34.8105-1.89341 28.1274-0.309002 22.37 2.74777 19.0908 7.76843 16.1508 9.91049 14.888 10.6467 13.5584 11.9185 11.5687 12.3868 10.8526 12.6326 10.3283 13.3467 9.83335 15.667 8.2295 19.014 8.7693 21.5355 7.29697 26.7347 4.24536 30.2602-1.00118 36.8645-0.782592 43.3579-0.568698 49.427 2.33802 53.9341 6.57183 56.9244 9.38497 59.6465 16.7148 62.034 20.0565 63.5515 22.1402 63.9082 23.9045 62.9711 26.3473" fill="#F5D2B5" fill-rule="evenodd" transform="matrix(1 0 0 -1 3796 1465)"/><path d="M31.3523 34.4312 31.3523 34.3705C31.3099 34.3077 31.2676 34.1967 31.2256 34.0563 31.0989 33.6666 30.8245 32.9775 30.402 32.1335 29.3678 30.0538 27.32 26.9919 23.6888 24.8953 19.1287 22.2543 10.0509 18.7381 5.32209 16.3754 2.80983 15.1106 0.0655216 13.9064 0.74101 10.6872 0.31892 10.4215-0.0821735 10.1554-0.504625 9.88925-1.7499 9.04531-3.81872 8.07782-4.38886 6.54471-4.70561 5.74889-4.64226 3.27738-4.38886 2.52753-3.94578 1.27741-3.03789 0.806238-1.77126 0.494157-0.821373 0.259648 0.107875 0.322136 1.0154 0.510677 2.53543-1.4893 6.16663-0.192851 8.32016 0.307771 12.162 1.21456 15.8356 2.54225 19.4668 4.02724 21.9577-1.02028 31.3523 5.1057 34.3076 6.87331 37.2633 8.62441 40.9579 9.76356 43.1954 12.4527 45.1799 14.8445 45.2009 18.2375 45.2009 21.1759 45.2009 22.3319 45.3489 23.754 45.6023 25.3019 45.6653 25.8025 45.771 26.3175 45.8767 26.8515 46.0668 27.9594 46.3202 29.0842 46.5946 30.1795 46.7209 30.7261 46.8479 31.258 46.9953 31.7902 47.1223 32.2761 47.27 32.7598 47.3967 33.2123 47.3967 33.7589 31.3523 34.4312 31.3523 34.4312" fill="#915851" fill-rule="evenodd" transform="matrix(1 0 0 -1 3611 1555)"/><path d="M5.08892 5.36935C1.91887 3.95574-1.23032 2.44988-4.29458 0.852117-5.20349 0.383574-4.40037-0.920093-3.51304-0.45363-0.427188 1.14656 2.70077 2.65207 5.89205 4.06394 6.8222 4.4763 6.01907 5.77789 5.08892 5.36935" fill="#733832" fill-rule="evenodd" transform="matrix(1 0 0 -1 3617 1543)"/><path d="M13.2052 10.3078C7.71724 6.651 1.59845 3.88468-4.24714 0.879073-5.17223 0.415464-4.37337-0.926503-3.46938-0.460755 2.39731 2.54485 8.51647 5.30903 13.9834 8.96583 14.8244 9.5243 14.0256 10.8705 13.2052 10.3078" fill="#733832" fill-rule="evenodd" transform="matrix(1 0 0 -1 3613 1551)"/><path d="M9.45108 7.34129C4.86058 5.33842 0.311732 3.20815-4.19545 0.944299-5.1091 0.486434-4.32008-0.962444-3.40607-0.506895 0.976497 1.69441 5.40072 3.77102 9.86625 5.72023 10.8011 6.1198 10.4064 7.74742 9.45108 7.34129" fill="#733832" fill-rule="evenodd" transform="matrix(1 0 0 -1 3619 1553)"/><path d="M4.24112 5.33641C1.42913 3.81834-1.59127 2.74606-4.23645 0.937565-5.0694 0.370101-4.29887-0.994782-3.44512-0.424783-0.799581 1.38335 2.22046 2.4578 5.01164 3.97623 5.90736 4.45751 5.11567 5.82022 4.24112 5.33641" fill="#733832" fill-rule="evenodd" transform="matrix(1 0 0 -1 3637 1548)"/><path d="M-4.53741 66.234 18.5074 7.35147 29.9295 0.0599285 33.4627 14.7334 21.663 74.0598-4.53741 66.234" fill="#915851" fill-rule="evenodd" transform="matrix(1 0 0 -1 3812 1865)"/><path d="M14.3983 36.9627C14.3983 36.9627 22.9042 23.6007 27.6025 17.3267 29.5395 14.7462 29.8961 14.6146 31.9224 12.0989 33.3917 10.2791 35.3291 8.58824 36.1976 6.33559 37.3777 3.25771 34.8171 2.1449 32.3231 1.26633 30.3634 0.572621 28.1591 0.048289 26.0436 0.153155 22.1249 0.349555 16.6473 8.1958 8.43067 12.7033 0.191761 17.2219-0.387121 19.3697-1.54489 25.0548-2.72496 30.7399-4.50622 41.1401-4.50622 41.1401L14.3983 36.9627" fill="#915851" fill-rule="evenodd" transform="matrix(1 0 0 -1 3831 1887)"/><path d="M-4.46125 31.1608C-4.46125 31.1608 5.0648 22.8963 8.80021 20.0371 12.5574 17.1914 18.9006 14.9818 23.9401 15.7618 28.9792 16.5419 24.5144 23.129 24.5144 23.129 24.5144 23.129 33.2447 14.9818 35.8308 10.1878 38.4168 5.37811 40.3616 1.10286 39.1905 0.322815 38.0411-0.455088 25.6196 1.62373 19.409 5.37811 13.2205 9.14822-0.571114 19.3879-2.38356 22.8963-4.17391 26.3915-4.46125 31.1608-4.46125 31.1608" fill="#E0CFC7" fill-rule="evenodd" transform="matrix(1 0 0 -1 3834 1893)"/><path d="M21.8188 70.9363-4.50698 13.222-1.8548-0.0638569 11.1016 7.64767 45.4929 57.6267 21.8188 70.9363" fill="#915851" fill-rule="evenodd" transform="matrix(1 0 0 -1 3752 1805)"/><path d="M18.4237 39.3253C18.4237 39.3253 14.7539 23.7778 13.5161 15.9442 12.9951 12.7152 13.1472 12.3719 12.7563 9.1167 12.4737 6.78893 12.6258 4.18161 11.6052 1.97214 10.2156-1.05778 7.60983 0.0272999 5.24291 1.21721 3.35401 2.17125 1.46474 3.40047 0.0534733 5.0017-2.53059 7.99231-0.728393 17.493-3.22538 26.6348-5.72273 35.7792-4.57197 37.724-1.29275 42.5652 1.96442 47.4217 8.19623 56.0099 8.19623 56.0099L18.4237 39.3253" fill="#915851" fill-rule="evenodd" transform="matrix(1 0 0 -1 3745 1837)"/><path d="M0.346422 53.0332C0.346422 53.0332 1.05703 40.4046 1.63477 35.7182 2.23435 31.0193 5.16672 24.9121 9.38744 21.8145 13.6082 18.7147 15.2962 26.5395 15.2962 26.5395 15.2962 26.5395 15.5405 14.5491 13.8524 9.34267 12.1418 4.13411 10.3649-0.253211 8.94294 0.0476338 7.52135 0.34633 0.10215 10.7484-1.58629 17.8444-3.27472 24.9529-5.60715 42.0338-4.3188 45.77-3.00787 49.5187 0.346422 53.0332 0.346422 53.0332" fill="#E0CFC7" fill-rule="evenodd" transform="matrix(1 0 0 -1 3743 1847)"/><path d="M130.543 3.413C130.543 3.413 122.12 0.331489 113.165-0.218227 112.635-0.244559 112.126-0.284597 111.574-0.297943 106.245-0.455211 100.873 0.398219 97.1367 3.413 86.701 11.7785 69.0584 10.7299 68.749 11.7785 68.4173 12.8271 58.5127 42.6567 55.395 58.3644 52.2557 74.0583 43.4563 76.6673 41.0686 104.414 38.6808 132.158 1.87004 258.923-3.34758 284.171-8.56556 309.416 6.31381 359.236 6.31381 359.236L6.53471 371.213 6.71171 380.871 6.80021 385.974C6.80021 385.974 28.909 385.582 50.3324 385.063 71.7335 384.544 94.019 390.684 94.019 390.684L95.8102 385.236 98.7063 376.475 113.74 331.036 82.9426 251.481C82.9426 251.481 90.8797 191.285 98.1756 164.596 105.494 137.901 130.543 3.413 130.543 3.413" fill="#DCA877" fill-rule="evenodd" transform="matrix(1 0 0 -1 3712 1835)"/><path d="M74.3455 296.715C74.3455 296.715 119.432 164.195 124.469 148.214 132.036 124.164 98.0083 91.4782 85.4718 78.5372 72.913 65.5937 18.1549-0.285784 18.1549-0.285784 18.1549-0.285784 5.93192 12.7875 0.782876 33.1837-1.34382 41.4895-7.74662 53.9602-2.30648 60.3671 7.40904 71.8683 32.6614 108.495 33.3106 115.793 35.0569 135.011 12.6701 228.218 16.5877 241.159 20.5054 254.1 74.3455 296.715 74.3455 296.715" fill="#DCA877" fill-rule="evenodd" transform="matrix(1 0 0 -1 3751 1799)"/><path d="M87.5131 7.02119C82.9851 5.47026 78.042 4.64972 73.5793 3.76851 63.5175 1.81451 53.237 0.695436 42.9787 0.0401015 26.486-1.0207 11.0433-1.2147-4.48705 2.02324L-4.31216 11.1986C9.22763 8.12553 22.5268 7.94593 37.0506 8.66227 47.0032 9.1404 56.934 9.94621 66.7114 11.6017 71.8517 12.4805 78.9606 13.1821 84.6255 15.3469L87.5131 7.02119" fill="#FFFFFF" fill-rule="evenodd" transform="matrix(1 0 0 -1 3723 1466)"/><path d="M-2.94209-0.693145-3.68362 18.2308-2.42479 18.3071-1.68326-0.616838-2.94209-0.693145" fill="#DCA877" fill-rule="evenodd" transform="matrix(1 0 0 -1 3736 1471)"/><path d="M-1.52172-0.693431-4.86336 17.0296-3.20445 17.3072 0.137186-0.415914-1.52172-0.693431" fill="#DCA877" fill-rule="evenodd" transform="matrix(1 0 0 -1 3804 1467)"/><path d="M7.39735 17.0225C6.89382 17.0225 6.3682 16.9821 5.86467 16.9004 1.2887 16.173-1.95224 12.3896-1.36074 8.46538-0.7696 4.54152 3.41252 1.93834 7.96677 2.66573 12.5431 3.39275 15.7837 7.17653 15.1925 11.1026 14.9077 12.956 13.8351 14.5804 12.1272 15.6794 10.7476 16.5626 9.10524 17.0225 7.39735 17.0225ZM6.45617-0.716904C0.982091-0.716904-3.70393 2.87848-4.47027 7.96947-5.32385 13.6695-0.901004 19.1231 5.38286 20.122 8.3827 20.5999 11.3608 20.0066 13.7913 18.4477 16.2872 16.839 17.8858 14.4059 18.3238 11.5989 19.1557 5.89629 14.7328 0.445349 8.44859-0.558091 7.79157-0.66484 7.11283-0.716904 6.45617-0.716904" fill="#915851" fill-rule="evenodd" transform="matrix(1 0 0 -1 3767 1471)"/><path d="M-1.34288 20.5534C-1.18379 21.1078-0.469679 21.1014-0.310914 20.5405 0.681365 17.0488 1.35611 13.4367 2.03053 9.86553 2.28886 8.5783 2.90374 6.79896 2.78467 5.47341 2.58654 3.36527 0.562292 1.0598-0.489524-0.76897-1.50165-2.48133-4.20032 4.57729-4.20032 6.02784-4.20032 7.86269-2.31499 17.4012-1.34288 20.5534" fill="#FFFFFF" fill-rule="evenodd" transform="matrix(1 0 0 -1 3754 1303)"/><path d="M16.565 1.23677C9.69595 1.63328 2.55939 2.62532-4.1086 0.423499-5.09001 0.099691-4.66609-1.47475-3.68505-1.15094 2.82725 1.00103 9.85202-0.00712078 16.565-0.394267 17.5907-0.453107 17.5907 1.17793 16.565 1.23677" fill="#1A161C" fill-rule="evenodd" transform="matrix(1 0 0 -1 3766 1235)"/><path d="M1.10337 16.0448C0.883022 10.1494-1.17426 4.76394-4.97004-0.0358054-5.63109-0.870655-4.11294-1.66605-3.45148-0.837772 0.490928 4.17644 2.64623 9.89068 2.86658 16.0448 2.91559 17.0697 1.15238 17.0675 1.10337 16.0448" fill="#1A161C" fill-rule="evenodd" transform="matrix(1 0 0 -1 3781 1231)"/><path d="M-2.00902 12.1071C-1.88157 7.90312-2.66629 3.86494-4.38389 0.0229342-4.76554-0.872205-3.45065-1.65408-3.04794-0.752594-1.2243 3.34275-0.354966 7.62403-0.461 12.1071-0.503484 13.0919-2.03009 13.0961-2.00902 12.1071" fill="#1A161C" fill-rule="evenodd" transform="matrix(1 0 0 -1 3781 1227)"/><path d="M0.839483 0.0644813C-2.60168 6.23379-5.58886 13.3563-1.00037 19.7244-0.355227 20.5699-1.86096 21.3566-2.48221 20.5159-7.42871 13.6718-4.37025 5.94633-0.66625-0.726585-0.140179-1.63004 1.34126-0.834654 0.839483 0.0644813" fill="#1A161C" fill-rule="evenodd" transform="matrix(1 0 0 -1 3756 1261)"/><path d="M0.843628 0.0446874C-0.74787 2.94065-1.91739 6.01572-2.6841 9.31351-2.91424 10.2955-4.25644 9.87846-4.02631 8.89206-3.24045 5.47221-1.994 2.2489-0.3642-0.753873 0.115229-1.61819 1.3039-0.823992 0.843628 0.0446874" fill="#1A161C" fill-rule="evenodd" transform="matrix(1 0 0 -1 3760 1259)"/><path d="M5.63118-0.147868C4.83982 3.1233 3.54927 6.20793 1.67542 8.94873 0.322037 10.9086-1.26034 13.3005-3.80058 12.8096-4.75811 12.6273-4.34166 11.1103-3.40473 11.2922-1.17691 11.7221 0.925599 7.45558 1.80004 5.83301 2.88288 3.82035 3.63236 1.67427 4.17378-0.564357 4.40277-1.54665 5.86018-1.13233 5.63118-0.147868" fill="#1A161C" fill-rule="evenodd" transform="matrix(1 0 0 -1 3789 1251)"/><path d="M33.4434 0.647029C22.1787 53.12 10.6936 105.562 0.112143 158.185 0.244478 158.242 0.376814 158.334 0.465158 158.508 5.66736 168.169 10.8479 177.827 16.0501 187.489 16.5351 188.375 15.1905 189.166 14.7055 188.278 9.70161 178.965 4.67538 169.652-0.328856 160.343-1.23249 164.808-2.11413 169.276-3.01812 173.748-3.21644 174.735-4.7154 174.317-4.51708 173.333 6.90165 115.482 19.5554 57.8778 31.9445 0.229336 32.1428-0.750913 33.6637-0.34652 33.4434 0.647029" fill="#BA8452" fill-rule="evenodd" transform="matrix(1 0 0 -1 3790 1727)"/><path d="M11.5289 0.874824C9.86559 5.97832 8.20262 11.084 6.53931 16.1875 4.876 21.3709 4.4129 26.086 4.22311 31.5284 3.90751 40.9824 0.560263 49.7457-2.89288 58.3926-3.25078 59.3182-4.74528 58.9127-4.36641 57.9763-0.492458 48.326 2.51786 39.1719 2.74959 28.6367 2.95999 18.87 7.08664 9.61232 10.076 0.45819 10.371-0.493298 11.8445-0.0899185 11.5289 0.874824" fill="#BA8452" fill-rule="evenodd" transform="matrix(1 0 0 -1 3759 1791)"/><path d="M13.4117 0.0664579C12.8776 0.040234 12.3438 0.000718463 11.8098-0.0125731 7.13715 27.8009 1.6856 55.4981-4.56673 83.0238-4.78902 83.9905-3.25405 84.408-3.03139 83.428 3.22094 55.7969 8.71688 28.0097 13.4117 0.0664579" fill="#BA8452" fill-rule="evenodd" transform="matrix(1 0 0 -1 3812 1835)"/><path d="M9.29238-0.757954C9.29238-0.757954 11.4604 3.27793 12.3456 5.03488 14.0714 8.48125 17.1466 11.3439 19.7352 14.0392 21.9036 16.3004 22.5895 18.2562 23.2974 21.3291 23.8284 23.6966 25.7975 34.627 23.3638 35.2489 21.66 35.6852 20.9961 33.4422 20.6423 32.1216 20.3546 30.9458 20.3326 29.7021 20.1998 28.497 20.0449 27.0591 19.7572 25.8583 19.2926 24.7751 19.5139 27.0566 19.5803 29.3406 19.4475 31.6468 19.3591 33.5983 19.6912 37.0715 17.9653 38.4756 16.0626 40.0267 14.9562 38.7039 14.2703 36.7165 13.8721 37.7884 13.2527 38.4734 12.3012 38.4509 10.288 38.4034 10.0226 34.6296 9.75696 33.2342 9.5577 32.2552 9.40319 31.2671 9.27 30.2742 6.59296 30.0256 6.81424 27.0297 6.5269 24.8092 6.1948 22.4257 5.57535 17.58 5.57535 17.58 5.57535 17.58 0.464583 14.8375-1.01796 12.895-3.695 9.38549-4.38086 5.17972-4.44728 0.836-4.44728 0.422175 8.47367-1.23966 9.29238-0.757954" fill="#915851" fill-rule="evenodd" transform="matrix(1 0 0 -1 3866 1389)"/><path d="M-1.6702 7.39447C-1.70906 8.39586-2.61613 8.4027-2.59022 7.39447-2.51251 4.89189-2.52546 2.40046-2.62908-0.0978019-2.65499-1.10602-1.74792-1.10135-1.70906-0.0978019-1.61819 2.40046-1.60523 4.89189-1.6702 7.39447" fill="#733832" fill-rule="evenodd" transform="matrix(1 0 0 -1 3880 1368)"/><path d="M-1.76544 12.3906C-1.79225 13.3912-2.72473 13.3977-2.69792 12.3906-2.60463 8.22497-2.60463 4.06154-2.68463-0.103691-2.69792-1.10903-1.77874-1.10652-1.75215-0.103691-1.67215 4.06154-1.68545 8.22497-1.76544 12.3906" fill="#733832" fill-rule="evenodd" transform="matrix(1 0 0 -1 3885 1366)"/><path d="M-2.91738 3.48296C-3.04775 2.29211-3.52756 1.21864-4.26847 0.266653-4.83519-0.501732-3.52756-1.24644-2.93911-0.486632-2.04539 0.684992-1.54385 2.02958-1.41313 3.48296-1.30413 4.437-2.83011 4.43048-2.91738 3.48296" fill="#733832" fill-rule="evenodd" transform="matrix(1 0 0 -1 3887 1369)"/><path d="M-4.2976-0.923939-4.45265-0.91256C-4.94228-0.832904-5.27768-0.4148-5.20015 0.0190881-3.78185 6.81703-0.119815 24.6167-0.0165834 25.3153-0.0165834 25.7561 0.39593 26.0759 0.88597 26.0759 1.37601 26.0759 1.78852 25.6809 1.78852 25.24 1.78852 25.1486 1.78852 24.8678-3.42075-0.268702-3.49828-0.654503-3.85938-0.923939-4.2976-0.923939" fill="#517996" fill-rule="evenodd" transform="matrix(1 0 0 -1 3885 1348)"/><path d="M-4.60159 4.39645-3.42971 9.13886 16.3984 3.84306 15.2042-0.86183-4.60159 4.39645" fill="#FFFFFF" fill-rule="evenodd" transform="matrix(1 0 0 -1 3835 1369)"/><path d="M9.40633-0.804624 9.21778-0.785363-4.13502 1.8643C-4.58233 1.95129-4.84184 2.31757-4.74737 2.68011-4.62975 3.04266-4.20559 3.25857-3.73476 3.17966L9.61804 0.529996C10.0422 0.441145 10.3248 0.0767344 10.2069-0.287676 10.1128-0.596167 9.78307-0.804624 9.40633-0.804624" fill="#FFFFFF" fill-rule="evenodd" transform="matrix(1 0 0 -1 3869 1325)"/><path d="M9.3947-0.998484 9.2063-0.977116-4.13233 2.33575C-4.57889 2.44687-4.8378 2.9026-4.74379 3.35833-4.62627 3.81367-4.17896 4.08135-3.73241 3.98034L9.60623 0.6698C10.0535 0.556354 10.3121 0.101014 10.2181-0.352383 10.124-0.74051 9.77112-0.998484 9.3947-0.998484" fill="#FFFFFF" fill-rule="evenodd" transform="matrix(1 0 0 -1 3868 1329)"/><path d="M28.4087 24.0561C28.3211 22.568 28.2553 21.0148 28.1242 19.4301 27.1598 17.2786 26.1737 15.1423 25.2097 13.0087 24.2454 10.8415 23.2811 8.68966 22.3171 6.52031 21.4625 4.6442 20.7834 1.92554 19.2933 0.437066 18.0662-0.822472 16.3352-1.05104 14.6696-0.905351 8.68775-0.356045 3.34102 5.42207-0.909834 10.0142-2.0057 12.1167-3.27635 14.2526-4.59132 16.3573-4.43798 16.1781-4.28465 16.0009-4.13131 15.8217 0.119906 11.1485 4.9187 5.58114 10.3312 2.34663 11.9964 1.34279 14.7354 0.0494301 16.7734 0.777873 18.9208 1.56913 19.4466 4.02985 20.3012 5.90597 21.7913 9.27018 23.3032 12.6188 24.7933 15.9852 25.9986 18.6522 27.2692 21.3397 28.4087 24.0561" fill="#FFFFFF" fill-rule="evenodd" transform="matrix(1 0 0 -1 3747 1363)"/><path d="M-1.14488 15.003C-2.239 12.6791-3.21908 10.1923-3.17362 9.62319-2.90009 8.81899-0.689126 3.98005 0.519402 1.66527 1.33999 4.09126 2.66217 9.0041 2.54814 10.2991 2.47994 11.2754 0.542133 13.4203-1.14488 15.003ZM0.678897-0.882805 0.382637-0.834988C-0.711478-0.449191-4.72349 9.08705-4.7466 9.18088-5.13416 10.2423-3.56118 13.8343-2.19354 16.6639-2.0795 16.8885-1.85143 17.0497-1.60064 17.1018-1.34984 17.1522-1.07631 17.0801-0.894083 16.9167-0.0503869 16.2104 4.05293 12.5835 4.18931 10.4035 4.30334 8.94324 2.092-0.213728 1.11192-0.771594 0.975157-0.848029 0.838393-0.882805 0.678897-0.882805" fill="#FFFFFF" fill-rule="evenodd" transform="matrix(1 0 0 -1 3763 1379)"/><path d="M-4.43932-0.973317-4.71812-0.933701C-5.19969-0.789218-5.4785-0.316153-5.32642 0.131277L-4.16051 3.44079C-4.00844 3.88356-3.47618 4.12592-2.99461 3.98842-2.51304 3.84627-2.25958 3.37088-2.41165 2.92345L-3.55221-0.386064C-3.67894-0.74261-4.03378-0.973317-4.43932-0.973317" fill="#FFFFFF" fill-rule="evenodd" transform="matrix(1 0 0 -1 3759 1362)"/><path d="M-1.76782-0.901108C-1.90783-0.901108-2.09385-0.857582-2.23385-0.76873L-4.53887 0.66477C-4.9117 0.905425-5.02811 1.39033-4.77169 1.75006-4.49246 2.11158-3.98002 2.20691-3.60758 1.96661L-1.27897 0.532751C-0.906537 0.292456-0.790125-0.192812-1.04615-0.552176-1.20897-0.779522-1.48859-0.901108-1.76782-0.901108" fill="#FFFFFF" fill-rule="evenodd" transform="matrix(1 0 0 -1 3770 1359)"/><path d="M35.4872 10.8664C35.4657 10.218 35.4439 9.53728 35.4007 8.84164 34.3226 7.97672 33.2013 7.12705 32.0582 6.3072 28.4788 3.72803 23.9722-0.411347 19.379-0.87593 15.4331-1.2784 11.185 1.17867 7.79967 2.92344 4.30637 4.73208 0.921058 6.72671-2.59369 8.45408-3.24086 9.35095-3.88768 10.2308-4.51304 11.0804-1.45095 9.72325 1.4817 8.1311 4.43581 6.49353 8.27415 4.39172 12.5433 1.59605 16.9212 0.808496 22.0314-0.10328 27.3793 4.84104 31.282 7.63635 32.7269 8.67235 34.1285 9.75342 35.4872 10.8664" fill="#FFFFFF" fill-rule="evenodd" transform="matrix(1 0 0 -1 3740 1347)"/><path d="M11.5376 7.07408C11.3952 6.52998 11.2528 5.98551 11.1508 5.4245 10.9473 5.41164 10.764 5.37711 10.5808 5.36021 6.16365 4.85027 1.70569 5.04095-2.2028 6.56194-0.126373 3.12354 2.7844 0.612805 6.83531 0.981297 7.62916 1.06065 8.46385 1.25096 9.33939 1.57243 9.72584 1.69881 10.0721 1.85972 10.4383 2.02027 10.357 1.47617 10.2554 0.948966 10.1737 0.437193 8.60628-0.267827 6.9575-0.71347 5.14569-0.587088 4.77913-0.554758 4.39268-0.507732 4.00589-0.426171-0.0247859 0.404863-2.40632 3.33149-4.15704 6.81691-4.25898 7.00979-4.38116 7.21736-4.4625 7.4231-4.05511 8.28867-3.81109 8.99148-3.66866 9.39194L-3.64806 9.32765C-3.58697 9.1693-3.52623 9.02345-3.44454 8.8798 0.8504 6.54467 6.14306 6.30697 11.2933 7.04175L11.5376 7.07408" fill="#FFFFFF" fill-rule="evenodd" transform="matrix(1 0 0 -1 3646 1530)"/><path d="M11.4771 1.02175 10.7749-0.644177C5.40712-0.59343 0.163144 0.873672-4.52345 3.69275L-4.19291 5.3564C0.576136 2.40705 5.98537 0.906619 11.4771 1.02175" fill="#FFFFFF" fill-rule="evenodd" transform="matrix(1 0 0 -1 3648 1520)"/><path d="M14.2285 1.05229 13.487-0.678062C10.7601-0.747658 7.98987-0.554778 5.26295-0.104195 2.14343 0.394907-1.56518 1.08927-4.77173 2.57823L-4.40117 4.30818C-1.0635 2.62913 3.01605 1.95346 6.31001 1.48657 8.97156 1.10558 11.5894 0.968774 14.2285 1.05229" fill="#FFFFFF" fill-rule="evenodd" transform="matrix(1 0 0 -1 3649 1512)"/><path d="M-1.22152 6.70374C-2.23067 6.70374-3.11077 5.3961-3.11077 3.84842-3.11077 2.30074-2.23067 0.992726-1.22152 0.992726-0.190621 0.992726 0.668094 2.30074 0.668094 3.84842 0.668094 5.3961-0.190621 6.70374-1.22152 6.70374ZM-1.22152-0.651736C-3.1539-0.651736-4.72127 1.36698-4.72127 3.84842-4.72127 6.32948-3.1539 8.3482-1.22152 8.3482 0.711232 8.3482 2.2786 6.32948 2.2786 3.84842 2.2786 1.36698 0.711232-0.651736-1.22152-0.651736" fill="#FFFFFF" fill-rule="evenodd" transform="matrix(1 0 0 -1 3651 1518)"/><path d="M3.25828 18.9149C1.40125 23.1226-0.37279 27.1975-1.29093 31.7553-2.25092 36.5982-2.56388 41.5475-2.87685 46.4708-2.93978 47.4738-4.44201 47.4803-4.37942 46.4708-3.89942 39.0783-3.44053 31.4921-0.831688 24.5192 0.420167 21.1408 2.2357 17.9991 3.34162 14.5572 4.88604 9.77776 4.34345 4.85878 2.13161 0.409555 1.69312-0.482381 2.98716-1.27878 3.42531-0.379992 6.63898 6.06617 6.09639 12.4514 3.25828 18.9149" fill="#DEB18C" fill-rule="evenodd" transform="matrix(1 0 0 -1 3771 1444)"/><path d="M16.399 30.6037C10.2391 41.1687 3.33697 51.3881-3.17228 61.7443-3.71841 62.6041-5.11641 61.8168-4.57028 60.9523 1.50213 51.3113 7.59633 41.6937 13.6248 32.0293 16.7483 27.0478 18.2121 22.5207 18.4085 16.66 18.5832 11.055 18.3428 5.44796 17.8188-0.133502 17.7095-1.13657 19.3257-1.13224 19.435-0.133502 20.3744 9.92172 21.7067 21.492 16.399 30.6037" fill="#DEB18C" fill-rule="evenodd" transform="matrix(1 0 0 -1 3686 1410)"/><path d="M43.1789 0.433799C34.6093 9.18673 25.887 18.0062 18.0169 27.398 15.1531 30.8287 13.9726 35.9312 10.3656 38.6303 6.80232 41.2989 1.75239 42.1146-2.6853 42.3877-0.608609 47.9577 0.943453 53.6758 1.79638 59.5596 2.18976 62.2369 2.2552 65.0304 2.99869 67.6454 4.02576 71.274 6.36495 73.4949 9.20694 75.8042 9.99406 76.4434 8.879 77.5387 8.09225 76.9059 3.41388 73.1076 1.44626 69.5997 0.72495 63.6489-0.193417 56.1444-1.81092 48.9563-4.54348 41.8798-4.74017 41.3805-4.23736 40.9135-3.77818 40.892 2.08032 40.6361 9.20694 39.5169 12.1366 33.9168 14.2351 29.8645 16.5742 26.6342 19.6347 23.2122 26.9362 15.0835 34.4344 7.13334 42.086-0.668236 42.7855-1.39123 43.9002-0.287052 43.1789 0.433799" fill="#DEB18C" fill-rule="evenodd" transform="matrix(1 0 0 -1 3721 1394)"/><path d="M22.353 49.3447C17.6997 58.5723 11.5828 66.8025 4.08931 73.8779 3.36853 74.5753 2.25422 73.4562 2.99697 72.7584 10.1845 65.9591 16.0613 58.0822 20.6051 49.2693 12.6312 45.0153 11.4736 35.3502 8.82983 27.4449 6.9951 22.036 4.32968 17.1352 1.18387 12.4307-1.43758 8.56086-3.92785 4.82762-4.53979 0.0946877-4.69259-0.903175-3.18546-1.33619-3.05428-0.327037-2.39873 4.46999 0.244342 8.23856 2.88778 12.1459 5.24723 15.6715 7.30071 19.3472 8.93939 23.2855 12.4348 31.7739 12.7624 43.8717 22.069 48.2605 22.4838 48.448 22.5274 48.9936 22.353 49.3447" fill="#DEB18C" fill-rule="evenodd" transform="matrix(1 0 0 -1 3771 1396)"/><path d="M4.94638 63.4761C4.81578 53.8342 4.35832 44.4428 1.37487 35.1991 0.176988 31.4974-0.759334 27.9045-0.998767 24.0134-1.17326 21.4135-2.04428 15.8654-2.37078 13.2826-2.87177 9.46563-2.32725 9.24549-2.4582 5.42178-2.5235 3.51438-3.19827 1.84211-4.35261 0.335382-4.96244-0.457405-3.61219-1.23271-3.00237-0.446344-1.97898 0.901251-1.26032 2.41475-0.998767 4.10665-0.824634 5.43284-1.04266 6.8525-1.15149 8.2133-1.26032 9.75071-1.04266 10.9681-0.628735 12.4291 0.176988 15.3644 0.329354 18.4261 0.438187 21.457 0.634444 26.6504 1.7449 31.1513 3.2914 36.0811 6.10037 44.9826 6.36192 54.2174 6.49252 63.4761 6.51429 64.4758 4.96814 64.4758 4.94638 63.4761" fill="#DEB18C" fill-rule="evenodd" transform="matrix(1 0 0 -1 3811 1442)"/><path d="M1.85396 21.9208C-3.08797 15.3506-4.18878 8.0319-4.61549 0.0263485-4.66051-0.997949-3.06528-0.993558-3.02064 0.0263485-2.59393 7.80976-1.56046 14.7372 3.22448 21.1168 3.8532 21.9366 2.46035 22.7318 1.85396 21.9208" fill="#DEB18C" fill-rule="evenodd" transform="matrix(1 0 0 -1 3835 1444)"/></g></svg>