<svg width="420" height="438" xmlns="http://www.w3.org/2000/svg" xmlns:xlink="http://www.w3.org/1999/xlink" xml:space="preserve" overflow="hidden"><defs><clipPath id="clip0"><rect x="3459" y="634" width="420" height="438"/></clipPath></defs><g clip-path="url(#clip0)" transform="translate(-3459 -634)"><path d="M332.651 78.7234C332.628 73.3901 327.862 67.1941 325.312 62.7124 321.898 56.7516 317.708 51.2323 312.897 46.3424 302.145 35.5072 280.396 24.0267 266.297 18.7292 261.663 16.9817 257.295 15.4094 253.039 13.9791 245.213 11.3381 237.919 9.18234 230.537 7.37268 218.764 4.46545 206.815 2.40325 192.316 0.51844L191.983 0.469667C172.341-2.07846 152.411-2.20274 132.746 0.0769531 126.782 0.753273 120.841 1.66479 114.944 2.78007 112.04 3.3303 109.135 3.94665 106.231 4.6208 98.915 6.30401 91.6657 8.33297 84.5269 10.7236 75.7921 13.633 67.2346 17.0615 58.8988 21.04 53.6887 23.4924 48.5899 26.1825 43.6016 29.0608 41.7618 30.1143 39.9436 31.1985 38.1702 32.3163 29.1251 37.8512 20.4567 44.0938 12.4532 51.0282 7.64263 55.197 3.05344 59.8652 0.149169 65.5911-2.26714 70.3875-7.61048 79.9965-1.58018 83.7994 3.85129 87.2301 17.9291 84.2741 24.1368 84.2741L55.4625 84.2741C63.6653 84.2741 71.8682 84.2564 80.071 84.2564 90.6013 84.2564 101.132 84.2564 111.663 84.2409L116.784 84.2409C157.731 84.2253 198.701 84.2098 239.648 84.1943L247.275 84.1943C268.979 84.1943 290.661 84.1787 312.365 84.1787L312.542 84.1787C317.952 84.1787 328.593 86.6802 331.764 82.0721 332.34 81.2205 332.673 80.1226 332.651 78.7234" fill="#F8F0EC" fill-rule="evenodd" transform="matrix(1 0 0 -1 3506 1070)"/><path d="M14.2571 10.2728C11.851 14.0763 10.4553 17.8194 12.7406 22.0409 13.9134 24.2111 15.4911 26.0918 15.9356 28.555 16.5222 31.9287 15.0256 34.5306 11.5878 35.1778 7.15917 36.0256 3.4585 33.6686 0.708011 30.4658-4.30719 24.629-5.7631 16.5877-3.61948 9.39449-1.86013 8.30179-0.0601881 7.23881 1.7394 6.20591 6.67375 3.38887 11.7093 0.754772 16.8256-1.64826 17.2501-1.32696 17.5941-0.9409 17.857-0.462842 19.8589 3.17196 16.0367 7.48368 14.2571 10.2728" fill="#E0CFC7" fill-rule="evenodd" transform="matrix(1 0 0 -1 3548 1047)"/><path d="M28.7109 22.2574 1.73077 22.2574C2.08213 21.2172 2.30938 20.1315 2.37126 18.998 2.702 12.9092-4.96252 10.5645-4.61116 4.41127-4.38391 0.79071-1.20246-2.27849 2.516-1.66349 7.12282-0.924484 10.2214 5.02229 13.2379 8.0604 15.7372 10.5786 18.4229 13.0968 21.3771 15.064 25.1785 17.6296 29.2067 18.0403 33.6279 17.4875 38.5444 16.8887 45.3408 14.4034 50.0924 16.8269 52.2618 17.9434 53.2945 20.0364 53.3774 22.2386 45.1552 22.2386 36.9331 22.2574 28.7109 22.2574" fill="#E0CFC7" fill-rule="evenodd" transform="matrix(1 0 0 -1 3533 1008)"/><path d="M31.0903 66.2166C30.0166 69.171 28.9429 72.5353 27.3002 75.3805 28.3321 75.6956 29.3218 76.0274 30.3325 76.3447 31.2799 76.6594 30.8799 78.1924 29.9114 77.8776 28.7955 77.5121 27.574 77.197 26.3739 76.8507 26.2265 77.071 26.058 77.3063 25.8895 77.5121 25.658 77.7978 25.4054 78.0813 25.1528 78.3354L22.7102 78.3354C23.4472 77.7662 24.142 77.1193 24.7317 76.3447 23.9946 76.1073 23.2576 75.8071 22.542 75.4898 17.2567 76.2815 10.54 76.3908 8.20289 70.5929 7.0025 67.6214 7.78177 64.3203 8.93957 61.4747 10.6452 57.3357 12.7719 53.497 13.8456 49.104 14.8563 44.9479 15.8041 39.671 14.6671 35.4206 13.4878 31.1386 8.28696 28.8143 5.33914 25.7651 0.538682 20.8196-3.27286 14.2318-4.40955 7.39035-4.59918 6.38048-4.66215 5.39965-4.6414 4.4671 2.55983 2.06693 9.86625 0.0279511 17.2356-1.66473 18.6045 5.61999 16.7934 13.4089 18.7938 20.5844 20.0783 25.2758 23.4894 28.4045 26.5213 32.0229 28.964 34.9313 31.1536 38.0749 32.5852 41.5985 35.9333 49.7047 34.0174 58.2995 31.0903 66.2166" fill="#E0CFC7" fill-rule="evenodd" transform="matrix(1 0 0 -1 3595 1064)"/><path d="M105.881 12.8844C99.6437 19.5019 92.7135 25.5227 87.1474 32.7678 84.1591 36.6432 81.9934 41.8185 77.9653 44.7183 73.8719 47.6661 68.6742 47.5731 63.8665 47.3375 60.0549 39.6536 49.833 37.599 42.015 36.3294 37.0121 35.4968 31.9663 35.3715 26.985 36.3597 21.6141 37.4434 16.5463 39.6363 11.3057 41.1437 7.559 42.2249-6.12815 45.6417-4.35241 37.0345-3.35595 32.3286 3.16257 29.1625 7.169 27.3741 15.9186 23.4555 26.0322 22.7958 35.1931 25.633 44.6137 28.5504 53.0598 33.0207 63.2388 32.2983 70.8833 31.7489 75.4749 23.9397 79.1562 18.0121 81.5384 14.1864 83.4444 10.1398 85.1985 5.98555 86.2812 3.45969 87.4076 0.745402 89.0101-1.55781 96.3736 0.243544 103.672 2.39328 111.49 5.02759 110.234 8.02289 107.83 10.8298 105.881 12.8844" fill="#E0CFC7" fill-rule="evenodd" transform="matrix(1 0 0 -1 3647 1061)"/><path d="M35.6729 10.8223C30.2652 11.9208 24.8576 11.3717 19.4925 10.2728 13.484 9.0622 7.43255 7.73808 2.13221 4.60567 0.0505591 3.39322-2.37446 1.82832-4.60597 0.0838475 15.2008-2.25832 35.2651-2.12921 55.0508 0.486389L55.3938 0.536846C49.4711 5.10505 43.4197 9.23954 35.6729 10.8223" fill="#E0CFC7" fill-rule="evenodd" transform="matrix(1 0 0 -1 3643 1070)"/><path d="M3.1385 46.3937-4.54008 46.3937C-3.34515 43.9782-1.57487 41.6897 0.0848342 39.782 6.48003 32.4727 15.0211 26.4806 18.628 17.1055 20.2214 12.9739 19.5354 8.80885 20.4867 4.62842 21.04 2.15046 22.3676-0.0759415 24.8459-0.964968 30.0237-2.84123 38.6536-0.42352 41.9509 3.99313 46.9075 10.6052 40.8444 15.9601 36.1532 20.2833 35.3567 21.0139 34.1617 21.7919 33.5643 22.6674 32.7899 23.7795 31.8828 26.7657 32.4803 28.2298 33.0999 29.7541 36.9058 32.0762 38.1892 33.0119 42.4378 36.1273 47.1066 38.7013 52.019 40.64 56.0243 42.1975 60.1841 42.9931 64.2558 44.3279 65.5613 44.7558 67.3537 45.313 68.4601 46.3783 46.686 46.3783 24.9123 46.3937 3.1385 46.3937" fill="#E0CFC7" fill-rule="evenodd" transform="matrix(1 0 0 -1 3750 1032)"/><path d="M49.4154 97.9643C40.7604 95.0455 32.6731 90.9145 25.2546 85.6197 25.883 90.2645 26.9976 94.8444 27.5858 99.4975 28.1937 104.175 27.9303 108.8 27.9097 113.498 27.8896 119.889 29.2478 125.832 32.1462 131.527 32.592 132.427 31.2543 133.223 30.788 132.321 28.7004 128.19 27.2409 123.858 26.6535 119.246 25.9439 113.703 26.7548 108.124 26.3288 102.567 26.1263 99.7373 25.66 96.9406 25.1533 94.154 17.0457 98.9982 8.37062 102.556-0.811187 104.766-1.80472 105.004-2.21013 103.487-1.23714 103.251 8.00592 101.029 16.7214 97.4382 24.8491 92.5109 24.4235 90.2118 23.9979 87.9127 23.6736 85.5973 22.9237 80.1782 23.2077 74.5544 23.7954 69.0746 24.9306 58.4907 25.741 47.7811 25.9641 37.1181 23.1468 41.9053 18.1402 45.6058 14.046 49.0992 8.49206 53.8437 2.63429 58.2127-3.46673 62.2523-4.31792 62.8128-5.10857 61.4521-4.25702 60.8957 1.33696 57.1868 6.74896 53.2385 11.877 48.8922 20.6332 41.4586 22.5183 40.0857 26.0452 34.1488L26.0452 33.9151C26.1465 22.058 24.3425 10.3001 23.7752-1.52458 23.7143-2.53603 25.2953-2.53386 25.336-1.52458 25.883 9.80647 27.5858 21.0768 27.6059 32.4346 27.6261 35.9402 27.5249 39.462 27.3829 42.99 33.5041 50.4175 40.8213 56.5288 49.2532 61.1943 50.1249 61.6858 49.3343 63.0424 48.4428 62.5531 40.3752 58.0704 33.281 52.2657 27.2816 45.2646 26.9573 52.2108 26.4099 59.1609 25.7007 66.0262 25.1129 71.5648 24.4034 77.0648 24.8899 82.638 24.9306 82.9305 24.9709 83.2208 24.9911 83.5133 32.592 89.0945 40.8822 93.4328 49.841 96.447 50.7938 96.7698 50.3682 98.2871 49.4154 97.9643" fill="#5C876F" fill-rule="evenodd" transform="matrix(1 0 0 -1 3485 825)"/><path d="M33.2609 16.9495C33.2208 17.3408 33.1804 17.7501 33.1002 18.1573 32.3375 22.6679 29.8482 28.2459 25.7131 30.5871 21.6582 32.8486 17.824 31.1852 13.8493 29.9431 11.5211 29.219 9.11191 28.8736 6.74355 28.3098 6.06064 28.1676 5.41853 28.0091 4.75584 27.8062 3.93317 27.5694 3.12999 27.2868 2.32718 26.9417-2.61104 24.8048-4.15671 21.4258-4.53808 16.2413-4.93966 10.7737-4.5583 4.70843-0.00144456 0.986518 0.660885 0.434963 1.3633-0.0346527 2.0863-0.42991L2.10616-0.42991C2.64823-0.712906 3.1903-0.961611 3.73238-1.16844 6.9039-2.40836 10.4969-2.53253 13.8898-1.98314 16.5795-1.55973 19.2895-0.805313 21.7987 0.262061 22.2805 0.466728 22.7623 0.685473 23.2238 0.922266 28.985 3.76739 33.3613 8.48052 33.3411 15.3143 33.3411 15.85 33.301 16.3838 33.2609 16.9495" fill="#98B5A5" fill-rule="evenodd" transform="matrix(1 0 0 -1 3464 782)"/><path d="M31.6738 19.7358C31.4703 20.6882 31.2061 21.6245 30.9213 22.5464 29.9247 25.5761 28.3992 28.4333 26.1213 30.5084 25.6533 30.9482 25.2057 31.3231 24.6768 31.6657L24.5753 31.7446C21.7483 33.6031 18.2905 34.2111 14.9141 34.5393 11.0293 34.9303 6.98181 34.9748 3.38181 33.5077 0.208821 32.2271-1.84554 30.1196-3.04554 27.5741-3.28964 27.106-3.49306 26.6379-3.6558 26.1396-5.54707 20.7976-4.40828 13.9906-2.51665 8.77455-1.54023 6.10571-0.19802 3.56062 1.95823 1.63933 5.39549-1.45101 10.3175-2.40555 14.9346-2.20072 17.2126-2.10746 19.511-1.71861 21.6666-0.999024 22.1551-0.826841 22.643-0.640308 23.111-0.437634 26.1008 0.826841 28.7042 2.79655 30.3517 5.57481 31.5924 7.66612 32.1821 10.0089 32.3449 12.4141 32.3654 12.9755 32.3856 13.5369 32.3654 14.1001 32.3654 15.9887 32.0806 17.8938 31.6738 19.7358" fill="#98B5A5" fill-rule="evenodd" transform="matrix(1 0 0 -1 3518 790)"/><path d="M30.1735 12.5209C29.9925 13.4702 29.7507 14.4053 29.4286 15.3218 29.1466 16.1457 28.8245 16.9695 28.4419 17.7769 28.2207 18.2999 27.9789 18.8066 27.697 19.2969 26.4688 21.5766 24.8378 23.6178 22.7442 25.0759 20.4486 26.6577 17.7708 27.4506 15.0123 27.6234L14.9924 27.6234C14.4686 27.6401 13.9452 27.6543 13.4421 27.6543 9.25413 27.5761 4.98548 26.2311 1.54247 24.283-1.13534 22.7631-3.47074 20.3738-4.2562 17.3485-5.52453 12.4572-2.74609 6.98077 1.01907 3.2116 1.3814 2.83297 1.764 2.46817 2.16686 2.14919 3.35483 1.07405 4.62315 0.204771 5.89148-0.414998 11.9117-3.39091 19.442-2.8988 25.0394 0.868187 27.234 2.3405 29.1872 4.38385 29.9925 6.94767 30.5561 8.73751 30.5362 10.6528 30.1735 12.5209" fill="#98B5A5" fill-rule="evenodd" transform="matrix(1 0 0 -1 3528 743)"/><path d="M30.7415 20.2608C29.1058 23.0722 26.6221 24.7991 23.7751 25.71 23.2296 25.8835 22.7048 26.0242 22.1394 26.1353 20.7463 26.4337 19.2519 26.5423 17.7576 26.5102 19.1912 28.6927 19.7367 31.1271 18.101 34.2203 15.9607 38.273 12.7703 41.1143 8.59016 41.5537 8.0248 41.6161 7.43921 41.6324 6.81349 41.5999 5.94486 41.5537 5.03647 41.3986 4.08759 41.1464-1.38482 39.6554-5.26167 32.3523-4.57522 26.9514L-4.57522 26.8868C-4.49425 26.3691-4.3934 25.8673-4.25206 25.3817-3.56562 22.7901-2.09151 20.654-0.133024 19.0216-1.18275 17.4819-2.01054 15.7549-2.45516 13.9634-2.61638 13.4313-2.73783 12.8812-2.81844 12.331-3.1416 10.086-2.91929 7.80893-2.01054 5.76741 1.48242-2.06749 12.3864-3.78036 19.8979-1.37629 20.2814-1.25146 20.6856-1.12664 21.0691-0.969352L21.2307-0.890707C28.8633 2.23489 35.5069 12.2062 30.7415 20.2608" fill="#98B5A5" fill-rule="evenodd" transform="matrix(1 0 0 -1 3478 739)"/><path d="M25.8225 15.0089C25.6237 15.3398 25.4246 15.6547 25.2057 15.9551 23.3349 18.5814 20.6086 20.3984 17.6233 21.4569 17.1256 21.6328 16.6481 21.7759 16.1508 21.9005 15.0957 22.1867 14.0612 22.3749 12.9862 22.4853 10.041 22.7875 6.47844 22.1213 3.31456 20.6516 2.77693 20.4148 2.27962 20.1449 1.80177 19.8608-2.71574 17.253-5.84036 12.8893-4.0294 7.41579-3.96962 7.22799-3.90985 7.03765-3.83026 6.84767-3.6909 6.50003-3.55154 6.15276-3.37257 5.81966-1.70061 2.56383 1.46327 0.254276 4.84645-1.04144 6.17992-1.56271 7.57316-1.92669 8.98621-2.16353 9.50368-2.24345 10.001-2.30665 10.5185-2.35387 13.3046-2.60706 16.1109-2.323 18.7976-1.48534 19.0562-1.40542 19.3147-1.32769 19.5934-1.22961 19.892-1.12136 20.2103-1.01093 20.489-0.884156 22.3201-0.140215 24.0314 0.918301 25.3054 2.4534 28.1113 5.8687 28.0318 11.1315 25.8225 15.0089" fill="#98B5A5" fill-rule="evenodd" transform="matrix(1 0 0 -1 3509 701)"/><path d="M8.42061 14.3146C11.23 9.56474 13.8795 4.72084 16.3301-0.204631 15.8519-0.445632 15.3939-0.667897 14.9157-0.876202 12.6444 3.66535 10.2335 8.12718 7.6636 12.5075 6.94638 8.86231 3.24057 5.4071 1.08891 2.89753-0.465243 1.10655-1.83982-0.604708-3.01548-2.33213-3.57319-2.12419-4.1112-1.86886-4.62913-1.58084-4.54956-1.45225-4.4897-1.33984-4.36998-1.21125-2.79612 0.947106-0.943389 2.91369 0.789981 4.96 2.70257 7.23078 6.88653 11.1493 6.16931 14.4902L6.16931 14.7474C2.98142 17.1938 1.18856 19.4157 0.0129035 23.4469-0.544814 25.3316-1.14232 26.422-1.99933 27.1553-1.36168 27.3636-0.704316 27.5249-0.046596 27.6678 0.152691 27.4124 0.331907 27.1409 0.49105 26.8529 1.34806 25.3481 1.46741 23.5572 2.02513 21.944 2.98142 19.1442 5.19294 17.4168 7.46432 15.7544L7.46432 15.7378C10.7318 16.6324 13.5408 16.4098 16.8882 15.7544 19.9961 15.1478 23.1241 15.8014 26.2719 16.1056 26.3317 15.5295 26.3715 14.9865 26.3715 14.4432 24.0206 14.139 21.7295 13.6122 19.3585 13.7246 15.4136 13.9145 12.2856 15.1478 8.42061 14.3146" fill="#789E88" fill-rule="evenodd" transform="matrix(1 0 0 -1 3471 781)"/><path d="M31.3684 13.0061C31.3889 12.4372 31.3684 11.87 31.3482 11.3028 28.4012 12.2016 25.4139 12.1853 22.2841 12.5803 21.085 12.7379 16.6343 13.1638 13.8502 14.2981 15.8418 10.4019 18.7683 7.04249 20.5159 2.97457 21.1458 1.45938 21.6542-0.102559 22.1215-1.68117 21.6542-1.88592 21.1663-2.07401 20.6785-2.24796 20.1094-0.387041 19.5202 1.49018 18.6668 3.27318 16.5328 7.70568 13.1998 11.3336 11.4115 15.9397 9.27748 16.5703 7.79389 17.9257 5.98509 19.2361 3.87158 20.7817 1.59547 21.9342-0.802952 23.0214-2.16423 23.6541-3.50572 24.3481-4.62345 25.1689-4.46084 25.6727-4.25759 26.1456-4.01368 26.6185-1.94083 24.9316 1.06701 24.0165 3.28232 22.8025 6.02574 21.3036 8.54576 18.5747 11.5331 17.5491L11.6147 17.5963C13.6876 21.1441 15.6586 26.209 18.8291 28.811 19.886 29.712 21.207 30.1215 22.5481 30.4509 22.9345 30.5473 23.3004 30.6415 23.6864 30.752 24.2148 30.406 24.662 30.0272 25.1293 29.5829 24.2961 29.3169 23.3813 29.0814 22.4265 28.811 17.8941 27.4865 15.3539 20.9557 13.0573 16.949 13.098 16.8548 13.1185 16.7443 13.098 16.6011 12.9559 15.0084 25.7999 13.8578 26.8162 13.7617 28.3605 13.6367 29.8848 13.4627 31.3684 13.0061" fill="#789E88" fill-rule="evenodd" transform="matrix(1 0 0 -1 3519 789)"/><path d="M23.3341 13.0109C22.2872 12.8576 21.261 12.7022 20.2547 12.5004 17.2373 11.879 14.2196 11.0259 11.4692 9.66007 9.97064 8.92957 8.49242 7.30138 6.89122 6.99086 6.46027 6.91207 6.1113 6.89816 5.824 6.94451 3.48352 4.29134 0.630465 2.10236-1.81268-0.457762-2.38728-1.06276-2.94157-1.68417-3.49585-2.30557-3.88581-1.99291-4.27577-1.63604-4.6661-1.26455-4.37843-0.923725-4.07045-0.580759-3.76248-0.241716-1.09406 2.66137 2.10832 5.06605 4.69475 8.01583 4.61277 8.34062 4.59209 8.71175 4.59209 9.1335 4.59209 11.5685 6.3986 14.8587 6.97321 17.2941 7.38384 19.0795 7.73281 20.881 8.02047 22.6945 8.53341 22.6945 9.08769 22.6806 9.60099 22.6646 9.19035 20.0257 8.65674 17.4192 7.97912 14.8288 7.81516 14.2213 5.94698 8.85292 6.09063 8.72993 6.76789 8.20122 9.99095 10.6686 10.6682 10.9956 13.9529 12.6234 17.5453 13.586 21.1583 14.2537 21.6303 14.3464 22.1022 14.4231 22.5745 14.5019 22.8411 14.0216 23.0878 13.5254 23.3341 13.0109" fill="#789E88" fill-rule="evenodd" transform="matrix(1 0 0 -1 3533 738)"/><path d="M19.2922-1.23953C19.4354-1.44063 19.5375-1.65518 19.6807-1.85628L19.4967-1.93311C19.1288-2.08677 18.7201-2.20891 18.3114-2.33319 17.3915-0.837327 16.5532 0.685794 16.2264 2.66033 16.0832 3.5058 16.0219 4.3849 15.7766 5.21656 15.2045 7.08276 14.0805 7.54586 12.7721 8.82468 12.6495 8.94683 12.5881 9.02401 12.5062 9.11642 7.70321 10.9355 3.06359 11.9208-2.16871 11.4893-3.0478 11.428-3.88576 11.2744-4.74428 11.1207-4.66239 11.6606-4.53975 12.1988-4.39691 12.7228-2.82307 12.9692-1.28999 13.0913 0.324609 13.0913 4.53497 13.0616 7.88718 12.3839 11.6275 11.0732L11.6687 11.229C10.9324 13.9566 12.67 15.7283 14.7344 17.6692 17.003 19.8115 18.9242 22.1387 20.6005 24.6673 21.1521 24.559 21.704 24.4188 22.2559 24.2496 21.4587 23.0019 20.58 21.7999 19.6194 20.6273 17.5751 18.1167 11.9341 14.5104 13.4467 10.904 13.508 10.7344 13.508 10.5946 13.4672 10.4724 14.162 9.54801 15.6543 8.79317 16.3083 7.8691 16.9623 6.9291 17.2685 5.83332 17.4936 4.73966 17.9636 2.58173 18.0863 0.717304 19.2922-1.23953" fill="#789E88" fill-rule="evenodd" transform="matrix(1 0 0 -1 3480 738)"/><path d="M16.4854 3.77249C11.2429 3.3118 6.51044 1.24398 2.59389-2.2388 1.81874-2.92271 0.696577-1.80843 1.45154-1.12451 3.71605 0.894716 6.20456 2.43718 8.89723 3.53539 8.99895 5.15494 8.71363 6.8271 7.57128 8.0813 6.77556 8.9256 5.69452 9.0374 4.79709 9.51416 1.8393 7.15992-1.15961 4.8707-4.42328 3.10502-4.56612 3.59786-4.6884 4.10751-4.74972 4.63104L-4.74972 4.69424C-1.75117 6.38065 1.04358 8.52775 3.77701 10.7055 3.26697 11.8198 3.45057 13.5044 3.77701 14.3951 4.24629 15.7469 5.18448 16.8937 5.95964 18.085 6.26589 18.5622 6.5512 19.0389 6.83688 19.5321 7.449 19.5625 8.04019 19.5482 8.63212 19.4832 8.22379 18.7386 7.79564 18.0057 7.32636 17.2893 6.93896 16.654 3.59341 11.1987 5.30713 11.2148 5.71509 11.2313 5.93908 10.9916 6.02096 10.6895 6.59196 10.4845 7.24484 10.3402 7.71412 10.0541 8.30568 9.63984 8.83591 9.13275 9.24387 8.54419 10.1619 7.2392 10.4883 5.69674 10.4883 4.13783 12.4058 4.75891 14.4049 5.18709 16.4854 5.36391 17.5055 5.45926 17.5055 3.87004 16.4854 3.77249" fill="#789E88" fill-rule="evenodd" transform="matrix(1 0 0 -1 3478 717)"/><path d="M20.3498-0.968342C20.0664-1.09343 19.7425-1.20234 19.4389-1.31125 19.1554-1.40614 18.8925-1.48271 18.6293-1.56142 18.1233-0.639451 17.9408 0.644123 17.5362 1.98988 16.9087 4.17889 15.7143 6.33987 13.6898 7.54437 12.7388 8.10726 11.7467 8.41782 10.7752 8.82758 11.1394 5.00813 10.9569 1.2692 10.1881-2.42301 9.66156-2.37664 9.13504-2.3141 8.62908-2.23538 9.43869 1.55172 9.62116 5.41574 9.17579 9.32577 7.25257 8.26254 5.20817 6.9955 3.08264 6.66876 0.471339 6.24498-1.71514 6.35389-3.9824 5.66591-4.14432 5.9948-4.30588 6.33987-4.44797 6.68278-4.50856 6.87041-4.5897 7.05804-4.65028 7.24567-3.43569 7.732-2.11976 8.04471-0.763447 8.13745 1.15942 8.29489 2.7588 8.05873 4.60088 8.81141 6.03798 9.40449 7.41449 10.1733 8.79136 10.8915L8.83139 10.9702C7.71814 13.004 6.07873 13.8012 4.03397 15.0219 3.08264 15.5866 2.37401 16.2425 1.88824 17.2292 1.52401 17.9474 1.34153 18.7626 1.28095 19.5595 1.78691 19.842 2.29323 20.1084 2.83958 20.3424 2.83958 20.0458 2.83958 19.7471 2.92072 19.4668 3.44687 16.5391 5.5926 16.3374 7.57677 14.945 8.73042 14.1139 9.54002 13.0507 10.1679 11.83 12.6374 14.6484 14.6616 17.4007 15.7753 21.0465 15.8153 21.218 15.8762 21.4056 15.9368 21.5771 16.4226 21.4541 16.9289 21.3129 17.4349 21.1393 17.0908 20.0135 16.767 18.8715 16.2812 17.7759 15.0262 14.9755 13.0017 12.661 10.9977 10.4055 12.2123 9.74955 13.609 9.45301 14.7832 8.70034 15.6941 8.10726 16.4431 7.35458 17.111 6.47898 17.9408 5.3532 18.5481 4.08616 18.9531 2.75622 19.3379 1.56789 19.3581-0.231841 20.3498-0.968342" fill="#789E88" fill-rule="evenodd" transform="matrix(1 0 0 -1 3509 701)"/><path d="M-2.94325-1.9286C-3.7892-1.9286-4.46258-1.22837-4.46258-0.366103L-4.46258 132.507C-4.46258 133.372-3.7892 134.072-2.94325 134.072-2.13554 134.072-1.4625 133.372-1.4625 132.507L-1.4625-0.366103C-1.4625-1.22837-2.13554-1.9286-2.94325-1.9286" fill="#6F5E61" fill-rule="evenodd" transform="matrix(1 0 0 -1 3514 993)"/><path d="M32.3778-2.11126 32.3778-2.11126C11.9488-2.11126-4.6223 14.4073-4.6223 34.7809L-4.6223 61.6289C-4.6223 62.325-4.03068 62.8891-3.33672 62.8891L68.1126 62.8891C68.8066 62.8891 69.378 62.325 69.378 61.6289L69.378 34.7809C69.378 14.4073 52.8064-2.11126 32.3778-2.11126" fill="#F5D2B5" fill-rule="evenodd" transform="matrix(1 0 0 -1 3478 865)"/><path d="M-1.46905 1.2072 68.2751 1.2072 68.2751 155.917-1.46905 155.917ZM69.8392-1.93903-3.03309-1.93903C-3.90632-1.93903-4.59713-1.23538-4.59713-0.367001L-4.59713 157.489C-4.59713 158.358-3.90632 159.062-3.03309 159.062L69.8392 159.062C70.7124 159.062 71.4032 158.358 71.4032 157.489L71.4032-0.367001C71.4032-1.23538 70.7124-1.93903 69.8392-1.93903" fill="#6F5E61" fill-rule="evenodd" transform="matrix(1 0 0 -1 3477 995)"/><path d="M14.1927 7.15626C14.1927 4.65047 9.9478-2.26168 4.69279-2.26168-0.541433-2.26168-4.80716 4.65047-4.80716 7.15626-4.80716 9.66243-0.541433 8.44037 4.69279 8.44037 9.9478 8.44037 14.1927 9.66243 14.1927 7.15626" fill="#FFFFFF" fill-rule="evenodd" transform="matrix(1 0 0 -1 3478 823)"/><path d="M13.4483 7.17097C13.4483 4.66564 9.42002-2.24815 4.42831-2.24815-0.543327-2.24815-4.55191 4.66564-4.55191 7.17097-4.55191 9.67668-0.543327 8.45392 4.42831 8.45392 9.42002 8.45392 13.4483 9.67668 13.4483 7.17097" fill="#FFFFFF" fill-rule="evenodd" transform="matrix(1 0 0 -1 3497 823)"/><path d="M14.2035 7.18542C14.2035 4.67813 9.94852-2.23477 4.69274-2.23477-0.542599-2.23477-4.79717 4.67813-4.79717 7.18542-4.79717 9.69047-0.542599 8.46729 4.69274 8.46729 9.94852 8.46729 14.2035 9.69047 14.2035 7.18542" fill="#FFFFFF" fill-rule="evenodd" transform="matrix(1 0 0 -1 3515 823)"/><path d="M13.4623 7.19777C13.4623 4.69186 9.42926-2.22108 4.46221-2.22108-0.504837-2.22108-4.5379 4.69186-4.5379 7.19777-4.5379 9.70406-0.504837 8.48063 4.46221 8.48063 9.42926 8.48063 13.4623 9.70406 13.4623 7.19777" fill="#FFFFFF" fill-rule="evenodd" transform="matrix(1 0 0 -1 3534 823)"/><path d="M-2.12607-1.75843C-2.4841-1.75843-2.82006-1.68917-3.1336-1.53515-4.3205-0.985441-4.83583 0.415169-4.27601 1.59431L76.0125 172.882C76.5502 174.062 77.961 174.573 79.1479 174.017 80.3348 173.467 80.8277 172.065 80.2679 170.887L0.00180819-0.40038C-0.401419-1.25597-1.25235-1.75843-2.12607-1.75843" fill="#36303A" fill-rule="evenodd" transform="matrix(1 0 0 -1 3790 996)"/><path d="M78.1452-1.76096C77.2505-1.76096 76.4006-1.26138 75.9981-0.40471L-4.27793 170.885C-4.83704 172.063-4.32278 173.464-3.1373 174.015-1.97424 174.57-0.564894 174.059-0.00578637 172.877L80.2699 1.58962C80.8294 0.411925 80.3148-0.989052 79.1293-1.54021 78.8161-1.69206 78.4805-1.76096 78.1452-1.76096" fill="#36303A" fill-rule="evenodd" transform="matrix(1 0 0 -1 3785 996)"/><path d="M96.3567-1.81881 0.759163-1.81881C-2.10811-1.81881-4.44218 0.396831-4.44218 3.12862L-4.44218 5.23619C-4.44218 7.96593-2.10811 10.1816 0.759163 10.1816L96.3567 10.1816C99.224 10.1816 101.558 7.96593 101.558 5.23619L101.558 3.12862C101.558 0.396831 99.224-1.81881 96.3567-1.81881" fill="#6F5E61" fill-rule="evenodd" transform="matrix(1 0 0 -1 3777 828)"/><path d="M83.4944 0.607313 83.4944 12.3914C83.4944 13.8414 82.3048 15.0007 80.8009 15.0007L-1.83526 15.0007C-3.31637 15.0007-4.50596 13.8414-4.50596 12.3914L-4.50596 0.607313C-4.50596-0.840921-3.31637-1.99986-1.83526-1.99986L80.8009-1.99986C82.3048-1.99986 83.4944-0.840921 83.4944 0.607313" fill="#7B9FBA" fill-rule="evenodd" transform="matrix(1 0 0 -1 3790 764)"/><path d="M0.292128-2.01026 0.292128 14.9899-4.70841 14.9899-4.70841-2.01026 0.292128-2.01026" fill="#FFFFFF" fill-rule="evenodd" transform="matrix(1 0 0 -1 3856 764)"/><path d="M10.4039 11.948-4.58888 11.948-4.58888-2.05177 10.4039-2.05177C12.0774-2.05177 13.4117-0.706402 13.4117 0.952804L13.4117 8.9412C13.4117 10.6004 12.0774 11.948 10.4039 11.948" fill="#F5D2B5" fill-rule="evenodd" transform="matrix(1 0 0 -1 3857 778)"/><path d="M-4.55544-2.15051 71.4445-2.15051 71.4445 7.84983-4.55544 7.84983-4.55544-2.15051" fill="#FFFFFF" fill-rule="evenodd" transform="matrix(1 0 0 -1 3786 776)"/><path d="M72.4221 0.162357-3.53271 0.162357C-4.09472 0.162357-4.54419-0.249033-4.54419-0.757773L-4.54419-0.917542C-4.54419-1.42466-4.09472-1.83767-3.53271-1.83767L72.4221-1.83767C72.9838-1.83767 73.4558-1.42466 73.4558-0.917542L73.4558-0.757773C73.4558-0.249033 72.9838 0.162357 72.4221 0.162357" fill="#F5D2B5" fill-rule="evenodd" transform="matrix(1 0 0 -1 3785 766)"/><path d="M72.3318 0.507866-3.42016 0.507866C-4.04956 0.507866-4.54419-0.110888-4.54419-0.871578L-4.54419-1.10977C-4.54419-1.87356-4.04956-2.49231-3.42016-2.49231L72.3318-2.49231C72.9612-2.49231 73.4558-1.87356 73.4558-1.10977L73.4558-0.871578C73.4558-0.110888 72.9612 0.507866 72.3318 0.507866" fill="#F5D2B5" fill-rule="evenodd" transform="matrix(1 0 0 -1 3785 778)"/><path d="M-2.99202 7.00828-2.99202 7.00828C-2.42347 7.00828-1.99214 6.51196-1.99214 5.89933L-1.99214-0.88094C-1.99214-1.49569-2.42347-1.99201-2.99202-1.99201-3.54123-1.99201-3.99221-1.49569-3.99221-0.88094L-3.99221 5.89933C-3.99221 6.51196-3.54123 7.00828-2.99202 7.00828" fill="#FFFFFF" fill-rule="evenodd" transform="matrix(1 0 0 -1 3870 775)"/><path d="M76.4655-1.66203C77.9846-1.06397 77.7165 6.47377 76.4655 6.98779 75.8842 7.23399 57.3632 6.90793 38.5294 6.87341 18.0866 6.8347-2.80287 7.06347-3.2723 6.72659-4.54564 5.80875-5.32754-0.891346-3.00421-1.66203-1.81999-2.05749 18.6895-1.89115 38.5294-1.86081 57.4523-1.83291 75.7504-1.95566 76.4655-1.66203" fill="#E66C6C" fill-rule="evenodd" transform="matrix(1 0 0 -1 3792 797)"/><path d="M-0.813163 1.10964C-0.813163 2.76848-1.70726 4.11179-2.81324 4.11179-3.91922 4.11179-4.81332 2.76848-4.81332 1.10964-4.81332-0.547147-3.91922-1.88841-2.81324-1.88841-1.70726-1.88841-0.813163-0.547147-0.813163 1.10964" fill="#FFFFFF" fill-rule="evenodd" transform="matrix(1 0 0 -1 3854 796)"/><path d="M-0.794932 1.10813C-0.794932 2.76691-1.68415 4.1084-2.78359 4.1084-3.88304 4.1084-4.79544 2.76691-4.79544 1.10813-4.79544-0.548264-3.88304-1.89214-2.78359-1.89214-1.68415-1.89214-0.794932-0.548264-0.794932 1.10813" fill="#FFFFFF" fill-rule="evenodd" transform="matrix(1 0 0 -1 3848 796)"/><path d="M76.5953 9.24092C76.371 9.5087 71.7562 9.56868 64.8118 9.55669 63.3107 9.55669 61.6755 9.55669 59.973 9.54469 59.3007 9.54469 58.6288 9.54469 57.9568 9.53269 57.0157 9.53269 56.075 9.53269 55.1118 9.5207 48.7945 9.49903 41.6704 9.47542 34.6141 9.49903 15.7065 9.55669-2.88701 10.1093-3.46912 9.68593-4.72354 8.80518-4.99268-0.73641-3.46912-1.7557-2.73016-2.26108 15.6395-2.05018 34.6141-2.09817 41.6483-2.11945 48.7945-2.14344 55.1118-2.15544L59.973-2.15544C61.6755-2.15544 63.3107-2.14344 64.8118-2.14344 71.3081-2.09817 75.7437-1.9902 76.3037-1.7557 77.8048-1.12416 77.8497 7.66826 76.5953 9.24092" fill="#36303A" fill-rule="evenodd" transform="matrix(1 0 0 -1 3788 789)"/><path d="M0.286034-2.02098 0.286034 8.96848C-1.28061 8.96848-2.93961 8.96848-4.71377 8.95722L-4.71377-2.03188C-2.93961-2.03188-1.2578-2.02098 0.286034-2.02098" fill="#FFFFFF" fill-rule="evenodd" transform="matrix(1 0 0 -1 3852 789)"/><path d="M-1.20558-2.04042-1.20558 8.95994C-1.86185 8.95994-2.51838 8.95994-3.2059 8.94865L-3.2059-2.04042-1.20558-2.04042" fill="#FFFFFF" fill-rule="evenodd" transform="matrix(1 0 0 -1 3848 789)"/><path d="M70.5094-2.07299-4.49088-2.07299-4.49088 12.9271 70.5094 12.9271 70.5094-2.07299" fill="#F5D2B5" fill-rule="evenodd" transform="matrix(1 0 0 -1 3798 814)"/><path d="M-3.45712 0.227651 71.4956 0.227651C72.0521 0.227651 72.5194-0.186906 72.5194-0.6933L72.5194-0.851427C72.5194-1.36008 72.0521-1.77238 71.4956-1.77238L-3.45712-1.77238C-4.0136-1.77238-4.48092-1.36008-4.48092-0.851427L-4.48092-0.6933C-4.48092-0.186906-4.0136 0.227651-3.45712 0.227651" fill="#6C8685" fill-rule="evenodd" transform="matrix(1 0 0 -1 3797 799)"/><path d="M-3.36833 0.607564 71.4068 0.607564C72.0298 0.607564 72.5194-0.0106512 72.5194-0.774434L72.5194-1.01054C72.5194-1.77476 72.0298-2.39253 71.4068-2.39253L-3.36833-2.39253C-3.96902-2.39253-4.48092-1.77476-4.48092-1.01054L-4.48092-0.774434C-4.48092-0.0106512-3.96902 0.607564-3.36833 0.607564" fill="#6C8685" fill-rule="evenodd" transform="matrix(1 0 0 -1 3797 816)"/><path d="M35.4498-2.03595 35.4498 16.9643-1.56891 16.9643C-3.2033 16.9643-4.55046 15.5966-4.55046 13.9115L-4.55046 1.01429C-4.55046-0.67078-3.2033-2.03595-1.56891-2.03595L35.4498-2.03595" fill="#6C8685" fill-rule="evenodd" transform="matrix(1 0 0 -1 3784 816)"/><path d="M41.7691-2.48985-3.68801-2.48985C-4.12907-2.48985-4.45968-2.04008-4.45968-1.48775-4.45968-0.933119-4.12907-0.489324-3.68801-0.489324L41.7691-0.489324C42.1881-0.489324 42.5408-0.933119 42.5408-1.48775 42.5408-2.04008 42.1881-2.48985 41.7691-2.48985" fill="#FFFFFF" fill-rule="evenodd" transform="matrix(1 0 0 -1 3825 812)"/><path d="M41.7691-2.49618-3.68801-2.49618C-4.12907-2.49618-4.45968-2.04981-4.45968-1.49495-4.45968-0.943309-4.12907-0.496478-3.68801-0.496478L41.7691-0.496478C42.1881-0.496478 42.5408-0.943309 42.5408-1.49495 42.5408-2.04981 42.1881-2.49618 41.7691-2.49618" fill="#FFFFFF" fill-rule="evenodd" transform="matrix(1 0 0 -1 3825 809)"/><path d="M41.7691-2.501-3.68801-2.501C-4.12907-2.501-4.45968-2.05195-4.45968-1.50097-4.45968-0.949526-4.12907-0.500935-3.68801-0.500935L41.7691-0.500935C42.1881-0.500935 42.5408-0.949526 42.5408-1.50097 42.5408-2.05195 42.1881-2.501 41.7691-2.501" fill="#FFFFFF" fill-rule="evenodd" transform="matrix(1 0 0 -1 3825 806)"/><path d="M41.7691-2.51284-3.68801-2.51284C-4.12907-2.51284-4.45968-2.06629-4.45968-1.51396-4.45968-0.958873-4.12907-0.512318-3.68801-0.512318L41.7691-0.512318C42.1881-0.512318 42.5408-0.958873 42.5408-1.51396 42.5408-2.06629 42.1881-2.51284 41.7691-2.51284" fill="#FFFFFF" fill-rule="evenodd" transform="matrix(1 0 0 -1 3825 803)"/><path d="M-0.225364-2.04448-0.225364 16.9554-4.2255 16.9554-4.2255-2.04448-0.225364-2.04448" fill="#FFFFFF" fill-rule="evenodd" transform="matrix(1 0 0 -1 3806 816)"/><path d="M-2.15194-2.04165-2.15194 16.9586-5.15245 16.9586-5.15245-2.04165-2.15194-2.04165" fill="#FFFFFF" fill-rule="evenodd" transform="matrix(1 0 0 -1 3812 816)"/><path d="M139.053 39.1787C138.515 47.7985 140.15 70.2734 139.203 78.8221 138.687 83.5603 132.487 78.3107 128.849 78.3819 122.219 78.5113 118.042 72.211 111.412 72.3447 104.438 72.4871 97.4629 72.91 90.5098 73.4969 60.286 76.0493 30.1697 81.6314-0.140266 81.4135-0.204449 82.6734-0.247718 83.9337-0.312262 85.1939-0.355532 86.6027-1.94821 86.6136-1.9053 85.1939-1.53931 76.0688-4.83285 65.0538-4.46686 55.929-4.16578 47.9388-0.462984 41.6641 0.67789 33.791 2.68019 19.9211 9.43926 9.98061 18.8251 4.64678 29.9332-1.67735 42.5261-0.821146 54.3228-1.10992 67.8204-1.44243 81.3821-2.22996 94.901-1.32569 105.621-0.607186 117.612 0.557671 127.428 7.07624 136.986 13.4156 139.935 25.2159 139.053 39.1787" fill="#36303A" fill-rule="evenodd" transform="matrix(1 0 0 -1 3599 996)"/><path d="M-4.53635 6.31069C-4.02205 7.62222-2.4351 8.40609-3.48573 13.8073-4.53635 19.206-4.02205 21.4721 2.51775 25.2307 9.07884 28.9896 38.6887 27.3939 51.8965 27.8048 65.1042 28.2161 77.9257 21.86 84.7229 17.0577 91.5409 12.2555 89.4613 0.155425 87.8747-1.90449 86.3094-3.96192-4.53635 6.31069-4.53635 6.31069" fill="#E66C6C" fill-rule="evenodd" transform="matrix(1 0 0 -1 3631 742)"/><path d="M127.978 187.736C107.108 198.726 84.526 206.199 61.2287 209.982 60.9688 210.027 60.7305 209.934 60.5788 209.78 60.2316 209.793 59.9068 209.642 59.7769 209.246 59.6469 208.854 59.5165 208.46 59.3866 208.067L59.3435 207.82C44.4765 199.157 25.4704 197.884 11.9039 186.938 9.75831 185.217 8.32816 183.367 8.08956 180.558 7.95994 178.718 8.45814 176.892 8.805 175.106 9.49835 171.501 9.4549 168.638 8.26299 165.181 6.89765 161.288 5.09892 157.687 4.579 153.549 4.037 149.19 4.53556 144.79 5.35925 140.499 6.18258 136.129 7.37449 131.842 8.26299 127.488 9.41145 121.889 4.92586 116.305 5.01239 110.609 5.0772 106.186 1.97831 101.764 2.62857 97.3797 3.43018 92.021 0.200945 86.7729 0.634695 81.3646 1.4363 71.4289-3.22308 50.3107-4.41499 40.4834-4.95663 35.9907-2.81105 24.0269-3.93815 19.6162-5.26004 14.4137-2.16079 12.6283 0.309563 10.7106 8.45814 4.39552 28.7648 4.28524 38.8203 2.35703 44.1731 1.33344 49.2445-1.20979 54.6406-1.83276 62.9192-2.78946 71.1329 0.491364 79.3681 0.989235 88.0148 1.51531 96.7271 1.01093 105.309 2.41343 114.324 3.88499 134.089 5.08393 141.327 11.2627 143.993 13.5416 143.083 16.4153 144.058 19.8198 145.532 24.8535 144.34 30.2165 145.792 35.2115 147.266 40.269 146.832 44.3225 146.767 49.8544 146.724 54.596 147.157 70.1974 146.528 74.9306 146.052 78.5231 145.987 82.228 145.727 85.8426 145.185 93.1009 147.027 101.143 148.241 108.389 149.931 118.632 142.714 128.585 141.609 138.837 141.067 144.039 140.569 149.261 140.677 154.499 140.808 160.147 142.628 165.355 143.104 170.899 143.928 180.231 134.999 184.04 127.978 187.736" fill="#E66C6C" fill-rule="evenodd" transform="matrix(1 0 0 -1 3599 928)"/><path d="M57.5276 108.131C56.9904 106.863 56.5174 105.765 56.238 105.14 56.1308 104.905 56.0662 104.748 56.0233 104.654 54.8198 102.01 53.5519 99.4095 52.2837 96.7946 51.7464 95.6839 51.2091 94.5581 50.6933 93.4305L50.5214 93.1154C48.8238 89.5006 47.4699 85.8215 46.2234 82.079 45.9655 81.2959 45.729 80.5129 45.4711 79.7148 45.1274 78.5872 44.762 77.4445 44.4183 76.2849 43.6231 73.6552 42.8711 70.9932 42.0326 68.3312 41.1731 65.4995 40.2061 62.695 39.4969 59.8309 39.2176 58.6734 38.9597 57.5138 38.8093 56.3243 38.766 56.1671 38.7235 55.9945 38.7235 55.8391 38.1862 51.8157 37.391 47.5877 36.5311 43.392 36.3379 42.4047 36.1014 41.4195 35.8867 40.4343 34.4252 33.8572 32.7486 27.5635 31.309 22.5991 30.9653 21.4439 30.6427 20.3461 30.3419 19.344 29.4395 16.4331 28.7086 14.2243 28.2574 13.05 26.4951 8.35396 23.8301-2.08903 23.8301-2.08903 23.8301-2.08903 22.5623 7.50907 20.0266 18.9056 19.7686 20.0184 19.5107 21.1611 19.2528 22.3186 17.9849 27.5484 16.4592 32.9975 14.6969 37.9597 14.3743 38.8363 14.0521 39.7128 13.7298 40.5577 12.4402 43.8452 11.0219 46.8514 9.47472 49.3113 7.11049 53.1135 5.26248 57.3883 3.80137 61.8674 3.37124 63.1184 3.00615 64.3715 2.64069 65.625 1.67363 69.1164 0.878412 72.6848 0.233589 76.1935 0.0188906 77.2405-0.153304 78.2894-0.325136 79.3234-1.37829 85.4747-2.08741 91.3472-2.81797 96.2475-3.01123 97.6413-3.24773 98.9563-3.46279 100.176-3.50566 100.318-3.52709 100.473-3.54852 100.616-4.15048 103.778-4.42984 106.612-4.53737 109.069-4.60167 110.197-4.60167 111.232-4.58024 112.202-4.49414 117.602-3.54852 120.547-3.54852 120.547-3.54852 120.547 5.67081 126.855 26.6455 125.79 40.335 125.085 53.0789 119.951 60.3427 116.24 60.7725 116.006 58.9673 111.465 57.5276 108.131" fill="#FFFFFF" fill-rule="evenodd" transform="matrix(1 0 0 -1 3647 853)"/><path d="M51.3779 4.44098C50.8394 3.32587 50.3013 2.19561 49.7631 1.06535 47.1794 0.814337 44.6601 0.344055 42.2059-0.456216 36.6509-2.2782 31.4621-2.62261 25.6707-1.60343 21.795-0.928661 18.0058 0.233337 14.1951 1.14433 9.32926 2.28938 4.50648 2.21256-0.359365 2.98109-1.65126 3.18522-2.83552 3.48311-3.95521 3.89172-4.17046 5.28814-4.38571 6.60738-4.62249 7.83141 0.17877 5.79016 5.5397 6.04369 11.1808 5.02198 17.8552 3.8131 24.3142 1.11223 31.1608 0.861221 37.1463 0.624998 42.0337 3.45137 47.804 4.15788 48.9879 4.29817 50.1936 4.3941 51.3779 4.44098" fill="#F8F0EC" fill-rule="evenodd" transform="matrix(1 0 0 -1 3648 761)"/><path d="M41.3695 1.87812C41.0039 0.755688 40.6603-0.383216 40.3167-1.53716 35.9549-2.09838 31.4432-2.20797 26.6733-2.0665 16.4249-1.77139 6.17622-1.62992-4.07212-1.62992-4.26582-0.585927-4.45916 0.458427-4.63098 1.48774 3.81276 1.48774 12.2134 1.40966 20.636 1.20731 27.9197 1.03433 34.7303 0.90969 41.3695 1.87812" fill="#F8F0EC" fill-rule="evenodd" transform="matrix(1 0 0 -1 3651 775)"/><path d="M32.361 1.44122C32.0604 0.254593 31.8247-0.934245 31.6529-2.15555 27.5135-1.67404 23.5022-0.838681 19.7488 0.52579 15.7805 1.98804 12.5203 4.36572 8.16603 4.39818 4.28384 4.43065 0.380121 3.8842-3.50244 3.53035-3.90992 4.81476-4.29588 6.10138-4.63915 7.38578 2.56782 7.96285 9.68907 8.50931 16.2952 5.60215 21.4002 3.36985 26.7839 2.10058 32.361 1.44122" fill="#F8F0EC" fill-rule="evenodd" transform="matrix(1 0 0 -1 3654 795)"/><path d="M18.332 3.42968C18.1382 2.42562 17.9017 1.42412 17.6867 0.420065 13.8137 0.78561 9.94113 0.914411 6.02533 0.372863 2.41057-0.136485-0.709034-1.17274-3.67812-2.09703-4.00077-1.20494-4.32342-0.312854-4.66805 0.547036-0.0421172 1.90127 4.58382 3.77986 9.63972 3.89183 12.5443 3.95623 15.449 3.73265 18.332 3.42968" fill="#F8F0EC" fill-rule="evenodd" transform="matrix(1 0 0 -1 3665 813)"/><path d="M7.38436 1.36148C7.04532 0.424788 6.70592-0.463829 6.40917-1.27553 5.47628-1.28777 4.52206-1.33875 3.5682-1.40198 1.06627-1.57999-1.41434-1.66885-3.85266-1.62952-4.10712-0.730414-4.36158 0.195787-4.61604 1.13393-1.15988 1.03167 2.40181 1.10859 6.06978 1.31195 6.49411 1.33759 6.96038 1.36148 7.38436 1.36148" fill="#F8F0EC" fill-rule="evenodd" transform="matrix(1 0 0 -1 3671 832)"/><path d="M57.4134 0.848901C56.8776-0.49291 56.4063-1.65026 56.1278-2.31356 54.7564-2.06406 53.3852-1.783 51.9924-1.53578 43.8929-0.0456398 37.0579-1.32013 29.0016-1.50231 23.3018-1.61907 18.3307 0.633253 12.8027 1.66053 7.06044 2.73725 1.23227 2.5216-4.53137 1.84271-4.5959 3.03391-4.5959 4.1266-4.57415 5.15388-1.01765 5.54942 2.51783 5.78295 6.09608 5.64831 12.7599 5.41897 18.7809 2.85211 25.3161 2.05836 32.7082 1.14594 39.9934 3.53062 47.4498 2.58664 50.8137 2.15724 54.1136 1.46276 57.4134 0.848901" fill="#F8F0EC" fill-rule="evenodd" transform="matrix(1 0 0 -1 3647 746)"/><path d="M49.9094 20.9563C49.0533 23.7695 46.7845 25.8023 45.5644 28.4519 44.6442 30.4657 43.8735 32.0092 41.8186 33.0682 40.8126 33.5934 39.6569 33.7997 38.5866 34.2103 36.6388 34.9608 35.44 36.4239 33.6851 37.3977 31.6942 38.5138 29.5966 38.8413 27.3278 38.5077 23.5176 37.9484 21.3346 35.3286 17.3963 36.7938 15.213 37.6062 13.1581 37.906 10.8249 37.5828 4.36093 36.6791-0.240988 31.7414-4.37215 27.1676-5.03577 26.4213-3.94409 25.3091-3.25912 26.0618-2.46705 26.9335-1.67533 27.8182-0.840562 28.6899 1.85662 23.8694 7.99963 24.5542 12.9442 24.129 17.439 23.7418 21.7627 23.0358 25.8081 20.9437 29.3187 19.1212 31.8013 16.4313 34.6052 13.7522 37.0669 11.4002 47.6406-5.09619 51.1295-1.97708 54.169 0.740505 51.0441 17.2883 49.9094 20.9563" fill="#36303A" fill-rule="evenodd" transform="matrix(1 0 0 -1 3653 673)"/><path d="M42.1779 60.0428C32.0836 76.0815 8.13286 74.5973-4.49022 68.0634-5.38273 67.6038 3.35149 65.647 4.26521 66.1088 4.79647 66.387 5.3493 66.638 5.88056 66.8866 4.9877 65.8114 4.28641 64.4834 3.33028 63.4207 1.24764 61.1562-0.261318 58.744-1.15383 55.788-3.27924 48.8052-2.8116 40.806-1.93994 33.6583-0.516526 21.7374 4.11675 3.74231 16.8035-1.21249 22.3077-3.35681 28.5772-2.40572 32.3384 2.3212 34.2086 4.64455 35.2924 7.43612 36.4825 10.1221 38.1403 13.8563 37.4174 15.0477 39.394 18.6003 43.028 25.0857 45.9184 34.9867 46.3644 42.3219 46.7472 48.8515 45.8544 54.2154 42.1779 60.0428" fill="#36303A" fill-rule="evenodd" transform="matrix(1 0 0 -1 3659 715)"/><path d="M2.80945 2.17039C5.39057-0.459685 11.1454-2.9686 14.9113-2.03007 16.7309-1.57689 19.4813 1.07019 20.9204 2.22573 24.6439 5.24533 26.7597 8.80129 28.3674 12.6444 28.4523 15.5023 28.4311 15.762 28.3887 19.1371 28.3462 21.7821 28.2617 24.4121 28.2197 26.7402 28.0715 31.3537 27.9234 34.7693 27.9234 34.7693L-4.5743 30.0473-4.5743 29.8748-4.5743 12.8061C-3.09317 8.72027-0.512411 5.53503 2.80945 2.17039" fill="#FFAA9C" fill-rule="evenodd" transform="matrix(1 0 0 -1 3660 751)"/><path d="M12.6602-2.13329C13.2845-2.18974 13.9092-2.20216 14.491-2.12299 16.5588-1.84928 18.6481-1.25392 20.4361-0.266262 22.8488 1.05369 25.0674 2.91468 26.3596 5.30784 27.1355 6.74459 27.6309 8.2882 28.3416 9.75832 28.1908 9.7711 28.0615 9.78139 27.9323 9.79808 22.1593 10.4623 16.4079 10.9427 10.5921 10.7108 7.72721 10.5876 4.86232 10.4016 2.01904 10.7712-0.285976 11.0658-2.44013 12.5484-4.65873 12.7973L-4.65873-1.32918C-4.35701-1.52763-4.03405-1.69875-3.68912-1.82194-1.66459-2.56357 0.618821-2.02252 2.68693-1.85354 4.64702-1.69059 6.62871-1.57556 8.6104-1.63414 9.90297-1.67177 11.2812-2.0101 12.6602-2.13329" fill="#F07D67" fill-rule="evenodd" transform="matrix(1 0 0 -1 3660 734)"/><path d="M37.7114 76.3627C34.5546 78.5586 30.5714 77.4574 26.7999 78.3678 21.6302 79.6152 16.1849 80.274 11.0367 78.956 2.05312 76.6481-4.81165 70.7551-4.53609 58.136-4.15503 40.9034-4.02801 21.4984 3.19736 11.2131 7.41339 5.19136 12.689-1.28993 20.2107-2.18321 39.1735-4.43733 46.7796 21.3115 47.8812 36.3352 48.5381 44.8408 50.8266 58.6661 48.2841 66.7984 46.9701 71.0299 42.987 71.764 39.7455 74.7481 39.11 75.3364 38.4319 75.873 37.7114 76.3627" fill="#FFAA9C" fill-rule="evenodd" transform="matrix(1 0 0 -1 3650 731)"/><path d="M-1.25113 3.28002C-1.56414 4.24164-2.10341 4.92289-3.00815 4.3042-3.28657 4.11271-3.42579 3.78772-3.53012 3.47608-4.06939 1.90874-3.96505-2.41415-2.19045-2.45878-0.798615-2.49234-0.746447-0.157154-0.850783 1.10084-0.903249 1.7039-1.02487 2.56787-1.25113 3.28002" fill="#36303A" fill-rule="evenodd" transform="matrix(1 0 0 -1 3662 697)"/><path d="M-4.66439 3.23046C-4.2869 4.2022-3.6018 4.91363-2.39785 4.37281-2.01996 4.2022-1.80753 3.88579-1.64207 3.58046-0.839309 2.04767-0.744937-2.27476-3.12954-2.43621-4.9716-2.55987-5.20773-0.248086-5.11336 1.00608-5.08967 1.61218-4.9716 2.49422-4.66439 3.23046" fill="#36303A" fill-rule="evenodd" transform="matrix(1 0 0 -1 3687 697)"/><path d="M-1.35876 16.1019C-1.35876 16.1019 0.554892 18.2546 3.89876 14.8017 7.24263 11.348 3.81093 1.37179 0.158913-0.833088-3.49273-3.03797-5.01078-2.07937-4.703-1.69579-4.39485-1.31221-1.35876 16.1019-1.35876 16.1019" fill="#FFAA9C" fill-rule="evenodd" transform="matrix(1 0 0 -1 3698 706)"/><path d="M1.75886 16.0642C1.75886 16.0642-0.0702413 18.219-3.23428 14.7651-6.39866 11.3112-3.13156 1.33722 0.320498-0.869032 3.77221-3.07528 6.75164-2.11459 6.46396-1.73313 6.17629-1.34709 1.75886 16.0642 1.75886 16.0642" fill="#FFAA9C" fill-rule="evenodd" transform="matrix(1 0 0 -1 3645 706)"/><path d="M0.896191-0.733982C-0.629904-0.999379-1.89485-0.417052-2.87844 1.01484L-2.65773 2.65176C-2.4569 4.05347-2.23619 5.45297-2.01514 6.85063-1.63371 9.45122-1.23205 12.0522-0.85061 14.6506-0.689879 15.6599-2.13578 16.0953-2.29617 15.0776-2.67761 12.477-3.05939 9.87821-3.4607 7.27762-3.74207 5.34327-4.50495 2.99446-4.36443 1.01484-4.18348-1.7087-1.21183-2.41839 0.896191-2.3363 1.8599-2.29765 1.8599-0.694964 0.896191-0.733982" fill="#F07D67" fill-rule="evenodd" transform="matrix(1 0 0 -1 3672 712)"/><path d="M11.2563 2.62144C10.3027 2.31624 8.37374 1.96012 7.99708 1.88572 5.71295 1.40896 3.85045 1.61014 1.50021 1.83479 0.147338 1.96626-0.118626 2.05547-4.19839 2.49864-4.81948 2.56654-5.01895 2.00238-4.59772 1.48517-0.628644-3.10217 8.50672-4.01378 11.9216 1.76942 12.3874 2.5622 12.2544 2.94144 11.2563 2.62144" fill="#F07D67" fill-rule="evenodd" transform="matrix(1 0 0 -1 3668 720)"/><path d="M10.4869-0.440264C10.3839 0.442562 8.50824 1.2699 7.82778 1.4485 5.33369 2.09922 2.63335 1.88023 0.118816 1.58081-1.22131 1.42355-4.66345 1.0089-4.4988-0.787616-4.45755-1.13694-4.27175-1.35001-3.94209-1.47477-2.29312-2.08707-0.540844-2.06606 1.19063-2.11005 2.94256-2.15437 4.69483-2.11005 6.42595-2.06803 7.70402-2.03519 9.1471-2.00466 10.1572-1.15434 10.4252-0.920253 10.5281-0.678289 10.4869-0.440264" fill="#36303A" fill-rule="evenodd" transform="matrix(1 0 0 -1 3656 687)"/><path d="M-4.13673-1.13572C-3.14008-1.9871-1.68669-2.01796-0.420087-2.04882 1.32405-2.09151 3.06818-2.13583 4.79153-2.09348 6.53566-2.04882 8.30059-2.07017 9.94112-1.4588 10.2731-1.33108 10.4602-1.11832 10.5018-0.768309 10.6678 1.02704 7.20033 1.44107 5.89214 1.59769 3.35893 1.89746 0.659734 2.1181-1.83224 1.468-2.51735 1.28807-4.36545 0.460329-4.48985-0.421913-4.51065-0.659958-4.42748-0.901614-4.13673-1.13572" fill="#36303A" fill-rule="evenodd" transform="matrix(1 0 0 -1 3683 687)"/><path d="M55.2712 26.2858C51.5833 35.361 39.5121 39.6445 30.6782 41.0472 25.8112 41.8153 20.8372 41.8328 15.9913 41.0603 11.8963 40.4082 6.27866 39.4617 3.2986 36.2344 0.0605881 32.7405-0.904104 26.2236-1.78318 21.7679-2.87666 16.1567-3.24092 10.468-3.06967 4.76038-3.1553 4.88088-3.21951 4.98172-3.28409 5.0356-3.92734 5.80813-5.06364 4.68283-4.37758 3.91468-3.39112 2.75517-1.71896-4.36429 1.24006-1.82537 2.80519-0.502031 2.80519 2.75735 3.06242 4.5991 3.64145 8.98159 4.32751 11.9184 8.50845 14.1817 10.8242 15.449 13.6327 15.7825 15.9056 17.1401 18.028 18.4223 18.5428 20.2811 19.4219 22.5059 19.9795 23.9064 20.301 25.5049 21.6303 26.4668 23.3242 27.6951 25.7256 27.7297 27.7196 27.8629 30.228 28.0286 32.8224 27.8695 35.2238 27.0518 39.1261 25.7223 42.3852 22.8113 44.4005 19.2356 47.7884 13.2199 51.7763 0.326193 51.7763 0.326193 51.7763 0.326193 55.0354 7.81771 55.6358 12.1139 56.3001 16.8109 57.1363 21.7421 55.2712 26.2858" fill="#36303A" fill-rule="evenodd" transform="matrix(1 0 0 -1 3647 690)"/><path d="M37.8393 53.4485C34.9692 53.9438 32.1838 53.7774 29.3138 53.6088 24.9126 53.3504 21.0647 55.1479 16.7699 55.5683 12.3477 55.9995 7.86149 53.7712 5.1615 50.189 4.58756 49.414 4.33243 48.5732 3.94956 47.7234 2.84402 45.3882 1.61109 44.5558-0.21749 43.0697-1.93968 41.6676-3.3217 40.0729-4.04438 37.9255-4.72471 35.8952-4.76741 33.6839-4.19311 31.6237-3.51314 29.1777-2.2585 27.8265-2.96018 24.9895-3.279 23.6895-3.98069 22.5965-4.17212 21.2282-4.51193 19.0827-4.06573 17.7743-2.91748 16.0517-1.72689 14.2757-0.408925 13.7161-0.897826 11.1589-1.2807 9.05409-1.83329 7.49572-1.36538 5.28225-0.323883 0.293579 5.22519-4.85314 10.2427-1.07476 11.7311 0.0414209 12.7516 1.69389 13.3892 3.44011 14.4951 6.42859 14.5375 9.53443 14.9417 12.649 15.3028 15.5583 15.7921 18.4574 16.4084 21.3219 17.5993 26.5926 19.2148 32.418 22.8079 36.5957 23.0844 36.9456 23.4032 37.2806 23.7433 37.6011 30.0791 43.6314 38.6897 44.1586 46.3012 47.7404 46.5776 47.222 46.705 46.6475 46.705 46.0051 46.6627 44.8951 48.3849 44.8973 48.4059 46.0051 48.555 51.0385 41.7512 52.7698 37.8393 53.4485" fill="#36303A" fill-rule="evenodd" transform="matrix(1 0 0 -1 3635 697)"/><path d="M3.81354 5.33831C2.41178 6.75842 2.11887 8.78525 0.696062 10.1906-0.49627 11.3676-2.0864 11.989-3.63479 12.6024-4.55527 12.9726-4.95271 11.4953-4.03188 11.131-2.02361 10.3243-0.49627 9.50952 0.612578 7.59358 1.15666 6.63069 1.44957 5.64921 2.20271 4.79511 4.0647 2.66547 7.64242 1.58083 7.89358-1.60469 7.97707-2.57775 9.52546-2.58827 9.44162-1.60469 9.16976 1.98401 6.11507 3.05217 3.81354 5.33831" fill="#1A161C" fill-rule="evenodd" transform="matrix(1 0 0 -1 3668 657)"/><path d="M20.3696 28.6C17.4658 27.8192 14.8828 26.3504 13.0468 23.9209 11.7445 22.2011 11.3173 20.2425 10.3353 18.3767 9.07564 15.9814 7.02624 14.7805 4.67808 13.6175 2.03043 12.307-0.766062 11.1588-2.51669 8.67661-4.6303 5.69461-4.65182 1.88714-4.65182-1.61199-4.65182-2.62065-3.05038-2.62282-3.05038-1.61199-3.09306 2.84532-2.8585 7.34735 1.26218 10.0845 3.46114 11.5407 6.04423 12.2983 8.22167 13.7675 10.2072 15.095 11.2534 16.6334 12.2143 18.7607 14.093 22.9375 16.0355 25.812 20.7749 27.0868 21.7784 27.3508 21.3516 28.864 20.3696 28.6" fill="#1A161C" fill-rule="evenodd" transform="matrix(1 0 0 -1 3649 684)"/><path d="M8.458 10.6452C2.1354 9.52883-2.96019 4.79424-4.5412-1.38125-4.79053-2.34457-3.29311-2.75575-3.04342-1.7903-1.56708 3.90336 3.05021 8.12912 8.87379 9.15458 9.85147 9.32821 9.43532 10.8167 8.458 10.6452" fill="#1A161C" fill-rule="evenodd" transform="matrix(1 0 0 -1 3643 677)"/><path d="M17.036 10.6373 17.036 10.588ZM-3.24733 11.2856C-3.12003 9.35395-3.0562 7.65899-2.63188 5.77664-2.35625 4.52751-1.91053 3.24377-1.27405 2.10876-0.552706 0.73225 1.01728-0.243347 2.43894-0.55112 4.17866-0.921847 5.96081-0.986274 7.76436-0.981856 16.2722-0.947618 16.9725 8.6217 17.036 10.377 16.0176 10.9392 11.2438 12.1151 5.85491 12.2723 1.31431 12.4144-1.82567 11.6151-3.24733 11.2856ZM7.74332-2.34953C4.36942-2.35616-0.277078-2.67056-2.41972 1.45603-3.33219 3.18781-3.79895 5.42763-4.11701 7.35527-4.35056 8.79621-4.64759 10.3318-4.62655 11.8025-4.56272 13.2932 4.43325 13.6808 5.89734 13.64 11.456 13.4761 17.2909 12.1755 18.1396 11.2212L18.3303 11.0081 18.3728 10.5965C18.3728 10.3811 18.3517 4.18255 14.6598 0.407174 12.899-1.41075 10.5649-2.33665 7.74332-2.34953" fill="#36303A" fill-rule="evenodd" transform="matrix(1 0 0 -1 3651 706)"/><path d="M-3.14833 10.1777-3.14833 10.0907ZM-3.14833 9.86073C-3.16899 8.65377-3.0041 4.37978-0.527231 1.58497 0.855613 0.0335767 2.75448-0.801148 5.12807-0.901156 7.76983-1.0055 11.7531-1.20732 13.4045 1.79365 14.7873 4.26063 15.0142 7.7898 15.2001 10.6377 13.9205 10.8994 11.6089 11.4464 7.93507 11.3634 2.79579 11.272-2.11663 10.3694-3.14833 9.86073ZM7.33642-2.29297C6.49026-2.2973 5.70607-2.26553 5.06611-2.23773 2.36239-2.12472 0.153688-1.14377-1.47667 0.678394-4.67576 4.2776-4.46921 9.93943-4.4489 10.1802L-4.4489 10.4247-4.2217 10.7164C-3.31357 11.7125 3.14658 12.6194 7.91442 12.7046 11.5056 12.749 15.8607 12.136 16.3557 11.6042L16.5416 11.389 16.5003 10.6016C16.2937 7.60675 16.0669 3.87974 14.5395 1.12969 12.9504-1.76729 10.4116-2.28033 7.33642-2.29297" fill="#36303A" fill-rule="evenodd" transform="matrix(1 0 0 -1 3679 705)"/><path d="M-4.67653-3.32137-4.67653-1.40305 1.30245-1.32131 1.32403-3.23963-4.67653-3.32137" fill="#36303A" fill-rule="evenodd" transform="matrix(1 0 0 -1 3673 694)"/><path d="M-3.11744-2.07171-4.23505-1.18823 1.6472 5.92852 2.76482 5.04471-3.11744-2.07171" fill="#36303A" fill-rule="evenodd" transform="matrix(1 0 0 -1 3699 692)"/><path d="M1.3144 5.72792C8.35252-1.58524 27.9726-3.67822 36.8167-0.972203 47.3847 2.25273 53.2187 19.4664 57.3917 29.7506 57.9314 31.0348 58.4091 32.3315 58.8659 33.6326 59.5924 42.2988 59.5719 51.0255 59.0735 59.7047 58.2428 73.8517 56.1875 87.8881 54.1323 101.896 53.1149 108.767 52.3675 115.747 50.9971 122.553 50.0005 127.53 48.2775 132.254 44.3741 135.673 44.1457 135.875 43.8965 135.9 43.6476 135.835 43.3984 135.934 43.1075 135.919 42.8586 135.685 34.4293 127.943 25.8548 120.06 19.7299 110.268 16.7819 105.565 12.8369 100.441 11.5085 95.039 10.221 89.8293 7.10707 84.5193 6.81618 79.1906 6.44233 72.3819 4.69843 63.5361 0.83676 57.9741-1.92455 53.9757-3.39875 49.8809-3.50254 45.0048-3.79307 33.3553-7.63391 15.0324 1.3144 5.72792" fill="#E66C6C" fill-rule="evenodd" transform="matrix(1 0 0 -1 3569 877)"/><path d="M48.1933 48.8304C46.63 53.4421 44.3405 58.0059 43.3936 62.7723 42.2269 68.5782 41.985 74.4843 41.1483 80.3231 40.4217 85.4349 39.189 90.4472 36.789 95.1912 33.9493 100.778 30.7348 105.938 29.1058 111.918 26.1996 122.418 24.02 135.594 14.1134 143.78 11.9337 145.575 9.90847 136.245 9.75411 135.635 8.74148 131.731 13.0347 129.473 12.0217 125.57 10.0183 117.763 8.0153 109.953 6.09988 102.129 3.54586 91.737 1.14619 81.3107-0.923229 70.8166-4.84202 51.0883-7.79198 29.0761 2.07088 10.2006 3.67795 7.12021 5.79153 4.2771 9.55633 2.90224 14.5757 1.06837 22.171-2.36895 27.4327-1.95754 36.8332-1.22234 49.3822 4.20967 51.5395 12.691 52.9484 18.3538 52.3321 25.5148 51.826 31.2796 51.3414 37.0444 50.1966 42.7526 48.3914 48.2582 48.3254 48.4496 48.2593 48.6389 48.1933 48.8304" fill="#E66C6C" fill-rule="evenodd" transform="matrix(1 0 0 -1 3724 891)"/><path d="M-4.5266 19.2337 49.3377 35.2869 80.4679 21.8986 88.5675 18.4086 107.474 10.2696 95.1024-1.71323C95.1024-1.71323 89.646-0.468621 81.8847 1.28248 81.4406 1.36726 80.9965 1.46899 80.5525 1.5498 66.9964 4.60684 47.3074 8.90849 36.7759 10.8421 24.3617 13.1171-4.5266 19.2337-4.5266 19.2337" fill="#F07D67" fill-rule="evenodd" transform="matrix(1 0 0 -1 3577 1000)"/><path d="M2.40903 34.16C4.86984 35.8552 28.0928 26.6013 32.8192 25.9022 32.8192 25.9022 32.9054 25.8785 33.0568 25.8574 37.7401 25.1712 43.222 23.4226 47.4092 20.9257 58.4164 14.3993 58.0713 11.193 56.8193 4.69671 55.7832-0.557766 50.5172-2.3896 42.5962-1.35729 40.7184-1.11159 38.6683-0.70734 36.4885-0.134509 25.2224 2.77914-4.34617 19.5383-4.34617 19.5383-4.34617 19.5383-5.29609 20.2546-3.28869 25.0173-1.28129 29.7926-0.0296964 32.4691 2.40903 34.16" fill="#6F5E61" fill-rule="evenodd" transform="matrix(1 0 0 -1 3675 1021)"/><path d="M-4.4583 26.348C0.0892785 25.6517 5.39151 23.8696 9.47829 21.3299 20.1457 14.6888 21.7594 10.8418 19.8522 4.36561 18.3014-0.8394 12.4751-2.39302 4.80487-1.34195 8.4305-0.216784 12.6428 1.84814 14.6339 5.57544 18.5738 12.8676 8.99604 18.8712 4.61612 22.0981 0.781011 24.9076-3.45234 26.0871-4.4583 26.348" fill="#FFFFFF" fill-rule="evenodd" transform="matrix(1 0 0 -1 3713 1021)"/><path d="M-4.05582 3.72342C0.370448 1.69655 4.85934-0.0841854 9.47348-1.61664 10.5176-1.96837 10.9351-0.280023 9.87047 0.0713436 5.42297 1.55743 1.05933 3.28145-3.22081 5.24982-4.22282 5.71069-5.05819 4.19108-4.05582 3.72342" fill="#F8F0EC" fill-rule="evenodd" transform="matrix(1 0 0 -1 3688 995)"/><path d="M-4.34952 5.54248C0.163708 2.52317 4.98595 0.143193 10.1401-1.65769 11.2463-2.04561 11.6668-0.286013 10.5828 0.101537 5.58333 1.85035 0.915786 4.20168-3.48667 7.1336-4.45991 7.7841-5.3449 6.19336-4.34952 5.54248" fill="#FFFFFF" fill-rule="evenodd" transform="matrix(1 0 0 -1 3682 1008)"/><path d="M135.863-1.60055C141.433 8.62939 143.892 21.2017 144.48 32.2247 143.03 35.1478 141.307 37.9154 139.373 40.426 136.64 44.0075 133.361 46.9939 129.389 49.1279 127.224 50.2834 124.932 51.1901 122.641 52.0171 121.737 52.3391 120.834 52.6402 119.93 52.943 119.026 53.2401 118.122 53.5368 117.218 53.8314 114.843 54.0628 114.192 55.454 115.264 58.0024 116.188 57.3584 117.071 58.8821 116.146 59.5196 116.02 59.604 115.894 59.6607 115.789 59.7239 115.621 62.0114 126.635 66.0395 126.635 66.0395L116.294 70.2061C116.294 70.2061 104.459 75.1475 84.5121 82.4395 74.5068 86.0951 30.5971 94.4498 19.7092 93.0546 12.0157 92.0673 5.07927 87.9468 1.46415 81.0988-2.55045 76.4964-5.11496 70.7469-4.40037 64.4443-3.89598 59.9574-1.87805 55.8221 0.0767947 51.8175 2.11564 47.6588 4.17576 43.4711 6.78209 39.6365 11.4695 32.7528 17.7962 27.875 25.8258 25.5218 30.4291 24.171 34.7379 23.4848 38.9627 20.9533 43.2088 18.3879 47.2446 16.5928 52.1422 15.4983 56.4301 14.5367 60.8232 14.0082 65.0689 12.8614 69.9665 11.5334 74.3175 8.93045 79.4043 8.22944 84.9325 7.46995 90.2922 6.97723 95.7155 5.5568 100.445 4.31939 105.111 3.09028 109.988 2.56868 114.864 2.04454 117.891-1.56048 123.041-1.69079 127.181-1.79836 131.616-1.87814 135.863-1.60055" fill="#36303A" fill-rule="evenodd" transform="matrix(1 0 0 -1 3513 1000)"/><path d="M81.5045 70.3113 54.2108 21.0319 22.7771 8.86256 14.5825 5.70271-4.49543-1.68885-3.96202 15.5952C-3.96202 15.5952 0.796908 18.5263 7.54042 22.7102 7.90294 22.9498 8.28727 23.1832 8.67125 23.4401 20.4297 30.7452 37.4375 41.4305 46.2725 47.418 56.6863 54.481 81.5045 70.3113 81.5045 70.3113" fill="#FFAA9C" fill-rule="evenodd" transform="matrix(1 0 0 -1 3657 1017)"/><path d="M56.2541 21.1705C55.6847 18.2469 32.5632 8.84149 28.6848 6.07535 28.6848 6.07535 28.6216 6.03977 28.4948 5.95171 24.659 3.20247 19.5159 0.679672 14.7528-0.421246 2.29575-3.3466 0.31465-0.790375-3.35314 4.74369-6.30384 9.22751-3.81662 14.1829 2.56958 18.9118 4.10851 20.0483 5.83674 21.1705 7.79689 22.2566 17.9141 27.9668 50.8371 36.3551 50.8371 36.3551 50.8371 36.3551 52.0173 36.4938 53.9146 31.6786 55.8325 26.8638 56.823 24.0768 56.2541 21.1705" fill="#6F5E61" fill-rule="evenodd" transform="matrix(1 0 0 -1 3603 1037)"/><path d="M29.3707 6.23234C25.5342 3.45134 20.3556 0.899734 15.5966-0.215209 3.10142-3.17288-0.735138-1.57626-3.79634 4.4296-6.27023 9.25508-3.04128 14.5579 3.35287 19.3394 1.46629 15.9211-0.232244 11.4239 0.878977 7.31347 3.01736-0.728512 14.2339 1.87581 19.727 2.72574 24.507 3.48697 28.4483 5.70195 29.3707 6.23234" fill="#FFFFFF" fill-rule="evenodd" transform="matrix(1 0 0 -1 3602 1037)"/><path d="M9.39649 5.38107C4.78354 3.80976 0.274436 2.00582-4.11012-0.0368918-5.12828-0.502138-4.25572-1.94023-3.2372-1.47465 1.02244 0.506237 5.3863 2.25245 9.83295 3.77594 10.8929 4.13427 10.4357 5.74316 9.39649 5.38107" fill="#FFFFFF" fill-rule="evenodd" transform="matrix(1 0 0 -1 3642 1022)"/><path d="M10.4173 4.38543C5.4056 3.5021 0.578154 2.00806-4.06501-0.0720104-5.04689-0.520875-4.18775-1.96074-3.18512-1.51428 1.31491 0.506473 5.99887 1.91822 10.8875 2.77411 11.9717 2.9634 11.5012 4.57506 10.4173 4.38543" fill="#FFFFFF" fill-rule="evenodd" transform="matrix(1 0 0 -1 3637 1009)"/><path d="M164.181 82.8782C162.676 89.2641 162.101 91.2901 159.799 97.4928 158.25 101.675 153.116 104.671 149.464 107.207 139.483 114.102 125.098 108.027 115.161 103.405 111.111 101.52 107.238 100.298 102.79 99.8826 100.023 99.6224 97.3895 99.3686 94.8004 98.2389 89.4003 95.8843 50.8699 84.6767 50.8699 84.6767 50.8699 84.6767 56.9785 75.1329 46.9751 65.5913 46.7319 65.3638 46.6875 65.1036 46.7319 64.8589 39.7162 55.7452-0.11984 54.3927-3.99262 43.6903-6.25009 37.4567 0.389119 26.3725 3.26636 18.0424 4.48353 14.4587 16.4343-1.6851 16.4343-1.6851 16.4343-1.6851 36.7949 3.5624 41.4867 4.3103 49.1882 5.54155 91.2817 21.6944 104.095 28.5658 117.529 35.764 131.007 39.6169 144.064 47.4593 148.844 50.3257 158.139 56.2462 160.552 61.4009 163.075 66.774 165.487 77.3816 164.181 82.8782" fill="#36303A" fill-rule="evenodd" transform="matrix(1 0 0 -1 3669 1009)"/><path d="M101.565 61.2022C96.3618 59.0703 91.0279 57.149 85.9556 54.7474 82.9514 53.322 80.9049 51.1202 78.8152 48.8688 80.7963 52.5503 83.561 55.7319 86.979 58.2312 87.7842 58.8225 87.0007 60.183 86.1951 59.5852 81.4276 56.1187 77.9444 51.5574 75.811 46.0721L75.7673 45.8157C75.6151 45.672 75.4841 45.5222 75.3103 45.381 71.4352 42.0686 66.6674 40.0238 62.1178 37.844 57.2413 35.514 52.9745 32.0306 48.1414 29.7899 43.9182 27.8384 39.7384 26.8211 36.0376 23.8306 32.1189 20.6731 29.6154 16.0571 25.218 13.4642 20.6901 10.7914 15.182 9.87415 10.3492 7.85928 5.21156 5.71656 0.378413 2.97604-4.1712-0.23804-4.97672-0.818195-4.1932-2.17873-3.36567-1.59209 1.46712 1.82653 6.62637 4.73415 12.1341 6.90532 16.5102 8.62886 21.321 9.52844 25.4792 11.8019 29.3759 13.9403 31.8141 17.5372 34.8619 20.6425 38.9329 24.7871 43.6571 25.9824 48.751 28.3228 52.9525 30.257 56.5664 33.3735 60.7246 35.4445 65.013 37.5613 69.4761 39.3717 73.438 42.034 77.6179 44.8397 80.1867 49.3754 84.3446 52.1005 89.5042 55.482 96.2745 57.351 101.978 59.6918 102.893 60.07 102.479 61.5868 101.565 61.2022" fill="#1A161C" fill-rule="evenodd" transform="matrix(1 0 0 -1 3675 975)"/><path d="M9.12594 26.6146C8.47449 29.9819 7.71408 33.324 6.91047 36.6531 6.64974 37.6354 5.10751 37.2199 5.36825 36.235 6.30222 32.4308 7.12762 28.6071 7.84445 24.7538 8.32233 22.1502 9.66882 19.2541 7.08441 17.2147 5.75897 16.1645 3.26135 15.6342 1.3934 15.2096 1.56697 16.3492 1.67555 17.495 1.58876 18.6768 1.11088 24.4948-2.92934 29.3308-3.10292 35.2313-3.12471 36.2393-4.7323 36.2436-4.71051 35.2313-4.51515 28.9509 0.0901109 23.7015 0.0247436 17.4503 0.00295446 14.4863-1.12639 11.6619-1.14818 8.68707-1.16996 5.2963-0.17062 1.98417 0.785146-1.23452 1.08909-2.20207 2.63131-1.79045 2.34879-0.816758 1.28482 2.72914 0.198687 6.36162 0.502627 10.0962 0.611203 11.2611 0.850145 12.3939 1.0673 13.527 4.10854 14.2568 9.88635 15.2374 10.2557 19.0437 10.4728 21.4374 9.58204 24.2827 9.12594 26.6146" fill="#1A161C" fill-rule="evenodd" transform="matrix(1 0 0 -1 3677 965)"/><path d="M87.3279 8.97541C85.6012 10.5502 82.737 11.6001 80.7156 12.7565 78.2724 14.1337 75.8296 15.5131 73.3868 16.8881 63.3206 22.5927 53.1284 27.5469 42.683 32.4843 38.1344 34.6374 33.7962 37.2471 29.2265 39.3598 27.2048 40.2931 25.1411 41.1474 23.0143 41.7895 21.3504 42.2844 19.9605 42.4568 18.718 42.9667 19.4972 47.2729 18.5497 51.5448 15.9174 55.0562 15.3277 55.8616 13.9588 55.0708 14.5694 54.257 16.8649 51.1942 17.8124 47.5535 17.244 43.7808 16.7175 44.2039 16.1911 44.7608 15.6646 45.5279 10.8631 52.6757 5.17736 57.7319-3.56219 59.1645-4.57289 59.3282-4.99428 57.8001-3.98322 57.6364 0.691855 56.8689 5.02967 54.9709 8.6518 51.8276 10.3576 50.344 11.8738 48.6417 13.1164 46.7393 14.022 45.3854 14.5907 43.3449 15.8542 42.276 18.0864 40.393 22.3192 40.4374 25.0357 39.4258 29.6685 37.6914 33.9648 35.156 38.3239 32.8841 46.979 28.3909 56.0132 24.8074 64.5631 20.0551 69.0277 17.5747 73.4713 15.0328 77.9355 12.5141 80.1891 11.2346 83.2844 10.0997 85.222 8.38028 87.728 6.14845 87.6016 2.1378 87.8544-1.06307 87.9385-2.07257 89.5179-2.08095 89.4338-1.06307 89.181 1.98692 89.7917 6.7352 87.3279 8.97541" fill="#1A161C" fill-rule="evenodd" transform="matrix(1 0 0 -1 3569 975)"/><path d="M28.3695-0.625921C27.0417 2.25468 25.2988 4.86871 22.9959 7.04385 19.9254 9.918 16.4189 11.3999 14.116 15.1006 10.4438 20.9721 2.82935 24.2959-3.60222 26.1482-4.55653 26.4252-4.97154 24.9204-4.01723 24.6456-0.116788 23.5238 3.65936 21.7087 7.1448 19.6422 9.34413 18.3369 10.9831 17.0195 12.4353 14.8885 13.2031 13.7498 13.7424 12.5073 14.676 11.4729 16.4604 9.48519 18.9918 8.41321 21.0251 6.7085 23.6598 4.49216 25.5895 1.70507 27.0209-1.41271 27.4359-2.32633 28.7638-1.53524 28.3695-0.625921" fill="#1A161C" fill-rule="evenodd" transform="matrix(1 0 0 -1 3616 950)"/><path d="M25.1383 20.0139C18.2074 23.8121 9.90606 25.7676 2.73335 21.4643-2.8276 18.1077-6.23299 10.6841-3.55325 4.1331-0.248773-3.94693 8.67692-2.66751 14.6811-0.296307 17.7841 0.940841 21.8542 4.07339 23.708 7.21892 25.6825 10.5458 25.098 14.785 24.5742 18.4445L24.5339 18.5661C25.3198 18.3507 25.9442 19.5685 25.1383 20.0139" fill="#FFAA9C" fill-rule="evenodd" transform="matrix(1 0 0 -1 3584 861)"/><path d="M45.3416-1.9677C45.3416-1.9677 29.7758 12.4546 21.9499 17.4639 15.1312 21.8078 0.315921 26.7558-3.50042 27.9973-3.95085 28.1463-4.42253 27.8101-4.42253 27.3318L-4.65855 15.34 45.3416-1.9677" fill="#FFFFFF" fill-rule="evenodd" transform="matrix(1 0 0 -1 3624 885)"/><path d="M53.5038 20.3649C53.5038 20.3649 47.9769 25.0542 46.8121 25.0542 45.6687 25.0542 32.6881 19.6641 22.2272 15.5729 11.7663 11.4798-4.49661-1.94638-4.49661-1.94638-4.49661-1.94638 26.9704-0.197756 27.2669-0.0972271 27.5633 0.00330205 53.5038 20.3649 53.5038 20.3649" fill="#FFFFFF" fill-rule="evenodd" transform="matrix(1 0 0 -1 3674 885)"/><path d="M-4.61179 22.9024C-4.61179 22.9024-1.95421 26.5782-0.763666 27.0633 0.427246 27.5459 20.5826 19.5621 30.4693 15.2326 40.3555 10.9035 53.3887 1.13136 53.3887 1.13136 53.3887 1.13136 51.2197-2.93171 43.4171-1.67445 35.6144-0.41719 19.6046 2.6799 13.2686 6.25963 6.93294 9.83971-4.61179 22.9024-4.61179 22.9024" fill="#FFFFFF" fill-rule="evenodd" transform="matrix(1 0 0 -1 3617 889)"/><path d="M62.6592 56.098 49.3299 56.098C49.1586 56.098 48.9654 56.1366 48.7941 56.2117L-2.61599 79.0319C-3.55875 79.4446-4.56592 78.7163-4.50151 77.7044L-0.344 19.6547C-0.30154 19.1479-0.00143933 18.7052 0.470302 18.5097L49.2442-1.85061 50.3371-1.85061 61.652-1.85061 62.7664-1.85061 111.519 18.5097C111.99 18.7052 112.312 19.1479 112.355 19.6547L116.491 77.7044C116.576 78.7163 115.548 79.4446 114.605 79.0319L63.195 56.2117C63.0233 56.1366 62.852 56.098 62.6592 56.098" fill="#F8F0EC" fill-rule="evenodd" transform="matrix(1 0 0 -1 3614 942)"/><path d="M7.66536-1.95208-4.33467-1.95208-4.33467 2.04844 7.66536 2.04844 7.66536-1.95208" fill="#FFFFFF" fill-rule="evenodd" transform="matrix(1 0 0 -1 3669 934)"/><path d="M-3.12332-1.8672C-3.54305-1.8672-3.88335-1.52161-3.88335-1.0898L-4.38319 54.3403C-4.38319 54.7743-4.04323 55.1285-3.64336 55.1329L-3.62316 55.1329C-3.22329 55.1329-2.90318 54.7848-2.88333 54.3551L-2.38314-1.07501C-2.38314-1.50898-2.72345-1.86323-3.12332-1.8672L-3.12332-1.8672" fill="#DBCBC3" fill-rule="evenodd" transform="matrix(1 0 0 -1 3667 941)"/><path d="M-4.89417-1.85929C-5.46193-1.85929-5.8942-1.51008-5.8942-1.07647L-5.8942 54.3558C-5.8942 54.7894-5.46193 55.1408-4.89417 55.1408-4.32641 55.1408-3.89414 54.7894-3.89414 54.3558L-3.89414-1.07647C-3.89414-1.51008-4.32641-1.85929-4.89417-1.85929" fill="#DBCBC3" fill-rule="evenodd" transform="matrix(1 0 0 -1 3681 941)"/><path d="M21.2588 15.887C17.8065 19.0066 13.4602 22.6554 8.53108 23.0074 2.39625 23.4433-5.50663 17.9804-4.50844 11.3993-4.03019 8.09455-1.03524 8.77895 1.10679 6.99296 2.47932 5.84278 3.49837 5.32736 5.16216 3.3157 6.11864 2.15918 8.36495-0.426696 10.1535 0.202434 13.2107 1.27551 7.99027 8.43886 7.99027 8.43886 7.99027 8.43886 9.94531 6.69159 11.6925 4.79188 13.2107 3.14495 13.3146 1.62581 14.1046-0.245385 14.375-0.864306 14.5623-1.31248 15.1445-1.67475 17.037-2.83971 18.5343-0.155962 18.5343-0.155962 18.5551-0.127446 19.4286-0.461198 19.5533-0.489715 21.5084-0.945984 22.1114 2.16129 22.2987 3.50722 22.5066 5.24005 22.0075 7.74848 21.1758 9.31021 20.9259 9.73585 20.6558 10.1594 20.3645 10.5769 20.4893 10.4995 20.635 10.4178 20.7802 10.3446 21.654 9.88653 23.2761 8.78705 24.3991 9.26972 27.6227 10.6642 22.1531 15.0847 21.2588 15.887" fill="#FFAA9C" fill-rule="evenodd" transform="matrix(1 0 0 -1 3602 864)"/><path d="M-0.548503-0.553838C-1.56457 0.157455-2.69855 0.771964-3.95087 1.28391-4.9431 1.69416-5.84125 0.605841-4.84861 0.197325-3.73845-0.262907-2.7458-0.802877-1.80082-1.44252-0.997578-2.0108 0.278566-1.12183-0.548503-0.553838" fill="#F07D67" fill-rule="evenodd" transform="matrix(1 0 0 -1 3610 853)"/><path d="M4.062-0.704954C1.95064 1.9547-0.58741 4.09809-3.53074 5.75186-4.42626 6.25937-5.25824 4.83615-4.34092 4.32446-1.52579 2.74107 0.863012 0.691639 2.91045-1.85807 3.57138-2.68172 4.72329-1.52404 4.062-0.704954" fill="#F07D67" fill-rule="evenodd" transform="matrix(1 0 0 -1 3619 851)"/><path d="M6.65243-1.26229C6.43769 1.40602 6.00754 3.73045 4.42445 5.88026 2.33331 8.66282-0.246575 11.2503-3.23663 12.8945-4.0573 13.357-4.81938 12.0113-3.97906 11.5467 0.711273 8.9571 4.71777 4.43328 5.16723-1.25834 5.24547-2.25149 6.73067-2.26982 6.65243-1.26229" fill="#F07D67" fill-rule="evenodd" transform="matrix(1 0 0 -1 3615 860)"/><path d="M24.2956 20.677C23.6141 21.869 21.6548 25.2053 21.6548 25.2053 21.6548 25.2053 19.1204 25.1002 17.7363 24.4822L17.6935 24.4822C13.7323 23.7064 11.7089 20.6643 9.06844 17.9481 7.30076 16.136 5.32014 14.5067 3.16929 13.1213 1.87024 12.2784-0.302329 11.66-1.26059 10.4473-2.19785 9.29709-2.06965 7.94548-0.536643 7.34227-0.387437 7.28743-0.217221 7.27689-0.0680151 7.24736-0.89844 6.8185-1.75023 6.37488-2.58101 5.87888-3.68848 5.20606-5.13674 4.02881-4.22085 2.61815-3.66712 1.77519-2.83669 1.60506-1.9849 1.72457-2.02728 0.301607 0.0170928-0.499515 1.63557-0.358554 2.48772-0.285085 3.29677-0.131821 4.12756 0.0534316 4.48971-2.89409 8.13119-1.70208 10.5377-0.564898 16.0323 2.01915 26.4892 15.4635 26.4892 15.4635 26.4892 15.4635 25.2112 19.1215 24.2956 20.677" fill="#FFAA9C" fill-rule="evenodd" transform="matrix(1 0 0 -1 3719 915)"/><path d="M-4.49515-1.00325-3.94612 7.55839C-3.94612 7.55839 2.03302 9.75193 4.42051 8.78669 6.78641 7.82184 7.50488 6.31868 7.50488 6.31868L2.49785-1.9681-4.49515-1.00325" fill="#FFAA9C" fill-rule="evenodd" transform="matrix(1 0 0 -1 3733 896)"/><path d="M-4.53243 9.73697C-4.53243 9.73697 5.86503 28.655 10.4262 32.8916 14.9873 37.1241 23.6987 34.6103 26.8333 31.0394 29.9462 27.4663 30.7241 23.3636 26.8333 18.2039 22.9208 13.0463 4.95725-1.87882 4.95725-1.87882 4.95725-1.87882-3.10582-2.06557-3.10582-1.06142-3.10582-0.0528886-4.53243 9.73697-4.53243 9.73697" fill="#FFAA9C" fill-rule="evenodd" transform="matrix(1 0 0 -1 3741 898)"/><path d="M9.59695 14.8897C5.99411 15.3335 4.43196 14.0269 1.62016 12.1228-0.587665 10.627-2.94122 9.38833-4.08682 6.8452-4.94059 4.96968-4.87823 2.57424-3.56587 0.918272-1.9207-1.12567 1.47442-1.46251 3.84864-2.00067 4.84851-2.22273 5.26505-0.723032 4.26519-0.499185 2.70304-0.145894 0.932795 0.0986928-0.545973 0.751996-4.23256 2.38293-3.33711 6.272-0.900167 8.48865 1.80759 10.9621 5.86903 13.7927 9.59695 13.3328 10.5968 13.2073 10.5968 14.7646 9.59695 14.8897" fill="#F07D67" fill-rule="evenodd" transform="matrix(1 0 0 -1 3597 855)"/><path d="M5.95025 5.83996C3.01865 3.04474-0.328713 0.989747-4.11387-0.303492-5.09817-0.633785-4.66074-2.22372-3.69811-1.88852 0.34928-0.508085 3.95924 1.69337 7.08771 4.67733 7.83181 5.39906 6.69399 6.55717 5.95025 5.83996" fill="#F07D67" fill-rule="evenodd" transform="matrix(1 0 0 -1 3724 906)"/><path d="M9.18141 7.75216C5.53206 3.67296 1.10238 0.962115-3.93919-0.326712-4.90956-0.571942-4.50896-2.21569-3.53858-1.97046 1.75602-0.62326 6.43909 2.2768 10.2781 6.54521 10.9742 7.32712 9.8984 8.53211 9.18141 7.75216" fill="#F07D67" fill-rule="evenodd" transform="matrix(1 0 0 -1 3723 912)"/><path d="M5.02089 5.05962C2.48335 2.60325-0.574201 0.813261-4.06559-0.258565-5.04126-0.553004-4.62924-1.97579-3.65358-1.67729 0.0981851-0.528975 3.39429 1.38251 6.14857 4.01825 6.86386 4.69817 5.73619 5.74156 5.02089 5.05962" fill="#F07D67" fill-rule="evenodd" transform="matrix(1 0 0 -1 3729 913)"/><path d="M33.5516-1.94553C33.3808-1.94553 33.1885-1.88659 33.0393-1.76295 32.9537-1.69358 24.645 5.14543 16.2938 9.29779 7.92109 13.4836-4.0399 18.5029-4.1679 18.551-4.57382 18.721-4.76582 19.1807-4.59503 19.5797-4.42425 19.9743-3.95433 20.1609-3.54876 19.993-3.4204 19.9405 8.58337 14.9026 17.0413 10.6938 25.5208 6.45947 33.9788-0.494919 34.0643-0.564287 34.3847-0.843555 34.4487-1.33452 34.1495-1.66626 34.0003-1.851 33.7868-1.94553 33.5516-1.94553" fill="#F5D2B5" fill-rule="evenodd" transform="matrix(1 0 0 -1 3629 883)"/><path d="M-3.80223-1.93644C-4.06028-1.93644-4.34044-1.79581-4.46982-1.5466-4.70649-1.16769-4.57746-0.682764-4.21105-0.459791-3.52207-0.0550146 12.6527 9.51497 19.9111 12.4766 27.1477 15.4234 40.2425 19.9743 40.3719 20.022 40.7811 20.1608 41.2334 19.9441 41.3624 19.5305 41.5132 19.117 41.2979 18.6645 40.8887 18.5217 40.7594 18.4762 27.7076 13.938 20.5141 11.0087 13.3634 8.09042-3.24192-1.72658-3.39269-1.82605-3.52207-1.89964-3.65146-1.93644-3.80223-1.93644" fill="#F5D2B5" fill-rule="evenodd" transform="matrix(1 0 0 -1 3682 882)"/><path d="M-4.58726 4.61347-4.58726-1.78073 16.0282 6.05356 16.4131 12.219-4.58726 4.61347" fill="#FFFFFF" fill-rule="evenodd" transform="matrix(1 0 0 -1 3699 931)"/><path d="M-3.87348-1.80159C-4.17868-1.80159-4.48388-1.63205-4.61442-1.35153-4.78871-0.974327-4.59272-0.540272-4.20037-0.376862L12.2113 6.13874C12.6254 6.29806 13.0832 6.12853 13.2575 5.74928 13.4318 5.37378 13.2358 4.93802 12.8434 4.77461L-3.56828-1.74099-3.87348-1.80159" fill="#FFFFFF" fill-rule="evenodd" transform="matrix(1 0 0 -1 3701 882)"/><path d="M-3.80089-1.91195C-4.10235-1.91195-4.40381-1.73234-4.5328-1.43141-4.70491-1.02884-4.51143-0.563237-4.10235-0.390186L29.3082 14.0256C29.6959 14.1946 30.1694 14.0128 30.3415 13.6099 30.5136 13.2073 30.3198 12.7399 29.9111 12.5668L-3.49943-1.84892-3.80089-1.91195" fill="#FFFFFF" fill-rule="evenodd" transform="matrix(1 0 0 -1 3692 891)"/><path d="M-3.80089-1.89913C-4.10235-1.89913-4.40381-1.71956-4.5328-1.4187-4.70491-1.01622-4.51143-0.551089-4.10235-0.377713L29.3082 14.0369C29.6959 14.2078 30.1694 14.0238 30.3415 13.6213 30.5136 13.2167 30.3198 12.7515 29.9111 12.5782L-3.49943-1.83648-3.80089-1.89913" fill="#FFFFFF" fill-rule="evenodd" transform="matrix(1 0 0 -1 3692 897)"/><path d="M5.09988 0.610734C5.09988-0.77074 2.8527-1.88828 0.0885835-1.88828-2.65329-1.88828-4.90047-0.77074-4.90047 0.610734-4.90047 1.99185-2.65329 3.11189 0.0885835 3.11189 2.8527 3.11189 5.09988 1.99185 5.09988 0.610734" fill="#FFFFFF" fill-rule="evenodd" transform="matrix(1 0 0 -1 3670 893)"/><path d="M9.41269-1.87884 9.11111-1.82011-4.26719 3.60397C-4.67637 3.77181-4.87036 4.23545-4.71956 4.63818-4.52558 5.04056-4.05162 5.22543-3.64243 5.06158L9.73587-0.362137C10.1451-0.530337 10.339-0.991437 10.1666-1.39417 10.0375-1.69831 9.73587-1.87884 9.41269-1.87884" fill="#FFFFFF" fill-rule="evenodd" transform="matrix(1 0 0 -1 3621 925)"/><path d="M2.49073 19.1886C0.166364 26.5857-0.0870046 34.1759-3.21407 41.3966-3.63672 42.3141-4.98875 41.5232-4.58722 40.6118-1.50274 33.5198-1.33383 26.0376 0.948314 18.7754 3.10304 11.9428 7.18098 5.82243 7.75142-1.44801 7.83588-2.44029 9.42052-2.44852 9.33607-1.44801 8.74451 5.99699 4.68769 12.1961 2.49073 19.1886" fill="#B54848" fill-rule="evenodd" transform="matrix(1 0 0 -1 3632 775)"/><path d="M-3.04797 8.24127C-3.62125 9.10363-4.95221 8.27886-4.37893 7.40586-2.55684 4.6251-1.45118 1.57284-1.02104-1.7965-0.877901-2.84379 0.596549-2.39837 0.473502-1.35563 0.0232697 2.13104-1.16419 5.36368-3.04797 8.24127" fill="#B54848" fill-rule="evenodd" transform="matrix(1 0 0 -1 3643 729)"/><path d="M25.0697 51.4433C22.9348 46.7902 23.0619 41.468 20.462 37.0046 17.7565 32.3342 13.3182 28.5765 10.021 24.3175 4.0185 16.5415-0.800639 7.95249-4.45709-1.20495-4.8373-2.14345-3.33677-2.55453-2.97757-1.62472 1.10181 8.52705 6.66036 18.0031 13.6564 26.3493 16.5098 29.7539 19.9547 32.8398 22.1317 36.7827 24.4991 41.0979 24.3723 46.1965 26.4012 50.6472 26.8237 51.5618 25.4713 52.3644 25.0697 51.4433" fill="#B54848" fill-rule="evenodd" transform="matrix(1 0 0 -1 3693 791)"/><path d="M-1.91904 7.50619C-2.20943 10.4357-3.8854 12.9508-2.94706 15.9594-2.63415 16.9645-4.24295 17.3967-4.53335 16.3938-5.44917 13.5126-4.33225 11.228-3.77359 8.40376-3.081 5.03948-4.84625 1.90344-4.10863-1.4496-3.8854-2.47683-2.29873-2.0421-2.52234-1.01749-3.14778 1.86409-1.62827 4.60063-1.91904 7.50619" fill="#B54848" fill-rule="evenodd" transform="matrix(1 0 0 -1 3674 875)"/><path d="M17.1828 16.5552C17.0539 20.9418 15.6527 25.1382 13.6914 29.0672 8.66914 39.2024 1.29771 47.8399-3.1639 58.328-3.55212 59.2556-5.147 58.8481-4.73741 57.9082-0.556108 48.0738 5.8886 39.823 11.0618 30.5548 14.0361 25.303 15.8896 19.8055 15.4803 13.777 15.1569 8.56739 13.9068 3.62728 15.0277-1.58012 15.2431-2.57447 16.838-2.15465 16.6225-1.16031 15.308 4.80937 17.3769 10.5768 17.1828 16.5552" fill="#B54848" fill-rule="evenodd" transform="matrix(1 0 0 -1 3594 832)"/><path d="M29.9954-0.582564C24.5524 3.28145 19.1513 6.50694 12.3266 6.86204 6.3812 7.17325 0.582229 5.41642-4.31644 2.00807-5.13294 1.42807-4.35834 0.0475413-3.5003 0.634128 1.16847 3.8929 6.63224 5.57623 12.3266 5.2716 18.8164 4.92053 24.0292 1.71807 29.1792-1.95687 30.0165-2.55151 30.8122-1.17317 29.9954-0.582564" fill="#B54848" fill-rule="evenodd" transform="matrix(1 0 0 -1 3577 835)"/><path d="M25.5094 24.8405C18.9616 22.9146 12.2841 24.1914 5.97388 21.009 3.09978 19.5481 0.657975 17.488-1.13556 14.933-0.422599 18.0912 0.269155 21.2758 0.54981 24.6101 1.26313 33.3022-0.595448 41.9354-0.876462 50.601-1.17868 59.2191 1.88984 67.0032 2.58123 75.4585 3.38079 84.6064 2.23553 94.0818 1.80323 103.236 1.76011 104.243 0.204112 104.25 0.247235 103.236 0.657975 94.0839 1.82479 84.6042 1.02523 75.4585 0.593292 70.6177-0.919584 66.0264-1.78383 61.264-2.47558 57.2763-2.58339 53.2362-2.36742 49.1965-1.93512 40.5568-0.120024 31.8846-1.15748 23.2207-1.67566 18.7316-3.2967 14.5009-4.05278 10.0659-4.74454 6.23448-4.65829 2.39871-4.09626-1.43923-3.94498-2.43336-2.4321-2.00993-2.58339-1.02013-3.10229 2.54635-2.84284 5.90888-2.30273 9.21942-2.21613 9.29956-2.15145 9.39955-2.10796 9.52337-0.206269 15.4301 4.61265 19.3287 10.4259 21.0848 15.5039 22.6175 20.8417 21.8339 25.8986 23.3251 26.871 23.6095 26.4602 25.1271 25.5094 24.8405" fill="#B54848" fill-rule="evenodd" transform="matrix(1 0 0 -1 3738 869)"/><path d="M17.8163 0.340022C10.3996 2.33684 2.78546 3.1508-4.2145-0.510755-5.13593-0.981804-4.32434-2.33828-3.42444-1.86507 3.2241 1.60337 10.3996 0.704589 17.3777-1.17708 18.387-1.44203 18.8038 0.0754401 17.8163 0.340022" fill="#B54848" fill-rule="evenodd" transform="matrix(1 0 0 -1 3746 839)"/></g></svg>