<svg width="816" height="415" xmlns="http://www.w3.org/2000/svg" xmlns:xlink="http://www.w3.org/1999/xlink" xml:space="preserve" overflow="hidden"><defs><clipPath id="clip0"><rect x="314" y="345" width="816" height="415"/></clipPath></defs><g clip-path="url(#clip0)" transform="translate(-314 -345)"><path d="M70.1626 9.02733C70.0209 9.66939 69.8807 10.2985 69.7079 10.9275 67.0549 21.1355 61.3577 30.1647 55.676 38.9184 53.9341 41.6178 52.1609 44.3302 50.246 46.9381 47.1386 51.1578 43.7021 55.0757 39.4648 58.1292 34.8972 61.3921 29.593 63.5414 24.8996 66.5945 23.9585 67.2106 23.0478 67.8526 22.1694 68.5603 19.0149 71.0762 16.3936 74.2079 13.2073 76.6716 10.3986 78.8602 6.75763 80.3015 3.69719 80.0657 3.14806 80.0001 2.63029 79.9085 2.12695 79.7514-0.195424 79.0044-1.9528 76.9863-2.29894 73.1073-2.54917 70.2507-1.79559 67.433-0.854529 64.7336-0.744558 64.4062-0.618722 64.0655-0.494329 63.7378-0.274026 63.1351-0.0382194 62.519 0.196506 61.9162 0.306477 61.6019 0.432312 61.3005 0.574013 60.9991L0.589878 60.9991C1.17038 59.5052 1.84535 58.0506 2.55169 56.6223 3.49275 54.7091 4.52828 52.8218 5.6435 51.0006 12.0932 40.2154 20.9926 30.7937 30.1263 22.0267 37.8474 14.6227 45.8673 7.5071 54.1386 0.706224 57.6064-2.15076 62.3316-5.05965 66.3172-3.44784 66.6161-3.32996 66.9147-3.18576 67.1966-3.0156 67.3539-2.91069 67.51-2.80579 67.6672-2.70088 70.9948-0.276505 71.0579 4.89958 70.1626 9.02733" fill="#98B5A5" fill-rule="evenodd" transform="matrix(1 0 0 -1 965 485)"/><path d="M56.0757 99.1255C55.668 101.13 54.7879 102.585 53.5788 103.555 52.9661 104.039 52.2434 104.419 51.4734 104.642 50.9398 104.813 50.3585 104.904 49.7776 104.931 48.7572 104.996 47.674 104.878 46.5432 104.564 31.8261 100.501 22.5754 87.3317 14.4725 75.3411 7.3885 64.8447 2.26811 53.6404-0.276388 41.8729-0.983233 38.61-1.48441 35.2815-1.78353 31.9267-2.00255 29.4764-2.09817 27.0127-2.08229 24.5361-2.03502 17.3419-3.85716 9.79373-0.464014 3.07111 1.26359-0.322648 4.62354-3.10103 8.26854-3.86096 8.80255-3.96587 9.35208-4.04446 9.88573-4.04446 11.7862-4.12305 13.7025-3.5859 15.4615-2.28846 22.1518 2.69114 23.0477 13.1352 25.0741 20.5392 27.0203 27.6811 30.0357 34.6658 33.3816 41.401 35.0302 44.7428 36.7733 48.0321 38.4861 51.2557 38.8942 52.0026 39.3019 52.7626 39.727 53.5095 44.6731 62.2895 50.7677 70.6629 53.7358 80.334 55.4948 86.0079 57.2852 93.1628 56.0757 99.1255" fill="#98B5A5" fill-rule="evenodd" transform="matrix(1 0 0 -1 1047 451)"/><path d="M57.0481 70.0586C56.9692 70.2563 56.8917 70.4674 56.7969 70.6782 55.9929 72.4055 54.4019 73.632 52.6046 74.291 52.0373 74.5283 51.4386 74.6868 50.8243 74.7789 50.6346 74.8185 50.4308 74.858 50.2411 74.871 35.9495 76.6249 25.1414 64.2962 17.7356 53.7348 7.90347 39.6923 0.907163 23.1051-2.21288 6.01669-2.66972 3.45868-3.00131 0.584366-1.50373-1.55178-0.590416-2.85726 0.875307-3.60885 2.46628-3.87256 2.97163-3.95164 3.47408-3.97775 3.97943-3.95164 4.73491-3.92516 5.49293-3.80654 6.20063-3.56895 8.8957-2.68569 11.0536-0.642041 13.0076 1.42809 17.8765 6.61012 22.0054 12.4774 26.1017 18.3188 35.6508 31.9131 45.1989 45.5073 54.1492 59.5099 56.1826 62.6879 58.2456 66.5775 57.0481 70.0586" fill="#98B5A5" fill-rule="evenodd" transform="matrix(1 0 0 -1 1072 473)"/><path d="M46.2545 37.7615 46.2226 37.8934C46.0946 38.4727 45.9024 38.9599 45.6306 39.3552 43.9546 41.8967 39.7875 41.2514 36.9608 40.7772 31.2299 39.816 25.8164 37.3532 21.1215 34.0082 13.9692 28.9249 8.85943 21.7084 4.37249 14.3202 2.58461 11.3835-3.0358 4.23263-2.62093-0.165929L-2.62093-0.178971C-2.57324-0.824572-2.38103-1.41692-2.03035-1.9176-1.3598-2.83927-0.146361-3.51095 1.81796-3.73485 6.6233-4.26162 12.5478-0.350334 16.4599 1.94115 21.4894 4.89091 26.151 8.44679 30.351 12.4635 34.3901 16.3483 37.9996 20.681 41.049 25.3694 43.1718 28.6089 47.0359 33.5607 46.2545 37.7615" fill="#98B5A5" fill-rule="evenodd" transform="matrix(1 0 0 -1 1082 512)"/><path d="M59.4346 62.813C55.612 61.2245 51.9457 59.3207 48.5597 56.813 41.5084 51.6271 35.2675 45.194 28.9331 39.1545 23.3944 33.8765 17.5445 28.7166 12.2861 23.1236 11.5681 22.3752 10.8674 21.6005 10.1649 20.8127 4.04948 13.9592 1.22474 5.58288-1.03692-3.17412-1.28603-4.14571-2.80001-3.73865-2.53406-2.75406-0.412905 5.51714 2.19284 13.6312 7.68426 20.3139 8.96383 21.863 10.3058 23.3732 11.709 24.8566L11.709 24.8696C16.7954 30.2657 22.5047 35.2024 27.8256 40.2572 34.4245 46.5462 40.9002 53.2943 48.3421 58.5723 51.6332 60.9226 55.1898 62.7473 58.8561 64.2704 59.1221 63.8767 59.3095 63.3909 59.4346 62.813" fill="#789E88" fill-rule="evenodd" transform="matrix(1 0 0 -1 1068 537)"/><path d="M66.4578 147.707C61.4028 143.133 56.6113 138.259 52.13 133.071 44.1178 123.793 37.1163 113.626 31.2987 102.82 25.8849 92.7449 20.6097 81.6245 18.4481 70.1644 18.0892 68.322 17.8258 66.4401 17.6543 64.5844 17.0788 58.3908 17.8101 52.1444 16.8619 45.9767 16.0366 40.5797 14.0919 35.4444 11.8209 30.5047 6.82667 19.5935-0.00357417 9.20504-0.982897-3.06535-1.06117-4.05861-2.61737-4.05861-2.53945-3.06535-1.48185 10.1458 6.04821 21.1091 11.2297 32.9485 14.1698 39.691 15.7717 46.4339 15.8339 53.83 15.8808 59.4229 15.9898 64.8066 16.9541 70.2428 17.1567 71.4057 17.4062 72.569 17.7011 73.732 20.7659 85.9236 26.4292 97.7238 32.7148 108.543 41.3339 123.323 52.1457 136.69 64.7 148.19 65.3069 148.098 65.8981 147.942 66.4578 147.707" fill="#789E88" fill-rule="evenodd" transform="matrix(1 0 0 -1 1058 547)"/><path d="M18.3228 152.761C21.543 161.293 25.4667 169.589 29.7649 177.635 36.047 189.38 43.1737 200.652 50.4885 211.805 49.9571 211.976 49.379 212.068 48.8008 212.094 36.4384 193.225 24.4656 173.79 16.5726 152.563 12.7273 152.142 8.88186 151.681 5.08494 150.72 2.99006 150.18 0.957668 149.522-1.01189 148.732-1.71569 145.453-2.21409 142.108-2.51177 138.737 2.78647 140.37 8.11702 141.884 13.4465 143.333 9.42874 130.112 7.69402 116.563 7.49186 102.776 7.47498 101.973 7.46026 101.157 7.46026 100.353 7.41358 84.1174 8.78922 67.8949 7.75686 51.6459 6.60026 33.3561 4.31866 15.0793 2.48986-3.14503 2.39614-4.15896 3.95958-4.15896 4.05222-3.14503 5.63182 12.6431 7.35074 28.4179 8.75654 44.2325 10.1322 59.9283 9.49158 75.4926 9.1325 91.2149 9.03842 95.0072 9.02298 98.8126 9.10126 102.592 9.30486 114.337 10.4144 125.991 13.3995 137.46 13.9618 139.606 14.5873 141.713 15.2437 143.807 20.9804 145.361 26.7314 146.809 32.4835 148.258 34.1245 151.615 35.8592 154.92 37.5638 158.16 37.9695 158.91 38.3757 159.674 38.7987 160.424 34.9062 157.317 30.7175 154.736 25.5278 153.775 23.1366 153.327 20.7297 153.037 18.3228 152.761" fill="#789E88" fill-rule="evenodd" transform="matrix(1 0 0 -1 1048 558)"/><path d="M80.6082-2.82566C77.695 10.3641 76.6722 23.6329 77.0653 37.0978 77.223 42.185 77.2704 47.4165 75.3496 52.2151 73.1608 57.6168 69.3826 62.4025 66.8177 67.6733 66.5338 68.25 66.2669 68.8138 65.9985 69.3909 63.6849 74.2811 61.4958 79.224 58.647 83.8261 55.5776 88.769 51.8782 93.2924 48.1628 97.7502 41.2044 106.049 33.8215 113.969 26.249 121.704 27.9658 121.075 29.6501 120.354 31.334 119.646 36.8594 116.748 43.944 114.913 48.5245 119.056 45.4073 123.278 41.9603 127.198 37.7101 130.253 33.1285 133.517 27.8081 135.668 23.1004 138.723 19.5116 137.726 15.8277 137.044 12.0813 136.585 8.00429 141.384 4.36815 146.471 1.83362 152.201 1.28281 152.135 0.763467 152.044 0.258588 151.886 2.69836 146.235 6.19417 141.135 10.1616 136.389 6.90267 136.061 3.62783 135.864 0.368895 135.772-0.3396 135.76-1.29945 135.799-2.37069 135.864-2.14971 135.261-1.91319 134.645-1.67775 134.042-1.53598 133.727-1.40976 133.439-1.28354 133.124-0.701261 131.629-0.0242313 130.174 0.684625 128.745 1.62856 126.831 2.66689 124.943 3.78587 123.12 9.81477 123.802 15.9225 124.169 21.9199 122.95 22.2827 122.884 22.6284 122.779 22.9901 122.688 28.4696 117.102 33.9792 111.569 39.1903 105.722 47.8315 96.0326 56.2387 86.2124 61.9063 74.4254 62.8343 72.4849 63.7323 70.5707 64.6444 68.6435 66.4231 64.9724 68.265 61.3143 70.4538 57.8268 74.2165 51.8086 75.6809 46.2496 75.5547 39.1563 75.3022 24.7863 75.9793 10.8492 79.0805-3.23215 79.3-4.22838 80.8277-3.79592 80.6082-2.82566" fill="#789E88" fill-rule="evenodd" transform="matrix(1 0 0 -1 967 557)"/><path d="M-0.0621374-3.26992C-0.229241-3.26992-0.400207-3.25155-0.570119-3.2123-1.80514-2.92561-2.57993-1.66468-2.29908-0.400142L27.1151 132.904C27.3956 134.174 28.626 134.959 29.8572 134.671 31.0926 134.383 31.8659 133.126 31.5865 131.857L2.17095-1.43705C1.92977-2.52871 0.984369-3.26992-0.0621374-3.26992" fill="#7D4949" fill-rule="evenodd" transform="matrix(1 0 0 -1 1015 716)"/><path d="M-0.101994-3.32561C-1.20739-3.32561-2.10267-2.27136-2.10267-0.972102L-2.10267 115.33C-2.10267 116.627-1.20739 117.675-0.101994 117.675 1.00248 117.675 1.89777 116.627 1.89777 115.33L1.89777-0.972102C1.89777-2.27136 1.00248-3.32561-0.101994-3.32561" fill="#7D4949" fill-rule="evenodd" transform="matrix(1 0 0 -1 1053 690)"/><path d="M27.0219-3.27421C25.9023-3.27421 24.9017-2.50377 24.6731-1.38666L-2.52671 130.905C-2.78989 132.175-1.94815 133.42-0.649505 133.682 0.654651 133.931 1.91617 133.105 2.17788 131.835L29.3777-0.455132C29.6394-1.72972 28.7977-2.97007 27.499-3.22809 27.3387-3.25836 27.1796-3.27421 27.0219-3.27421" fill="#7D4949" fill-rule="evenodd" transform="matrix(1 0 0 -1 1060 715)"/><path d="M61.9368-3.53743 7.1443-3.53743C1.84003-3.53743-2.45993 0.777488-2.45993 6.09618L-2.45993 46.338C-2.45993 47.5111-1.51147 48.4628-0.341807 48.4628L69.424 48.4628C70.5922 48.4628 71.5407 47.5111 71.5407 46.338L71.5407 6.09618C71.5407 0.777488 67.2411-3.53743 61.9368-3.53743" fill="#DCA877" fill-rule="evenodd" transform="matrix(1 0 0 -1 1019 582)"/><path d="M57.0572 2.97898C55.5526 5.15529 53.6866 6.99515 51.6164 8.64039 49.342 10.4802 46.8345 12.0482 44.3256 13.538 43.4002 14.0819 42.4913 14.6001 41.5497 15.1184 39.4954 16.2846 37.4108 17.3988 35.2934 18.4484 28.7871 21.7649 22.0761 24.6673 15.1768 27.0899 11.8052 28.2818 5.18898 29.0203 1.12821 27.2325 0.501068 26.9733-0.0788884 26.6237-0.564827 26.2348-2.29065 24.8099-2.98047 22.5295-1.67791 19.0572-0.314473 15.3907 3.29134 13.0714 6.82043 11.3096 12.5739 8.45933 18.7045 6.41204 24.8196 4.41679 24.9453 4.36511 25.0552 4.33909 25.1809 4.28741 27.8454 3.40633 30.5129 2.52525 33.1774 1.64418 37.3009 0.284069 41.4398-1.06356 45.5644-2.43686 48.3391-3.3436 54.2352-4.38008 57.0572-3.09767 57.4801-2.89023 57.8414-2.64394 58.1073-2.33314 58.9858-1.33552 58.8915 0.348581 57.0572 2.97898" fill="#98B5A5" fill-rule="evenodd" transform="matrix(1 0 0 -1 975 513)"/><path d="M63.6363-3.70128C62.9542-0.931249 62.1753 1.81218 61.3363 4.52973 60.1137 8.48835 58.4997 11.7285 56.2901 14.4852 53.9379 17.4249 50.9285 19.8157 47.0408 21.932 43.3746 23.9311 39.6594 25.8518 35.8974 27.733L35.9903 27.8897C37.0731 29.4183 38.3112 30.8556 39.7368 32.0834 37.6842 33.2594 35.5992 34.3829 33.4825 35.441 33.4681 35.3235 33.4354 35.206 33.4051 35.0884 32.9496 33.3507 31.9629 31.7308 30.8343 30.2151 20.4896 35.2189 9.92485 39.8439-0.671595 44.2992-1.29854 44.0379-1.87867 43.685-2.36409 43.2932 8.45058 38.7203 19.1569 33.8603 29.7375 28.7782 29.2517 28.1901 28.7648 27.6021 28.3107 27.0533 26.664 25.0417 24.8786 23.108 23.0118 21.2919 23.1375 21.2397 23.2476 21.2135 23.3733 21.1614 26.037 20.2729 28.7032 19.3844 31.3673 18.496 32.7454 20.913 33.6237 23.7481 34.9878 26.2302 37.6684 24.9108 40.3638 23.6043 43.0289 22.2458 46.541 20.4688 50.1302 18.6397 53.0924 16.0138 53.9066 15.295 54.6279 14.5244 55.239 13.7143 57.45 10.9184 58.7511 7.61317 59.8325 4.12467 60.6283 1.53795 61.3705-1.07502 62.0248-3.70128L63.6363-3.70128" fill="#789E88" fill-rule="evenodd" transform="matrix(1 0 0 -1 977 530)"/><path d="M2.41803 94.3419C1.65039 77.9429-0.678719 7.59201-0.814038 2.74247-0.995762-3.75727 3.7326-5.37197 6.38796 0.510479 8.70043 5.63264 17.1809 93.8814 17.1809 93.8814 17.1809 93.8814 6.00928 95.7618 2.41803 94.3419" fill="#DCA877" fill-rule="evenodd" transform="matrix(1 0 0 -1 357 747)"/><path d="M13.18 94.3419C13.9883 77.9429 16.4455 7.59201 16.5898 2.74247 16.7812-3.75727 11.7921-5.37197 8.98828 0.510479 6.54604 5.63264-2.40485 93.8814-2.40485 93.8814-2.40485 93.8814 9.38909 95.7618 13.18 94.3419" fill="#DCA877" fill-rule="evenodd" transform="matrix(1 0 0 -1 980 747)"/><path d="M-1.5785 98.6975C-1.5785 90.0277 23.4673 4.95417 34.4526 1.80352 45.4398-1.3464 678.022-8.39798 688.186 1.80352 698.348 12.0061 723.422 93.1852 723.422 98.6975 723.422 104.21 691.399 114.446 688.186 120.748 684.971 127.05 670.46 209.764 668.299 214.487 666.137 219.21 78.0045 220.394 72.1185 214.487 66.2339 208.58 50.931 144.377 42.3008 130.983 33.6691 117.59-1.5785 107.354-1.5785 98.6975" fill="#F5D2B5" fill-rule="evenodd" transform="matrix(1 0 0 -1 316 685)"/><path d="M-1.58313-3.33854-1.81838-3.30172C-2.23358-3.17319-2.46341-2.73091-2.33332-2.31607 0.523614 6.76301 25.6939 86.4891 29.9475 89.954 34.315 93.5102 48.4226 90.4656 50.0173 90.1114 50.44 90.0063 50.7067 89.5994 50.611 89.1665 50.5163 88.7463 50.0935 88.4838 49.6718 88.5759 45.5458 89.5074 34.139 91.3317 30.9417 88.7333 27.9994 86.3316 10.3267 32.6864-0.833302-2.78976-0.938097-3.12481-1.24815-3.33854-1.58313-3.33854" fill="#DEB18C" fill-rule="evenodd" transform="matrix(1 0 0 -1 982 675)"/><path d="M618.64-4.11819-0.787307-4.11819C-1.22177-4.11819-1.57353-3.67077-1.57353-3.11815-1.57353-2.56508-1.22177-2.11766-0.787307-2.11766L618.64-2.11766C619.075-2.11766 619.426-2.56508 619.426-3.11815 619.426-3.67077 619.075-4.11819 618.64-4.11819" fill="#DEB18C" fill-rule="evenodd" transform="matrix(1 0 0 -1 365 661)"/><path d="M15.3898-3.19394C15.0003-3.19394 14.6709-2.9102 14.6158-2.53246 14.2889-1.17862 5.24272 24.0683-0.782561 40.7722-0.926414 41.1744-0.71459 41.6167-0.306767 41.7586 0.0985394 41.9093 0.54808 41.6901 0.693372 41.2904 6.4572 25.3111 16.131-1.61205 16.1716-2.3803 16.1935-2.80556 15.863-3.16947 15.4315-3.19253L15.3898-3.19394" fill="#DEB18C" fill-rule="evenodd" transform="matrix(1 0 0 -1 356 678)"/><path d="M0.0349061-2.92776C-0.379336-2.92776-0.723767-2.65145-0.738014-2.2867-0.75333-1.92225-0.419585-1.62376 0.0092608-1.60188L22.4585-0.92769C22.8653-0.916747 23.2471-1.20399 23.2613-1.56874 23.2756-1.93319 22.9415-2.24263 22.5141-2.25357L0.0634008-2.92776 0.0349061-2.92776" fill="#DEB18C" fill-rule="evenodd" transform="matrix(1 0 0 -1 318 584)"/><path d="M25.4728 13.0473C22.4913 13.2075 19.0275 13.3946 15.7674 13.5416 12.0403 13.7419 8.54515 13.8757 6.29505 13.9158 6.03069 14.1028 5.65716 14.1161 5.39387 13.929 4.85053 13.9422 4.30575 13.9422 3.7624 13.9558 2.76918 13.9823 2.76918 12.3791 3.7624 12.3659L4.78845 12.339C3.406 7.0483 1.43454 2.02514-1.22119-2.74441-1.48591-3.23875-1.14342-4.0003-0.537639-3.9334 2.66001-3.65297 9.46202-2.93149 16.1549-2.21001 19.2144-1.87592 22.258-1.54219 24.9137-1.24816 29.9612-0.70053 33.6883-0.272714 33.6883-0.272714L33.6883 12.5662C33.6883 12.5662 30.131 12.7801 25.4728 13.0473" fill="#FFAA9C" fill-rule="evenodd" transform="matrix(1 0 0 -1 555 467)"/><path d="M9.63324 4.39878C9.57133 2.48537 9.17632-0.636184 8.86206-3.02449 6.16655-3.32316 3.07784-3.66253-0.0267922-4.00153-0.688993-2.75306-1.41419-1.13796-1.3349-0.174726-1.20891 1.54902-0.876901 9.3389-0.609703 10.7636-0.546705 11.103-0.499276 11.551-0.420348 11.999 2.88812 11.8493 6.40369 11.6596 9.42904 11.4969 9.53983 9.97658 9.72773 6.88228 9.63324 4.39878" fill="#FFFFFF" fill-rule="evenodd" transform="matrix(1 0 0 -1 571 465)"/><path d="M164.046 85.8516C164.391 86.2043 164.681 86.5696 164.99 86.9356 166.312 92.1445 167.244 100.331 166.724 105.514 151.325 108.986 133.387 111.401 117.692 111.284 101.876 111.154 86.0252 109.861 70.7906 105.383 57.8911 101.597 46.808 93.5154 36.9219 84.5723 32.345 80.4337 28.1478 75.7075 25.4029 70.1458 22.3794 64.0095 22.3949 56.8292 19.0914 50.8498 17.2608 47.5466 14.6613 44.7006 12.4999 41.6194 10.1956 38.3165 8.13745 34.8567 6.34784 31.2532 2.7276 23.9683 0.263834 16.2133-1.11652 8.19716-1.28533 7.21772 0.223161 6.80002 0.394491 7.7791 0.530547 8.57572 0.715194 9.33283 0.873566 10.1162L0.929717 10.1032C16.1802 9.42442 29.9442 13.8109 43.8025 19.7381 45.9772 20.6651 48.1674 21.5921 50.3393 22.5453 50.9332 21.9445 51.5325 21.3572 52.1318 20.7696 57.4358 15.5866 62.8277 10.4426 68.8764 6.1212 80.2094-1.96031 94.8253-6.82983 108.363-1.43809 108.857-1.24198 109.203-0.563166 108.708-0.132531 103.322 4.46331 128.53 7.1265 122.325 10.5601 115.59 14.281 77.2446 17.6755 73.7499 25.2997 72.447 28.1461 70.2658 30.3395 68.8069 33.0681 68.6604 33.3421 68.5478 33.6161 68.4538 33.8905 70.7787 36.2014 72.8602 38.7471 74.8805 41.4628 83.2645 52.7168 95.1485 58.8135 105.899 67.4043 108.524 69.5062 110.78 71.9736 113.338 74.1279 116.569 76.8435 120.446 77.3916 124.469 78.0183 131.851 79.1802 139.075 78.7625 146.102 81.3215 151.864 83.4233 159.731 81.3998 164.046 85.8516" fill="#E66C6C" fill-rule="evenodd" transform="matrix(1 0 0 -1 407 559)"/><path d="M114.037 48.3623C113.881 50.1869 113.49 52.0118 113.021 53.8368 112.881 54.4013 112.725 54.9658 112.568 55.5303L112.568 55.5433C112.412 56.1078 112.271 56.6593 112.114 57.2238 109.221 68.1205 104.703 78.4786 99.4793 88.4297 99.0575 89.2568 98.6343 90.0579 98.1813 90.8716 97.4459 92.2501 96.6796 93.6417 95.9141 95.0203 89.5179 106.429 83.1842 117.969 76.4134 129.193 75.8817 130.112 75.3345 131.005 74.7719 131.898 74.0678 133.066 73.364 134.208 72.6459 135.364 70.8791 138.186 69.095 141.009 67.2355 143.766 66.1085 145.472 64.9514 147.547 63.1375 148.61 58.6023 151.328 52.7543 146.851 48.8604 144.868 39.1497 139.932 28.8919 132.62 17.6793 132.331 13.7853 132.226 9.89099 132.646 5.99811 132.62 4.66887 132.62 3.27784 132.541 2.1196 131.872-0.382247 130.388-0.80437 126.843-0.882688 124.204-0.99226 120.621-0.257226 117.076 0.290277 113.557 0.962801 109.094 1.24482 104.63 1.19775 100.114 1.18195 99.0245 1.1665 97.9478 1.11944 96.8582 1.10363 96.241 1.08818 95.6505 1.04112 95.0466 0.805807 89.073 0.305725 83.1391 0.33698 77.1394 0.368595 69.7746 1.46288 62.79 3.85516 55.8192 3.94928 55.5303 4.05885 55.2284 4.13717 54.9524 4.35668 54.3092 4.57474 53.666 4.76299 53.0097 7.03132 45.9465 8.48451 39.1187 8.6882 31.5093 8.84376 25.6462 8.81251 19.9395 8.32787 14.2009 8.29662 13.6823 8.24956 13.1481 8.18705 12.6295 7.98443 10.5698 7.73367 8.52562 7.40603 6.45146 6.38862 0.0209475 15.287-3.31115 20.2756-3.51556 24.1527-3.68892 27.9999-2.80804 31.7843-1.91272 54.1464 3.35448 72.2539 10.9465 91.6921 23.0679 95.4768 25.4414 99.2756 27.7991 103.06 30.1571 107.125 32.7041 111.082 36.3825 113.006 41.0209 114.022 43.4916 114.241 45.9201 114.037 48.3623" fill="#FFFFFF" fill-rule="evenodd" transform="matrix(1 0 0 -1 335 641)"/><path d="M74.1534 38.1862C71.7276 39.553 69.2831 40.8421 66.8247 42.118 66.514 42.2858 66.1398 42.4791 65.7358 42.711 63.7904 43.8068 60.5391 45.6375 59.0295 44.5161 58.0185 43.7809 57.9248 41.551 57.8469 39.9395 57.8155 39.3338 57.7844 38.7923 57.7221 38.3412 57.4426 36.2268 57.2245 34.1256 57.0215 32.0116 56.6797 28.7631 56.3369 25.3728 55.7624 22.0726 55.1712 18.7596 54.3772 16.336 52.4475 15.2792 51.0312 14.5312 49.1951 14.6344 46.8301 15.6012 45.0409 16.3619 41.3063 18.5532 37.3547 20.8867 32.9819 23.4518 28.4687 26.1204 26.7264 26.7261 25.9635 26.9839 25.3254 26.9066 24.7341 26.5201 21.327 24.2383 20.7046 12.5719 20.3929 6.96435 20.3149 5.4043 20.2524 4.17975 20.1602 3.52225 19.7079 0.376979 19.2257-2.09838 17.4054-3.12967 16.8763-3.43891 16.254-3.59353 15.5379-3.59353 14.5738-3.59353 13.4224-3.29706 12.0375-2.74276 9.85826-1.85333 4.45886 1.36961-0.846873 4.65673-0.800043 5.24968-0.784314 5.82987-0.768585 6.43559 4.72412 3.0325 10.4352-0.422372 12.6441-1.3118 14.527-2.09838 15.8343-2.25301 16.644-1.78879 17.8408-1.10576 18.2462 1.11179 18.6191 3.74141 18.697 4.33437 18.7592 5.53339 18.8528 7.04166 19.3194 15.7817 20.1291 25.2952 23.8794 27.7961 24.8746 28.4667 26.0103 28.5826 27.2397 28.1702 29.1226 27.5255 33.7123 24.8185 38.1472 22.2144 41.8818 20.01 45.7412 17.741 47.4213 17.0449 49.3353 16.2459 50.7362 16.1168 51.7004 16.6452 53.1635 17.4318 53.7859 19.8554 54.2213 22.3563 54.7969 25.592 55.1401 28.9305 55.4661 32.1662 55.6845 34.3061 55.9015 36.4205 56.1821 38.5472 56.2447 38.9469 56.2601 39.4498 56.2915 40.0168 56.3848 42.0535 56.5085 44.5803 58.1118 45.7534 60.4301 47.4677 64.0867 45.4183 66.4987 44.0519 66.8873 43.8455 67.2458 43.6394 67.5418 43.4848 69.2066 42.6337 70.871 41.757 72.5201 40.8421 73.0803 39.9654 73.6247 39.0887 74.1534 38.1862" fill="#E66C6C" fill-rule="evenodd" transform="matrix(1 0 0 -1 337 550)"/><path d="M94.1211 37.901C90.0392 40.0941 85.6763 41.8848 81.4226 43.6367 79.4122 44.4674 77.4177 45.285 75.4538 46.1414 74.5822 46.5305 73.6622 46.9329 72.7591 46.9461L72.7437 46.9461C70.8894 46.9461 68.3804 38.7185 66.5577 32.6969 63.8615 23.7945 61.5401 16.0989 58.0972 16.7219 56.554 17.0203 53.0173 18.8893 48.9354 21.0563 44.1207 23.6257 36.0339 27.9083 34.6157 27.2204 33.9921 26.7274 32.4346 22.3929 31.0475 18.5776 27.4642 8.67599 23.0541-3.49653 18.0837-3.49653 17.7727-3.49653 17.4605-3.44476 17.1494-3.35373 13.6113-2.25093 10.0903-0.966062 6.67857 0.292746 4.40262 1.13635 2.09696 2.00567-0.255588 2.88819-0.443162 3.53687-0.660447 4.17306-0.878806 4.80889 1.87825 3.74465 4.5587 2.73253 7.208 1.77218 10.6198 0.513377 14.1253-0.771493 17.6166-1.87465 21.5424-3.09418 26.5754 10.8045 29.5823 19.0967 31.9832 25.7413 32.9175 28.1029 33.9141 28.5963 35.909 29.5952 41.456 26.8052 49.6667 22.4318 53.4844 20.4076 57.068 18.4998 58.3767 18.2663 60.4966 17.8768 63.2397 27.0647 65.0768 33.1513 67.9602 42.6634 69.8771 48.5034 72.7437 48.5034L72.7906 48.5034C74.0059 48.4902 75.1116 48.01 76.0943 47.5687 78.0409 46.7123 80.0201 45.9079 82.0147 45.0772 85.614 43.5977 89.291 42.0665 92.8277 40.3147 93.2791 39.51 93.7008 38.7185 94.1211 37.901" fill="#E66C6C" fill-rule="evenodd" transform="matrix(1 0 0 -1 340 590)"/><path d="M104.096 40.3995C95.1217 41.8382 84.0787 43.0049 80.6806 41.0478 79.1449 40.1664 76.5304 34.0357 74.2114 28.6168 70.7661 20.5447 68.5269 15.595 66.459 14.8655 64.0004 13.9959 56.2167 15.8895 47.758 18.0784 45.7686 18.5905 44.1871 18.9934 43.3423 19.1645 38.847 20.0641 36.1523 20.6071 33.4123 16.9289 32.629 15.8582 31.4074 12.9408 30.1228 9.85235 27.3187 3.16301 25.1893-1.66369 23.1214-2.88953 22.5576-3.23182 21.5242-3.37052 20.0831-3.37052 15.73-3.37052 7.78833-2.00456-0.904591-0.282036-0.841622 0.229978-0.794486 0.757681-0.763181 1.26969 7.27163-0.328388 20.3497-2.73407 22.3233-1.57027 24.0933-0.515223 26.7405 5.83182 28.667 10.4417 30.0602 13.7638 31.2501 16.6347 32.1436 17.8453 35.4787 22.3297 39.0824 21.6012 43.6391 20.6849 44.5326 20.5151 46.1295 20.0951 48.1502 19.5831 53.6008 18.1704 63.7334 15.5487 65.9423 16.3249 67.4924 16.8822 70.5466 24.0222 72.7714 29.2276 75.9666 36.7056 78.0334 41.307 79.8814 42.3827 83.6246 44.5602 94.5409 43.5101 103.642 42.0846L103.642 42.0714C103.799 41.5141 103.954 40.9568 104.096 40.3995" fill="#E66C6C" fill-rule="evenodd" transform="matrix(1 0 0 -1 344 627)"/><path d="M225.239-2.43674C221.062 4.88324 216.606 12.05 211.927 19.0663 213.466 19.0009 215.005 18.8827 216.547 18.6987 217.551 18.5805 217.543 20.1439 216.547 20.2754 214.641 20.4988 212.738 20.617 210.837 20.6828 190.559 50.8126 173.852 71.7571 149.445 98.3917 139.427 109.324 123.909 128.587 106.789 123.568 97.1654 120.756 87.6608 112.504 79.6112 106.775 69.3288 99.4563 16.7977 46.3711 4.09409 41.391 2.65748 43.2699 1.23536 45.1623-0.144783 47.0807-0.731876 47.8954-2.09862 47.107-1.50538 46.2793 0.0285946 44.1505 1.6089 42.0481 3.21019 39.9588 2.83629 39.3414 2.43922 38.737 2.07075 38.1062 1.55496 37.239 2.91556 36.4372 3.43098 37.3178 3.69304 37.7512 3.9732 38.185 4.23634 38.6318 9.51511 31.8515 15.1555 25.3474 21.2248 19.2767 24.2706 16.2283 27.6734 13.1536 31.9636 12.063 37.199 10.7226 42.6975 12.4704 47.7775 13.6791 58.6608 16.2807 85.7884 17.5553 94.8246 24.6906 99.4273 28.3169 103.312 32.8897 107.353 37.1208 111.517 41.4698 115.68 45.8191 119.844 50.1818 128.291 33.8884 143.642 21.576 161.406 16.8457 182.365 11.2616 188.909 19.5659 209.908 19.1455 214.829 11.8526 219.515 4.41693 223.878-3.23055 224.381-4.10967 225.742-3.31839 225.239-2.43674" fill="#6F5E61" fill-rule="evenodd" transform="matrix(1 0 0 -1 593 605)"/><path d="M193.106-2.29681C179.791 10.3147 167.737 23.9846 155.959 38.0385 144.051 52.2381 131.313 65.5242 118.426 78.8238 113.184 84.2362 107.787 90.2708 100.368 92.5603 92.8381 94.8891 87.11 91.7794 81.0372 87.5316 67.3868 78.0036 53.7575 68.4224 40.6673 58.127 25.486 46.1773 11.1015 33.1951-1.45065 18.4397-2.10704 17.6723-0.996889 16.5473-0.336518 17.3282 20.8822 42.2601 47.2044 61.8454 73.8042 80.5443 80.2415 85.0699 87.8649 92.5468 96.2239 91.806 105.363 90.9985 111.879 83.3101 117.861 77.1299 129.872 64.7302 141.833 52.3968 152.95 39.1765 165.383 24.3818 177.955 9.87787 191.992-3.42174 192.73-4.12291 193.846-2.99835 193.106-2.29681" fill="#2B1D1D" fill-rule="evenodd" transform="matrix(1 0 0 -1 609 588)"/><path d="M111.249-2.41275C105.437 8.56178 96.0818 16.6705 86.9125 24.7527 82.1598 28.9526 77.4152 33.1786 73.2102 37.946 69.7154 41.8948 66.7788 47.4546 61.7659 49.6733 56.6199 51.9447 51.9595 48.4053 47.7347 45.7245 41.5624 41.8156 35.5759 37.6161 29.7931 33.139 18.5276 24.4359 8.10008 14.7028-1.44026 4.1243-2.11931 3.37152-1.00735 2.24926-0.32577 3.00204 8.24885 12.5106 17.534 21.3456 27.5192 29.362 32.8112 33.6012 38.2928 37.6161 43.9358 41.3796 46.5927 43.1493 49.2716 44.9059 52.0214 46.5303 56.4226 49.132 60.3738 49.6206 64.3116 46.0282 68.2603 42.41 71.1789 37.6423 74.9154 33.7861 78.7863 29.7977 82.9717 26.1264 87.1427 22.4548 95.7767 14.8481 104.425 7.10926 109.888-3.20513 110.364-4.10323 111.725-3.31085 111.249-2.41275" fill="#2B1D1D" fill-rule="evenodd" transform="matrix(1 0 0 -1 650 578)"/><path d="M40.958 22.5946 96.8821 13.909 88.8445 0.730109C88.8445 0.730109 51.0205-0.316007 35.5228-1.43705 24.2674-2.25005-2.11785-3.40549-2.11785-3.40549L40.958 22.5946" fill="#FFAA9C" fill-rule="evenodd" transform="matrix(1 0 0 -1 856 622)"/><path d="M160.64 77.9966C141.072 79.102 121.505 80.3921 101.938 81.2213 81.5084 82.0899 60.8429 81.7742 41.0577 76.1015 41.3077 76.7199 41.5278 77.3387 41.6992 77.9966 41.9661 78.9706 40.4778 79.4446 40.2105 78.4706 39.9749 77.5886 39.6619 76.7464 39.2862 75.9697 39.0348 75.4302 38.752 74.9038 38.439 74.4037 35.1143 68.994 28.9055 65.493 24.9696 60.5446 19.0594 53.1607 15.2964 43.8753 11.0017 35.4903 8.80587 31.2034 6.61008 26.9012 4.41572 22.6142 2.39283 18.6578-0.695911 14.2622-1.52618 9.8014-2.92196 2.44148 4.29001-0.301247 10.1231-1.76729 28.4355-6.36856 47.2024-0.111519 65.3746 2.20468 85.9299 4.82104 106.438 0.943932 127.024 1.18073 141.292 1.33751 207.174 7.91028 226.615 7.23247 247.217 6.4913 268.447 5.40435 288.938 8.24049 289.095 8.19306 289.268 8.20899 289.455 8.30385L289.597 8.31942C289.864 8.36685 290.021 8.50915 290.114 8.6815 291.15 9.26589 292.184 9.87925 293.203 10.5411 293.894 10.9676 294.583 11.4242 295.257 11.8812 301.263 15.9625 307.063 21.0862 312.614 26.5391 313.068 26.9801 313.508 27.4207 313.946 27.8618 318.195 32.1024 322.303 36.5154 326.254 40.7864 326.709 41.2749 327.163 41.7629 327.603 42.2355 329.892 44.7099 332.118 47.1209 334.298 49.4071 334.674 49.8166 180.222 76.8912 160.64 77.9966" fill="#6F5E61" fill-rule="evenodd" transform="matrix(1 0 0 -1 563 649)"/><path d="M281.329-0.626163C280.654-1.09653 279.966-1.56652 279.274-2.00558 260.915 0.055162 242.524 1.71077 224.086 2.92731 204.268 4.22399 183.62 6.54489 163.881 3.49533 154.959 2.11591 146.147-0.0585164 137.117-0.447259 127.145-0.884827 117.362-0.0909427 107.421-1.6802 98.1712-3.17181 89.5009-4.11367 80.1404-2.8319 71.08-1.58292 62.1111 0.622808 52.9235 0.655607 34.8459 0.736859 16.7377-5.63919-1.1213-0.235929-2.09311 0.055162-1.6688 1.61311-0.697343 1.32091 19.9352-4.90867 41.2744 4.27431 62.2526 1.64591 71.33 0.494221 80.2989-1.82668 89.4696-2.02012 98.8768-2.21542 107.97 0.622808 117.33 1.07827 127.287 1.56466 137.133 0.688034 147.057 2.19716 155.791 3.54378 164.414 5.58701 173.24 6.15615 192.886 7.45394 213.017 5.37717 232.615 3.94892 248.89 2.76481 265.132 1.23928 281.329-0.626163" fill="#2B1D1D" fill-rule="evenodd" transform="matrix(1 0 0 -1 577 636)"/><path d="M290.286-2.10612C289.846-2.55326 289.404-3.0004 288.948-3.44754 273.822-1.19495 258.663 0.75478 243.474 2.41596 222.68 4.70196 201.809 6.34735 180.967 8.10471 160.693 9.8305 140.546 11.8922 120.193 10.1345 109.758 9.23908 99.3361 7.89803 88.853 7.7699 79.0624 7.626 69.2877 8.34517 59.529 9.04855 39.3645 10.4869 18.8713 11.908-0.742412 5.85248-1.71771 5.54815-2.12779 7.09882-1.16696 7.40169 20.5236 14.082 43.1738 11.7479 65.3995 10.2306 75.679 9.52726 85.973 9.0324 96.2666 9.62345 106.262 10.1987 116.195 11.557 126.19 12.1962 147.488 13.5534 168.942 10.7259 190.145 8.93622 223.657 6.10726 257.042 2.7526 290.286-2.10612" fill="#2B1D1D" fill-rule="evenodd" transform="matrix(1 0 0 -1 587 619)"/><path d="M21.3972 68.6017C21.3972 68.0154 28.028 52.0081 27.4885 42.4531 26.9505 32.8917 31.7116 23.7215 33.099 17.479 34.4875 11.235 32.9004-1.18733 28.538-2.2929 24.1746-3.39812-1.41256-3.39812-1.41256-3.39812-1.41256-3.39812 8.91242 41.2802 10.1963 42.4531 11.4805 43.6265 21.3972 68.6017 21.3972 68.6017" fill="#FFFFFF" fill-rule="evenodd" transform="matrix(1 0 0 -1 585 637)"/><path d="M318.289-2.05631C317.848-2.53584 317.392-3.03155 316.936-3.52689 309.497-2.84047 302.074-1.99237 294.714-0.696705 288.847 0.342473 283.045 1.65431 277.351 3.38284 271.847 5.0456 266.405 7.04128 260.743 8.10985 249.938 10.1537 238.74 8.71102 227.826 8.858 217.76 8.99139 207.696 9.75277 197.725 11.2355 186.746 12.8516 176.116 15.8302 165.311 18.2881 154.459 20.7589 143.451 21.8411 132.394 22.7495 110.36 24.5258 88.3256 26.2892 66.3082 28.0655 53.6326 29.0808 40.94 30.1093 28.2334 30.59 18.4971 30.9508 8.77955 31.0041-0.956758 30.4966-1.96265 30.4298-1.96265 32.0326-0.956758 32.0859 9.06174 32.6202 19.0802 32.5537 29.0832 32.1796 44.3219 31.5652 59.5455 30.2027 74.7532 28.9871 96.5053 27.2373 118.255 25.7013 139.974 23.6979 150.701 22.7227 161.159 20.9996 171.617 18.4215 182.311 15.7769 192.943 13.319 203.89 12.0101 214.569 10.728 225.341 10.2738 236.082 10.4873 246.211 10.6611 256.166 11.1818 266.058 8.51038 276.046 5.81359 285.638 2.4866 295.862 0.727204 303.285-0.552293 310.771-1.38459 318.289-2.05631" fill="#2B1D1D" fill-rule="evenodd" transform="matrix(1 0 0 -1 573 605)"/><path d="M78.9059 18.8777C78.5475 20.2657 77.3623 23.0421 75.7419 26.6359 75.2343 27.7255 74.6867 28.9194 74.1205 30.1646 66.8945 45.5646 53.7692 70.5519 48.5151 75.1446 40.4493 82.1764 26.1916 79.2833 17.1495 73.4193 16.934 73.4582 16.6997 73.4582 16.4657 73.3022 2.11016 64.9213-6.30755 46.888 2.97002 31.7343 5.41058 27.7255 9.12183 24.9102 12.5001 21.7187 16.5039 17.9173 19.844 13.5583 23.5742 9.51059 29.3359 3.28322 36.3672-1.98406 45.195-2.23069 44.7653-2.82744 45.0007-3.83928 45.9173-3.72257 55.4107-2.63293 60.3111 0.467909 68.7292 5.13844 74.5491 8.38168 80.1307 14.1294 78.9059 18.8777" fill="#FFAA9C" fill-rule="evenodd" transform="matrix(1 0 0 -1 360 529)"/><path d="M61.0489 20.6266 51.2632-2.99543 32.4239-3.65324-0.950957 42.9718C-0.950957 42.9718 8.68111 54.9869 10.8148 54.3287 12.9685 53.6445 20.8311 58.8559 23.3882 56.9082 25.9634 54.9608 42.7092 44.9196 42.7092 44.9196 42.8812 44.2223 43.6896 41.5769 45.1309 38.4845 46.2079 36.1157 47.6295 33.4968 49.3989 31.2334 49.6099 30.9441 49.8416 30.6809 50.0708 30.4043 54.5509 25.1535 61.0489 20.6266 61.0489 20.6266" fill="#FFAA9C" fill-rule="evenodd" transform="matrix(1 0 0 -1 387 560)"/><path d="M-1.03473 15.1549C-0.0189304 15.1549 14.883 8.28441 15.9 4.67608 16.9158 1.06774 5.7393-3.84533 5.7393-3.84533L-1.03473 15.1549" fill="#FFAA9C" fill-rule="evenodd" transform="matrix(1 0 0 -1 421 492)"/><path d="M67.8776 71.2937C67.3293 73.5715 66.1624 75.4697 64.5807 77.132 63.0704 78.7162 61.4661 77.2368 60.7914 80.7711 60.5501 82.0279 61.4205 83.625 61.1817 84.9733 60.3109 89.8822 53.3216 90.301 49.3798 90.2095 45.8817 90.131 42.6526 89.1623 40.0094 87.2511 33.2198 88.5731 26.9691 85.9158 21.8498 81.4913 19.6598 79.1743 17.8508 76.5428 15.3162 74.5139 11.6824 71.6077 7.06184 69.8798 3.94224 66.3193-1.34005 60.3106-0.565895 52.6396-0.832326 45.2042-1.29948 32.1792 1.40504 19.2065 13.4601 11.9802 14.7366 11.2211 15.9675 10.5142 17.1797 9.8465 18.9065 9.32288 20.6347 8.7863 22.243 8.00087 29.3303 4.54512 44.2203-3.78058 44.2203-3.78058 44.2203-3.78058 47.6465 13.3419 48.3345 15.6719 44.4174 17.8711 39.4274 23.1336 38.4145 27.1393 37.4004 31.1579 40.0396 37.4547 44.7567 37.1666 44.2188 37.9783 43.5312 38.79 43.0914 40.1646 42.1201 43.2145 40.7391 46.8665 41.2809 50.1919 41.6228 52.2864 42.5743 53.0585 43.8967 54.5378 45.4408 56.2528 46.049 58.2295 47.3018 60.1799 49.2713 63.2431 52.4419 65.3376 56.0391 65.8742 57.8441 66.1493 59.6991 66.0442 61.469 65.5994 62.6147 65.3113 64.7659 63.963 65.7081 65.285 66.2629 66.0575 66.9703 66.5811 67.4913 67.301 68.325 68.4401 68.1882 69.9976 67.8776 71.2937" fill="#36303A" fill-rule="evenodd" transform="matrix(1 0 0 -1 353 530)"/><path d="M2.17015 2.7351 2.14849 2.79106 2.10928 2.8608C1.93155 3.27852 1.70602 3.6127 1.40731 3.80776 1.03168 4.0308 0.545523 4.0308-0.0746781 3.64067-0.411103 3.43181-0.575395 3.09764-0.692266 2.77688-1.2826 1.16118-1.23107-4.25806 1.43457-4.03502 4.05427-3.82616 2.72538 1.31409 2.17015 2.7351" fill="#36303A" fill-rule="evenodd" transform="matrix(1 0 0 -1 418 481)"/><path d="M10.0856 4.91615C9.00283 4.98612 7.74331 4.49708 6.8474 4.18951 3.72635 3.08571 0.974028 0.93348-0.694013-2.0715-1.11349-2.84004-1.11604-3.84618-0.127412-4.02804 1.09341-4.25141 1.70382-3.67856 2.66872-2.95192 4.24257-1.7497 5.93179-0.925407 7.71812-0.142636 8.93894 0.374469 10.6216 0.639749 11.5467 1.71587 12.3707 2.6801 12.1294 4.00804 11.0648 4.6228 10.7691 4.80466 10.4358 4.88847 10.0856 4.91615" fill="#36303A" fill-rule="evenodd" transform="matrix(1 0 0 -1 408 475)"/><path d="M9.05557-2.57809C6.22721-3.89725 3.23359-4.07421-0.0368393-3.72029-0.979167-3.62526-1.38578-1.95255-0.277155-1.74828 2.49509-1.24546 5.0821-0.307156 7.52106 1.12087 8.05678-0.184443 8.57494-1.43589 9.05557-2.57809" fill="#F07D67" fill-rule="evenodd" transform="matrix(1 0 0 -1 426 500)"/><path d="M16.0435-1.52046C9.8671-3.00503 2.9375-4.50373 0.621671-3.60168-2.01447-2.57481-1.58224 0.86616 3.70898 1.89303 9.0002 2.9199 11.863 6.12534 11.863 6.12534 12.9176 3.62764 14.3104 0.86616 16.0435-1.52046" fill="#F07D67" fill-rule="evenodd" transform="matrix(1 0 0 -1 420 528)"/><path d="M216.027 67.6032C217.959 73.4722 221.838 100.554 221.838 100.554 221.838 100.554 212.735 100.975 208.38 102.067 199.81 104.212 190.955 104.33 182.138 104.515 172.434 104.712 151.457 112.897 142.037 114.924 133.264 116.805 87.7825 126.649 80.6353 128.925 72.1335 131.636 60.6309 124.293 51.8492 124.135 51.4994 124.135 51.2798 123.938 51.171 123.688 47.6851 123.28 44.4611 121.464 41.4133 119.74 39.2202 118.503 37.0915 117.148 35.0456 115.674 30.5408 112.423 29.0628 110.779 23.2341 110.594 16.9113 110.397 11.8911 107.186 7.01188 103.488 6.28591 102.936 5.56392 102.357 5.03799 101.607-1.32027 92.619-2.3432 82.8679-0.0372568 72.9194 2.46908 62.1025 7.451 48.7091 14.5312 39.7135 17.9383 35.3831 22.7216 32.6195 27.259 29.6376 32.5932 26.1308 37.9054 22.5805 43.3883 19.3101 48.4161 16.3112 53.5887 13.5885 58.9638 11.4161 64.0495 7.65909 70.2674 6.20634 76.362 4.89441 92.2399 1.47556 108.268-1.92192 124.544-2.58549 133.036-2.93013 141.376-2.04066 149.835-1.53276 153.713-1.29818 165.497-1.20369 169.365-1.63919 173.288-2.08266 177.132-3.38554 181.096-3.47242 187.619-3.61578 191.374 1.66127 195.124 6.15783 200.387 12.4702 205.929 18.6368 210.907 25.1779 215.094 30.6773 216.561 36.1332 215.743 43.006 214.861 50.4214 213.988 58.0103 215.438 65.4055 215.58 66.1291 215.783 66.8662 216.027 67.6032" fill="#E66C6C" fill-rule="evenodd" transform="matrix(1 0 0 -1 391 653)"/><path d="M43.3703 5.06991C42.0529 8.97222 36.5645 11.3723 33.31 13.0354 22.8884 18.3189 3.62984 20.062 3.62984 20.062 3.62984 20.062-1.40532 15.0197-1.40388 12.5794-1.40388 12.4049-1.34642 12.2843-1.271 12.1636-1.18193 9.37433 0.163768 6.813 2.71475 5.23075 5.31026 3.63485 11.8491 0.671413 13.5371-0.910834 14.8886-2.17139 18.1614-5.32298 18.8714-2.15811 19.237-0.535655 17.6468 0.792046 16.7238 1.82462 14.5334 4.26532 14.0281 3.88977 11.8114 6.31682 11.801 6.43745 22.0829 4.77478 25.5177 2.91069 27.4068 1.87811 28.8807 0.765116 30.5335-0.629358 31.4263-1.39374 34.609-4.50474 35.8258-3.84771 37.0045-3.21762 36.3009-0.924484 35.8139-0.0796842 35.049 1.23474 33.8272 2.24038 32.7368 3.2593 31.1271 4.77478 29.4158 6.14269 27.6273 7.3896 30.3374 6.37068 33.0934 4.74785 35.3284 3.38031 36.6913 2.54879 39.0882-0.669569 40.8178-0.32095 42.2526-0.0394732 42.3075 0.95289 41.8766 2.02568 43.1523 2.21345 44.0321 3.11211 43.3703 5.06991" fill="#FFAA9C" fill-rule="evenodd" transform="matrix(1 0 0 -1 585 474)"/><path d="M-0.374459-4.06285C-0.374459-4.06285-1.8361 0.128884-0.958185 1.06046-0.0817002 1.9781 42.2644 15.9371 42.2644 15.9371L44.7613 14.4851C44.7613 14.4851 37.2546 5.77263 35.9875 5.06037 34.7201 4.33418-0.374459-4.06285-0.374459-4.06285" fill="#FFFFFF" fill-rule="evenodd" transform="matrix(1 0 0 -1 516 460)"/><path d="M1.59973 27.1813C1.59973 27.1813-1.2631 25.7324-1.2631 25.0658-1.2631 24.3992 4.8565-3.819 4.8565-3.819L40.7372 13.4631 32.7306 17.1428 1.59973 27.1813" fill="#FFFFFF" fill-rule="evenodd" transform="matrix(1 0 0 -1 522 460)"/><path d="M30.9196-4.01179 30.6657-3.97167-0.725851 6.42461C-1.14791 6.57184-1.37483 7.01355-1.23513 7.44163-1.09543 7.85647-0.63974 8.08395-0.218051 7.94996L31.1735-2.44631C31.5956-2.59355 31.8225-3.04814 31.6828-3.46297 31.5712-3.79756 31.2571-4.01179 30.9196-4.01179" fill="#F5D2B5" fill-rule="evenodd" transform="matrix(1 0 0 -1 522 442)"/><path d="M39.9254-4.05175 39.6621-3.99791-0.744107 10.3767C-1.15937 10.5252-1.37909 10.9838-1.23151 11.4022-1.08613 11.8344-0.630953 12.0502-0.217153 11.9016L40.1891-2.47256C40.6058-2.62108 40.8241-3.08003 40.6776-3.49849 40.5633-3.83601 40.2557-4.05175 39.9254-4.05175" fill="#7D4949" fill-rule="evenodd" transform="matrix(1 0 0 -1 523 443)"/><path d="M-1.22621 66.1421 15.8502-2.77395C16.0443-3.55976 16.8891-3.97879 17.6314-3.67758L62.9283 15.2083C63.5107 15.4439 63.8373 16.0726 63.7063 16.6884L49.58 83.1814C49.4161 83.9542 48.6161 84.4125 47.8695 84.1506L-0.374936 67.7007C-1.02016 67.478-1.39004 66.8104-1.22621 66.1421" fill="#7D4949" fill-rule="evenodd" transform="matrix(1 0 0 -1 514 529)"/><path d="M13.8461-3.8211C13.4755-3.8211 13.1426-3.57099 13.0605-3.20289L-1.33051 61.2266C-1.42584 61.6609-1.15205 62.0689-0.718278 62.1608-0.281547 62.2527 0.145577 61.9896 0.239426 61.5687L14.632-2.87388C14.7273-3.29482 14.452-3.71577 14.0182-3.80807L13.8461-3.8211" fill="#522E2E" fill-rule="evenodd" transform="matrix(1 0 0 -1 561 509)"/><path d="M-1.26989 1.10515-0.0734103-3.88864 14.7306 2.33967 13.861 7.11136-1.26989 1.10515" fill="#FFFFFF" fill-rule="evenodd" transform="matrix(1 0 0 -1 534 524)"/><path d="M-0.518588-3.21351C-0.852798-3.21351-1.16673-3.05118-1.28689-2.78043-1.44123-2.44476-1.22155-2.07661-0.798348-1.94675L8.56703 0.749094C8.99437 0.868234 9.45963 0.695183 9.61397 0.359505 9.76943 0.023828 9.54976-0.344315 9.12542-0.474178L-0.238453-3.17002-0.518588-3.21351" fill="#FFFFFF" fill-rule="evenodd" transform="matrix(1 0 0 -1 549 451)"/><path d="M-0.50725-4.01358C-0.84442-4.01358-1.15954-3.79662-1.27654-3.45718-1.42307-3.03633-1.19878-2.57477-0.774893-2.4254L17.5983 3.94076C18.0225 4.09013 18.4872 3.85936 18.6337 3.43851 18.7806 3.01765 18.5563 2.5561 18.1324 2.40673L-0.241103-3.95943-0.50725-4.01358" fill="#FFFFFF" fill-rule="evenodd" transform="matrix(1 0 0 -1 541 458)"/><path d="M-0.465039-3.65769C-0.794834-3.65769-1.10257-3.46084-1.21286-3.15372-1.34955-2.76001-1.12608-2.34229-0.71347-2.21917L26.7119 6.30101C27.1234 6.43631 27.569 6.22728 27.7071 5.84642 27.8438 5.45271 27.6203 5.03465 27.2073 4.91187L-0.218055-3.62082-0.465039-3.65769" fill="#F5D2B5" fill-rule="evenodd" transform="matrix(1 0 0 -1 526 451)"/><path d="M-0.461221-2.35146C-0.848818-2.35146-1.16939-2.14673-1.17897-1.89478-1.18953-1.6348-0.87655-1.41426-0.479049-1.40646L3.08262-1.35121C3.48342-1.35923 3.80862-1.54814 3.82083-1.80812 3.83041-2.06788 3.5171-2.28062 3.12125-2.28842L-0.442072-2.35146-0.461221-2.35146" fill="#F5D2B5" fill-rule="evenodd" transform="matrix(1 0 0 -1 554 442)"/><path d="M24.521 37.6189C24.8811 38.6631 24.7504 39.6289 23.703 40.3075 22.4272 41.1298 20.4601 40.4379 19.2304 39.8637 18.6751 39.6156 18.158 39.2893 17.6593 38.95 17.7689 39.7331 17.5486 40.4379 16.7646 40.9341 13.7279 42.9046 8.5019 36.8225 7.13652 35.2826 3.57715 31.2626 0.0108882 24.8021-0.652569 21.9174-2.04699 15.8487-0.798834 9.12682-0.816255 2.91445-0.817344 2.48358-1.60892-2.99811-0.226475-3.5331 2.6825-4.6688 11.6762 1.23048 14.0074 2.71877 17.1341 4.71547 17.2568 7.70425 17.6567 11.0194 18.1344 15.0002 19.699 17.2321 21.9482 20.4557 23.0421 22.0219 27.1135 28.4304 23.1462 28.4957 24.3454 30.1272 25.4037 31.7979 26.1702 33.5207 27.3338 36.131 26.4232 37.397 24.521 37.6189" fill="#FFAA9C" fill-rule="evenodd" transform="matrix(1 0 0 -1 550 535)"/><path d="M32.7219 39.3926C32.7219 39.3926 32.7219 36.1213 32.0612 31.3259 31.8577 29.8018 30.3149 25.6634 28.3179 20.7629 27.561 18.9105 26.7437 16.94 25.8936 14.9558 24.7297 12.1971 23.534 9.4119 22.4329 6.87613 19.8525 0.990308 17.7763-3.60776 17.7763-3.60776L-1.27812 6.61338 4.02486 14.9822 9.35821 23.4168 12.71 28.7377 15.4784 33.0994 32.7219 39.3926" fill="#FFAA9C" fill-rule="evenodd" transform="matrix(1 0 0 -1 534 564)"/><path d="M14.5939 8.08104C10.557 9.63204 6.83017 11.5145 2.32816 12.4029L-1.27945 6.71566 17.9963-3.59761C17.9963-3.59761 19.5877-0.0846068 21.721 4.74053 19.4451 5.97353 17.11 7.10041 14.5939 8.08104" fill="#FFFFFF" fill-rule="evenodd" transform="matrix(1 0 0 -1 534 564)"/><path d="M8.20017 8.27759C4.68839 4.96338 1.53643 1.39187-1.24996-2.41331-1.83481-3.21122-0.388619-3.94767 0.192006-3.16226 2.90274 0.544658 5.96677 4.00609 9.38255 7.23419 10.1156 7.92168 8.93594 8.96508 8.20017 8.27759" fill="#F07D67" fill-rule="evenodd" transform="matrix(1 0 0 -1 557 505)"/><path d="M9.48015 11.0087C5.82995 6.66215 2.30695 2.21084-1.08815-2.34595-1.67612-3.13383-0.618391-4.2631-0.0252334-3.46221 3.37125 1.10759 6.89425 5.55926 10.5431 9.8928 11.1801 10.6543 10.1196 11.7706 9.48015 11.0087" fill="#F07D67" fill-rule="evenodd" transform="matrix(1 0 0 -1 562 508)"/><path d="M3.49598 4.77688C2.0386 2.38524 0.675691-0.23875-0.988878-2.45292-1.58163-3.23196-0.599155-4.39375-0.00320233-3.6008 1.74655-1.29113 3.16774 1.42836 4.69973 3.95686 5.22235 4.80433 4.01411 5.62435 3.49598 4.77688" fill="#F07D67" fill-rule="evenodd" transform="matrix(1 0 0 -1 567 512)"/><path d="M15.355-2.63732C10.9218 1.85341 5.37427 4.2701-0.455662 5.93198-1.41294 6.20663-1.82159 4.62749-0.864309 4.35284 4.71923 2.74612 10.0157 0.507743 14.2666-3.80429 14.9835-4.53229 16.0744-3.37853 15.355-2.63732" fill="#F07D67" fill-rule="evenodd" transform="matrix(1 0 0 -1 611 466)"/><path d="M2.38613-2.5264C1.52155-1.8856 0.589618-1.4119-0.400563-1.11948-1.28401-0.868833-1.66147-2.47083-0.776721-2.73565 0.103476-3.0001 0.902974-3.40443 1.67189-3.96168 2.44633-4.53272 3.15862-3.09783 2.38613-2.5264" fill="#F07D67" fill-rule="evenodd" transform="matrix(1 0 0 -1 610 463)"/><path d="M17.7122 2.06292C16.9536 0.315353 16.1346-1.54335 15.2827-3.41468 9.4956-1.20891 3.82048 1.46801-1.2881 4.56597L2.07089 9.58503C6.89513 6.68514 12.2714 4.16948 17.7122 2.06292" fill="#87524D" fill-rule="evenodd" transform="matrix(1 0 0 -1 545 545)"/><path d="M9.72197 2.06267C9.72197-0.984106 7.25864-3.44385 4.22089-3.44385 1.18349-3.44385-1.27839-0.984106-1.27839 2.06267-1.27839 5.09674 1.18349 7.55649 4.22089 7.55649 7.25864 7.55649 9.72197 5.09674 9.72197 2.06267" fill="#FFFFFF" fill-rule="evenodd" transform="matrix(1 0 0 -1 547 543)"/><path d="M1.05702-3.64434 0.99909-3.64434C0.572584-3.60478 0.253415-3.22223 0.284693-2.80013 0.303885-2.5232 2.20432 23.6917 1.44728 31.4362 1.2717 33.2302 0.950042 35.4072 0.610259 37.7159-0.614524 46.0277-2.00209 55.4607 1.16294 58.9174 3.80265 61.8068 7.98845 61.4899 12.8332 61.1208 15.5877 60.9226 18.4354 60.6983 21.3718 61.0152 21.8111 61.0678 22.1779 60.7513 22.222 60.3158 22.2661 59.8806 21.9572 59.4977 21.5336 59.4451 18.4599 59.1152 15.4107 59.3529 12.7198 59.5507 8.27137 59.8937 4.42926 60.1706 2.29211 57.8485-0.361464 54.946 1.08439 45.1174 2.13964 37.9536 2.48333 35.6184 2.80641 33.415 2.9859 31.5944 3.75716 23.7047 1.90577-1.8238 1.82722-2.90574 1.79737-3.32785 1.45758-3.64434 1.05702-3.64434" fill="#F5D2B5" fill-rule="evenodd" transform="matrix(1 0 0 -1 334 568)"/><path d="M50.6522 24.4939C54.307 28.1642 58.6554 35.2656 53.0503 39.2346 50.2099 41.2521 47.8531 40.8143 45.4018 38.7303 41.9353 35.7834 38.3825 32.9296 34.81 30.1021 27.6635 24.4647 17.123 18.5421 6.45943 17.9381 6.15635 17.9209 12.532 13.4275 12.532 13.1847 7.72932 10.3401 2.92554 7.49687-1.8775 4.65368-2.34087 4.37871-2.44542 3.52532-1.8775 3.27993 1.20796 1.95255 4.41909 1.50777 7.64881 0.668985 11.0148-0.204493 14.0787-1.87732 17.409-2.83953 22.6448-4.35278 27.4238-3.05316 31.4597 0.58244 36.3301 4.97065 39.3719 11.3169 43.4052 16.434 45.545 19.1475 47.7933 21.757 50.2854 24.1342 50.4059 24.2496 50.528 24.3705 50.6522 24.4939" fill="#FFAA9C" fill-rule="evenodd" transform="matrix(1 0 0 -1 928 623)"/><path d="M98.9203 33.4005C88.4334 29.731 78.9802 23.508 71.6764 15.0519 69.556 12.592 68.0152 9.54723 64.7293 8.57645 61.9871 7.75235 59.2078 7.34011 56.512 6.30312 55.8608 6.05037 55.2444 5.73141 54.6121 5.45195 54.5961 5.74458 54.4232 6.0105 54.0455 6.07707 48.9904 7.07419 43.9087 7.9784 38.8743 9.06842 33.0059 10.345 28.4258 12.765 23.8523 16.6606 16.5856 22.8433 9.49973 27.5634-0.124944 28.9994-1.11905 29.1457-1.54945 27.6168-0.544814 27.4705 4.82196 26.6727 9.93812 24.9308 14.5538 22.0192 18.6889 19.4131 22.045 15.8229 25.9531 12.9113 33.6157 7.2205 43.7463 6.4092 52.893 4.68089 49.2965 2.87247 46.0066 0.545744 43.0043-2.20639 42.2517-2.89808 43.3711-4.02834 44.1226-3.33665 48.6733 0.838003 53.9689 4.00273 59.8877 5.78445 62.152 6.46261 64.7594 6.56905 66.9049 7.60603 68.6846 8.45684 69.7078 10.0922 70.8962 11.5949 78.2632 20.9819 88.1323 27.9357 99.3402 31.8584 100.296 32.1905 99.8839 33.733 98.9203 33.4005" fill="#B54848" fill-rule="evenodd" transform="matrix(1 0 0 -1 431 592)"/><path d="M53.3438 65.1341C50.1903 58.1207 46.8257 51.2002 43.153 44.4529 39.4927 37.7133 35.0198 32.4532 29.9134 26.8387 25.2803 21.7448 22.1558 15.6253 17.0559 10.8859 11.6512 5.86374 5.36855 1.94143-0.848655-1.95166-1.7096-2.48954-0.919527-3.86568-0.0546003-3.32524 5.73267 0.29854 11.5434 3.9563 16.7142 8.45925 22.5503 13.5425 25.8979 20.0764 31.0267 25.715 35.936 31.1118 40.2813 35.9889 43.8618 42.4472 47.8049 49.5665 51.3641 56.912 54.7016 64.3371 55.1181 65.2535 53.7618 66.0772 53.3438 65.1341" fill="#B54848" fill-rule="evenodd" transform="matrix(1 0 0 -1 499 640)"/><path d="M29.5671-2.16774C25.2072 0.103192 21.8569 3.61208 17.1381 5.29615 11.5244 7.28628 5.63801 8.70255-0.0861338 10.374-1.04754 10.6548-1.45784 9.18762-0.49929 8.90682 4.79883 7.3628 10.1473 5.9339 15.4026 4.26247 20.6031 2.60402 24.0731-1.03227 28.7812-3.49485 29.6661-3.95395 30.452-2.63983 29.5671-2.16774" fill="#B54848" fill-rule="evenodd" transform="matrix(1 0 0 -1 443 521)"/><path d="M22.1809-1.02907C14.5515-0.0864478 7.00368-0.438463-0.498598-2.03463-1.49288-2.24833-1.07186-3.69374-0.0764832-3.49284 7.30706-1.90911 14.6837-1.60724 22.1809-2.53776 23.1897-2.65049 23.1806-1.15494 22.1809-1.02907" fill="#B54848" fill-rule="evenodd" transform="matrix(1 0 0 -1 447 524)"/><path d="M30.5043 27.5959C18.4925 19.3336 7.85021 9.44171-1.17012-1.90226-1.78653-2.67765-0.678735-3.78002-0.0558063-2.9954 8.88443 8.24667 19.3934 18.0715 31.3001 26.2613 32.1245 26.828 31.337 28.1686 30.5043 27.5959" fill="#B54848" fill-rule="evenodd" transform="matrix(1 0 0 -1 564 649)"/><path d="M0.562931 0.548988C-0.314659-0.253275-1.15465-1.0922-1.96078-1.96882-2.60229-2.67195-1.56313-3.72103-0.918235-3.01757-0.111773-2.14129 0.727882-1.30202 1.60581-0.500099 2.30626 0.141915 1.26236 1.19066 0.562931 0.548988" fill="#F07D67" fill-rule="evenodd" transform="matrix(1 0 0 -1 980 592)"/><path d="M0.178009-0.153875C-0.59349-0.716432-1.36499-1.2793-2.13649-1.84186-2.92568-2.41587-1.76429-3.37256-0.977735-2.79854-0.206235-2.23599 0.565265-1.66197 1.33676-1.09911 2.12633-0.525095 0.964939 0.420138 0.178009-0.153875" fill="#F07D67" fill-rule="evenodd" transform="matrix(1 0 0 -1 979 587)"/><path d="M-0.39819-0.637134C-1.0294-1.04721-1.58708-1.53625-2.06874-2.13154-2.70279-2.89894-1.61443-4.02293-0.97505-3.2428-0.573663-2.7534-0.144925-2.34332 0.38185-1.99946 1.21588-1.44383 0.44117-0.0815066-0.39819-0.637134" fill="#F07D67" fill-rule="evenodd" transform="matrix(1 0 0 -1 978 584)"/><path d="M5.15731-1.63645C2.97214-1.44567 0.788009-1.25457-1.39577-1.06379-2.36403-0.978346-2.35777-2.39858-1.39577-2.48272 0.788009-2.67349 2.97214-2.86558 5.15731-3.05668 6.12417-3.14082 6.11792-1.72189 5.15731-1.63645" fill="#F07D67" fill-rule="evenodd" transform="matrix(1 0 0 -1 936 613)"/><path d="M201.356-3.27059C196.8-5.62538 196.172 0.718601 195.559 3.46562 194.11 9.99241 191.619 16.3234 190.785 22.9683 190.221 27.4677 191.424 31.8891 191.215 36.3755 191.016 40.6397 189.343 43.2294 187.991 47.0621 185.9 53.0002 186.516 61.6464 180.104 65.008 179.036 65.5705 167.145 68.8144 167.035 68.5658 165.37 64.2103 164.334 59.7105 162.936 55.2895 162.213 52.9743 160.72 50.8159 161.616 48.3309 161.961 47.3629 162.574 46.4863 163.328 45.7933 164.366 44.799 165.559 44.7728 166.312 43.4255 166.956 42.3007 166.989 40.7836 167.004 39.5148 167.066 36.807 166.422 34.1517 166.328 31.4572 166.156 26.2644 165.999 21.0586 165.779 15.8787 165.684 13.5242 165.763 9.79629 162.92 8.97226 160.846 8.34434 159.119 9.9665 158.396 11.7715 156.842 15.6692 157.547 20.7837 157.391 24.8779 157.171 30.3587 156.401 35.6951 153.135 40.2471 153.009 40.4173 152.993 40.5742 153.009 40.7311 150.669 43.5565 147.637 45.7148 145.327 48.5925 143.584 50.7767 142.217 53.2488 141.26 55.8649 140.066 59.0566 139.532 62.405 139.595 65.7407 138.433 65.6622 137.285 65.5967 136.123 65.492 123.055 64.4586 109.751 62.863 96.6511 64.8249L96.4007 64.9166C88.7824 50.7112 80.2536 37.0031 70.8605 23.8966 69.4622 19.5804 67.1694 13.1709 61.8439 12.8179 57.431 12.5433 56.9132 17.2259 58.2314 20.3389 61.5144 28.0956 66.8388 35.1589 70.7501 42.6278 74.6777 50.1096 75.0695 58.2718 75.1013 66.5384 71.6775 66.4992 41.692 66.473 35.1742 66.7216 27.2578 67.0487 19.5608 64.4978 11.6448 64.9688 7.02619 61.4895 0.224812 57.2513-1.67436 63.0854-4.23643 70.9202 8.32995 72.1106 12.7439 72.9609 18.3671 74.0465 23.8174 75.8648 29.2988 77.5391 34.122 79.004 39.0383 80.3121 43.7499 82.1433 52.7338 85.6748 60.9021 91.0245 70.4051 93.0781 69.4936 93.222 69.5095 94.674 70.4827 94.6085 73.3735 94.4387 76.1229 95.2494 78.8239 96.2566 81.2741 97.1461 83.7087 98.1666 86.1903 98.729L86.2535 98.755C89.9443 99.579 93.3695 99.3174 96.8875 98.9644 97.9394 98.8597 99.0071 98.755 100.075 98.6502 100.295 98.6243 100.531 98.611 100.75 98.5851 103.248 98.4019 105.385 99.6574 107.6 100.678 107.992 100.861 108.384 101.031 108.778 101.188 111.81 102.418 114.872 103.66 118.091 104.275 120.417 104.72 122.773 104.981 125.16 105.112 130.312 105.4 135.526 105.06 140.584 104.432 147.606 103.556 154.453 101.58 160.06 97.1331 165.182 93.0781 168.967 87.6629 172.642 82.3394 176.333 78.2584 180.872 75.1455 185.601 72.3984 199.674 64.2232 199.282 47.7289 199.895 33.3669 200.224 25.8851 204.088 19.3709 204.764 11.9546 205.11 8.17449 205.612-1.0734 201.356-3.27059" fill="#7D4949" fill-rule="evenodd" transform="matrix(1 0 0 -1 758 535)"/><path d="M42.5534 19.8454C41.4225 23.2367 38.689 25.2584 35.7062 26.8756L35.7062 27.0063C35.0293 29.9802 33.1929 37.3628 28.8565 37.1019 26.9887 36.9975 26.6264 34.4541 26.2186 33.0324 25.669 31.154 25.1036 29.0279 25.1967 27.0324 21.5845 26.9671 18.0979 26.0801 14.9563 24.4367 13.1972 23.5496 11.5315 22.415 10.0242 21.0325 8.81496 21.6583 7.24344 21.8409 6.06561 22.18 4.54244 22.5977 0.33343 24.5802-1.19082 23.4585-2.51047 22.5062-1.70901 19.8846-1.04937 18.7367-0.0761404 17.067 0.930284 15.4107 2.21817 13.9757 3.77274 12.254 3.69407 11.4323 4.02461 9.12361 4.0874 8.7454 4.14911 8.35392 4.2119 7.96279 4.79432 4.72794 5.90936 1.48017 8.61036-0.567669 13.4649-4.24603 20.0928-4.55893 25.8105-3.01991 32.3127-1.28533 37.0876 2.73213 40.6055 8.38011 42.7108 11.7585 43.8413 15.9453 42.5534 19.8454" fill="#7D4949" fill-rule="evenodd" transform="matrix(1 0 0 -1 791 463)"/><path d="M1.62116-0.380836C1.2171-1.30918 0.0748015-1.82812-1.136-1.76827-2.11332-1.71857-2.10947-2.91627-1.136-2.96596 0.772133-3.06591 2.47474-2.09776 3.08748-0.700442 3.40731 0.0282813 1.9389 0.337453 1.62116-0.380836" fill="#2B1D1D" fill-rule="evenodd" transform="matrix(1 0 0 -1 822 446)"/><path d="M2.355-0.931065C1.64269-1.93143 0.24867-2.32932-1.04503-2.00371-2.08852-1.75072-2.4406-3.16091-1.40138-3.42617 0.634457-3.92022 2.76635-3.12477 3.84896-1.59389 4.41215-0.798435 2.91548-0.135615 2.355-0.931065" fill="#2B1D1D" fill-rule="evenodd" transform="matrix(1 0 0 -1 805 452)"/><path d="M4.38265-0.0571025C4.32432-0.849796 3.25343-1.39782 2.56805-1.2392 2.44727-0.778022 2.25695-0.316443 2.07223 0.101516 2.79389 0.70704 3.33195 1.73013 3.38505 2.62394 3.42169 3.22946 3.03731 3.56098 2.57104 3.69065 2.38333 3.73387 2.18217 3.74814 1.98923 3.73387 0.977787 3.6617-0.903004 3.0419-1.61681 2.23493-2.22292 1.55723-2.05578 0.360856-1.22794-0.0138791-0.76316-0.244668-0.116287-0.374339 0.511889-0.388614 0.778116-0.936243 1.2485-1.84433 0.964326-2.20479 0.609481-2.6517-0.538811-2.56525-0.992743-2.39236-1.98623-2.04617-2.41324-3.70413-1.42499-4.06419-0.35148-4.4536 1.51361-4.29498 2.28836-3.31472L2.48279-2.98321C4.11381-3.28577 5.88317-1.75788 6.01105-0.0571025 6.09256 1.03855 4.46566 1.03855 4.38265-0.0571025" fill="#2B1D1D" fill-rule="evenodd" transform="matrix(1 0 0 -1 816 458)"/><path d="M3.29541 11.7823C0.270341 7.2343-1.5302 2.25492-2.16942-3.11598-2.28693-4.10934-0.667857-4.10934-0.549978-3.11598 0.0539194 1.96766 1.8288 6.68531 4.69322 10.9848 5.25807 11.8344 3.85766 12.6185 3.29541 11.7823" fill="#522E2E" fill-rule="evenodd" transform="matrix(1 0 0 -1 898 463)"/><path d="M-0.0158823 3.04667C0.171012 4.05312-1.37844 4.4825-1.56644 3.47605-1.97606 1.26157-2.10496-0.939254-1.91437-3.18069-1.82831-4.20043-0.219767-4.21409-0.307305-3.18069-0.484226-1.08694-0.399644 0.979866-0.0158823 3.04667" fill="#522E2E" fill-rule="evenodd" transform="matrix(1 0 0 -1 835 463)"/><path d="M11.2741 3.24821C6.92876 1.6499 2.69642-0.200481-1.42682-2.31506-2.29483-2.75549-1.52826-4.05187-0.661642-3.61144 3.34655-1.55988 7.4548 0.239954 11.6781 1.80087 12.5841 2.12808 12.1926 3.58789 11.2741 3.24821" fill="#FFFFFF" fill-rule="evenodd" transform="matrix(1 0 0 -1 794 464)"/><path d="M9.69071 7.02909C5.90879 3.86439 2.12834 0.686947-1.65395-2.47811-2.43234-3.13391-1.29658-4.21476-0.520768-3.57135 3.26005-0.406647 7.04197 2.77079 10.8239 5.93585 11.6026 6.59165 10.4639 7.68524 9.69071 7.02909" fill="#FFFFFF" fill-rule="evenodd" transform="matrix(1 0 0 -1 797 471)"/><path d="M15.0947 0.573132C9.60553-0.512953 4.11498-1.59945-1.37415-2.68553-2.35441-2.87917-1.93918-4.59037-0.96283-4.39715 4.52772-3.3258 10.0168-2.23931 15.5074-1.15281 16.4862-0.959586 16.071 0.766768 15.0947 0.573132" fill="#FFFFFF" fill-rule="evenodd" transform="matrix(1 0 0 -1 830 453)"/><path d="M11.7932 3.22892C7.33921 1.36566 2.8838-0.485295-1.57051-2.33659-2.50674-2.73406-1.69547-4.0136-0.765837-3.62843 3.68957-1.76483 8.14352 0.0861228 12.5989 1.93708 13.5341 2.33454 12.7242 3.61408 11.7932 3.22892" fill="#FFFFFF" fill-rule="evenodd" transform="matrix(1 0 0 -1 829 448)"/><path d="M-1.42719 2.50344C-1.86775 0.623256-2.00936-1.27022-1.82377-3.18956-1.72757-4.1821-0.170218-4.19504-0.266413-3.18956-0.439135-1.41391-0.336503 0.335876 0.0729507 2.08566 0.302889 3.06491-1.19689 3.48269-1.42719 2.50344" fill="#522E2E" fill-rule="evenodd" transform="matrix(1 0 0 -1 821 432)"/><path d="M584.053 5.32509C580.958 7.54726 556.746 33.9996 550.603 41.3451 547.287 45.3009 543.971 49.2741 540.657 53.2299 538.488 55.8312 536.289 59.5357 532.817 60.4505 528.983 61.4746 524.268 60.6243 520.341 60.5609 514.919 60.482 509.499 60.3875 504.094 60.3082 494.887 60.1503 485.711 60.0253 476.519 59.8674 475.073 59.8359 473.612 59.82 472.167 59.7885 471.192 59.7725 470.203 59.757 469.196 59.741 451.678 59.4408 431.315 59.0471 410.59 58.6839L410.574 58.6839C408.046 58.6379 405.514 58.6064 402.986 58.559 378.757 58.1494 354.434 57.8017 333.898 57.6912 332.627 57.6912 331.384 57.6753 330.144 57.6753 329.216 57.6753 328.288 57.6753 327.362 57.6597 305.789 57.5819 283.023 57.5029 260.161 57.4399 258.071 57.4399 255.965 57.4229 253.876 57.4229 229.271 57.361 204.681 57.345 181.474 57.3925 179.321 57.3765 177.168 57.3925 175.046 57.3925 152.029 57.4399 130.551 57.5504 111.994 57.7546 109.213 57.8017 106.495 57.8336 103.855 57.8651 86.6347 58.1019 72.3994 58.4166 62.4377 58.8577 53.0571 59.2843 49.6954 53.5616 43.6137 46.2791 29.4885 29.3329 15.08 13.0643-1.35437-1.7061-1.84132-2.14684-1.48035-3.09351-0.804606-3.04606 10.1321-2.25766 29.0489-1.73761 53.5913-1.38994 56.2943-1.34395 59.0749-1.31244 61.9193-1.28057 89.259-0.949201 122.615-0.806876 159.146-0.744948L165.793-0.744948C194.342-0.696419 224.682-0.71344 255.478-0.727926L261.763-0.727926C288.851-0.744948 316.206-0.759434 342.965-0.727926L349.437-0.727926C379.794-0.71344 409.256-0.650064 436.515-0.476593 438.794-0.476593 441.057-0.460658 443.303-0.444723 468.836-0.286825 492.278-0.0354909 512.484 0.343683 514.998 0.391125 517.48 0.438567 519.9 0.48456 552.881 1.17844 576.072 2.23557 583.866 3.87431 584.589 4.0322 584.557 4.96185 584.053 5.32509" fill="#F7F0F0" fill-rule="evenodd" transform="matrix(1 0 0 -1 385 756)"/><path d="M57.9076 55.8572C43.9232 39.6287 29.9544 23.4147 15.9711 7.1848 13.0815 3.82661 10.1934 0.451462 7.32059-2.92368 4.44705-2.95505 1.63806-2.98679-1.09253-3.03258 3.78009 2.64819 8.63848 8.33041 13.5271 13.9968 25.5748 27.9816 37.6375 41.9672 49.6852 55.9675 52.3523 55.9358 55.0975 55.9044 57.9076 55.8572" fill="#FFFFFF" fill-rule="evenodd" transform="matrix(1 0 0 -1 440 754)"/><path d="M20.7288 54.9616C16.5954 35.3497 11.4252 15.9914 5.27868-3.03851L-1.27121-3.03851C4.96817 15.9755 10.202 35.3352 14.3962 54.9616 16.4869 54.9616 18.6086 54.9457 20.7288 54.9616" fill="#FFFFFF" fill-rule="evenodd" transform="matrix(1 0 0 -1 546 753)"/><path d="M6.47974-3.0373 0.104713-3.0373C-0.435326 16.2955-0.978661 35.6134-1.52016 54.9462 0.59862 54.9462 2.73461 54.9632 4.85486 54.9632 5.39636 35.6293 5.93823 16.2955 6.47974-3.0373" fill="#FFFFFF" fill-rule="evenodd" transform="matrix(1 0 0 -1 640 753)"/><path d="M20.315-3.02459 13.8641-3.02459C9.0716 16.3972 3.88953 35.7263-1.68503 54.9446-0.761933 54.96 0.162603 54.96 1.08714 54.96 2.32285 54.96 3.56108 54.9759 4.82845 54.9759 10.3714 35.741 15.5394 16.413 20.315-3.02459" fill="#FFFFFF" fill-rule="evenodd" transform="matrix(1 0 0 -1 714 753)"/><path d="M39.0752-3.00857C36.7908-3.0241 34.4902-3.03999 32.1728-3.03999 22.4422 17.6494 11.6882 37.8506-1.92504 55.8355 0.646451 55.8829 3.22051 55.9143 5.79163 55.9601L5.80778 55.9601C18.9743 37.7559 29.489 17.5707 39.0752-3.00857" fill="#FFFFFF" fill-rule="evenodd" transform="matrix(1 0 0 -1 789 753)"/><path d="M47.9655-2.88503C45.5798-2.93062 43.1315-2.97765 40.6522-3.02467 38.6702-0.00897422 36.6554 2.99093 34.6097 5.97504 23.1131 22.741 8.51752 38.2729-2.03469 55.8505-1.04226 55.8663-0.0665654 55.8818 0.894895 55.8976 2.31946 55.9288 3.76112 55.9446 5.18676 55.9758 15.5514 39.6467 29.1403 24.9279 39.9716 9.13145 42.6826 5.16197 45.3481 1.1627 47.9655-2.88503" fill="#FFFFFF" fill-rule="evenodd" transform="matrix(1 0 0 -1 856 752)"/><path d="M27.6905 10.6054C22.1445 14.2116 14.7779 10.7358 9.16861 8.80895 3.74587 6.9602 0.0543689 2.57292-0.929485-2.8426-1.10823-3.83216 0.453943-4.24868 0.632318-3.25948 1.65304 2.35194 5.41641 6.03619 10.9877 7.72843 15.9029 9.22548 22.0321 12.4151 26.8728 9.25162 27.7378 8.69184 28.55 10.0327 27.6905 10.6054" fill="#1A161C" fill-rule="evenodd" transform="matrix(1 0 0 -1 385 470)"/><path d="M18.3802 10.188C13.7115 9.6192 9.69926 9.21894 5.7961 6.32429 2.63131 3.98561 0.435869 0.832527-0.833837-2.86301-1.15886-3.80609 0.343618-4.20671 0.66614-3.27643 1.91618 0.367563 4.20637 3.44279 7.43517 5.58774 10.8481 7.86208 14.4148 8.15926 18.3802 8.63738 19.3613 8.76641 19.3731 10.317 18.3802 10.188" fill="#1A161C" fill-rule="evenodd" transform="matrix(1 0 0 -1 378 466)"/><path d="M14.0116-2.69123C12.534 2.20595 3.38436 0.0883836-0.388643-0.886484-1.38647-1.15097-0.961753-2.53499 0.0423974-2.28208 2.61525-1.60845 11.3904 0.437284 12.45-3.07621 12.7192-3.96667 14.282-3.5936 14.0116-2.69123" fill="#1A161C" fill-rule="evenodd" transform="matrix(1 0 0 -1 398 446)"/><path d="M-1.039-3.81047C-1.039-3.81047 10.9944 1.18497 20.541 1.18497 30.0894 1.18497 42.2902 3.23539 45.2073 2.82274 48.1254 2.4097 49.9822 2.93253 50.9097 2.87763 51.8387 2.82274 39.9037 5.45088 34.4655 6.19442 29.0289 6.95121 17.757 8.18957 17.757 8.18957 17.757 8.18957 12.3138 5.23092 7.1458 2.06556 1.97601-1.08578-1.039-3.81047-1.039-3.81047" fill="#FFFFFF" fill-rule="evenodd" transform="matrix(1 0 0 -1 420 539)"/><path d="M1.829-2.6073C0.615496-1.17035-0.0889598 0.513251-0.360021 2.36141-0.512089 3.40146-2.1069 2.96352-1.95598 1.92309-1.64386-0.212003-0.731828-2.11476 0.658455-3.77087 1.34124-4.57859 2.5076-3.41502 1.829-2.6073" fill="#522E2E" fill-rule="evenodd" transform="matrix(1 0 0 -1 797 458)"/><path d="M4.75438-2.39241C2.85865-1.85337 1.0717-1.07736-0.636595-0.038348-1.45426 0.448238-2.19026-0.906243-1.37159-1.40621 0.441466-2.49769 2.35527-3.33917 4.36613-3.90462 5.27517-4.16763 5.66175-2.64239 4.75438-2.39241" fill="#522E2E" fill-rule="evenodd" transform="matrix(1 0 0 -1 794 441)"/></g></svg>