<svg width="2901" height="2853" xmlns="http://www.w3.org/2000/svg" xmlns:xlink="http://www.w3.org/1999/xlink" xml:space="preserve" overflow="hidden"><defs><clipPath id="clip0"><rect x="734" y="-40" width="2901" height="2853"/></clipPath><clipPath id="clip1"><path d="M2086.34-39.9562 3634.47 1069.02 2385.29 2812.88 837.162 1703.9Z" fill-rule="evenodd" clip-rule="evenodd"/></clipPath><clipPath id="clip2"><path d="M2086.34-39.9562 3634.47 1069.02 2385.29 2812.88 837.162 1703.9Z" fill-rule="evenodd" clip-rule="evenodd"/></clipPath><clipPath id="clip3"><path d="M2086.34-39.9562 3634.47 1069.02 2385.29 2812.88 837.162 1703.9Z" fill-rule="evenodd" clip-rule="evenodd"/></clipPath><clipPath id="clip4"><rect x="733" y="974" width="2397" height="902"/></clipPath><clipPath id="clip5"><rect x="733" y="974" width="2397" height="902"/></clipPath><clipPath id="clip6"><rect x="733" y="974" width="2397" height="902"/></clipPath><clipPath id="clip7"><rect x="733" y="974" width="2397" height="902"/></clipPath></defs><g clip-path="url(#clip0)" transform="translate(-734 40)"><g clip-path="url(#clip1)"><g clip-path="url(#clip2)"><g clip-path="url(#clip3)"><path d="M780.571-615.528C940.748-421.496 951.116-101.142 867.96 172.238 785.015 445.617 608.757 671.812 371.771 794.748 134.574 917.684-163.139 937.362-371.348 818.658-579.557 700.165-698.261 443.29-698.896 221.962-699.742 0.634783-582.519-185.145-446.252-373.675-310.197-561.994-155.099-752.852 77.4435-814.638 310.197-876.423 620.394-809.348 780.571-615.528" fill="#42378C" fill-opacity="0.7" transform="matrix(0.812946 0.582339 -0.655962 0.915724 2166.31 1294.29)"/></g></g></g><g clip-path="url(#clip4)"><g clip-path="url(#clip5)"><g clip-path="url(#clip6)"><g clip-path="url(#clip7)"><path d="M2356.87 178.249C2349.26 192.585 2284.85 227.679 2270.63 235.865 2247.67 249.025 2224.55 262.186 2200.58 273.446 2145.75 299.269 2090.14 323.962 2034.04 346.846 1976.51 370.273 1917.26 390.486 1855.64 399.623 1792.52 408.984 1728.55 407.581 1664.97 406.045 1530.89 402.741 1398.23 412.329 1264.79 424.449 1138.84 435.845 386.354 352.136 297.515 340.92 218.625 330.926-3.62704 334.499-4.65075 328.439-7.95269 307.952 194.061 213.569 214.448 202.444 289.364 161.606 364.288 120.724 439.211 79.8868 470.503 62.8374 576.57-0.748965 602.455-0.748965 628.34-0.748965 1184.49 45.7416 1224.35 50.8526 1395.98 72.6511 1568.13 90.9212 1740 110.82 1862.55 125.02 1985.11 139.176 2107.67 153.376 2168.79 160.431 2361.01 170.471 2356.87 178.249" fill="#6F5E61" fill-rule="evenodd" transform="matrix(1 0 0 -1.00039 771.813 1848.49)"/><path d="M33.6003 5.20967C33.2266 6.22981 32.4962 7.17112 31.4236 7.83825 29.4899 9.05485 27.0979 9.4478 24.8438 9.99727 19.8143 11.3305 15.6918 13.999 11.2428 16.3145 7.16387 18.4724 3.60249 20.5527-1.25041 20.2774-3.12724 20.1597-4.19988 18.8254-3.87458 17.1781-2.7971 11.8799 3.08854 10.075 8.21838 8.46654 12.5126 7.13228 16.4779 5.75913 20.3513 3.60015 22.944 2.14929 26.1353-0.283909 29.3798-0.323851 33.2085-0.362714 34.5182 2.61995 33.6003 5.20967" fill="#FFFFFF" fill-rule="evenodd" transform="matrix(1 0 0 -1.00039 1658.71 1765.95)"/><path d="M34.6894 5.04844C34.3207 6.07023 33.5866 7.05311 32.5139 7.68129 30.5836 8.89989 28.1878 9.29239 25.9322 9.88276 20.9071 11.1792 16.7794 13.8521 12.3312 16.2103 8.25544 18.3328 4.69011 20.4554-0.163271 20.1407-2.03665 20.0229-3.1094 18.6864-2.78407 17.0753-1.71132 11.7296 4.17973 9.92167 9.30641 8.31061 13.6011 6.97415 17.5667 5.5988 21.4441 3.43626 24.0334 1.98196 27.2251-0.415206 30.4699-0.45413 34.2989-0.49414 35.6134 2.4934 34.6894 5.04844" fill="#FFFFFF" fill-rule="evenodd" transform="matrix(1 0 0 -1.00039 1187.76 1717.81)"/><path d="M35.4828 5.35216C35.1139 6.54421 34.38 7.69082 33.3072 8.47036 31.377 9.84533 28.986 10.3045 26.7256 10.9919 21.6969 12.5056 17.5728 15.6226 13.1245 18.3737 9.04884 20.8499 5.47862 23.326 0.630103 22.9589-1.24328 22.8681-2.31602 21.309-1.99069 19.3829-0.917943 13.1464 4.97309 11.0373 10.0998 9.15784 14.3944 7.59872 18.3601 6.03964 22.2375 3.51806 24.8268 1.82148 28.0185-1.02174 31.2633-1.06716 35.0923-1.11383 36.4068 2.37145 35.4828 5.35216" fill="#FFFFFF" fill-rule="evenodd" transform="matrix(1 0 0 -1.00039 847.44 1549.3)"/><path d="M32.5783 5.90592C32.2046 7.09797 31.4754 8.24458 30.3991 9.02412 28.4689 10.3991 26.0769 10.8582 23.8179 11.5457 18.7931 13.0581 14.6656 16.1763 10.2213 18.9275 6.14222 21.4036 2.57709 23.8798-2.27718 23.5127-4.14924 23.3752-5.2219 21.8161-4.89661 19.9366-3.82391 13.7002 2.06675 11.5911 7.19677 9.7116 11.4911 8.15248 15.4565 6.54799 19.33 4.02518 21.9228 2.37524 25.1106-0.467983 28.3589-0.513394 32.1828-0.560066 33.4974 2.92521 32.5783 5.90592" fill="#FFFFFF" fill-rule="evenodd" transform="matrix(1 0 0 -1.00039 2098.72 1724.69)"/><path d="M31.4326 4.88811C31.0637 5.90984 30.3296 6.89264 29.2569 7.56084 27.3267 8.74042 24.9357 9.13288 22.6765 9.72216 17.6465 11.0196 13.5237 13.6923 9.07421 16.0504 4.9985 18.1728 1.43316 20.2952-3.42022 19.9806-5.29238 19.8627-6.36514 18.5264-6.03981 16.9143-4.96704 11.5699 0.92399 9.76217 6.04947 8.15008 10.3441 6.81372 14.3098 5.43844 18.1872 3.27712 20.7813 1.8229 23.9681-0.574119 27.213-0.614122 31.042-0.653046 32.3566 2.33431 31.4326 4.88811" fill="#FFFFFF" fill-rule="evenodd" transform="matrix(1 0 0 -1.00039 2590.3 1659.35)"/><path d="M31.1114 5.30344C30.7413 6.54022 30.0072 7.63846 28.9358 8.41677 27.0008 9.78957 24.6136 10.248 22.3545 10.9344 17.3261 12.4457 13.2023 15.6044 8.75317 18.3058 4.67409 20.8234 1.10896 23.2491-3.74048 22.9292-5.61736 22.7919-6.69003 21.2353-6.35988 19.3121-5.28722 13.0867 0.598622 10.9797 5.72861 9.14849 10.0242 7.59312 13.9896 5.98986 17.8619 3.47224 20.4559 1.77832 23.6474-1.06044 26.8908-1.10578 30.7195-1.15112 32.0341 2.32743 31.1114 5.30344" fill="#FFFFFF" fill-rule="evenodd" transform="matrix(1 0 0 -1.00039 2727.8 1538.98)"/><path d="M34.0074 16.0785C32.9343 16.6187 31.6523 16.9104 30.3345 16.7434 27.9708 16.4115 25.8848 15.1631 23.7484 14.2065 18.9852 11.9602 13.8471 11.4201 8.72127 10.3799 4.02074 9.42329-0.267969 8.75733-3.65567 5.42971-4.96481 4.14006-4.73617 2.39387-3.24021 1.35371 1.68034-2.09865 7.47483 0.272343 12.538 2.31034 16.7775 4.01535 20.7946 5.51324 25.3574 6.30279 28.4084 6.84403 32.6541 7.00997 35.1112 9.04911 38.0022 11.5025 36.6698 14.6642 34.0074 16.0785" fill="#FFFFFF" fill-rule="evenodd" transform="matrix(1 0 0 -1.00039 1875.28 1745.32)"/><path d="M36.0043 15.7353C34.9362 16.2765 33.6494 16.5672 32.3368 16.4012 29.9684 16.0683 27.8826 14.8621 25.7465 13.8643 20.9839 11.6593 15.8414 11.0768 10.7224 10.0367 6.02242 9.08002 1.7379 8.45637-1.6531 5.08756-2.96697 3.79792-2.73467 2.05058-1.23767 1.01041 3.68104-2.44193 9.47489-0.0709467 14.5374 1.96705 18.7814 3.6732 22.793 5.16993 27.3553 5.96064 30.4059 6.50189 34.6547 6.66782 37.1081 8.74815 40.0025 11.1603 38.6715 14.3209 36.0043 15.7353" fill="#FFFFFF" fill-rule="evenodd" transform="matrix(1 0 0 -1.00039 1029.63 1624.96)"/><path d="M36.5014 15.7353C35.3388 16.2765 33.9501 16.5672 32.5227 16.4012 29.9621 16.0683 27.7012 14.8621 25.3883 13.8643 20.2286 11.6593 14.6575 11.0768 9.10635 10.0367 4.01455 9.08002-0.62715 8.45637-4.30084 5.08756-5.71895 3.79792-5.46728 2.05058-3.8468 1.01041 1.482-2.44193 7.76019-0.0709467 13.2448 1.96705 17.8372 3.6732 22.1886 5.16993 27.1313 5.96064 30.4362 6.50189 35.0394 6.66782 37.697 8.74815 40.8289 11.1603 39.3907 14.3209 36.5014 15.7353" fill="#FFFFFF" fill-rule="evenodd" transform="matrix(1 0 0 -1.00039 2005.91 1624.96)"/><path d="M32.8884 19.0885C31.8166 19.7366 30.5346 20.0867 29.2207 19.8862 26.8522 19.4867 24.7665 18.0395 22.6315 16.8422 17.8687 14.1962 12.7298 13.4974 7.6057 12.2506 2.9056 11.1027-1.38397 10.3036-4.77014 6.31066-6.07914 4.76319-5.85177 2.66651-4.3547 1.41976 0.56416-2.72281 6.35937 0.122204 11.4258 2.56765 15.6649 4.61352 19.6816 6.4109 24.2392 7.3583 27.291 8.00776 31.5401 8.20687 33.9921 10.7031 36.8877 13.5976 35.5557 17.3914 32.8884 19.0885" fill="#FFFFFF" fill-rule="evenodd" transform="matrix(1 0 0 -1.00039 2346.23 1686.86)"/><path d="M31.6378 15.7391C30.5696 16.3214 29.2827 16.5708 27.9699 16.4037 25.6013 16.1132 23.5191 14.8651 21.3791 13.8675 16.6209 11.663 11.478 11.0807 6.35363 10.042 1.65201 9.08562-2.63167 8.46097-6.02297 5.09306-7.33204 3.8038-7.10464 2.0569-5.6075 1.01816-0.684651-2.43327 5.10599-0.0629196 10.1739 1.97453 14.4097 3.72026 18.4303 5.17656 22.9881 6.00825 26.0389 6.54823 30.2882 6.71526 32.7416 8.75269 35.6327 11.1642 34.3051 14.3251 31.6378 15.7391" fill="#FFFFFF" fill-rule="evenodd" transform="matrix(1 0 0 -1.00039 2879.06 1628.4)"/><path d="M35.1047 16.24C34.0329 16.8223 32.7509 17.0717 31.4321 16.9047 29.0687 16.6141 26.9829 15.3659 24.8468 14.3683 20.0842 12.1637 14.943 11.5825 9.81779 10.5425 5.12276 9.62731 0.833306 8.96259-2.55769 5.59334-3.86664 4.30397-3.63436 2.59931-2.13735 1.51817 2.78138-1.93347 8.57644 0.437031 13.6377 2.5158 17.878 4.2216 21.8983 5.67684 26.4557 6.50859 29.5074 7.04857 33.7563 7.2156 36.2085 9.2532 39.0991 11.6649 37.7715 14.8671 35.1047 16.24" fill="#FFFFFF" fill-rule="evenodd" transform="matrix(1 0 0 -1.00039 1411.21 1803.78)"/><path d="M34.5351 15.85C33.4683 16.4323 32.1765 16.6817 30.8625 16.5147 28.4989 16.2241 26.413 14.976 24.2731 13.9785 19.5138 11.774 14.3724 11.1928 9.24684 10.153 4.54659 9.19658 0.261807 8.57311-3.12939 5.20403-4.43844 3.91476-4.20613 2.2102-2.71394 1.12912 2.21-2.32231 8.00539 0.0480479 13.067 2.0855 17.3075 3.8324 21.3244 5.28753 25.8857 6.11922 28.9377 6.6592 33.1868 6.82623 35.6351 8.86365 38.5299 11.2752 37.1988 14.4772 34.5351 15.85" fill="#FFFFFF" fill-rule="evenodd" transform="matrix(1 0 0 -1.00039 1651.84 1666.22)"/><path d="M64.8783 161.514 250.512 241.506 252.472 242.315 254.553 238.809 282.15 198.834 96.9576 65.3788-6.60691-1.75405 64.8783 161.514" fill="#FFAA9C" fill-rule="evenodd" transform="matrix(1 0 0 -1.00039 2614.36 1432.38)"/><path d="M149.6 29.5578C137.252 31.4894 123.739 31.8578 111.006 31.2135L109.836 31.1223C86.7015 29.8793 68.1248 29.3274 61.7305 25.0021 51.6673 18.2377 25.4743 0.248097 24.7506-2.05313 23.9144-4.35309-7.00533 51.6436-7.00533 51.6436-7.00533 51.6436 15.964 61.1674 29.7557 70.1863 37.1521 75.0178 42.4353 78.9748 46.4384 82.1948 53.2768 87.7634 56.1145 90.9834 58.6195 92.5024 67.5139 97.7011 75.135 103.36 105.443 84.7252 135.642 66.1825 165.172 56.5662 173.175 49.2968 181.296 42.0259 185.025 24.0363 149.6 29.5578" fill="#FFAA9C" fill-rule="evenodd" transform="matrix(1 0 0 -1.00039 2837.8 1256.99)"/><path d="M-6.47728 136.475 8.84808 337.024 9.0179 339.13 13.1822 339.354 62.1692 345.223 95.2236 120.3 106.964-1.9734-6.47728 136.475" fill="#FFAA9C" fill-rule="evenodd" transform="matrix(1 0 0 -1.00039 2607.49 1411.74)"/><path d="M312.964 206.04C307.07 217.228 299.503 227.239 295.436 239.379 292.063 249.39 290.919 260.035 287.747 270.136 282.174 287.848 270.362 300.939 256.364 312.717 249.226 318.695 238.898 328.933 228.989 327.121 228.19 328.571 226.11 329.431 224.456 328.073 205.295 312.082 185.112 297.135 167.643 279.196 159.424 270.771 151.26 261.62 145.123 251.519 139.102 241.598 113.251 208.349 105.11 202.552 90.6461 192.314 78.3416 179.042 69.2207 163.821 64.1224 155.351 35.8489 128.127 27.6617 123.733 21.8359 119.429 16.2712 114.855 11.6926 109.057-2.2383 91.4358-5.5659 68.5153-1.44246 46.7708 3.47434 20.8159 19.038-0.882281 46.2944-1.24491 61.4277-1.47047 76.9766 1.51907 92.0923 3.19516 143.749 8.99229 158.277 49.7615 194.902 71.233 201.625 75.1285 217.16 45.5484 223.872 49.3992 235.575 62.8976 249.231 78.7064 262.433 87.1316 277.508 96.7805 291.254 108.377 304.733 120.064 317.951 131.57 320.129 142.396 322.891 160.696 325.255 176.369 320.21 192.314 312.964 206.04" fill="#E66C6C" fill-rule="evenodd" transform="matrix(1 0 0 -1.00039 1115.57 1638.71)"/><path d="M581.052 163.262C577.976 175.6 561.901 212.837 556.993 224.585 547.075 248.261 533.548 269.941 517.203 289.671 516.381 290.669 514.858 290.624 513.82 290.125 504.748 285.453 496.36 279.828 489.011 272.707 481.386 265.314 476.694 255.155 469.038 248.034 459.578 239.235 445.488 242.183 434.711 235.742 422.896 228.621 414.845 221.046 400.644 218.189 377.224 213.472 356.818 209.663 337.485 194.378 330.093 188.572 324.025 181.814 318.15 174.466 312.223 167.073 307.714 161.857 298.163 158.998 293.556 157.594 288.665 157.276 284.035 155.915 266.837 150.881 256.506 136.276 244.7 123.757 223.85 101.714 199.183 101.805 170.854 103.528 112.753 107.157 54.6501 110.831-3.45254 114.505-7.03651 114.732-7.02289 109.107-3.45254 108.881 20.7152 107.384 44.8819 105.841 69.0481 104.345 68.7779 102.621 70.1805 100.445 72.4747 100.853 103.539 106.385 124.261 80.2612 144.75 61.5734 162.61 45.2452 183.545 33.3165 204.781 22.0679 224.138 11.8176 244.329 0.388056 266.562-1.47111 291.009-3.55736 315.519 7.64503 337.873 16.2633 381.875 33.1805 436.388 28.9631 476.697 53.5002 498.127 66.5631 518.942 80.6228 539.042 95.6822 547.013 101.669 554.875 107.792 562.613 114.052 569.564 119.676 580.31 125.889 583.796 134.642 587.254 143.261 583.139 154.872 581.052 163.262" fill="#F8F0EC" fill-rule="evenodd" transform="matrix(1 0 0 -1.00039 2263.73 1470.21)"/><path d="M773.874 359.923C771.268 378.544 768.624 397.392 764.29 415.742 762.626 422.775 760.529 432.108 757.246 440.675 752.557 442.253 747.796 443.786 742.894 445.14 726.119 449.74 708.422 451.902 691.151 453.391 668.965 455.329 635.648 458.217 608.625 451.228 603.063 440.541 603.28 422.191 603.72 412.631 604.645 392.614 609.615 372.954 610.241 352.889 610.867 332.689 603.056 313.166 604.6 293.057 606.04 274.3 620.124 257.707 619.478 238.861 619.158 229.573 612.066 222.133 607.821 214.197 581.3 226.371 550.403 219.337 521.988 222.043 502.101 223.981 482.497 228.58 463.865 235.839 448.966 241.611 434.515 249.456 418.468 251.576 400.053 254.01 381.676 247.833 363.278 250.584 345.567 253.243 330.189 264.11 312.986 269.115 286.102 276.87 254.507 284.716 227.7 293.689 198.622 303.427 173.011 297.926 142.554 302.075 118.566 305.366 93.7503 306.808 70.0639 300.722 47.4972 294.906 28.2357 281.829 10.3173 267.356 6.49148 270.378 2.57036 273.308-1.5437 276.059-4.53834 278.042-7.32145 273.219-4.35402 271.234 36.8596 243.82 62.2403 200.355 90.4279 160.722 105.036 140.208 119.641 119.692 134.249 99.1769 146.101 82.4946 163.462 36.0531 166.487 14.9517 165.453 15.0869 164.419 15.1774 163.385 15.3573 159.887 15.8981 158.376 10.5334 161.906 9.99259 163.578 9.72095 165.25 9.5411 166.924 9.31535 166.933 8.63932 166.991 7.96331 166.969 7.28731 166.851 3.68025 172.414 3.68025 172.53 7.28731 172.54 7.69291 172.512 8.09851 172.512 8.54877 252.384-2.76855 332.761-3.26347 413.277 0.749195 455.618 2.91368 497.911 5.93404 540.21 8.72986 569.667 10.6686 600.757 10.4428 630.505 15.0422 653.3 18.5587 676.841 18.3789 699.8 21.4439 715.882 23.6543 732.836 24.7805 748.322 29.8761 779.064 39.9307 780.512 95.3897 782.416 123.569 785.197 164.645 785.757 205.855 784.08 246.977 782.54 284.76 779.123 322.454 773.874 359.923" fill="#F8F0EC" fill-rule="evenodd" transform="matrix(1 0 0 -1.00039 1954.34 1611.2)"/><path d="M844.867 32.1931C843.945 52.0919 832.45 69.2447 821.835 85.3165 805.534 110.031 794.41 129.389 790.209 159.012 787.586 177.515 785.469 197.188 776.479 213.935 765.809 233.788 745.029 243.242 729.766 258.998 698.673 291.097 688.958 308.07 586.948 290.511 545.508 283.399 374.983 349.892 286.495 345.66 186.646 340.888 50.1988 321.17 19.3033 291.998-0.412157 273.36-5.28378 254.587-3.93838 228.027-2.53977 200.474-0.209173 172.427 7.74063 145.912 22.3629 97.0658 59.4892 62.2214 107.053 45.4745 134.691 35.7499 164.134 32.3281 193.319 32.2835 209.462 32.2389 458.354-2.74076 491.892-1.30041 552.393 1.40072 783.365 2.6615 842.632 8.82914 844.196 16.6167 845.228 24.4055 844.867 32.1931" fill="#E66C6C" fill-rule="evenodd" transform="matrix(1 0 0 -1.00039 1304.64 1618.08)"/><path d="M177.413 159.997C179.25 168.209 179.155 176.466 177.758 184.723 174.715 202.726 167.215 221.27 152.823 233.723 137.244 247.169 117.876 258.133 99.951 268.42 89.9442 274.196 79.6545 279.564 68.9381 284.031 59.9461 287.776 49.3198 289.31 40.7282 293.461 30.9115 298.199 31.626 301.673 27.0775 308.305 23.4887 313.495 18.2531 315.074 14.842 321.3 12.1216 326.264 12.1404 329.918 7.09127 333.392 6.38553 333.844 5.69856 333.933 5.08038 333.798 3.94292 335.693 0.454233 335.964-0.259025 333.301-5.56714 313.269-3.18838 293.506-0.050053 273.383 1.99211 260.253 4.30331 247.124 4.13439 233.859 3.98049 221.541-0.381655 210.397-1.85196 198.349-4.50726 176.557 9.24732 160.134 15.106 140.28 19.6271 124.895 10.5074 114.201 7.94592 99.5828 6.19533 89.6568 8.15114 52.6573 8.86565 42.777 9.63398 32.1744 0.946004 6.27577 13.7183-0.763368 17.4986-2.83874 17.9077-0.53746 21.1737-0.312795 27.8921 2.34969 34.6416 3.02617 41.424 1.71789 43.0933 1.4473 44.7763 1.35669 46.468 1.40261 49.4198 1.4473 52.8498 1.8085 55.724 2.48498 71.0127 6.00392 70.0031 19.4044 70.0031 19.4044 70.0031 19.4044 69.4111 10.8324 70.1619 6.14046 70.3623 4.92156 71.7999 4.15446 72.9773 4.10978 96.421 2.98148 120.533 4.19915 143.417 9.61346 158.691 13.1783 167.365 19.721 167.092 35.6028 166.987 41.6488 165.81 75.2633 166.778 81.354 167.574 86.3622 169.708 91.0542 170.258 96.1535 171.418 106.711 167.624 117.044 168.338 127.602 169.098 138.882 174.962 149.124 177.413 159.997" fill="#7D4949" fill-rule="evenodd" transform="matrix(1 0 0 -1.00039 1304.64 1521.79)"/><path d="M260.42 110.44C259.872 116.59 252.936 164.723 249.807 170.383 246.13 177.069 239.727 180.188 234.4 185.181 229.336 189.948 225.904 196.278 221.156 201.359 210.864 212.366 195.616 216.556 181.177 220.3 168.769 223.509 156.288 226.54 143.812 229.481 135.202 231.486 126.117 232.645 117.544 230.46 108.486 228.189 100.681 223.018 91.5427 220.656 82.4128 218.294 72.9931 216.779 64.3833 212.813 51.2792 206.707 41.2985 195.386 31.9747 184.155 23.1883 173.593 14.5474 162.718 8.33856 150.372 1.0263 135.799-2.70944 119.487-3.36877 103.086-4.21469 82.1385 0.0584682 60.746 10.2369 42.5622 20.4166 24.3781 36.687 9.53766 56.0362 2.71821 81.4588-6.2395 109.296-0.980861 135.668 4.32315 139.656 5.125 143.654 5.92685 147.647 6.72994 153.245 7.84444 158.843 9.00308 164.441 10.1163 181.276 13.504 198.117 16.8917 214.951 20.2781 212.329 19.6099 212.279 15.3309 214.45 13.6818 216.616 11.9886 219.655 12.3453 222.242 13.1926 224.828 13.9944 227.419 15.1531 230.11 14.9299 232.384 14.708 234.505 13.4598 236.789 13.4145 243.209 13.3262 247.637 7.39814 248.541 13.9491 254.184 54.8632 264.11 69.3028 260.42 110.44" fill="#7D4949" fill-rule="evenodd" transform="matrix(1 0 0 -1.00039 1304.64 1305.14)"/><path d="M106.879 34.5952C86.257-0.789999 61.2513-5.05449 48.9331 0.0711375L48.3738 0.298278C47.8097 0.525418 47.1902 0.79749 46.5175 1.11449 40.215 4.06357 29.588 10.4597 19.689 16.63 15.4145 19.307 11.2537 21.9378 7.6572 24.2516 0.963247 28.5161-3.70662 31.6462-3.70662 31.6462L30.939 159.85C30.939 159.85 87.9621 114.257 111.808 90.9401 116.533 86.3124 121.53 59.7281 106.879 34.5952" fill="#FFAA9C" fill-rule="evenodd" transform="matrix(1 0 0 -1.00039 1466.21 1408.31)"/><path d="M48.2744 16.5898C52.1991 24.7715 57.779 53.6312 58.0709 59.2953 59.1857 80.9614 58.132 110.676 37.1617 122.094 30.6339 116.519 26.1679 104.067 23.5613 98.7186 15.2182 81.4118 9.08541 63.1609 3.32262 44.8647 0.471751 35.9644-2.05703 27.4686-3.5106 18.9271-0.0682485 16.6343 3.91531 14.0274 8.00542 11.3748 15.4349 6.56542 23.2655 1.66578 29.2187-1.66083 36.9091 1.26139 43.1294 5.89144 48.2744 16.5898" fill="#F07D67" fill-rule="evenodd" transform="matrix(1 0 0 -1.00039 1479.96 1401.43)"/><path d="M190.605 63.8594C177.006 23.0873 143.47 4.18887 128.508-0.0508722 106.831-6.18405 78.8566 2.74585 60.2427 29.4922 43.8953 52.9454 21.1016 84.9676 9.04495 119.606 8.60717 120.779 8.21855 121.952 7.83365 123.124 7.11423 125.245 6.44892 127.364 5.78729 129.529L5.50936 130.477C4.62394 133.318 3.79754 136.295 3.02401 139.181 2.6932 140.309-2.10291 155.779-2.43372 156.816-11.3877 220.186 41.2267 263.169 109.5 266.146 143.56 267.589 166.997 250.855 187.841 230.244 209.183 189.47 205.534 108.827 190.605 63.8594" fill="#FFAA9C" fill-rule="evenodd" transform="matrix(1 0 0 -1.00039 1332.14 1397.99)"/><path d="M7.51856 19.6141 7.34018 19.7946 7.06249 19.9763C5.71877 21.1526 4.29159 22.0114 2.81694 22.1931 0.949531 22.4645-0.991253 21.7861-2.89895 19.6589-3.93047 18.4826-4.07148 17.1259-4.05563 15.8588-3.96069 9.61411 4.04989-4.59296 12.8474-1.33432 22.009 2.10355 11.9209 15.5414 7.51856 19.6141" fill="#36303A" fill-rule="evenodd" transform="matrix(1 0 0 -1.00039 1442.14 1308.58)"/><path d="M6.44717 19.6086 6.3033 19.7893 6.06834 19.97C4.95226 21.1477 3.76306 22.0089 2.52948 22.1908 0.974629 22.5073-0.642561 21.782-2.22858 19.6534-3.09172 18.4757-3.2092 17.1161-3.19602 15.8486-3.11809 9.59617 3.55804-4.58248 10.8875-1.32103 18.5227 2.07626 10.1215 15.5308 6.44717 19.6086" fill="#36303A" fill-rule="evenodd" transform="matrix(1 0 0 -1.00039 1363.08 1312.02)"/><path d="M20.9647 3.98702C14.4875 3.62872 5.29007 2.24101 2.84266 9.5366 1.68617 12.9831 3.1767 18.9365 3.31245 22.6071 3.64515 31.9615 3.98451 41.2714 4.31857 50.6257 4.44367 54.1609-1.53978 54.1609-1.66621 50.6257-1.93637 43.1503-2.20253 35.6763-2.4687 28.201-2.70159 21.7563-4.64061 12.8489-3.01035 6.58264-0.630815-2.50328 13.0688-1.96643 20.9647-1.51822 24.7908-1.33968 24.8148 4.21112 20.9647 3.98702" fill="#F07D67" fill-rule="evenodd" transform="matrix(1 0 0 -1.00039 1400.89 1346.4)"/><path d="M40.3893 15.3013C39.722 15.07 39.0507 14.7914 38.4429 14.5116 27.6191 9.54237 15.0134 9.12453 3.50827 11.7248 2.06317 12.0506 0.548406 12.4225-0.878968 12.0506-8.97204 9.82092 3.80844 3.27236 6.21991 2.38942 11.2758 0.577549 16.2799-1.69815 21.6614-1.65087 29.9584-1.55887 41.0709 2.90053 44.336 11.4002 44.7818 12.5617 44.6856 14.0478 43.7787 14.8834 42.8719 15.7204 41.6244 15.6271 40.3893 15.3013" fill="#F07D67" fill-rule="evenodd" transform="matrix(1 0 0 -1.00039 1411.21 1370.48)"/><path d="M46.7399 2.4598C45.9695 3.65055 44.9547 4.78997 44.0737 5.46226 37.0015 11.0029 28.5444 14.0566 19.9701 14.8329 15.1864 15.2474-5.28354 15.7131-3.47688 5.82548-3.06379 3.59785-1.37698 1.8388 0.522744 1.00984 2.41355 0.180889 4.50451 0.0783375 6.54325 0.0783375 19.659 0.0783375 31.2091 1.42432 44.1118-1.89007 49.0004-3.13208 48.4776-0.180889 46.7399 2.4598" fill="#7D4949" fill-rule="evenodd" transform="matrix(1 0 0 -1.00039 1424.96 1274.19)"/><path d="M38.0036 3.82745C37.6279 1.875 36.0242 0.376 34.2613-0.395986 32.4984-1.16797 30.5749-1.21294 28.6527-1.21294 18.282-1.21294 8.98703-0.395986-0.899892-1.89374-1.59532 0.23984-2.23962 2.37466-2.87918 4.55323L-3.14665 5.50757C2.72939 9.09394 9.41023 11.1375 16.1469 11.6822 20.581 12.0907 39.6629 12.5004 38.0036 3.82745" fill="#7D4949" fill-rule="evenodd" transform="matrix(1 0 0 -1.00039 1342.45 1277.63)"/><path d="M221.998 68.9574C220.937 82.8071 220.324 97.2828 214.781 110.235 202.326 139.365 163.643 159.758 134.57 162.446 72.3633 168.228 6.63359 121.394-0.191112 57.1262-2.1739 57.395-4.40438 55.2892-3.13826 53.0479 1.60056 44.5333 9.6675 53.7653 12.807 58.8746 18.4976 68.1956 21.9112 76.7112 30.9337 83.9263 38.6347 90.0662 44.1191 91.9933 54.4844 90.7396 57.8478 90.2907 60.9608 89.1257 64.4387 88.9012 74.8277 88.2739 85.6861 93.9204 95.7771 89.3502 102.701 86.2123 105.238 77.8765 112.657 74.8741 119.47 72.1395 127.048 72.1853 134.155 73.6634 142.299 75.4118 148.177 79.9824 155.366 73.1705 162.148 66.7618 166.212 58.2015 171.339 50.5831 178.423 63.2207 198.688 65.5064 207.697 52.8691 216.389 40.678 215.681 23.0655 211.404 7.60343 215.298 5.81076 226.755-2.07748 226.755-2.07748 226.755-2.07748 226.882 4.51129 226.75 6.25954 225.169 27.1884 223.597 48.073 221.998 68.9574" fill="#7D4949" fill-rule="evenodd" transform="matrix(1 0 0 -1.00039 1321.83 1287.94)"/><path d="M-1.62292 5.01125-3.04078 5.01125C-6.67662 5.01125-6.68168-1.86568-3.04078-1.86568L-1.62292-1.86568C2.01293-1.86568 2.02173 5.01125-1.62292 5.01125" fill="#F8F0EC" fill-rule="evenodd" transform="matrix(1 0 0 -1.00039 2366.85 1391.11)"/><path d="M62.6353 32.7375C57.2369 49.9045 54.9537 67.2527 53.6721 85.1412 52.4965 101.633 51.0802 118.304 56.1785 134.301 60.1829 146.827 66.7876 158.316 66.5507 171.834 66.2767 187.2 61.6989 202.295 61.1513 217.796 60.5676 234.196 61.5731 250.598 62.4342 267 65.3218 322.152 62.7611 393.525 2.70155 417.495 1.0103 418.172-0.832667 416.505-0.810463 414.838-0.638996 404.113 0.395979 393.662 2.13656 383.253 1.68261 382.937 1.2928 382.487 1.10036 381.81 0.0604455 377.98-0.133227 374.106 0.365141 370.277-1.07939 370.005-2.38822 368.743-1.94906 366.897 6.16669 332.695 16.7089 298.721 14.9473 263.214 14.1899 247.985 9.3555 247.083 9.0508 231.854 8.71034 214.911 14.275 183.956 14.4181 167.013 14.692 135.067-3.36645 107.535-3.71555 75.5888-3.86853 62.2957-2.01568 49.0035 0.48603 35.9816 2.15384 27.2399 2.73239 6.3318 10.7371 0.609877 17.507-4.25673 31.1566-0.111563 38.8479 0.339647 46.1386 0.789618 61.4287-1.91392 66.7786 4.48482 71.7514 10.4324 64.3128 27.3751 62.6353 32.7375" fill="#7D4949" fill-rule="evenodd" transform="matrix(1 0 0 -1.00039 1521.21 1528.67)"/><path d="M27.787-2.5338C34.1054-2.90008 36.9823-1.06991 38.7107 2.08695 48.4442 5.92981 54.9444 20.755 54.9079 30.0884 54.8629 40.2916 48.5432 48.1156 39.9008 51.4562L39.6815 51.6388C33.3905 55.8027 21.4824 56.9468 14.4253 54.7959 5.31634 52.0506 1.33693 42.8997-1.04722 34.3893-2.84316 28.0291-6.2394 15.0807 0.374993 10.3227 2.72276 8.67507 3.62951 9.36234 6.31465 8.99603 12.4061 8.21818 14.3475 6.79959 18.5188 2.36135 21.4046-0.658309 23.2783-2.30597 27.787-2.5338" fill="#7D4949" fill-rule="evenodd" transform="matrix(1 0 0 -1.00039 1421.52 1088.48)"/><path d="M29.0403 2.69189C18.917 4.98028 8.80215 5.22531-1.436 3.46856-4.87127 2.89645-3.41715-2.00628 0.00604376-1.39372 9.27235 0.159603 18.442-0.0865451 27.5898-2.16925 30.9913-2.94591 32.4406 1.91636 29.0403 2.69189" fill="#522E2E" fill-rule="evenodd" transform="matrix(1 0 0 -1.00039 1431.83 1081.61)"/><path d="M7.83846 29.9087C6.64895 33.2709 1.54846 31.771 2.75085 28.4088 5.89 19.5496 7.6672 7.55434-1.96959 2.60228-5.02191 1.01241-2.35318-3.84842 0.695631-2.25855 12.4686 3.78341 11.8081 18.6859 7.83846 29.9087" fill="#522E2E" fill-rule="evenodd" transform="matrix(1 0 0 -1.00039 1449.02 1071.29)"/><path d="M-1.09366 13.2603C-1.76053 9.10452-2.42295 4.94765-3.08537 0.830305-3.57107-2.19919 1.24149-3.51999 1.72941-0.45095 2.39628 3.70486 3.0587 7.8222 3.72222 11.9791 4.20682 15.0086-0.604627 16.2898-1.09366 13.2603" fill="#522E2E" fill-rule="evenodd" transform="matrix(1 0 0 -1.00039 1442.14 1064.41)"/><path d="M54.536 93.5372C39.6598 84.0889 24.0033 73.747 17.1698 56.6865 15.1462 51.6274 14.3748 46.1644 12.502 41.1039 10.1792 34.7912 6.36384 30.9848 2.68952 25.6117-2.9765 17.4177-3.72463 10.3878-3.0783 0.4028-2.85141-3.13494 2.66377-3.17929 2.43566 0.4028 1.64707 12.5816 5.50293 18.9402 12.1537 28.5668 16.2561 34.5227 17.9853 40.567 20.0445 47.4628 26.0539 67.4328 40.4092 78.0446 57.3187 88.7465 60.3101 90.6719 57.5456 95.4622 54.536 93.5372" fill="#522E2E" fill-rule="evenodd" transform="matrix(1 0 0 -1.00039 1342.45 1191.65)"/><path d="M7.5221 27.3523C2.47575 19.0814-1.28105 10.3618-3.67894 1.23772-4.58911-2.2232 1.54433-3.70576 2.46018-0.244824 4.73349 8.42911 8.21285 16.6542 13.0129 24.5207 14.9422 27.6663 9.45286 30.4979 7.5221 27.3523" fill="#522E2E" fill-rule="evenodd" transform="matrix(1 0 0 -1.00039 1363.08 1177.9)"/><path d="M3.15076 102.956C1.83269 106.152-2.31306 103.355-1.00247 100.159 6.54974 81.8669 12.0842 61.9326 4.99843 42.6636 0.156201 29.5213 2.01135 14.9146-2.91539 2.03852-4.14467-1.20186 0.00106987-3.99888 1.23784-0.75849 4.0687 6.65665 4.51593 13.6712 5.15033 21.5737 6.05225 32.8069 11.3021 40.1768 13.2589 50.5663 16.4589 67.4813 9.2993 88.0377 3.15076 102.956" fill="#522E2E" fill-rule="evenodd" transform="matrix(1 0 0 -1.00039 1504.02 1212.29)"/><path d="M14.9551 130.547C14.2604 134.053 8.62361 132.57 9.31308 129.109 14.3684 103.619 17.0456 80.6019 6.11159 56.1015-2.21932 37.4453-4.53232 21.5313-3.75179 1.16746-3.61518-2.3844 2.23494-2.42892 2.09704 1.16746 1.57668 14.7429 1.3126 28.3197 5.96068 41.3573 9.5928 51.5614 15.4325 60.7773 17.9913 71.3413 22.7435 90.9421 18.7992 111.171 14.9551 130.547" fill="#522E2E" fill-rule="evenodd" transform="matrix(1 0 0 -1.00039 1531.52 1456.45)"/><path d="M6.55211 75.1069C6.28605 78.6204 1.76805 78.6658 2.03812 75.1069 3.92865 50.3284 3.83027 25.9498-2.57125 2.06091-3.47685-1.3205 0.880511-2.7438 1.7821 0.592328 8.29305 24.9267 8.47981 49.8829 6.55211 75.1069" fill="#522E2E" fill-rule="evenodd" transform="matrix(1 0 0 -1.00039 1376.83 1490.84)"/><path d="M2.70199 33.8862C2.32316 37.4422-3.31791 37.4873-2.93406 33.8862-1.78502 23.034-1.93555 12.2282-3.38063 1.42238-3.85979-2.13357 1.78502-2.13357 2.25919 1.42238 3.70428 12.2282 3.85103 23.034 2.70199 33.8862" fill="#522E2E" fill-rule="evenodd" transform="matrix(1 0 0 -1.00039 1397.45 1497.72)"/><path d="M62.0822 88.4406C62.0822 88.4406 27.9749 77.2643 7.07394 59.7017-12.1818 43.5127-0.545102 14.9053 16.3555 3.90569 33.2611-7.04874 55.6202 2.57572 70.198 13.086 88.2966 26.0817 107.093 45.5075 107.093 45.5075L62.0822 88.4406" fill="#FFAA9C" fill-rule="evenodd" transform="matrix(1 0 0 -1.00039 1153.39 1614.64)"/><path d="M-3.26246 179.791C-3.26246 179.791 6.28491 187.944 9.41497 187.944 12.5451 187.944 75.4647 153.688 101.184 138.438 126.913 123.234 170.014 85.2227 170.014 85.2227 170.014 85.2227 236.63 113.388 269.392 126.348 311.85 143.155 365.722 159.596 369.892 155.383 374.065 151.123 385.185 144.392 385.185 144.392 385.185 144.392 111.268-3.20885 111.268-1.10237 111.268 1.05072-3.26246 179.791-3.26246 179.791" fill="#FFFFFF" fill-rule="evenodd" transform="matrix(1 0 0 -1.00039 1163.7 1614.64)"/><path d="M459.949 69.7442 263.62-0.898569 224.91 4.73133 105.775 79.1725 105.339 79.6197-3.2115 299.906C-3.73931 300.977-2.53624 302.051-1.51902 301.425L154.673 205.937 193.996 201.29 395.584 271.309C396.22 271.531 396.914 271.175 397.117 270.549L460.678 71.2193C460.871 70.638 460.548 69.968 459.949 69.7442" fill="#F5D2B5" fill-rule="evenodd" transform="matrix(1 0 0 -1.00039 1156.82 1735)"/><path d="M103.344-0.747727 65.4799 4.86635 56.4885 31.1557 53.0564 41.1359-3.22128 205.508 35.2415 200.873 90.2683 37.884 93.6472 27.9478 103.344-0.747727" fill="#7B9FBA" fill-rule="evenodd" transform="matrix(1 0 0 -1.00039 1314.95 1735)"/><path d="M37.9207-0.558519 0.15765 2.7862-3.33034 13.1923 34.4869 9.80157 37.9207-0.558519" fill="#FFFFFF" fill-rule="evenodd" transform="matrix(1 0 0 -1.00039 1369.95 1707.49)"/><path d="M-0.97718-1.12163C-2.1383-1.12163-3.21511-0.42865-3.60981 0.653689-4.10159 1.9956-3.32241 3.46729-1.86877 3.94237L57.8797 22.8136C59.3472 23.247 60.9172 22.5541 61.4091 21.1693 61.9007 19.8274 61.1217 18.3557 59.668 17.9235L-0.0804736-0.990655-0.97718-1.12163" fill="#FFFFFF" fill-rule="evenodd" transform="matrix(1 0 0 -1.00039 1483.39 1511.47)"/><path d="M-0.946729-1.14396C-2.07257-1.14396-3.11678-0.405024-3.47623 0.794809-3.91486 2.22572-3.13993 3.79376-1.73994 4.25591L54.8323 22.8095C56.2276 23.2247 57.7151 22.44 58.1537 21.0091 58.5975 19.5325 57.8223 17.9632 56.4225 17.548L-0.149869-1.00557-0.946729-1.14396" fill="#FFFFFF" fill-rule="evenodd" transform="matrix(1 0 0 -1.00039 1490.27 1528.67)"/><path d="M-1.88207 3.48444C-4.78169 8.38122-0.756473 13.9502 4.54491 16.0618 11.9857 18.9804 21.5685 19.7897 29.3591 19.5191 33.0965 19.3844 39.9654 17.9931 41.5756 13.3669 43.1115 9.01013 37.458 5.77529 34.2804 4.78801 28.803 3.0804 23.1701 1.82378 17.5166 0.925478 12.1631 0.0271836 5.30743-3.07299 0.355773 0.969961-0.63262 1.77806-1.36966 2.58615-1.88207 3.48444" fill="#FFAA9C" fill-rule="evenodd" transform="matrix(1 0 0 -1.00039 1184.32 1545.86)"/><path d="M26.6637-0.430971C34.4278-1.75802 47.4594-0.559316 53.3297 4.8337 58.3696 9.4566 53.647 14.2503 48.3624 15.748 49.0805 16.8184 49.579 18.0595 49.6649 19.5573 49.8512 22.8531 48.1675 25.2082 45.7206 26.7483 49.8612 29.7875 52.0083 36.7643 45.833 40.7018 40.0809 44.3404 33.0114 43.9128 26.3052 43.4841 22.7191 43.27 15.5907 43.3136 12.0347 42.8001 6.32774 42.029-0.990504 40.8303-2.77041 34.0254-3.61476 30.8154-1.55383 28.1178 1.2016 26.4057 0.370971 16.7324 9.64275 12.6665 19.4766 11.1251 14.569 5.60379 20.5932 0.639388 26.6637-0.430971" fill="#FFAA9C" fill-rule="evenodd" transform="matrix(1 0 0 -1.00039 1191.2 1583.69)"/><path d="M-0.434687 3.99197C9.27922 4.97694 19.0181 5.64662 28.7795 6.00093 32.2071 6.15806 32.6299 1.27431 29.1857 1.1562 19.416 0.761766 9.68067 0.0921054-0.0380053-0.852787-3.45254-1.20712-3.85398 3.67664-0.434687 3.99197" fill="#F07D67" fill-rule="evenodd" transform="matrix(1 0 0 -1.00039 1198.07 1559.62)"/><path d="M-0.451311 4.22332C4.73098 4.5547 9.87853 5.13428 15.0046 5.96209 18.4211 6.49955 18.8078 1.36755 15.4092 0.828954 10.2832 0.0432696 5.13559-0.536316-0.0466873-0.867668-3.50273-1.07491-3.92054 4.0161-0.451311 4.22332" fill="#F07D67" fill-rule="evenodd" transform="matrix(1 0 0 -1.00039 1215.26 1573.37)"/><path d="M-0.470572 5.41015C5.80049 6.90677 12.1016 8.13581 18.4507 9.04437 21.8971 9.5795 22.3029 2.95206 18.8516 2.47132 12.5073 1.50984 6.20145 0.333724-0.0684249-1.16289-3.46327-2.01705-3.84738 4.60891-0.470572 5.41015" fill="#F07D67" fill-rule="evenodd" transform="matrix(1 0 0 -1.00039 1194.64 1545.86)"/><path d="M151.888 41.611C151.261 50.0506 144.135 51.172 136.951 54.494 136.718 54.7632 136.402 54.988 135.99 55.1685 122.651 61.4074 109.311 67.6033 95.9669 73.8422 88.1051 77.4795 79.6022 82.8662 70.9082 84.5272 53.5088 87.8937 32.0557 71.9577 20.0985 61.1382 15.7653 57.1877-7.10151 37.3009 3.0793 30.3431 3.98193 29.759 4.89716 29.4453 5.80736 29.3552 0.686105 25.36-5.14391 19.8829-3.59672 14.317-2.12756 9.0202 3.63322 9.06465 8.35162 10.2317 7.69697 2.28592 15.7012-1.43997 23.6587 0.35567 28.4363 1.47826 33.2416 3.76787 37.8819 6.28103 38.4446 0.894117 42.6457-0.72122 49.075-0.72122 55.0472-0.676762 61.3933 2.6453 66.7752 4.88921 73.9181 7.85314 82.2887 8.93003 89.1436 12.4769 108.039 4.39647 129.235-5.7043 148.652 1.52271 158.372 5.114 152.734 30.253 151.888 41.611" fill="#FFAA9C" fill-rule="evenodd" transform="matrix(1 0 0 -1.00039 1497.14 1611.2)"/><path d="M33.4317 29.5755C20.6548 21.8149 8.59033 13.1378-2.784 3.58884-5.49973 1.27864-1.54281-2.5153 1.15928-0.247092 12.1811 9.03924 23.872 17.4104 36.2466 24.9107 39.2837 26.7411 36.4862 31.4071 33.4317 29.5755" fill="#F07D67" fill-rule="evenodd" transform="matrix(1 0 0 -1.00039 1514.33 1576.81)"/><path d="M40.1985 33.0365C25.4288 24.3108 11.1897 14.8485-2.53239 4.51572-5.40069 2.35641-2.60481-2.55731 0.30094-0.399262 14.0218 9.93484 28.2608 19.4413 43.0355 28.1228 46.1548 29.9599 43.3315 34.8737 40.1985 33.0365" fill="#F07D67" fill-rule="evenodd" transform="matrix(1 0 0 -1.00039 1517.77 1597.45)"/><path d="M23.5692 22.7626C14.6044 17.299 5.97422 11.2291-2.34669 4.59774-5.03487 2.44981-2.45591-2.54745 0.260998-0.398238 8.58191 6.2318 17.2167 12.303 26.178 17.7666 29.0996 19.5869 26.4954 24.538 23.5692 22.7626" fill="#F07D67" fill-rule="evenodd" transform="matrix(1 0 0 -1.00039 1545.27 1600.89)"/><path d="M-0.404243 69.2784 125.489 74.76 150.574 30.8247 138.033-0.868198-4.11809 17.8297-0.404243 69.2784" fill="#FFAA9C" fill-rule="evenodd" transform="matrix(1 0 0 -1.00039 1634.65 1628.4)"/><path d="M264.832 96.6836C255.083 120.551 234.113 136.886 219.031 156.986 204.393 176.543 191.535 192.878 168.608 203.133 146.208 213.161 121.232 215.884 96.9338 215.52 71.9047 215.157 43.8753 210.938 27.1194 190.156 20.271 181.625 17.1806 171.507 15.1191 160.888 11.5559 142.649 8.70387 127.992-2.75898 112.791-3.87348 112.292-4.71744 111.159-4.35629 109.616-0.860085 94.8689 1.54021 79.8944 2.31094 64.7391 2.57281 59.6126 2.67706 54.4397 2.61873 49.3119 2.56909 44.4123 0.569667 36.653 1.92744 31.9795 4.80678 22.0869 22.0172 20.3631 33.7196 19.6366 36.4587 8.97383 42.3277 0.3982 55.5009-0.781419 68.4493-1.9161 82.7507 1.35063 95.6705 2.48531 109.638 3.75605 122.681 3.71112 136.593 2.03219 146.713 0.761447 155.163 0.761447 164.605 4.75467 173.551 8.52072 179.827 11.197 189.694 11.1071 196.93 11.016 203.982 9.79019 211.236 10.5167 227.427 12.0595 253.552 21.1794 263.072 35.2913 273.814 51.218 271.725 79.8494 264.832 96.6836" fill="#E66C6C" fill-rule="evenodd" transform="matrix(1 0 0 -1.00039 1710.28 1659.35)"/><path d="M117.413 94.6867C105.764 89.0542 94.0562 81.4056 83.6276 73.3919 65.1513 59.1496 50.6766 43.809 47.7382 36.6193 43.1318 25.3072 35.4168-0.200311 36.0314-2.53475 36.6409-4.87045-4.41153 30.3906-4.41153 30.3906-4.41153 30.3906-5.85532 47.5646-6.29956 64.1877-6.63149 77.0556-6.40691 89.6486-4.41153 93.7709 0.136973 103.168 3.35399 112.175 38.5254 114.039 73.6425 115.908 115.583 125.822 126.178 124.407 136.826 122.987 149.754 110.248 117.413 94.6867" fill="#FFAA9C" fill-rule="evenodd" transform="matrix(1 0 0 -1.00039 2621.24 1102.24)"/><path d="M126.178 58.9172C115.583 60.3675 73.6425 50.2043 38.5254 48.2875 3.35399 46.3772 0.136973 37.1428-4.41153 27.509-6.40691 23.283-6.63149 10.3725-6.29956-2.81948 5.46164 5.77199 18.8332 11.8746 33.2006 14.7858 45.1283 17.2268 60.2706 18.9175 71.4768 13.0486 75.8635 10.7949 79.5778 8.4003 83.6276 6.61667 94.0562 14.8323 105.764 22.6733 117.413 28.4479 149.754 44.4013 136.826 57.4617 126.178 58.9172" fill="#6F5E61" fill-rule="evenodd" transform="matrix(1 0 0 -1.00039 2621.24 1036.9)"/><path d="M118.259 18.5264C110.35 25.7648 81.1673 35.3398 51.3246 53.8034 21.3746 72.3589 13.8418 66.7236 5.0524 61.5473 2.57815 60.0347-0.226154 56.8282-6.98511 51.284 2.46691 49.2686 11.4825 45.7859 20.547 42.029 33.2434 36.7152 47.8626 30.3463 52.8089 15.9603 54.733 10.3705 55.612 5.10204 56.821 0.52054 69.406 1.16208 82.7589 0.795304 94.9603-1.12805 129.968-6.62585 126.284 11.2868 118.259 18.5264" fill="#6F5E61" fill-rule="evenodd" transform="matrix(1 0 0 -1.00039 2892.81 1226.04)"/><path d="M169.492 65.977C163.548 77.1512 155.435 86.9239 148.629 97.5554 141.413 108.776 138.271 121.941 131.168 133.117 119.057 152.163 94.7788 164.74 76.6576 177.047 51.5724 194.057 25.8456 210.119-0.393267 225.274-3.49984 227.084-6.30464 222.242-3.19808 220.433 19.2911 207.449 41.4181 193.831 63.0674 179.444 82.3712 166.64 105.963 153.882 121.584 136.465 129.932 127.19 132.612 115.109 138.199 104.251 142.969 95.0225 149.353 86.7881 155.218 78.2378 171.033 55.2098 178.712 30.3711 174.31 2.2764 173.757-1.20728 179.113-2.74562 179.674 0.828913 183.188 23.2693 180.231 45.844 169.492 65.977" fill="#B54848" fill-rule="evenodd" transform="matrix(1 0 0 -1.00039 1806.53 1600.89)"/><path d="M200.141 33.9966C179.83 40.203 163.104 38.0438 144.791 29.9481 144.488 30.354 144.098 30.7128 143.518 30.938 116.601 41.1483 90.1381 52.4824 64.2771 65.1203 41.1531 76.4094 6.07735 88.5537 1.2925 117.114 0.699219 120.622-4.70135 119.138-4.1118 115.629 0.52722 87.9686 29.8084 76.1399 52.2758 64.8505 80.3293 50.7735 109.122 38.2246 138.443 26.9798 125.277 20.4591 112.728 13.4868 98.4601 10.1139 92.838 8.76517 90.1071 8.08961 89.0188 2.28781 88.367-1.22 93.7678-2.70478 94.4244 0.804258 95.0129 3.95199 110.154 6.92035 113.213 8.31481 121.598 12.0923 129.754 16.5009 137.996 20.594 158.767 30.8477 175.767 35.6162 198.656 28.644 202.108 27.565 203.585 32.9622 200.141 33.9966" fill="#B54848" fill-rule="evenodd" transform="matrix(1 0 0 -1.00039 1617.46 1549.3)"/><path d="M254.976 2.65156C249.056 13.9862 239.342 28.4026 227.113 34.2508 230.853 45.9021 232.798 57.7807 232.015 70.1117 231.102 84.4832 224.911 98.1752 226.669 112.636 227.103 116.218 221.509 116.173 221.075 112.636 219.573 100.26 223.806 89.2886 225.584 77.1385 227.597 63.4019 226.154 50.073 222.115 36.9259 187.124 49.3019 150.252 39.4192 114.108 42.4113 74.3716 45.7213 36.9878 62.087-3.23484 61.7704-6.83049 61.7704-6.83919 56.1479-3.23484 56.1943 35.2882 56.4659 71.2375 41.5495 109.168 37.3339 146.565 33.1632 185.097 44.3607 221.31 31.3036 221.622 30.806 222.052 30.3969 222.712 30.1712 229.022 27.9948 234.548 21.6927 238.844 16.7063 243.308 11.5828 246.99 5.87061 250.146-0.159642 251.815-3.37868 256.645-0.521331 254.976 2.65156" fill="#DBCBC3" fill-rule="evenodd" transform="matrix(1 0 0 -1.00039 2335.92 1432.38)"/><path d="M-1.25195 174.958C-1.82531 178.538-7.66548 177.023-7.10154 173.445 1.95077 116.315 5.43273 58.7254 3.45096 0.999799 3.32413-2.67118 9.3896-2.67118 9.51236 0.999799 11.5184 59.2304 7.87459 117.325-1.25195 174.958" fill="#DBCBC3" fill-rule="evenodd" transform="matrix(1 0 0 -1.00039 2731.24 1411.74)"/><path d="M20.5605 58.2826C17.3393 58.2826 14.293 57.4854 11.5928 55.9347 1.02232 49.823-1.11824 33.6134 6.82111 19.7954 14.7617 5.97749 29.8293-0.268049 40.39 5.88856 50.9654 12.0001 53.1011 28.2098 45.1617 42.029 41.2559 48.8045 35.5395 53.9863 29.0656 56.5549 26.1833 57.7061 23.3106 58.2826 20.5605 58.2826ZM31.4879-1.72892C20.6491-1.72892 9.08552 5.26838 2.24012 17.1381-7.15135 33.4806-4.14635 52.9238 8.94832 60.5415 15.3967 64.2613 23.2353 64.5717 31.029 61.471 38.5993 58.459 45.2456 52.4803 49.7378 44.6412 59.1389 28.3425 56.1293 8.85537 43.0345 1.28176 39.4769-0.799274 35.5309-1.72892 31.4879-1.72892" fill="#FFFFFF" fill-rule="evenodd" transform="matrix(1 0 0 -1.00039 1339.02 1342.97)"/><path d="M21.0347 57.9474C17.7194 57.9474 14.559 57.1149 11.7534 55.449 6.69928 52.4886 3.33402 47.1672 2.27723 40.5058 1.18671 33.6128 2.67196 26.1635 6.45445 19.502 14.1455 5.90035 29.0618-0.0674544 39.6736 6.17783 44.7237 9.13818 48.0878 14.4595 49.1458 21.1209 50.2366 28.014 48.755 35.4632 44.9736 42.1706 41.1913 48.8334 35.5925 53.876 29.1942 56.3283 26.4373 57.3923 23.6867 57.9474 21.0347 57.9474ZM30.4434-1.82636C19.6906-1.82636 8.37067 5.02091 1.74134 16.7262-2.66322 24.4987-4.37956 33.2424-3.09043 41.3841-1.76882 49.7113 2.53581 56.4201 9.03271 60.2599 15.5221 64.0997 23.3682 64.517 31.128 61.5095 38.689 58.5951 45.2772 52.6732 49.6818 44.9004 54.0863 37.1751 55.8027 28.3844 54.5136 20.2415 53.1919 11.914 48.8873 5.20675 42.3893 1.41273 38.698-0.808181 34.6107-1.82636 30.4434-1.82636" fill="#FFFFFF" fill-rule="evenodd" transform="matrix(1 0 0 -1.00039 1418.08 1336.09)"/><path d="M27.8959-1.12462-0.73539-1.12462C-2.32367-1.12462-3.61091-0.350706-3.61091 0.594229-3.61091 1.53995-2.32367 2.31308-0.73539 2.31308L27.8959 2.31308C29.4842 2.31308 30.7662 1.53995 30.7662 0.594229 30.7662-0.350706 29.4842-1.12462 27.8959-1.12462" fill="#FFFFFF" fill-rule="evenodd" transform="matrix(1 0 0 -1.00039 1390.58 1308.58)"/><path d="M-0.895262-1.89419-1.95894-1.67062C-3.36325-1.13504-4.02043 0.427481-3.43163 1.81189L25.4333 68.6562C26.0183 69.9965 27.6202 70.6662 29.0371 70.0863 30.4414 69.5053 31.1037 67.9426 30.5098 66.5583L1.64997-0.241994C1.20297-1.26893 0.181078-1.89419-0.895262-1.89419" fill="#FFFFFF" fill-rule="evenodd" transform="matrix(1 0 0 -1.00039 1466.21 1298.26)"/><path d="M2.14566 81.8414C2.14566 81.8414-5.02094 80.2368-3.86416 79.3014-2.70986 78.41 106.209 0.559021 108.525-0.153241 110.836-0.822595 330.987 73.33 334.689 76.5379 338.387 79.7916 334.689 99.5327 334.689 99.5327L2.14566 81.8414" fill="#F8F0EC" fill-rule="evenodd" transform="matrix(1 0 0 -1.00039 1497.14 1872.56)"/><path d="M-3.61879 96.0803C-3.61879 96.0803-4.09004 74.5434-3.61879 73.8845-3.14753 73.2255 106.842-0.174113 106.842-0.174113L123.362 4.79296C123.362 4.79296 127.609 42.4147 126.665 43.7774 125.721 45.14-3.61879 96.0803-3.61879 96.0803" fill="#FFFFFF" fill-rule="evenodd" transform="matrix(1 0 0 -1.00039 1500.58 1865.68)"/><path d="M-4.03078 80.596 205.747 150.937 339.728 74.3956 120.399-0.316588-4.03078 80.596" fill="#F8F0EC" fill-rule="evenodd" transform="matrix(1 0 0 -1.00039 1493.71 1848.49)"/><path d="M0.737311 26.8517-3.06755 3.06886C-3.06755 3.06886-4.63538-0.0671052-3.06755-0.0671052-1.49972-0.0671052 19.537 7.11915 20.211 7.9903 20.8837 8.90583 26.2266 23.2795 22.3225 27.984 18.4208 32.6886 13.8643 35.1714 9.98537 34.0391 6.10643 32.9067 0.737311 26.8517 0.737311 26.8517" fill="#F8F0EC" fill-rule="evenodd" transform="matrix(1 0 0 -1.00039 1610.59 1869.12)"/><path d="M31.5312-0.241813C31.0401-0.241813 30.5406-0.108018 30.0986 0.203761L-2.51508 22.3352C-3.71349 23.1833-4.03968 24.8343-3.2487 26.0385-2.45893 27.288-0.842344 27.6452 0.356055 26.797L32.9685 4.62146C34.1681 3.81868 34.4931 2.16772 33.7033 0.918153 33.2039 0.159572 32.3735-0.241813 31.5312-0.241813" fill="#FFFFFF" fill-rule="evenodd" transform="matrix(1 0 0 -1.00039 1569.33 1810.66)"/><path d="M89.8197-0.270894C89.3309-0.270894 88.8321-0.136065 88.3866 0.178122L-2.58451 60.0705C-3.80517 60.8794-4.15828 62.5432-3.36958 63.8023-2.57481 65.0615-0.947654 65.4201 0.282719 64.6112L91.2529 4.67447C92.4794 3.91002 92.8325 2.20179 92.0377 0.988331 91.5354 0.178122 90.6836-0.270894 89.8197-0.270894" fill="#FFFFFF" fill-rule="evenodd" transform="matrix(1 0 0 -1.00039 1562.46 1820.98)"/><path d="M40.7069-0.354508C40.2449-0.354508 39.7671-0.219398 39.3326 0.0061977L-3.08182 22.0848C-4.46 22.805-4.96663 24.4276-4.20273 25.734-3.44013 27.0405-1.70235 27.5363-0.324195 26.8149L42.0864 4.73751C43.4697 4.0161 43.975 2.34892 43.2126 1.04245 42.6914 0.185931 41.7134-0.354508 40.7069-0.354508" fill="#FFFFFF" fill-rule="evenodd" transform="matrix(1 0 0 -1.00039 1768.71 1776.27)"/><path d="M-1.44808-0.195535C-2.57987-0.195535-3.63009 0.533961-4.00324 1.67333-4.46165 3.08594-3.69806 4.63518-2.28704 5.09018L208.907 75.3025C210.339 75.7573 211.844 74.9828 212.298 73.5699 212.761 72.1574 211.992 70.6095 210.583 70.1533L-0.611606-0.0576577-1.44808-0.195535" fill="#DBCBC3" fill-rule="evenodd" transform="matrix(1 0 0 -1.00039 1617.46 1851.93)"/><path d="M335.769 48.4446C335.769 48.4446 335.543 30.519 334.15 28.0214 333.929 27.5761 327.686 26.5064 317.371 24.9902 315.64 24.767 313.801 24.4542 311.794 24.1867 308.562 23.7414 305.046 23.2508 301.255 22.7601 299.469 22.5368 297.63 22.2694 295.683 22.002 232.509 13.6188 113.53-0.471049 111.858-0.29318 109.518-0.0699216-3.38452 73.5929-4.44491 74.2629-5.50403 74.9755 1.51925 75.3327 1.51925 75.3327L335.769 48.4446" fill="#7B9FBA" fill-rule="evenodd" transform="matrix(1 0 0 -1.00039 1724.03 1817.54)"/><path d="M1.16442 17.7098 0.77628 0.515807C-1.23801 0.29335-3.37782-0.0183344-5.71097-0.284795L-5.32283 17.7098C-5.26082 21.2202 1.22791 21.2202 1.16442 17.7098" fill="#F8F0EC" fill-rule="evenodd" transform="matrix(1 0 0 -1.00039 2040.28 1793.47)"/><path d="M0.604572 20.8078 0.408341 0.533146C-0.630547 0.284345-1.70046-0.0136704-2.83313-0.311686L-2.63906 20.8078C-2.60804 24.7325 0.636318 24.7325 0.604572 20.8078" fill="#F8F0EC" fill-rule="evenodd" transform="matrix(1 0 0 -1.00039 2026.53 1796.9)"/><path d="M-2.22993 85.6139-4.34336 67.9508 107.59-0.327563 112.535 27.1769-2.22993 85.6139" fill="#FFFFFF" fill-rule="evenodd" transform="matrix(1 0 0 -1.00039 1730.9 1810.66)"/><path d="M-4.55701 77.9315 206.436 99.2927 332.328 30.6125 116.315-0.396842-4.55701 77.9315" fill="#7B9FBA" fill-rule="evenodd" transform="matrix(1 0 0 -1.00039 1727.46 1800.34)"/><path d="M-1.9889-0.272729C-3.33824-0.272729-4.50273 0.722911-4.65061 2.02224-4.81204 3.45021-3.74488 4.74955-2.27602 4.87935L208.929 27.2169C210.363 27.348 211.729 26.3511 211.886 24.9231 212.047 23.494 210.986 22.1959 209.512 22.0661L-1.69438-0.272729-1.9889-0.272729" fill="#517996" fill-rule="evenodd" transform="matrix(1 0 0 -1.00039 1847.78 1796.9)"/><path d="M-4.32514 17.9603 27.0598-0.417543 47.2404 1.22527 16.0328 20.2087-4.32514 17.9603" fill="#F8F0EC" fill-rule="evenodd" transform="matrix(1 0 0 -1.00039 1761.84 1745.32)"/><path d="M30.5243-0.38996C30.1151-0.38996 29.706-0.249214 29.3196-0.0606893L-3.28631 18.3385C-4.56041 19.09-5.05209 20.779-4.38691 22.14-3.72178 23.5488-2.14741 24.0653-0.868535 23.3615L31.7373 4.91455C33.0114 4.21081 33.4984 2.52054 32.8332 1.15955 32.3678 0.174321 31.4634-0.38996 30.5243-0.38996" fill="#FFFFFF" fill-rule="evenodd" transform="matrix(1 0 0 -1.00039 2002.47 1765.95)"/><path d="M-1.78872 98.576C-1.78872 98.576-2.85248 62.165-1.78872 58.5978-0.719972 54.9849 126.132-1.11382 126.132-1.11382 126.132-1.11382 380.483 37.3346 382.501 39.1418 384.518 40.9018 373.577 49.5178 373.577 49.5178L-1.78872 98.576" fill="#DCA877" fill-rule="evenodd" transform="matrix(1 0 0 -1.00039 737.438 1576.81)"/><path d="M365.567 65.066 365.567 33.698C365.567 33.698 120.866-0.563507 118.079-1.11564 115.296-1.66652-2.25332 51.3803-2.25332 51.3803L-1.73055 88.2598 365.567 65.066" fill="#F8F0EC" fill-rule="evenodd" transform="matrix(1 0 0 -1.00039 747.75 1566.5)"/><path d="M-2.25659 51.4831 249.551 77.8834 378.238 32.3084C379.854 31.7736 379.586 29.4537 377.887 29.2317L125.072-1.18139-2.25659 51.4831" fill="#DCA877" fill-rule="evenodd" transform="matrix(1 0 0 -1.00039 737.438 1532.11)"/><path d="M108.727-1.11875 107.646-0.892766-0.330287 45.2356C-1.71799 45.8227-2.3522 47.447-1.75442 48.8014-1.15663 50.2008 0.45964 50.8316 1.83856 50.2008L109.815 4.07268C111.197 3.48537 111.832 1.86127 111.239 0.506604 110.791-0.531438 109.787-1.11875 108.727-1.11875" fill="#FFFFFF" fill-rule="evenodd" transform="matrix(1 0 0 -1.00039 747.75 1542.42)"/><path d="M108.727-1.0771 107.646-0.850999-0.330287 45.3006C-1.71799 45.888-2.3522 47.4683-1.75442 48.8684-1.15663 50.2239 0.45964 50.855 1.83856 50.2686L109.815 4.07114C111.197 3.48352 111.832 1.90326 111.239 0.547869 110.791-0.490723 109.787-1.0771 108.727-1.0771" fill="#FFFFFF" fill-rule="evenodd" transform="matrix(1 0 0 -1.00039 747.75 1556.18)"/><path d="M0.306205-1.06619C-1.05289-1.06619-2.23505-0.0948263-2.40321 1.23153-2.58643 2.68918-1.5235 4.01552-0.0225889 4.1918L245.457 33.2707C246.954 33.5357 248.317 32.4306 248.5 30.9718 248.682 29.5141 247.615 28.1878 246.118 28.0115L0.638763-1.06619 0.306205-1.06619" fill="#FFFFFF" fill-rule="evenodd" transform="matrix(1 0 0 -1.00039 864.628 1542.42)"/><path d="M0.306205-1.02486C-1.05289-1.02486-2.23505-0.0522761-2.40321 1.31784-2.58643 2.73173-1.5235 4.05807-0.0225889 4.23435L245.457 33.312C246.954 33.5771 248.317 32.4732 248.5 31.0143 248.682 29.5567 247.615 28.2741 246.118 28.0978L0.638763-1.02486 0.306205-1.02486" fill="#FFFFFF" fill-rule="evenodd" transform="matrix(1 0 0 -1.00039 864.628 1556.18)"/><path d="M26.4655 22.7011 76.7786 2.33575 45.0448-1.36298-2.2873 20.3709 26.4655 22.7011" fill="#FFFFFF" fill-rule="evenodd" transform="matrix(1 0 0 -1.00039 899.004 1497.72)"/></g></g></g></g></g></svg>