<svg width="208" height="181" xmlns="http://www.w3.org/2000/svg" xmlns:xlink="http://www.w3.org/1999/xlink" xml:space="preserve" overflow="hidden"><defs><clipPath id="clip0"><rect x="574" y="140" width="208" height="181"/></clipPath><clipPath id="clip1"><rect x="574" y="169" width="208" height="152"/></clipPath><clipPath id="clip2"><rect x="332" y="169" width="531" height="616"/></clipPath><clipPath id="clip3"><rect x="332" y="169" width="531" height="616"/></clipPath></defs><g clip-path="url(#clip0)" transform="translate(-574 -140)"><g clip-path="url(#clip1)"><g clip-path="url(#clip2)"><g clip-path="url(#clip3)"><path d="M-4.63239 99.267 69.8387 99.267 69.8387 45.46C69.8387 20.0686 75.3306-0.509646 32.6116-0.509646-9.00891-0.522954-4.63239 20.0686-4.63239 45.46L-4.63239 99.267" fill="#DCA877" fill-rule="evenodd" transform="matrix(1.00307 0 0 -1 466.852 611.855)"/><path d="M376.701 118.428C376.701 118.428 369.216 95.4556 361.013 73.849 360.786 73.2857 360.56 72.7069 360.351 72.1413 359.293 69.4093 358.234 66.7036 357.176 64.0912 347.631 40.3445 346.1-0.0700984 346.1-0.0700984 346.1-0.0700984 311.982 0.992217 273.424 2.83067 272.838 2.85741 272.271 2.89715 271.704 2.92353 228.269 5.01276 179.806 8.0978 168.257 11.7631 165.044 12.7879 159.071 13.8904 151.246 15.0075 150.584 15.0986 149.923 15.1918 149.242 15.2829 127.354 18.2921 92.4439 21.4811 61.4082 24.018 59.0262 24.2136 56.6825 24.4109 54.3575 24.5814 21.9989 27.196-4.44448 28.9813-4.44448 28.9813-4.44448 28.9813 3.56977 58.534 10.7899 69.7508 13.2283 73.574 26.7428 86.7471 33.8496 102.062 34.1523 102.666 34.4357 103.297 34.6815 103.927 35.7776 106.488 36.685 109.116 37.2898 111.755 41.7505 130.931 56.3424 145.604 56.3424 145.604 56.3424 145.604 64.451 144.945 76.6235 143.974 77.2282 143.922 77.8711 143.869 78.5324 143.829 102.934 141.898 141.814 138.891 165.025 137.474 199.141 135.384 196.609 131.142 231.274 129.961 232.881 129.907 234.563 129.867 236.321 129.816 237.814 129.789 239.383 129.736 241.046 129.672 264.579 128.829 303.515 125.494 333.663 122.657 334.23 122.618 334.778 122.551 335.345 122.499 358.915 120.28 376.701 118.428 376.701 118.428" fill="#F5D2B5" fill-rule="evenodd" transform="matrix(1.00307 0 0 -1 483.866 783.47)"/><path d="M265.795 60.7097C274.128 76.7344 282.593 92.6804 291.247 108.534 293.185 112.096 295.122 115.645 297.097 119.204 296.533 119.257 295.987 119.322 295.423 119.362 284.644 99.8282 274.128 80.1775 263.838 60.3711 247.153 57.5036 230.504 54.6623 213.799 51.9136 175.95 45.6426 138.063 39.646 100.139 33.9112 86.0492 58.3672 72.5047 83.124 58.7345 107.749 82.9265 111.008 107.137 114.124 131.366 117.2 155.144 120.225 178.96 123.25 202.756 126.352 201.101 126.418 199.54 126.47 198.054 126.497 196.286 126.547 194.593 126.587 192.993 126.64 147.958 120.801 102.923 115.278 57.9254 109.202 57.512 109.975 57.0605 110.747 56.6464 111.493 51.2288 121.181 45.7356 130.857 40.1863 140.465 39.5278 140.505 38.8882 140.558 38.2862 140.61 44.3436 130.122 50.3258 119.558 56.2514 108.967 52.075 108.404 47.9179 107.855 43.7606 107.277 28.0528 105.117 12.1191 103.206-3.6639 100.691-3.92713 100.064-4.20944 99.4351-4.4914 98.8329 7.67963 100.771 19.9072 102.368 32.0408 104.085 40.3743 105.249 48.7079 106.4 57.0414 107.528 67.1433 89.4725 77.1322 71.3667 87.2716 53.3398 90.959 46.7677 94.7025 40.1956 98.4646 33.6627 84.5065 31.5425 70.5293 29.4596 56.5524 27.4179 43.0267 25.4407 29.5198 23.5179 16.0132 21.6062 18.3271 21.435 20.6785 21.2391 23.0677 21.0417 26.7921 21.5536 30.5172 22.0898 34.2416 22.6258 55.9316 25.7284 77.6216 28.9364 99.2925 32.2235 103.111 25.5726 106.986 18.9344 110.937 12.336 111.614 12.2456 112.272 12.1535 112.931 12.0613 108.886 18.8308 104.899 25.638 100.948 32.472 131.441 37.0799 161.917 41.8455 192.354 46.794 215.887 50.6436 239.402 54.5834 262.935 58.6287 260.057 53.065 257.178 47.5013 254.339 41.9113 247.247 27.9938 240.267 14.0519 233.42 0.0176476 234.003-0.00864374 234.567-0.0482609 235.151-0.0745523 244.801 19.7189 254.734 39.3979 264.873 58.9561 283.985 62.241 303.042 65.5941 322.117 69.011 322.323 69.5735 322.55 70.1494 322.775 70.7119 303.775 67.3214 284.794 63.9965 265.795 60.7097" fill="#FFFFFF" fill-rule="evenodd" transform="matrix(1.00307 0 0 -1 521.897 780.477)"/><path d="M48.62 80.9987C48.467 81.5317 48.2457 82.0665 47.9904 82.567 47.6671 83.2434 47.2415 83.8874 46.731 84.4839 42.409 89.4738 36.3852 84.3573 33.2545 80.8264 28.9663 75.9919 26.2946 70.4978 23.5211 64.8791 22.7384 63.3094 21.9389 61.7239 21.0879 60.1388 18.9095 56.042 15.8468 52.6839 13.0391 49.026 12.3757 48.1616 11.7118 47.2836 11.1164 46.404 9.02338 43.392 7.18581 40.2044 5.62013 36.8938 3.90144 33.2056 2.47226 29.3278 1.51934 25.3728 0.021551 19.189-4.4025 12.752-4.77677 6.50475-4.94702 3.60233-3.26245 0.556396-0.845874-0.682243-0.38648-0.919514 0.140799-1.09044 0.651198-1.16905 1.89361-1.38936 3.23803-1.12109 4.58209-0.196885 7.33881 1.73337 9.41453 5.31227 11.4396 7.99616 14.2642 11.7954 16.9527 15.7194 19.4712 19.7374 23.215 25.764 26.0737 32.3889 29.5618 38.5424 30.4127 40.0166 31.2805 41.4449 32.2165 42.8403L32.3017 42.9684C34.5135 46.2945 37.134 49.3079 39.2612 52.7145 41.7453 56.6861 43.8045 60.9706 45.7613 65.2567 47.7354 69.635 50.1174 75.9439 48.62 80.9987" fill="#98B5A5" fill-rule="evenodd" transform="matrix(1.00307 0 0 -1 508.886 308.535)"/><path d="M51.4731 69.1179C51.3359 69.4458 51.1645 69.7409 50.9757 70.0067 50.667 70.4592 50.2723 70.8175 49.8433 71.0665 46.6013 73.0013 40.6659 69.9591 38.1786 68.2291 32.0376 64.0488 26.3939 58.4834 21.8996 52.6361 16.7703 46.0074 14.7807 37.8516 9.97731 31.1482 7.1128 27.1862 3.16705 24.1304 0.405561 20.0919-1.36148 17.519-5.95879 5.85518-4.51772 1.05037-4.34627 0.412341-4.05453-0.101384-3.62592-0.445659L-3.40297-0.63338C1.91507-4.18754 14.9006 11.7025 17.7651 14.9765 23.0831 21.0728 27.7661 27.686 32.2947 34.3745 36.6006 40.737 41.8152 46.2736 46.3784 52.4484 49.3459 56.4715 53.686 63.8628 51.4731 69.1179" fill="#98B5A5" fill-rule="evenodd" transform="matrix(1.00307 0 0 -1 519.895 332.481)"/><path d="M57.6427 53.4266C57.5404 53.6781 57.3866 53.9298 57.1988 54.1489 57.0279 54.3538 56.8574 54.5415 56.6693 54.6986 54.6718 56.3806 51.3082 55.8792 49.02 55.3277 42.0536 53.6316 35.5482 50.7257 29.7598 46.4048 22.7251 41.1082 16.4074 34.8555 10.7388 28.1008 10.0898 27.315 9.42396 26.5288 8.79249 25.7275 6.91413 23.4023 5.12123 21.0309 3.36266 18.6093 2.21878 17.0392 1.10885 15.4363-0.00107273 13.8351-2.22092 10.5812-5.63578 6.08953-4.54302 1.87692-4.20154 0.59123-3.4331-0.210071-2.47695-0.635627-1.9817-0.8392-1.45248-0.965171-0.906102-0.997656 0.579276-1.12363 2.23558-0.728751 3.51607-0.163508 8.94588 2.17687 13.5901 6.02744 18.0466 9.87623 20.83 12.2787 23.6474 14.5263 26.5158 16.679 29.5548 18.9403 32.6626 21.0774 35.9408 23.1508 37.4263 24.1108 38.8948 25.1002 40.3119 26.1672 44.6147 29.3591 48.5247 33.0818 51.6836 37.4164 54.3815 41.1082 57.4206 45.7911 58.0524 50.474 58.189 51.4616 58.0696 52.5322 57.6427 53.4266" fill="#98B5A5" fill-rule="evenodd" transform="matrix(1.00307 0 0 -1 522.898 378.378)"/><path d="M63.101 15.4204C63.0185 15.7032 62.9356 15.9693 62.8368 16.2368 61.1018 21.3377 58.5083 26.141 55.2041 30.3642 53.4363 32.6402 51.3711 34.617 49.2728 36.5954 47.1749 38.6187 45.0438 40.6286 43.1935 42.9028 42.0535 44.3159 41.0126 45.8236 40.0543 47.3774 38.3197 50.217 36.8164 53.23 35.3131 56.1656 30.9187 64.736 26.9041 73.5573 21.4191 81.4978 19.0234 84.9342 16.3802 88.2003 13.3903 91.1026 11.11 93.286 8.31822 96.0781 5.03058 96.5508 2.43672 96.911 0.470694 96.0167-1.03257 94.463-1.37965 94.0861-1.69356 93.678-2.00711 93.238-4.36959 89.7703-5.03058 84.3853-4.7664 80.8715-4.05604 71.7987 0.867143 62.8054 6.07144 55.5392 8.78063 51.7394 12.1015 49.0548 15.538 45.979 16.6116 44.9921 17.6856 43.9392 18.7095 42.8253 22.0303 39.2469 25.004 35.103 27.8459 30.9905 29.5639 28.4945 31.2327 26.0156 32.9009 23.6616 36.7999 18.2301 40.6659 12.7838 45.0272 7.69814 48.9095 3.16414 54.3946-3.14827 61.2175-0.539797 61.6471-0.3696 62.0601-0.164788 62.4069 0.0699537 62.8198 0.352652 63.1835 0.68331 63.4974 1.04353 66.5209 4.59242 64.3235 11.6238 63.101 15.4204" fill="#98B5A5" fill-rule="evenodd" transform="matrix(1.00307 0 0 -1 401.798 370.396)"/><path d="M36.9888 45.2755C36.7411 45.6501 36.4938 46.0264 36.2465 46.3878 32.9642 51.3174 6.58965 90.0643-2.58127 81.1862-2.9441 80.8409-3.27407 80.45-3.55422 79.9652-3.68635 79.7617-3.80188 79.5595-3.91741 79.3395-5.40191 76.4113-4.80803 72.1686-4.13185 69.0861-3.19139 64.8582-0.948393 61.0709 1.65779 57.6435 6.95248 50.6747 14.0122 45.1028 18.5975 37.6198 22.7048 30.9208 24.9976 23.4054 28.7579 16.5485 31.8425 10.9618 36.0649 3.80571 41.3928 0.0330869 44.477-2.17367 46.8854-1.42093 48.5677 0.567152 48.9472 1.00412 49.2771 1.49071 49.5905 2.03952 50.2338 3.14865 50.7288 4.44839 51.1245 5.76431 55.1985 20.119 44.6752 33.9244 36.9888 45.2755" fill="#98B5A5" fill-rule="evenodd" transform="matrix(1.00307 0 0 -1 404.8 302.548)"/><path d="M19.8787 14.8023C19.5708 20.7409 18.0304 26.3834 16.7811 32.1035 16.3707 33.8279 16.0284 35.5688 15.7205 37.3261 14.8986 42.3156 14.7448 47.2125 14.762 52.1081 14.7791 56.834 14.9673 61.5434 14.8819 66.3468 14.7278 73.9953 12.9652 81.5794 9.73101 88.5747 8.27635 91.6683 5.86319 96.7659 2.8343 97.3255 2.30398 97.434 1.79038 97.4044 1.20844 97.1855 0.216137 96.8119-0.844867 95.8478-1.95712 94.1234-2.96688 92.5057-3.51427 90.6576-3.92538 88.8082-6.85141 75.6718-3.20641 63.6249-0.519547 50.8179 0.78062 44.6161 1.91033 38.2282 3.19378 31.855 3.98108 27.9533 4.81964 24.0516 5.81194 20.2127 7.48905 13.5434 9.5598 7.04706 12.3663 0.87633 12.7595 0.020712 13.239-0.881329 14.1288-1.23843 14.3171-1.31557 14.4882-1.36164 14.6594-1.37806 15.2069-1.44091 15.7375-1.2845 16.2166-1.01952 16.439-0.89597 16.6615-0.741345 16.8328-0.570293 17.5342 0.0996316 17.9279 1.00131 18.2357 1.903 19.7075 6.09895 20.1011 10.4514 19.8787 14.8023" fill="#98B5A5" fill-rule="evenodd" transform="matrix(1.00307 0 0 -1 462.848 267.627)"/><path d="M77.0129 202.435C76.9093 202.688 76.7534 202.937 76.563 203.157 76.3897 203.362 76.2168 203.548 76.0264 203.706 66.8704 191.267 53.1965 183.439 40.6481 174.388 40.4055 174.45 40.1807 174.497 39.9556 174.576 37.2727 175.438 34.8499 176.646 32.0281 176.991 31.1975 177.086 30.3321 177.15 29.4667 177.15 28.7916 176.365 28.1167 175.579 27.4764 174.779 25.5723 172.457 23.7548 170.091 21.9721 167.673 25.0531 167.499 28.0996 167.25 31.1457 166.983 27.7185 164.003 24.5165 160.772 21.6607 157.149 19.5319 154.403 17.6796 151.484 16.0699 148.456 10.6354 138.119 8.1254 126.37 6.77528 114.81 5.73695 105.853 5.30407 96.8313 4.47347 87.8431 3.62511 78.3199 1.92911 68.9569 0.146469 59.5745-1.65394 50.0379-3.28105 40.5165-3.99055 30.8364-4.75226 20.5613-4.76931 10.2397-4.80411-0.0818085-4.80411-1.08657-3.21144-1.08657-3.21144-0.0818085-3.177 18.0995-2.60563 35.9827 0.682676 53.9125 2.25795 62.4789 4.04059 70.9956 5.16594 79.6223 6.27351 88.0788 6.72343 96.5956 7.4159 105.083 8.61013 119.736 10.6179 135.013 17.6451 148.095 18.6491 149.964 19.7392 151.769 20.9339 153.525 24.4125 158.559 28.6706 162.873 33.3264 166.795 37.3768 166.434 41.4094 166.058 45.4424 165.744 48.5407 168.003 51.6909 170.135 54.9966 172.206 56.5197 173.165 57.9909 174.153 59.445 175.219 54.0964 174.873 48.0042 173.258 42.6729 173.98 45.4598 175.971 48.2981 177.901 51.0851 179.83 60.57 186.387 70.1242 193.244 77.0129 202.435" fill="#789E88" fill-rule="evenodd" transform="matrix(1.00307 0 0 -1 503.882 527.045)"/><path d="M164.792 229.619C147.665 209.132 131.258 188.067 115.621 166.438 113.926 164.075 112.177 161.712 110.465 159.348 103.768 150.161 97.3122 140.769 93.5611 129.955 91.112 122.819 88.954 115.557 87.0017 108.231 87.3954 111.753 87.7897 115.277 88.1665 118.782 89.896 134.15 91.2833 149.815 96.61 164.451 98.6995 170.225 101.371 175.75 104.265 181.149 108.29 188.645 112.726 195.924 116.734 203.389 120.451 210.307 123.277 217.601 126.394 224.736 128.774 223.563 131.069 222.234 133.244 220.747 134.1 222.217 134.957 223.642 135.898 225.032 135.3 226.05 134.545 227.036 133.792 228.102 132.37 230.167 131.566 232.233 130.966 234.347 132.473 237.194 134.117 239.982 136.001 242.657 141.02 249.779 146.501 256.587 152.34 263.08 152.186 263.612 151.98 264.145 151.707 264.646 147.151 259.621 142.836 254.395 138.725 248.994 135.745 245.053 132.85 241.029 130.35 236.787 129.973 238.4 129.63 240.074 129.15 241.812 128.671 243.581 127.969 245.317 127.199 247.007 126.411 245.442 125.605 243.861 124.766 242.281 122.574 238.195 119.491 234.847 116.682 231.2 116.014 230.34 115.363 229.463 114.765 228.585 115.946 228.415 117.093 228.274 117.984 228.008 120.365 227.318 122.66 226.457 124.869 225.456 122.608 219.948 120.588 214.36 117.899 209.007 113.24 199.68 107.674 190.837 102.759 181.635 100.634 177.659 98.648 173.622 96.8839 169.459 91.112 155.687 89.0912 140.911 87.4301 126.184 86.813 120.69 86.231 115.181 85.6144 109.689 82.6171 147.265 79.0204 184.766 74.1225 222.124 72.9062 231.546 71.5532 240.967 70.149 250.373 71.6561 252.063 73.1633 253.771 74.6704 255.474 74.2766 257.21 73.9339 258.964 73.6427 260.733 72.8547 265.756 72.7007 270.688 72.7007 275.617 71.7932 273.894 71.1593 271.941 70.7141 270.531 69.9435 268.011 69.3783 265.428 68.3164 263.019L68.2649 262.908C65.1992 282.252 61.8081 301.598 61.1573 321.145 60.6436 321.255 60.1297 321.224 59.5814 321.004 60.1297 304.837 62.5446 288.78 65.1136 272.799 65.7471 268.777 66.381 264.755 66.9976 260.733 65.7302 258.964 64.1201 257.571 62.3905 256.037 62.0994 255.773 61.7911 255.507 61.517 255.225 62.2707 251.295 63.0755 247.366 64.0344 243.502 65.6103 245.302 67.2204 247.071 68.7959 248.854 70.149 239.839 71.4333 230.809 72.6154 221.763 73.2489 216.974 73.8655 212.184 74.4306 207.379 78.7296 172.15 81.9663 136.81 84.6724 101.442 84.5184 100.001 84.3643 98.5618 84.2103 97.1213 83.3021 93.2702 82.4119 89.4038 81.5725 85.5393 79.9113 77.8868 78.4725 70.2002 77.2052 62.4707 76.5886 71.8135 76.4345 81.2023 75.6124 90.5314 74.1225 107.482 70.6115 124.29 67.0491 140.895 63.555 157.298 58.2971 172.933 50.7957 187.943 50.3162 188.896 49.8195 189.851 49.3227 190.806 42.2324 204.516 33.8742 217.504 25.2595 230.294 16.2336 243.691 6.89961 256.915-2.69138 269.936-3.05097 269.592-3.39365 269.199-3.66758 268.715 14.2984 244.613 31.9903 219.806 46.1886 193.403 46.9078 192.058 47.627 190.696 48.3124 189.334 55.4369 175.406 60.9003 160.881 64.4286 145.608 68.3679 128.501 71.9473 110.987 73.7629 93.52 74.4306 87.1677 74.7046 80.7816 74.9957 74.3951 73.3688 84.2887 71.3476 94.1155 68.4363 103.631 66.4667 110.015 63.8461 115.964 60.7289 121.599 56.5503 129.157 51.4807 136.186 45.8633 143.102 42.8144 146.844 39.8516 150.616 36.9915 154.402 37.5396 154.557 38.0875 154.714 38.6357 154.873 41.2558 155.606 43.9619 156.171 46.5313 157.049 44.4245 159.065 42.3008 161.069 40.4509 163.34 39.3207 164.748 38.2761 166.251 37.3168 167.8 36.2035 167.721 35.0901 167.547 34.0113 167.25 32.2814 166.798 30.7743 165.906 29.2502 165.06 25.6363 170.256 22.211 175.576 18.9397 181.118 12.0549 192.777 5.22113 204.595-3.71905 214.75-4.06136 214.376-4.38712 213.969-4.69524 213.53 2.94335 204.751 9.05753 194.765 14.9835 184.733 19.0938 177.768 23.2556 170.93 27.7431 164.279 27.1434 163.981 26.51 163.699 25.8419 163.495 22.9302 162.571 19.8134 162.869 16.8333 163.151 16.5594 163.182 16.2681 163.213 15.9938 163.261 19.3166 159.692 22.2793 155.56 25.1227 151.459 28.5138 152.024 31.8535 152.931 35.1758 153.887 36.3579 152.32 37.5907 150.755 38.8412 149.206 46.3427 139.973 53.9129 130.911 59.6333 120.628 61.6541 116.998 63.4524 113.225 64.9081 109.234 70.6968 93.52 73.1633 76.5079 75.5609 60.0106 75.7664 58.6044 75.9551 57.1946 76.1433 55.7714 75.1329 48.9316 74.2593 42.0611 73.5059 35.1748 73.403 34.1742 74.9789 34.1742 75.0815 35.1748 75.5951 40.0577 76.229 44.925 76.8971 49.792 77.0169 49.0258 77.1026 48.2455 77.2221 47.4603 79.1575 31.6062 80.3907 15.6584 80.9731-0.320726 81.0243-1.32138 82.5829-1.32138 82.5314-0.320726 82.0862 12.2315 81.1956 24.7682 79.9113 37.2571 80.3907 37.2416 80.9044 37.6317 80.7503 38.2272 79.8083 41.7635 79.1234 45.3166 78.5924 48.9007 78.3696 50.6374 78.1814 52.3909 77.9416 54.1272 77.8902 54.6129 77.8218 55.0991 77.7534 55.5831L77.7534 55.7714C79.0892 64.7855 80.7161 73.7706 82.6002 82.706 82.1376 78.5746 81.6923 74.4412 81.2471 70.3112 81.1272 69.3088 82.6858 69.3243 82.8057 70.3112 83.6447 77.9177 84.4842 85.5066 85.3232 93.1144 85.7001 88.09 86.077 83.0656 86.4366 78.058 88.1665 53.8777 89.7247 29.697 91.2833 5.5167 91.3348 4.51426 92.9104 4.51426 92.8419 5.5167 90.8381 36.7714 88.8169 68.041 86.4192 99.2802 88.4574 107.386 90.6667 115.445 93.1332 123.43 95.3253 130.55 97.8086 137.436 101.748 143.792 104.745 148.611 108.051 153.243 111.339 157.846 112.229 159.035 113.068 160.24 113.943 161.43 122.694 173.668 131.703 185.719 140.951 197.598 149.087 208.069 157.41 218.382 165.922 228.556 165.614 229.009 165.22 229.37 164.792 229.619" fill="#789E88" fill-rule="evenodd" transform="matrix(1.00307 0 0 -1 404.8 491.126)"/><path d="M-2.43712-0.496644C-2.56222-0.496644-2.68769-0.496644-2.83088-0.469633-4.11959-0.261108-4.9791 0.956553-4.76395 2.24012L22.4443 164.17C22.6594 165.448 23.8588 166.308 25.1652 166.099 26.4543 165.885 27.3134 164.673 27.0986 163.391L-0.109924 1.46652C-0.30699 0.314769-1.30931-0.496644-2.43712-0.496644" fill="#36303A" fill-rule="evenodd" transform="matrix(1.00307 0 0 -1 657.009 630.812)"/><path d="M27.756-0.442053C26.6396-0.442053 25.6557 0.343778 25.4285 1.45467L-4.73336 152.401C-4.97952 153.675-4.14674 154.912-2.86026 155.164-1.57341 155.417-0.324443 154.585-0.0597177 153.314L30.1025 2.37153C30.3483 1.08821 29.5155-0.140751 28.21-0.389496 28.0775-0.429093 27.9071-0.442053 27.756-0.442053" fill="#36303A" fill-rule="evenodd" transform="matrix(1.00307 0 0 -1 799.126 628.817)"/><path d="M-0.244663 126.254C-0.244663 126.254-8.75945 151.609-2.07873 159.445 4.58355 167.282 109.195 160.231 114.697 154.743 120.198 149.26 120.611 140.684 137.135 124.4 153.641 108.118 159.573 103.464 162.679 90.0953 165.804 76.7251 162.286 50.1294 162.679 48.953 163.072 47.7804 100.68 0.347101 81.7413-0.426674 62.8025-1.19865 42.9097-0.0446478 38.4934-0.426674 34.0768-0.806901-0.244663 126.254-0.244663 126.254" fill="#6F5E61" fill-rule="evenodd" transform="matrix(1.00307 0 0 -1 653.005 522.056)"/><path d="M-3.42892 34.7211C-3.42892 34.7211-4.90992 33.4014-4.79765 27.9131-4.72256 23.8755-3.78504 18.1893-2.73527 14.3233-1.83529 11.1312-1.06655 7.62167 0.920746 4.904 3.88273 0.894276 11.026-2.48285 15.1879 1.76388 16.3879 2.99241 16.125 7.19994 16.125 7.19994L-3.42892 34.7211" fill="#7D4949" fill-rule="evenodd" transform="matrix(1.00307 0 0 -1 782.112 677.707)"/><path d="M23.1975 58.8696 8.7202 6.10709 8.44132 5.20434 8.44132 5.19138 8.01402 3.52886C8.01402 3.52886 7.92106 3.46404 7.73515 3.34702L7.71678 3.33189C5.87675 2.07626-4.27021-4.48201-4.7166 3.66065L-4.7166 3.71286-4.7166 3.75175C-4.75372 3.94872-4.73498 4.13057-4.73498 4.32754-4.73498 4.69338-4.73498 5.13917-4.73498 5.61089-4.73498 5.86006-4.73498 6.10709-4.7166 6.3966L-4.7166 6.47473-4.7166 6.52659C-4.7166 6.73652-4.7166 6.93169-4.7166 7.15458L-4.7166 7.18051C-4.7166 7.83623-4.7166 8.52904-4.69788 9.30178-4.58619 25.6505-4.28894 66.6709-4.28894 66.6709L-3.50854 101.419 23.1975 58.8696" fill="#F07D67" fill-rule="evenodd" transform="matrix(1.00307 0 0 -1 784.114 643.783)"/><path d="M15.9458 3.57198C15.2306-1.43279 7.24717-1.06288 3.90285 2.26565 1.81499 4.33834 0.423585 6.25406-0.581818 8.34129-0.832887 8.85545-1.06516 9.39725-1.29706 9.96558-1.47108 10.4681-1.6451 10.9953-1.81912 11.5502-1.99276 12.0924-2.14761 12.6603-2.28292 13.2549-2.84331 15.434-3.28795 17.9308-3.84872 20.9675-5.41452 29.4617-4.98905 31.6278-4.54442 34.231-4.09979 36.8324-3.81001 38.4829-3.81001 38.4829-3.81001 38.4829 2.10515 42.697 3.14889 43.5419 4.5215 44.6651 9.74057 38.8528 9.74057 38.8528 9.74057 38.8528 9.77929 38.6286 9.87589 38.1667 9.93377 37.9557 9.99199 37.6642 10.069 37.3205L10.069 37.3071C10.1852 36.8324 10.3206 36.2776 10.4559 35.6046L10.4559 35.5915C11.4999 30.9286 13.3943 22.0776 14.6895 14.761 14.8052 14.1276 14.9018 13.5183 14.9984 12.9238 15.095 12.41 15.1724 11.8943 15.2306 11.4063 15.3464 10.7711 15.4238 10.1767 15.5204 9.59529 15.9071 6.80893 16.1004 4.62977 15.9458 3.57198" fill="#F07D67" fill-rule="evenodd" transform="matrix(1.00307 0 0 -1 782.112 675.712)"/><path d="M11.2521 0.868704C9.10275 1.17012 6.97166 1.3528 4.80378 1.30869 2.30543 1.26604-1.57089 1.0727-4.05103-0.154258-4.28967 0.265882-4.51011 0.707339-4.71232 1.17012-0.50553 3.32293 5.88772 3.00937 10.9948 2.3426 11.1052 1.82652 11.1784 1.34214 11.2521 0.868704" fill="#7D4949" fill-rule="evenodd" transform="matrix(1.00307 0 0 -1 786.115 666.732)"/><path d="M8.40813 0.363978 8.40813 0.351617C8.08875 0.226285 7.73378 0.138037 7.39677 0.0642112L7.3788 0.0518497C5.67546-0.335821 3.75922-0.323803 1.93146-0.0116748-0.0559942 0.339255-2.54013 1.21177-4.52759 2.19726L-4.56284 2.2237C-4.56284 2.45961-4.56284 2.6979-4.56284 2.9726L-4.56284 3.04677-4.56284 3.09622C-4.56284 3.2971-4.54521 3.48389-4.54521 3.69541L-4.54521 3.72013C-4.54521 4.34405-4.54521 5.0071-4.52759 5.74365-4.2967 5.54277-4.04852 5.35597-3.78203 5.15682-0.481828 2.79645 4.07859 1.39857 7.92906 2.57257 8.05315 2.5973 8.1952 2.63438 8.33693 2.6979L8.08875 1.82332C8.17758 1.425 8.30167 0.936729 8.40813 0.363978" fill="#7D4949" fill-rule="evenodd" transform="matrix(1.00307 0 0 -1 784.114 639.792)"/><path d="M12.1003 1.21906C6.52807 2.43548 0.880289 2.3659-4.40735-0.204242-4.57803 0.356577-4.72953 0.944478-4.86224 1.55946 0.463369 4.07543 6.16829 4.25335 11.7972 3.11817 11.892 2.46257 12.0056 1.83404 12.1003 1.21906" fill="#7D4949" fill-rule="evenodd" transform="matrix(1.00307 0 0 -1 785.114 663.739)"/><path d="M-4.02757 31.7737C-4.02757 31.7737-5.3245 30.2954-4.4541 25.017-3.82405 21.1391-2.15686 15.7829-0.582069 12.1881 0.714866 9.23333 1.97463 5.94687 4.29028 3.59596 7.73613 0.115178 15.2204-2.19545 18.685 2.45337 19.7037 3.80088 18.8702 7.82045 18.8702 7.82045L-4.02757 31.7737" fill="#7D4949" fill-rule="evenodd" transform="matrix(1.00307 0 0 -1 773.104 694.669)"/><path d="M27.2365 61.8777 20.2003 7.49559 20.0724 6.57772 20.0724 6.56292 19.8528 4.84559C19.8528 4.84559 19.78 4.76581 19.6154 4.62145L19.5973 4.60881C17.9704 3.11345 8.90573-4.7983 7.352 3.23183L7.352 3.27046 7.352 3.32243C7.31564 3.5076 7.27892 3.70358 7.26074 3.88693 7.20585 4.2421 7.15096 4.68822 7.09607 5.15996 7.04153 5.40828 7.02299 5.65805 7.00481 5.94681L6.96811 6.02621 6.96811 6.06519C6.94993 6.27598 6.93175 6.47233 6.89503 6.69431L6.89503 6.7351C6.80378 7.3772 6.71253 8.0601 6.62092 8.83358 4.51934 25.0772-0.744253 65.853-0.744253 65.853L-4.69186 100.461 27.2365 61.8777" fill="#FFAA9C" fill-rule="evenodd" transform="matrix(1.00307 0 0 -1 761.094 662.741)"/><path d="M19.1392 4.30836C19.1392-0.659119 11.4075-1.33323 7.73787 1.48025 5.43529 3.2203 3.84432 4.90539 2.58999 6.79923 2.25298 7.26637 1.97213 7.75919 1.69128 8.29234 1.448 8.75911 1.20472 9.25194 0.961079 9.7576 0.717801 10.2629 0.493123 10.7943 0.268446 11.3656-0.555128 13.4025-1.32289 15.7764-2.27777 18.6556-4.97318 26.7113-4.84223 28.8781-4.78607 31.4717-4.7113 34.0672-4.65512 35.701-4.65512 35.701-4.65512 35.701 0.436953 40.5659 1.33567 41.5256 2.49625 42.797 8.29957 37.8296 8.29957 37.8296 8.29957 37.8296 8.3933 37.608 8.54321 37.179 8.63694 36.972 8.73032 36.6994 8.84266 36.375L8.84266 36.3622C9.02977 35.9226 9.23584 35.3897 9.46053 34.7542L9.46053 34.7413C11.089 30.3434 14.1405 21.9764 16.3873 15.0234 16.5743 14.4264 16.7614 13.844 16.9489 13.2851 17.0985 12.7927 17.2483 12.2998 17.3793 11.8328 17.5664 11.2357 17.7349 10.6658 17.8848 10.1202 18.6526 7.4605 19.1392 5.35967 19.1392 4.30836" fill="#FFAA9C" fill-rule="evenodd" transform="matrix(1.00307 0 0 -1 773.104 692.674)"/><path d="M11.2226 3.138C9.04735 3.2033 6.8721 3.1126 4.71519 2.77946 2.24495 2.39373-1.58958 1.63888-3.85716-0.14469-4.17048 0.316906-4.46547 0.804264-4.74178 1.32938-0.889285 4.43457 5.50782 4.93428 10.7063 4.83264 10.9092 4.24259 11.0566 3.67759 11.2226 3.138" fill="#7D4949" fill-rule="evenodd" transform="matrix(1.00307 0 0 -1 779.109 685.689)"/><path d="M9.266 1.09642 9.266 1.08367C8.95631 0.916811 8.61029 0.773693 8.26429 0.645099L8.26429 0.632345C6.57057 0.00141702 4.62197-0.255773 2.69152-0.203342 0.633633-0.127178-2.02514 0.427585-4.21082 1.16161L-4.24713 1.17436C-4.28344 1.41879-4.30159 1.66358-4.33825 1.94628L-4.35641 2.02421-4.35641 2.06212C-4.39272 2.269-4.39272 2.46101-4.42939 2.68029L-4.42939 2.7182C-4.52015 3.34913-4.61129 4.01973-4.70242 4.77889-4.42939 4.6124-4.15599 4.45829-3.8463 4.28967-0.149509 2.33241 4.69494 1.54739 8.4647 3.28571 8.57399 3.33815 8.71958 3.3888 8.84702 3.46674L8.71958 2.5517C8.88368 2.14005 9.06559 1.66358 9.266 1.09642" fill="#7D4949" fill-rule="evenodd" transform="matrix(1.00307 0 0 -1 773.104 658.75)"/><path d="M11.3594 3.15899C5.97246 3.54797 0.692647 2.78371-3.94268-0.144031-4.17542 0.329166-4.39037 0.828094-4.60496 1.36278 0.0662986 4.2287 5.4173 5.09088 10.8224 4.78745 11.0014 4.2287 11.1804 3.68164 11.3594 3.15899" fill="#7D4949" fill-rule="evenodd" transform="matrix(1.00307 0 0 -1 778.109 682.696)"/><path d="M89.1805 247.895C89.1805 247.895 103.351 214.783 105.975 212.74 113.642 206.73 116.361 204.727 136.643 191.572 155.313 179.473 180.525 166.111 177.807 146.519 176.176 134.814 169.99 106.129 161.779 81.0833 155.838 62.9012 152.369 48.0905 149.314 38.6399 142.023 16.1664 133.156-0.548397 133.156-0.548397 133.156-0.548397 120.672 49.0839 120.148 53.2605 119.623 57.4489 102.47 136.853 92.5732 144.168 82.6761 151.482 5.01568 206.078 3.02857 210.779 1.04181 215.483-4.5816 236.465-4.5816 236.465L89.1805 247.895" fill="#36303A" fill-rule="evenodd" transform="matrix(1.00307 0 0 -1 665.015 626.821)"/><path d="M-4.65659 210.03C-4.65659 210.03-4.15624 194.369 17.9686 164.613 40.0934 134.859 68.9817 115.022 68.9817 115.022 68.9817 115.022 72.2803 107.975 74.3742 94.925 76.4682 81.8735 83.8801 28.8922 84.9921 25.2314 86.0854 21.5818 86.6596 3.22076 86.6596 3.22076 86.6596 3.22076 108.563-2.62604 118.494 0.342871 128.427 3.31322 131.039 9.05425 131.039 9.05425 131.039 9.05425 125.814 137.082 119.013 154.763 112.231 172.443 57.8639 203.241 54.7325 203.765 51.6007 204.288-4.65659 210.03-4.65659 210.03" fill="#36303A" fill-rule="evenodd" transform="matrix(1.00307 0 0 -1 667.017 635.801)"/><path d="M89.0741 21.9083C88.6045 22.5268 87.9725 22.9838 87.4305 23.5333 85.7505 25.2073 85.3352 26.8253 84.4319 28.8208 83.637 30.5923 82.5713 31.5451 80.7289 32.2954 77.6761 33.5335 75.0209 33.1882 72.4378 35.8238 70.6133 37.684 69.5838 40.4026 67.416 41.9229 67.0369 42.1903 66.6394 42.3784 66.242 42.5231 67.416 47.72 68.0302 53.7614 67.3077 57.5483 66.2782 63.0382 65.8082 69.251 62.4667 73.8245 59.6669 77.6766 56.2889 80.8453 51.9358 82.6895 48.2148 84.2693 42.7052 88.0509 38.3518 87.8882 37.8281 88.0163 37.3223 88.1628 36.7986 88.2587 29.5912 89.5331 22.1309 86.4275 15.4293 83.8009 11.7986 82.3822 8.52893 80.2164 5.53039 77.7635 2.40558 75.2201 0.183664 71.6174-1.92991 68.1052-5.48841 62.2337-4.98226 54.3974-3.80817 48.2155-3.13988 44.6127-3.48317 40.9791-2.34531 37.4435-1.42412 34.5257 4.44669 26.2939 6.4157 23.953 10.8233 18.7287 13.406 23.6292 20.0898 22.8865 20.9026 22.7978 21.0472 23.8047 20.5231 24.2473 21.8963 23.971 23.2508 23.7631 24.6056 23.696 27.9834 23.5279 31.3615 23.9258 34.7212 23.846 37.9185 23.7739 41.1337 23.5607 44.3126 23.8335 50.346 24.354 54.4827 24.9291 57.6617 26.9156 58.2579 22.1071 60.1003 17.3205 61.9068 12.9478 62.0331 12.6387 62.3043 12.4886 62.5751 12.4488 62.7197 10.0555 62.6655 6.02621 63.695 4.25464 65.6461 0.888837 70.1617 4.76081 73.1965 5.44071 75.635 5.98816 78.2544 5.98816 80.5843 6.93012 83.1315 7.94964 93.7888-3.0517 95.4866-0.985762 97.9976 2.09825 92.073 18.047 89.0741 21.9083" fill="#36303A" fill-rule="evenodd" transform="matrix(1.00307 0 0 -1 635.991 265.631)"/><path d="M116.471 80.4878C115.521 88.9001 114.076 97.1065 113.545 105.613 113.235 110.426 112.979 115.248 112.485 120.045 112.174 122.8 112.01 126.232 109.54 128.037 106.194 130.483 99.7204 130.118 95.8253 130.582 90.2109 131.257 84.5786 131.879 78.9645 132.452 67.535 133.616 56.087 134.557 44.621 135.309 44.4563 135.563 44.164 135.745 43.7797 135.685 43.3224 135.612 42.8472 135.536 42.3718 135.459L42.0608 135.485C41.8413 135.497 41.6766 135.43 41.5669 135.333 35.3127 134.333 29.0769 133.34 22.8227 132.343 16.7329 131.369 9.61901 131.175 3.85864 128.881-5.55925 125.129-5.10219 112.594-4.27928 104.329-3.51116 96.6443-1.719 89.1091-0.822911 81.4449 0 74.5845-3.85864 79.4655-3.12728 72.5979-2.46873 66.2978 0.457413 50.5852 2.30436 44.5273 8.32066 24.6975 16.367 13.6041 25.511-0.653331 28.0161-0.898958 30.558-0.980714 33.0815-0.993265 45.8098-1.05709 63.2192-0.353201 75.9472-0.212996 79.5495-0.171042 83.0971 0.251005 86.5902 0.929438 91.7108 2.46846 98.3122 5.80863 102.408 6.098 104.896 6.27442 120.513 7.66248 121.72 9.78348 122.397 10.9553 121.775 14.6648 121.793 16.0672 121.866 18.8398 118.831 21.614 118.94 24.3848 119.361 34.7833 113.857 45.1549 115.265 55.4772 116.398 63.7418 117.423 72.1504 116.471 80.4878" fill="#E66C6C" fill-rule="evenodd" transform="matrix(1.00307 0 0 -1 633.99 389.354)"/><path d="M66.9245-1.07592C66.9245-1.07592 45.4945 3.21484 40.4535 4.38577 35.3942 5.55668 26.436 6.72581 23.2392 9.84958 20.0595 12.9694-5.09429 25.0623-4.70764 26.2346-4.32136 27.4038 4.63718 35.9874 7.35976 46.9111 8.07975 49.7829 9.45034 52.5295 11.189 55.213 12.4537 57.1637 13.9119 59.0828 15.4753 61.0023 19.9369 66.5114 25.1538 72.0365 28.7724 78.3102 35.3942 89.7954 51.2036 94.7095 51.2036 94.7095 51.2036 94.7095 54.664 83.0853 58.7565 69.7266 59.4593 67.4783 60.1618 65.1698 60.8821 62.8599 65.4667 48.0502 70.2445 33.1615 71.5267 30.9147 74.1967 26.2346 66.9245-1.07592 66.9245-1.07592" fill="#E66C6C" fill-rule="evenodd" transform="matrix(1.00307 0 0 -1 586.951 355.43)"/><path d="M31.9027 19.1138C31.493 21.4014 31.3507 25.6856 29.1074 22.8711 27.3984 20.761 26.5617 18.1238 25.547 15.6137 23.6596 10.9457 20.4374 7.621 15.5416 6.35769 14.0998 5.99045 12.622 5.84723 11.1442 5.89277 8.04656 5.97393 4.94895 6.87 2.22522 8.33969 0.56931 9.2354-1.62051 11.856-3.68534 11.5215-4.54003 11.3768-4.82504 10.9457-4.78928 10.401-4.71812 9.45794-3.70305 8.18031-3.20489 7.53947-0.0534631 3.67205 4.62853-0.259273 9.66671-0.948586 10.8415-1.10613 12.0346-1.1715 13.2805-1.13882 16.7523-1.02644 20.295-0.036357 22.9834 2.18582 25.2975 4.1043 28.2531 5.39846 29.9444 7.90892 31.4577 10.1619 32.6323 15.0543 31.9027 19.1138" fill="#F8F0EC" fill-rule="evenodd" transform="matrix(1.00307 0 0 -1 638.994 299.555)"/><path d="M-0.755886 15.7784C-3.02801 15.6365-4.76115 13.2378-4.57622 10.5128-4.39094 7.86299-4.10496 4.75434-3.65052 2.76134-3.22979 0.912293-2.35462-1.41439-0.419364-1.15757 1.51624-0.90286 2.20612 1.89762 2.55984 3.76413 2.98058 5.93148 3.26657 8.40666 3.38413 10.8431 3.53572 13.6449 1.56677 15.9237-0.755886 15.7784" fill="#F8F0EC" fill-rule="evenodd" transform="matrix(1.00307 0 0 -1 649.002 262.638)"/><path d="M0.573646 1.74962C0.573646 0.0977417-0.774178-1.24359-2.41976-1.24359-4.06534-1.24359-5.41317 0.0977417-5.41317 1.74962-5.41317 3.40148-4.06534 4.74283-2.41976 4.74283-0.774178 4.74283 0.573646 3.40148 0.573646 1.74962" fill="#F8F0EC" fill-rule="evenodd" transform="matrix(1.00307 0 0 -1 650.003 245.676)"/><path d="M22.0925 0.135716C15.9038-2.44005 3.80906-0.777089 2.90728 1.41599 2.80117 1.67714 2.60669 2.06373 2.35933 2.54033 0.538018 6.18092-4.69629 15.2962-4.69629 15.2962L-2.50342 17.687 22.0925 44.726C22.0925 44.726 31.3583 17.2243 32.1362 11.949 32.9142 6.68941 28.2636 2.69412 22.0925 0.135716" fill="#FFAA9C" fill-rule="evenodd" transform="matrix(1.00307 0 0 -1 670.019 275.609)"/><path d="M45.2096 35.6396C45.2805 34.8374 42.9585 29.9314 39.9623 24.4471 39.4658 23.5799 38.9873 22.7002 38.491 21.8045 35.4772 16.5062 32.1088 11.1776 29.8219 8.77337 21.1351-0.330825 23.635-10.2643 3.67315 14.4162-0.351258 19.3839-2.72678 23.4247-3.84364 26.539-4.25126 27.6229-4.49937 28.5965-4.60606 29.4597-4.64115 29.8375-4.6766 30.2005-4.6766 30.5291-4.6766 33.8005 4.04533 39.6947 4.04533 39.6947L30.0346 46.7684C30.0346 46.7684 44.5539 42.0538 45.2096 35.6396" fill="#FFAA9C" fill-rule="evenodd" transform="matrix(1.00307 0 0 -1 669.018 303.546)"/><path d="M18.5453 32.8405C16.4554 30.7335 15.0501 27.3576 13.1884 25.0045 11.0985 22.3765 8.78041 19.9172 6.04045 17.9636 3.72201 16.3114 1.26319 15.2275-1.38873 14.2652-1.79293 14.1276-2.1791 13.9914-2.51294 13.8381L-4.69062 11.4697C-4.69062 11.4697 0.50782 2.4435 2.33471-1.16087 3.47624-1.1156 4.60009-0.841873 5.65392-0.367771 8.30619 0.824327 10.8173 2.48877 13.3116 3.92476 15.0854 4.91649 17.3861 5.8331 18.6857 7.46807 19.9504 9.10269 19.7922 11.1349 20.565 12.9825 21.4607 15.107 22.6899 16.6336 23.1119 18.9553 23.4453 20.8654 23.5507 37.8513 18.5453 32.8405" fill="#F07D67" fill-rule="evenodd" transform="matrix(1.00307 0 0 -1 670.019 271.618)"/><path d="M54.8963 39.7008C54.1531 48.1138 52.6305 61.7239 48.7338 69.2584 46.7221 73.1609 42.6081 73.2379 38.8562 75.6183 38.1312 76.0887 37.3518 76.4946 36.5725 76.856 33.0383 78.4868 29.2142 76.7469 25.281 77.0132 19.8982 77.3889 14.3342 77.1384 9.386 75.0084 0.758918 71.2795-6.72633 64.1383-4.37044 51.8549-3.39161 46.7812-2.28587 41.5642-0.926675 36.4887-0.691086 35.5516-0.437263 34.6267-0.183804 33.7022 2.80702 23.0803 6.84886 13.4317 12.5759 7.74792 17.7957 2.56153 23.7588-1.28185 29.631-1.26025 49.0419-1.18899 56.2555 24.8528 54.8963 39.7008" fill="#FFAA9C" fill-rule="evenodd" transform="matrix(1.00307 0 0 -1 639.995 263.636)"/><path d="M-0.826222 15.7776C-3.40193 15.6354-5.32424 13.2381-5.1317 10.5123-4.92061 7.86314-4.59352 4.75549-4.07466 2.7628-3.61342 0.910915-2.63293-1.41686-0.441528-1.15794 1.73054-0.904275 2.47983 1.89766 2.90279 3.76525 3.38337 5.9316 3.69112 8.40508 3.82529 10.8426 3.99849 13.6445 1.78815 15.9237-0.826222 15.7776" fill="#FFFFFF" fill-rule="evenodd" transform="matrix(1.00307 0 0 -1 693.038 252.66)"/><path d="M0.487132 1.74947C0.487132 0.0970321-0.638578-1.24374-2.0158-1.24374-3.37645-1.24374-4.50183 0.0970321-4.50183 1.74947-4.50183 3.40225-3.37645 4.74267-2.0158 4.74267-0.638578 4.74267 0.487132 3.40225 0.487132 1.74947" fill="#FFFFFF" fill-rule="evenodd" transform="matrix(1.00307 0 0 -1 695.04 235.698)"/><path d="M-5.23654 2.94456-5.25643 2.99754-5.25643 3.07789C-5.33483 3.47756-5.33483 3.85023-5.15814 4.1408-4.96156 4.5048-4.52979 4.74724-3.74424 4.76802-3.33198 4.78152-2.99811 4.61078-2.70363 4.42791-1.27023 3.50666 0.869905 0.0550675-1.13294-1.01304-3.25358-2.12546-4.92256 1.58587-5.23654 2.94456" fill="#36303A" fill-rule="evenodd" transform="matrix(1.00307 0 0 -1 674.023 229.712)"/><path d="M-5.2392 3.43394-5.25869 3.49736-5.27779 3.59025C-5.33665 4.05675-5.33665 4.49377-5.16124 4.83022-4.96634 5.25714-4.53796 5.53785-3.75916 5.56572-3.33078 5.57743-2.99985 5.3779-2.70751 5.16424-1.28594 4.0927 0.875454 0.0646237-1.1499-1.17898-3.25283-2.4763-4.92736 1.85228-5.2392 3.43394" fill="#36303A" fill-rule="evenodd" transform="matrix(1.00307 0 0 -1 651.004 236.696)"/><path d="M4.06063 1.36769C2.12568 0.113175-0.671174-0.122761-1.56809 2.62957-1.88493 3.64262-1.97281 4.76074-2.11354 5.81176-2.50038 8.57847-2.87008 11.3471-3.25693 14.1155-3.39766 15.1324-4.89289 14.6984-4.75215 13.6872-4.38281 10.9205-3.99561 8.15195-3.60877 5.38523-3.39766 3.82216-3.27443 2.07771-2.43037 0.712599-0.72404-2.05781 2.47752-1.55496 4.85217-0.0191698 5.69659 0.527169 4.92254 1.91624 4.06063 1.36769" fill="#F07D67" fill-rule="evenodd" transform="matrix(1.00307 0 0 -1 664.014 247.672)"/><path d="M7.44471 4.4301C3.88841 2.2515 1.33031 1.73445-2.87883 0.973122-4.23963 0.729179-5.79956 0.603229-4.23963-0.0334759-1.04631-1.33141 1.34831-1.50476 4.81386-0.321502 7.04536 0.446125 8.62365 1.95023 9.87571 4.47418 10.3111 5.34654 10.0025 6.14532 9.27687 5.77543 9.14975 5.70848 7.75295 4.60841 7.44471 4.4301" fill="#F07D67" fill-rule="evenodd" transform="matrix(1.00307 0 0 -1 667.017 252.66)"/><path d="M8.39656 3.43758C8.28681 3.53839 8.15896 3.62031 8.06768 3.67846 4.2345 5.8286-3.34133 4.32935-4.87453-0.297886-5.09367-0.937831-4.47322-1.4245-3.90709-1.33312-1.93562-1.01787 0.382838 0.0188775 2.37241 0.518752 4.61771 1.07488 6.97275 1.43846 8.57911 1.96439 9.47339 2.2517 8.90763 3.02379 8.39656 3.43758" fill="#36303A" fill-rule="evenodd" transform="matrix(1.00307 0 0 -1 669.018 222.727)"/><path d="M6.43221 1.0536C4.55459 0.4782 2.02737 0.315401 0.0236085-0.143766-1.4025-0.486356-2.84704-0.900661-4.14661-1.20995-4.41737-0.336813-4.67005 0.536658-4.9231 1.42304-1.74556 3.81982 3.90499 4.84114 6.81142 2.29617 7.29871 1.88051 6.97409 1.2317 6.43221 1.0536" fill="#36303A" fill-rule="evenodd" transform="matrix(1.00307 0 0 -1 643.998 228.714)"/><path d="M58.9051 10.2693C58.9406 10.547 58.8158 10.8228 58.5833 11.0041 58.512 11.1508 58.4406 11.2958 58.3871 11.4375 57.69 16.3261 55.4924 20.9763 54.6705 25.8919 53.7594 31.3358 52.3656 36.8226 49.8641 41.7684 48.2382 44.941 45.9692 47.5778 42.324 48.1906 36.6781 49.1398 30.1385 48.1957 24.5101 47.431 16.0947 46.2862 3.74817 44.8336-2.00502 37.729-5.31049 33.6446-4.84592 28.9121-4.43516 23.9627-3.93471 17.9454-3.25561 11.3623-1.29041 5.66731-0.789956 4.19663 0.174708 5.8824 0.389238 6.47549 0.925203 7.95302 0.996592 9.69274 1.17524 11.2422 1.51462 14.3303 1.81847 17.539 3.51606 20.2346 4.46278 21.7179 5.69579 22.9559 7.01812 24.1057 8.05417 22.5671 9.09059 21.141 10.9844 20.0645 14.4151 18.1352 18.4711 18.6298 21.9911 16.8761 24.8674 15.4338 27.2263 14.3519 30.5493 14.7659 31.3715 14.8677 32.193 15.0364 32.9973 15.2439 34.3907 14.1296 35.8203 13.0388 37.2854 12.0662 38.018 11.595 38.7505 11.1617 39.4831 10.7549 40.7161 9.45068 41.9846 8.1663 43.4318 7.08081 46.6124 4.71455 50.3466 0.502819 54.2773-0.0291333 55.7963-0.233066 62.2461-2.37023 63.0325-0.604245 63.765 1.03692 59.9592 7.85123 58.9051 10.2693" fill="#36303A" fill-rule="evenodd" transform="matrix(1.00307 0 0 -1 637.993 231.707)"/><path d="M-4.88408 187.982C-4.88408 187.982 16.7242 9.53972 17.1371 5.34252 17.7252-0.722428 25.0811-4.93078 25.0494 8.85972 25.0494 18.7803 13.8958 202.199 13.8958 202.199L-4.88408 187.982" fill="#E0CFC7" fill-rule="evenodd" transform="matrix(1.00307 0 0 -1 345.751 749.546)"/><path d="M-4.74627 188.283C-4.74627 188.283 0.384475 9.75389 0.703919 5.53652 1.16594-0.518464 8.40915-4.86402 8.63997 8.91695 8.80005 18.8234 15.2089 202.33 15.2089 202.33L-4.74627 188.283" fill="#E0CFC7" fill-rule="evenodd" transform="matrix(1.00307 0 0 -1 680.028 764.513)"/><path d="M-4.72462 206.949C-4.72462 206.949-3.0041 9.53565-2.67829 5.32016-2.18922-0.768615 5.01791-5.11341 5.25334 8.69753 5.43446 18.6348 15.2309 221.045 15.2309 221.045L-4.72462 206.949" fill="#E0CFC7" fill-rule="evenodd" transform="matrix(1.00307 0 0 -1 739.076 664.736)"/><path d="M15.6642 206.779C15.6642 206.779 24.2749 9.62384 24.1294 5.39654 23.9356-0.701611 16.9405-5.37205 16.0841 8.40529 15.4864 18.325-4.80413 219.941-4.80413 219.941L15.6642 206.779" fill="#E0CFC7" fill-rule="evenodd" transform="matrix(1.00307 0 0 -1 419.813 664.736)"/><path d="M-4.44367 69.7144 3.15377 17.3618 356.258-0.615022 415.614 134.178 415.614 184.969-4.44367 69.7144" fill="#F8F0EC" fill-rule="evenodd" transform="matrix(1.00307 0 0 -1 337.745 578.929)"/><path d="M-4.44367 15.1157 81.5951 140.186C82.7824 141.992 84.7911 143.053 86.9464 142.976L415.614 131.285 355.145-0.697703-4.44367 15.1157" fill="#F8F0EC" fill-rule="evenodd" transform="matrix(1.00307 0 0 -1 337.745 525.05)"/><path d="M354.91-0.674823 354.873-0.672652-3.69347 19.3965C-4.13122 19.424-4.45952 19.7924-4.44116 20.2269-4.42316 20.6597-4.03978 20.9878-3.60203 20.9695L354.417 0.929555 411.111 132.55C411.294 132.95 411.75 133.136 412.151 132.959 412.552 132.784 412.735 132.322 412.552 131.922L355.622-0.199733C355.494-0.489563 355.221-0.674823 354.91-0.674823" fill="#E0CFC7" fill-rule="evenodd" transform="matrix(1.00307 0 0 -1 339.747 530.038)"/><path d="M-3.80364-0.479215-3.82065-0.479215C-4.22645-0.466613-4.54756-0.0997313-4.53056 0.331237L-3.02604 48.6523C-3.00903 49.0747-2.67092 49.4095-2.28211 49.4095L-2.24844 49.4095C-1.84264 49.395-1.52153 49.0336-1.53819 48.6004L-3.05972 0.279392C-3.05972-0.139336-3.38117-0.479215-3.80364-0.479215" fill="#E0CFC7" fill-rule="evenodd" transform="matrix(1.00307 0 0 -1 698.042 577.931)"/><path d="M58.0899 4.25234C58.0899 4.25234 41.9125 0.360264 32.7302-0.808179 23.5661-1.97627 14.5892 2.3072 7.37018 2.3072 0.170104 2.3072 0.31981-0.418578-1.13901 2.3072-2.59782 5.03297-4.52396 20.6045-4.76727 31.1147-4.86052 36.2085-2.03687 51.2967 0.936845 65.5158 3.70476 78.7983 6.5663 91.3185 7.22085 94.1692 7.31409 94.5734 7.37018 94.7755 7.37018 94.7755 7.37018 94.7755 7.63209 94.7129 8.09978 94.5587 9.22166 94.2152 11.4472 93.3427 14.103 91.5059 17.9742 88.8425 22.7433 84.1086 26.3341 75.8851 32.9542 60.6721 44.7365 39.4158 48.5892 28.0638 48.8696 27.208 49.1315 26.3976 49.3184 25.665 49.7675 23.9531 50.3099 22.239 50.8894 20.5565 53.8817 11.8994 58.0899 4.25234 58.0899 4.25234" fill="#E66C6C" fill-rule="evenodd" transform="matrix(1.00307 0 0 -1 735.073 355.43)"/><path d="M94.0348 10.4267 88.5615-0.914842C88.5615-0.914842 84.871-0.258816 79.1484 0.789029 77.2052 1.14885 75.0122 1.53888 72.6768 1.97671 54.1181 5.42004 25.112 11.0845 17.8919 13.948 7.08786 18.2508-6.51458 27.309-4.55366 35.727-2.59275 44.1306 12.3828 76.911 12.3828 76.911L43.2251 62.1546C43.2251 62.1546 30.068 42.4091 29.8544 41.8152 29.8544 41.3437 61.5344 26.0271 80.3965 16.9672 82.4644 15.9815 84.336 15.0757 86.048 14.2618 90.9149 11.9303 94.0348 10.4267 94.0348 10.4267" fill="#FFAA9C" fill-rule="evenodd" transform="matrix(1.00307 0 0 -1 579.945 412.302)"/><path d="M4.92347 7.77168C2.29772 12.0087 1.5081 16.5764 3.38126 21.3002 4.96049 25.3313 8.30255 28.6206 12.1584 30.7059 9.51419 32.5708 7.29231 33.4563 6.19063 33.8038 5.89706 33.6935 5.58463 33.5667 5.2907 33.4088 3.65668 32.6187 2.15112 31.5915 0.939117 30.3108-3.83521 25.2688-6.29586 15.4392-3.83521 8.62605-3.37618 7.36211-2.32965 5.79827-0.952543 4.32664 0.424925 2.84231 2.15112 1.4513 4.02391 0.582042 6.09882-0.413566 9.6245-2.75263 8.68792 0.708762 7.99011 3.28492 6.3561 5.5136 4.92347 7.77168" fill="#F8F0EC" fill-rule="evenodd" transform="matrix(1.00307 0 0 -1 737.075 294.566)"/><path d="M4.69033 26.6391C3.38317 28.2598 2.34479 30.2141 0.966354 31.8192-0.663046 29.8823-2.16696 27.9457-3.47412 25.9778-1.61196 24.2001-0.269154 21.9616 0.429161 19.2226 1.53919 14.8138 0.536451 9.94955-1.66578 5.89998-2.59687 4.24782-5.26428 2.07398-4.94203 0.0115764-4.78128-0.85376-4.3692-1.12255-3.81419-1.10663-2.86529-1.04405-1.5585-0.0354527-0.913637 0.468844 3.0071 3.58651 7.01804 8.24674 7.76982 13.2854 8.45031 17.79 7.69817 22.9875 4.69033 26.6391" fill="#F8F0EC" fill-rule="evenodd" transform="matrix(1.00307 0 0 -1 600.962 326.495)"/><path d="M11.3869 33.1229C9.37087 34.169 6.00448 36.6238 6.7968 33.205 7.37271 30.6412 8.90263 28.397 10.1989 26.1245 12.6471 21.8796 13.2051 17.3932 11.1887 12.8482 9.38875 8.76253 5.68039 5.55661 1.54029 3.71116-0.152026 2.95827-3.51841 2.82077-4.50854 1.03607-4.90417 0.290639-4.74249-0.183337-4.31038-0.48357-3.55418-1.00019-1.95201-0.975312-1.14216-0.952217 3.73625-0.830348 9.6048 0.462252 13.2051 3.9311 16.4452 7.06205 19.0018 11.5339 18.9116 16.1237 18.8576 19.06 19.6858 22.1209 18.8036 24.9371 17.9755 27.4654 14.9693 31.2797 11.3869 33.1229" fill="#F8F0EC" fill-rule="evenodd" transform="matrix(1.00307 0 0 -1 713.055 355.43)"/><path d="M22.6588 9.66779C22.4749 10.3899 22.2174 11.1877 21.9416 12.0307 20.5435 9.86656 18.5568 8.13338 15.8895 6.95103 11.7688 5.15865 6.85728 5.23441 2.51573 6.59932 0.74987 7.16777-1.84414 9.26887-3.8122 8.6102-4.62169 8.3339-4.82423 7.87366-4.6953 7.38274-4.4748 6.50699-3.26057 5.44939-2.65363 4.94402 1.08099 1.81352 6.32361-1.1161 11.364-0.931785 15.8895-0.762274 20.801 0.846148 23.873 4.28325 23.9832 4.40766 24.0939 4.52854 24.2041 4.63707 23.6342 6.29237 23.1005 7.98009 22.6588 9.66779" fill="#F8F0EC" fill-rule="evenodd" transform="matrix(1.00307 0 0 -1 761.094 339.466)"/><path d="M25.7714 7.31558C23.1971 7.73096 20.57 7.15573 17.9779 6.77297 13.1616 6.08739 8.80105 7.25215 5.33307 10.9206 2.23353 14.2095 0.639516 18.9646 0.429293 23.5929 0.359573 25.507 1.46271 28.7472 0.166692 30.3746-0.358865 31.0625-0.866372 31.0932-1.28681 30.7901-2.05728 30.262-2.61787 28.7311-2.89817 27.9652-4.57924 23.2574-5.55993 17.1777-3.6336 12.4226-1.93483 8.14451 1.23515 3.97895 5.52596 2.30642 8.25779 1.23588 10.7975-0.727012 13.7221-0.935619 16.3492-1.1424 21.0078 0.2779 24.0202 2.97587 25.719 4.47608 29.2217 6.75684 25.7714 7.31558" fill="#F8F0EC" fill-rule="evenodd" transform="matrix(1.00307 0 0 -1 654.006 378.378)"/><path d="M44.3758 8.0611C43.0427 9.62466 38.8095 10.5399 36.9539 11.1304 35.765 11.5075 34.558 11.8395 33.3513 12.152 33.9818 12.1569 34.6123 12.1466 35.2429 12.1623 37.3324 12.2039 44.5558 12.1318 44.5202 14.2788 44.4842 16.4254 39.9985 16.6245 38.305 16.9137 36.0354 17.3047 26.47 19.0046 24.5425 19.5486 25.8035 19.6275 27.0822 19.7369 28.3793 19.9127 29.8567 20.1226 32.1443 20.1226 33.2973 21.2732 35.2248 23.2099 33.2793 23.978 31.1537 24.039 27.3706 24.1467 23.966 24.8126 20.2009 25.6959 17.5168 26.3277 14.8327 27.1389 12.0406 27.1282 6.69043 27.1066 2.3312 23.9906-1.74031 20.8499-2.24443 20.4512-1.97436 19.8625-1.48788 19.6508-2.89294 17.2725-3.95592 14.8188-4.71246 12.1228-4.8565 11.6797-4.56807 11.3224-4.17198 11.1628 1.08818 8.98388 6.36599 6.805 11.6261 4.62576 16.3282 2.68009 21.0475 0.488659 26.1276-0.308193 27.8931-0.584813 31.7118-1.57541 32.8648 0.348735 33.1712 0.851387 33.2069 1.37341 33.0993 1.88503 35.2248 1.71102 37.3144 1.64286 39.35 1.72359 41.0792 1.79175 42.9707 3.28859 42.7367 4.59886 44.6822 5.09075 46.0692 6.0903 44.3758 8.0611" fill="#FFAA9C" fill-rule="evenodd" transform="matrix(1.00307 0 0 -1 669.018 423.278)"/><path d="M2.90581 0.814008C0.485553 1.01167-1.87544 1.43814-4.19733 2.07549-5.2597 2.36809-5.71246 0.732685-4.64969 0.442024-2.17056-0.236186 0.348066-0.670429 2.90581-0.879767 4.00768-0.970817 3.98794 0.724903 2.90581 0.814008" fill="#F07D67" fill-rule="evenodd" transform="matrix(1.00307 0 0 -1 698.042 411.305)"/><path d="M13.4894 0.698883C7.70224 1.45921 1.7864 1.93537-3.89004 3.19315-4.90368 3.41622-5.3275 1.95108-4.31386 1.72626 1.36258 0.468482 7.29686-0.00593456 13.047-0.766257 14.0607-0.900658 14.503 0.564482 13.4894 0.698883" fill="#F07D67" fill-rule="evenodd" transform="matrix(1.00307 0 0 -1 697.042 417.291)"/><path d="M4.58909 0.806396C1.80873 1.28439-1.06189 1.62679-3.62545 3.01119-4.54632 3.50159-5.32252 2.00159-4.42015 1.5096-1.71194 0.0475998 1.21307-0.366799 4.15585-0.870796 5.16698-1.04199 5.5821 0.635197 4.58909 0.806396" fill="#F07D67" fill-rule="evenodd" transform="matrix(1.00307 0 0 -1 696.041 421.282)"/><path d="M4.04472 52.9508C4.04472 52.9508 68.2337 30.7279 75.793 24.5785 83.962 17.9391 84.9601 0.663289 74.2959-0.653079 63.6501-1.96543 58.3271 1.09138 34.6143 15.4543 10.3474 30.1499-4.69716 39.6704-4.69716 39.6704L4.04472 52.9508" fill="#FFAA9C" fill-rule="evenodd" transform="matrix(1.00307 0 0 -1 704.047 378.378)"/><path d="M-1.82161-0.653176 20.9294-1.02283C22.7812 1.25574 24.1923 26.9158 24.1923 26.9158 24.2628 27.3476 24.0159 27.7632 23.6808 27.765L-4.20241 27.9121C-4.53744 27.9139-4.80188 27.5019-4.71385 27.0688-4.71385 27.0688-3.23262 1.19187-1.82161-0.653176" fill="#FFFFFF" fill-rule="evenodd" transform="matrix(1.00307 0 0 -1 659.01 340.463)"/><path d="M1.98948 16.9054C0.818505 16.911-0.626414 14.2202-1.54114 10.3186-1.98027 8.48973-2.1082 6.32734-1.88882 4.67226-1.68752 3.11798-1.22997 2.10447-0.626414 1.95894 0.160014 1.77241 1.16619 2.01873 2.13585 2.63999 3.92845 3.79152 5.30073 5.92983 5.86779 8.50853 7.0384 13.7479 4.58731 16.2969 2.17236 16.8846ZM-0.114296-1.06953C-0.516912-1.06766-0.919159-1.01914-1.28528-0.925503-2.62032-0.606597-4.30342 0.561469-4.77903 4.29318-5.03528 6.30666-4.88891 8.81841-4.37679 11.0015-2.895 17.4202-0.315235 20.5363 2.83084 19.7695 6.7276 18.829 10.2217 14.7016 8.70343 7.8553 7.97158 4.51168 6.14211 1.69231 3.67258 0.124854 2.42859-0.668273 1.12969-1.0748-0.114296-1.06953" fill="#FFFFFF" fill-rule="evenodd" transform="matrix(1.00307 0 0 -1 681.028 335.475)"/><path d="M24.2021 3.36925C24.2021 0.89005 17.7093-1.08599 9.69931-1.04545 1.72429-1.00313-4.75071 1.04153-4.73289 3.52074-4.71542 5.99993 1.77741 7.97597 9.75208 7.93365 17.7446 7.89169 24.2196 5.84845 24.2021 3.36925" fill="#FFFFFF" fill-rule="evenodd" transform="matrix(1.00307 0 0 -1 659.01 316.517)"/><path d="M18.2166 2.71155C18.2166 0.924014 12.8842-0.98451 6.74223-0.953744 0.600275-0.922977-4.7495 1.09479-4.73206 2.88232-4.73206 4.66951 0.600275 6.06054 6.75967 6.02977 12.8842 5.99901 18.2343 4.50047 18.2166 2.71155" fill="#FFFFFF" fill-rule="evenodd" transform="matrix(1.00307 0 0 -1 662.013 343.457)"/><path d="M20.1667 2.36519C20.149 0.437144 14.5665-1.09736 7.668-1.05988 0.787798-1.0242-4.77713 0.569044-4.77713 2.49709-4.77713 4.42514 0.823035 5.95928 7.70359 5.92361 14.6022 5.88648 20.1667 4.29504 20.1667 2.36519" fill="#7D4949" fill-rule="evenodd" transform="matrix(1.00307 0 0 -1 661.012 315.519)"/><path d="M25.9887 11.1677C24.1713 13.3965 22.7319 15.7862 21.7604 18.5033 21.5807 18.9803 21.4548 19.4721 21.3108 19.9657 20.4649 21.6539 19.5474 23.2828 18.2698 24.5826 14.7614 28.1292 7.04252 26.7644 2.61615 26.1066 2.47254 26.0866 2.34655 26.1011 2.23856 26.1337 1.03307 25.6636 0.0611924 25.1771-0.100428 24.4542-0.442385 22.8705 0.0971879 22.6337 1.75262 21.5527-0.280405 20.3777 0.979078 20.3216-1.34191 19.577-2.94335 19.0617-3.3393 18.8628-4.16684 17.2469-5.13836 15.3378-4.92238 12.4165-3.55528 11.0501-1.80985 9.33084-2.54776 8.43975-1.37827 6.27204-0.874331 5.33031-0.460383 4.43921 0.24117 3.62008 3.40806-0.029655 10.3171-2.23859 14.8514-0.291849 19.5114 1.70589 22.7862 6.11472 24.3694 10.8404 24.5493 10.5962 24.7293 10.3521 24.9272 10.108 25.5391 9.36158 26.5827 10.4262 25.9887 11.1677" fill="#FFAA9C" fill-rule="evenodd" transform="matrix(1.00307 0 0 -1 686.033 340.463)"/><path d="M40.1826 8.05134C39.6834 7.21504 39.2022 6.36691 38.703 5.50485 38.3286 5.29282 37.9365 5.08079 37.5445 4.88094 31.7516 1.81986 25.8159-0.45192 19.1855-1.01177 13.036-1.52775 8.15213 0.716177 3.35753 4.26016 0.861876 6.09569-1.65128 8.00433-3.95056 10.0675-4.34294 11.1121-4.59251 12.0507-4.71711 12.8832-2.18611 10.4133 0.630163 8.23203 3.46429 6.08002 9.59596 1.45847 15.1928-0.404917 22.9819 1.07931 29.185 2.24741 34.835 4.85309 40.1826 8.05134" fill="#FFFFFF" fill-rule="evenodd" transform="matrix(1.00307 0 0 -1 669.018 286.584)"/><path d="M12.6977 0.13775C6.96957 3.22484 1.4934 6.68175-3.73076 10.5191-4.54129 11.1207-5.33389 9.77595-4.54129 9.18153 0.700798 5.34625 6.15905 1.88756 11.9051-1.19988 12.7881-1.68183 13.5986-0.344196 12.6977 0.13775" fill="#1A161C" fill-rule="evenodd" transform="matrix(1.00307 0 0 -1 656.008 212.75)"/><path d="M8.99472 19.5518C4.70891 18.4745 2.91392 15.8464 1.43047 12.0031-0.474585 7.04535-5.23648 5.21395-4.96187-0.610709-4.90703-1.62358-3.27657-1.63086-3.3318-0.610709-3.55155 4.07042-0.0899174 5.64086 1.98005 9.13006 4.25112 12.9483 4.04964 16.6718 9.41596 18.0225 10.4233 18.2779 10.0021 19.8055 8.99472 19.5518" fill="#1A161C" fill-rule="evenodd" transform="matrix(1.00307 0 0 -1 650.003 202.772)"/><path d="M22.1222-0.0921527C17.6027 9.43897 5.47996 15.9677-3.80749 19.6072-4.72903 19.9733-5.13661 18.4533-4.21508 18.089 4.71796 14.5804 16.4509 8.26699 20.7756-0.885389 21.2011-1.79861 22.5476-1.00175 22.1222-0.0921527" fill="#1A161C" fill-rule="evenodd" transform="matrix(1.00307 0 0 -1 671.02 225.721)"/><path d="M-0.874032 8.93232C-0.93181 6.94232-1.10553 5.07418-1.70425 3.15481-1.99391 2.19273-2.34174 1.54941-3.2879 1.00415-3.84783 0.674435-4.38878 0.495854-4.89093 0.0640402-5.70215-0.621373-4.50472-1.74409-3.69351-1.06416-2.95945-0.439132-1.93613-0.291657-1.24086 0.412053-0.738701 0.931328-0.449037 1.59845-0.217151 2.25824 0.555286 4.45793 0.748395 6.63786 0.825949 8.93232 0.844949 9.95661-0.835255 9.95661-0.874032 8.93232" fill="#1A161C" fill-rule="evenodd" transform="matrix(1.00307 0 0 -1 701.045 230.71)"/><path d="M14.0712-0.268788C12.666 3.15623 11.2609 7.40203 8.26799 9.87207 6.97231 10.9378 5.42112 11.2831 3.88814 11.8927 1.09587 12.9921-1.2764 14.5567-3.46632 16.5581-4.19641 17.2362-5.32795 16.1565-4.57966 15.4762-2.09785 13.1984 0.676231 11.417 3.88814 10.2367 6.44312 9.2976 7.84835 8.38688 9.32638 6.04018 10.6771 3.93309 11.6077 1.61624 12.5564-0.673902 12.9215-1.57935 14.4545-1.18477 14.0712-0.268788" fill="#1A161C" fill-rule="evenodd" transform="matrix(1.00307 0 0 -1 708.051 246.674)"/><path d="M1.78519-0.22323C0.650702 4.51034-0.924814 9.03483-2.90993 13.3702-3.31953 14.2689-4.50116 13.4722-4.09157 12.5735-2.15392 8.35642-0.641271 3.96116 0.445747-0.643556 0.698169-1.6225 2.00586-1.20581 1.78519-0.22323" fill="#1A161C" fill-rule="evenodd" transform="matrix(1.00307 0 0 -1 719.06 255.654)"/><path d="M30.9576 93.5982C30.6992 106.4 32.1569 121.641 25.8272 133.297 22.8557 138.749 18.2237 143.032 13.8314 147.294 8.09193 152.833 2.35249 158.374-3.36868 163.913-4.08844 164.613-5.19568 163.507-4.47592 162.806 0.894324 157.614 6.26492 152.418 11.6538 147.226 16.3043 142.722 21.3426 138.277 24.4797 132.506 27.9864 126.047 28.6689 118.568 28.9643 111.35 29.2413 104.413 29.3334 97.4658 29.4625 90.5271 30.0163 60.4606 29.684 30.2887 25.1812 0.486857 25.0518-0.492251 26.5466-0.923735 26.6945 0.0704757 31.345 31.033 31.5849 62.362 30.9576 93.5982" fill="#1A161C" fill-rule="evenodd" transform="matrix(1.00307 0 0 -1 769.101 613.85)"/><path d="M19.9631 0.123418C17.6543 5.02267 15.5061 9.88478 14.5219 15.2325 13.6447 20.0856 13.4297 25.109 11.3535 29.6729 9.43837 33.9088 6.39527 37.6219 4.06849 41.6452 1.18637 46.642-1.24811 51.8602-3.2886 57.2469-3.64656 58.1939-5.20376 57.7843-4.84579 56.8268-3.00193 51.9665-0.854124 47.2289 1.65202 42.6719 4.19381 38.0457 7.71983 33.824 9.88564 29.0132 12.0875 24.1053 12.1591 18.6865 13.233 13.4912 14.2713 8.51407 16.4191 3.90207 18.5853-0.676072 19.0146-1.59826 20.3928-0.795122 19.9631 0.123418" fill="#B54848" fill-rule="evenodd" transform="matrix(1.00307 0 0 -1 616.975 345.452)"/><path d="M-3.08415-0.0706259C-4.67161 3.66927-4.02764 7.97381-3.98135 11.8728-3.98135 15.5034-3.93552 19.1327-3.91237 22.762-3.86653 30.5391-3.82024 38.3142-3.77441 46.0915-3.77441 47.1104-5.75351 47.1123-5.75351 46.0915-5.79935 37.7955-5.84518 29.4998-5.89147 21.2042-5.93731 17.058-5.96046 12.91-5.98359 8.76198-6.00628 5.62022-6.25951 2.51742-4.97112-0.491833-4.55679-1.45148-2.66981-1.03791-3.08415-0.0706259" fill="#B54848" fill-rule="evenodd" transform="matrix(1.00307 0 0 -1 757.091 335.475)"/><path d="M-4.65598 45.0493C-4.65598 42.6821 54.53 23.7526 57.9211 22.7024 61.3306 21.65 127.353-1.63294 128.291-0.696517 130.872 1.81704 177.719 53.1023 177.935 54.5965 178.133 56.0902 50.0564 101.31 47.585 101.046 45.0957 100.784-4.65598 47.4142-4.65598 45.0493" fill="#7B9FBA" fill-rule="evenodd" transform="matrix(1.00307 0 0 -1 533.907 500.106)"/><path d="M-4.66158 42.0158C-4.66158 42.0158 13.0026 40.536 27.732 33.854 43.1817 26.8419 51.1045 20.6914 51.1045 20.6914 51.1045 20.6914 78.186 19.511 90.3584 14.013 102.531 8.50954 118.43-0.919346 120.195-0.724716 121.978-0.526475 169.407 49.9826 169.947 53.0429 170.001 53.3238 149.689 65.0934 138.183 69.8096 126.678 74.5237 107.213 74.8157 107.213 74.8157 107.213 74.8157 85.4428 89.6524 71.9199 92.4039 58.3609 95.154 48.8896 97.0389 46.9628 95.5071 45.0185 93.9754-4.66158 42.0158-4.66158 42.0158" fill="#FFFFFF" fill-rule="evenodd" transform="matrix(1.00307 0 0 -1 537.91 496.114)"/><path d="M-4.02097-0.750279C-4.23355-0.750279-4.44684-0.671661-4.58855-0.511912-4.89015-0.199955-4.89015 0.294368-4.58855 0.59412L49.7245 51.9146C50.0439 52.2125 50.541 52.2021 50.8425 51.8881 51.1441 51.5779 51.1264 51.0818 50.8247 50.7856L-3.48865-0.534888C-3.63036-0.680277-3.82549-0.750279-4.02097-0.750279" fill="#F5D2B5" fill-rule="evenodd" transform="matrix(1.00307 0 0 -1 593.956 473.166)"/><path d="M51.3978-0.672369C51.2407-0.672369 51.084-0.62595 50.9446-0.529845 50.8397-0.44462 38.8107 8.05575 21.952 15.3307 12.9216 19.2224-3.72768 18.6744-3.90186 18.6656-4.30282 18.6798-4.68671 18.9946-4.70377 19.4287-4.70377 19.8643-4.37285 20.2291-3.95447 20.2451-3.25706 20.2665 13.2181 20.8108 22.545 16.7857 39.5778 9.44328 51.7117 0.850073 51.8336 0.764848 52.1997 0.515701 52.2694 0.0250235 52.0251-0.334371 51.8859-0.554868 51.642-0.672369 51.3978-0.672369" fill="#F5D2B5" fill-rule="evenodd" transform="matrix(1.00307 0 0 -1 604.966 490.128)"/><path d="M51.314-0.698097C51.1543-0.698097 51.012-0.656425 50.87-0.565706 50.71-0.448065 33.4101 11.1957 21.1897 15.658 9.04047 20.1002-3.83707 19.6415-3.96135 19.6341-4.36995 19.6397-4.76085 19.9604-4.77855 20.4044-4.79625 20.8471-4.45882 21.2206-4.03252 21.2387-3.89054 21.2368 9.27133 21.7192 21.7226 17.1699 34.1203 12.6429 51.5806 0.890231 51.7403 0.772222 52.0958 0.529196 52.2024 0.0306086 51.9712-0.34112 51.8115-0.573081 51.5629-0.698097 51.314-0.698097" fill="#F5D2B5" fill-rule="evenodd" transform="matrix(1.00307 0 0 -1 611.971 484.141)"/><path d="M51.3107-0.679707C51.1681-0.679707 51.0081-0.639579 50.8657-0.552988 50.7054-0.438589 33.41 10.6733 21.2033 14.9321 9.04989 19.1719-3.81537 18.7351-3.93999 18.728-4.34922 18.7421-4.74076 19.0402-4.77616 19.4634-4.77616 19.8864-4.43808 20.2419-4.01114 20.261-3.86847 20.2575 9.28106 20.7189 21.719 16.3767 34.1216 12.0556 51.5774 0.837754 51.7377 0.725114 52.1112 0.492796 52.2005 0.0158399 51.9689-0.337917 51.8266-0.558267 51.5774-0.679707 51.3107-0.679707" fill="#F5D2B5" fill-rule="evenodd" transform="matrix(1.00307 0 0 -1 617.976 477.157)"/><path d="M51.3129-0.727226C51.1696-0.727226 51.0081-0.685338 50.8824-0.599451 50.721-0.489276 33.421 10.6265 21.2179 14.8866 9.03286 19.131-3.81642 18.6904-3.94212 18.6798-4.37268 18.7009-4.74976 18.9913-4.76746 19.4162-4.76746 19.8375-4.44455 20.1926-3.99594 20.2121-3.87024 20.2121 9.28389 20.6717 21.7384 16.3295 34.1391 12.0063 51.5824 0.788826 51.7439 0.677242 52.1206 0.444572 52.2105-0.0313278 51.9773-0.384381 51.8154-0.606491 51.5644-0.727226 51.3129-0.727226" fill="#F5D2B5" fill-rule="evenodd" transform="matrix(1.00307 0 0 -1 642.997 452.213)"/><path d="M51.3162-0.77554C51.1725-0.77554 51.0287-0.731287 50.8845-0.641674 50.7049-0.524034 33.4203 11.1191 21.1898 15.5802 9.03124 20.0287-3.82898 19.564-3.95471 19.5567-4.40452 19.5238-4.76437 19.8815-4.76437 20.3278-4.80014 20.7703-4.45835 21.1428-4.02697 21.1613-3.88317 21.1594 9.2827 21.644 21.7293 17.0929 34.1397 12.5639 51.5684 0.814262 51.748 0.696991 52.1079 0.45249 52.2158-0.0468348 51.9817-0.417457 51.8199-0.64905 51.5684-0.77554 51.3162-0.77554" fill="#F5D2B5" fill-rule="evenodd" transform="matrix(1.00307 0 0 -1 649.002 446.226)"/><path d="M46.2687-0.749799C46.1126-0.749799 45.974-0.7065 45.8349-0.613045 45.7137-0.526808 33.0155 8.0349 20.5255 12.6838 8.05249 17.3194-3.91727 17.6304-4.03855 17.634-4.47228 17.6426-4.81911 18.002-4.81911 18.4361-4.80173 18.8684-4.38575 19.235-4.0038 19.2035-3.88251 19.2003 8.36456 18.8857 21.0805 14.1571 33.7613 9.44068 46.5985 0.771809 46.7197 0.685211 47.084 0.439849 47.1709-0.04799 46.928-0.407374 46.7719-0.630366 46.529-0.749799 46.2687-0.749799" fill="#F5D2B5" fill-rule="evenodd" transform="matrix(1.00307 0 0 -1 543.915 468.177)"/><path d="M46.2864-0.761734C46.1126-0.761734 45.9562-0.718433 45.8341-0.626418 45.695-0.539817 33.0324 8.02473 20.5262 12.6738 8.0547 17.3037-3.92977 17.6209-4.03404 17.6227-4.46892 17.6314-4.83427 17.9937-4.81689 18.4252-4.79951 18.8586-4.41678 19.2086-4.01666 19.1931-3.87763 19.1913 8.35053 18.8741 21.0654 14.1453 33.7628 9.42876 46.5996 0.76029 46.7039 0.673688 47.0866 0.429039 47.1735-0.0595386 46.9298-0.416771 46.7734-0.641935 46.5301-0.761734 46.2864-0.761734" fill="#F5D2B5" fill-rule="evenodd" transform="matrix(1.00307 0 0 -1 550.921 462.191)"/><path d="M46.2852-0.734629C46.1281-0.734629 45.9709-0.693492 45.8315-0.606077 45.692-0.523461 33.0306 7.61059 20.5257 12.0269 8.03839 16.433-3.92558 16.7285-4.04762 16.7302-4.48364 16.7385-4.83238 17.0802-4.81499 17.493-4.81499 17.9057-4.44887 18.2227-4.01285 18.2227-3.89082 18.221 8.35236 17.919 21.0664 13.4252 33.7455 8.94615 46.5989 0.711318 46.7212 0.628702 47.0874 0.394567 47.1743-0.0695892 46.9303-0.407936 46.7734-0.620818 46.529-0.734629 46.2852-0.734629" fill="#F5D2B5" fill-rule="evenodd" transform="matrix(1.00307 0 0 -1 557.927 455.206)"/><path d="M45.3974-0.839976C45.2416-0.839976 45.1034-0.796317 44.9649-0.702866 44.8439-0.618797 32.4033 7.94621 20.1362 12.5928 7.92053 17.2322-3.82781 17.5396-3.9489 17.5432-4.38144 17.5536-4.72732 17.9104-4.71027 18.3449-4.69287 18.7775-4.32958 19.1484-3.9141 19.113-3.79335 19.1095 8.21456 18.7949 20.6895 14.066 33.1299 9.35086 45.7089 0.680495 45.8474 0.594261 46.1932 0.348185 46.2799-0.140356 46.0377-0.497202 45.8992-0.720546 45.6397-0.839976 45.3974-0.839976" fill="#F5D2B5" fill-rule="evenodd" transform="matrix(1.00307 0 0 -1 591.955 422.28)"/><path d="M21.3365-0.779449C21.145-0.779449 20.9364-0.702912 20.7972-0.549477 20.693-0.443336 10.191 9.92777-4.17134 12.6272-4.58836 12.7073-4.88428 13.1185-4.79705 13.5434-4.71019 13.9702-4.29316 14.2575-3.87578 14.1719 10.9558 11.3802 21.4579 1.0022 21.8926 0.561752 22.2058 0.255244 22.2058-0.241163 21.8926-0.549477 21.7538-0.702912 21.5451-0.779449 21.3365-0.779449" fill="#F5D2B5" fill-rule="evenodd" transform="matrix(1.00307 0 0 -1 587.952 450.217)"/><path d="M21.3362-0.791972C21.1444-0.791972 20.9353-0.71505 20.7962-0.561567 20.6912-0.458644 10.1847 9.91789-4.17263 12.6185-4.59077 12.6968-4.86976 13.1089-4.79983 13.5351-4.71296 13.9626-4.29447 14.2349-3.87635 14.1634 10.9687 11.3704 21.458 0.98843 21.8937 0.548566 22.2073 0.2416 22.2073-0.256046 21.8937-0.561567 21.7542-0.71505 21.5452-0.791972 21.3362-0.791972" fill="#F5D2B5" fill-rule="evenodd" transform="matrix(1.00307 0 0 -1 593.956 444.231)"/><path d="M111.945 26.6992C111.945 11.544 85.8169-0.739594 53.5754-0.739594 21.3506-0.739594-4.79382 11.544-4.79382 26.6992-4.79382 41.8527 21.3506 54.1377 53.5754 54.1377 85.8169 54.1377 111.945 41.8527 111.945 26.6992" fill="#FFFFFF" fill-rule="evenodd" transform="matrix(1.00307 0 0 -1 401.798 501.103)"/><path d="M44.0878 38.5724C18.4461 38.5724-3.23624 30.4642-3.23624 20.8677-3.23624 11.6005 17.4356 0.826087 44.0878 0.826087 70.7231 0.826087 91.3775 11.6005 91.3775 20.8677 91.3775 30.4642 69.729 38.5724 44.0878 38.5724ZM44.0878-0.755217C18.4969-0.755217-4.81971 9.55178-4.81971 20.8677-4.81971 31.6843 16.6605 40.1534 44.0878 40.1534 71.4811 40.1534 92.9614 31.6843 92.9614 20.8677 92.9614 9.55178 69.6618-0.755217 44.0878-0.755217" fill="#F5D2B5" fill-rule="evenodd" transform="matrix(1.00307 0 0 -1 410.805 493.121)"/><path d="M20.0319 5.69018C18.5081 11.8329 11.4887 11.6659 6.4147 10.7603 1.69742 10.5755-4.94941 9.83499-4.70607 4.78626-4.60874 2.57283-2.82553 0.881173-0.928889-0.00664904 1.94041-1.33681 4.33984-0.612762 7.19267 0.129482 10.7591 1.0579 21.8476-1.53943 20.0319 5.69018" fill="#DCA877" fill-rule="evenodd" transform="matrix(1.00307 0 0 -1 473.857 472.168)"/><path d="M20.0198 9.53322C12.2767 12.2085 5.88452 11.6763-0.639362 8.08377-2.33627 7.61199-3.88489 6.78224-4.57693 5.12003-5.3018 3.3376-4.6426 1.61831-2.97888 0.543377-0.145048-1.26844 4.41817-0.648404 7.61463-0.671706 11.865-0.702438 16.758-1.10026 20.8106 0.28908 23.0019 1.03846 25.1599 2.7439 25.0611 5.13556 24.9294 7.73661 22.2276 8.76696 20.0198 9.53322" fill="#DCA877" fill-rule="evenodd" transform="matrix(1.00307 0 0 -1 432.823 464.186)"/><path d="M30.4677 13.5273 30.2705 13.6127C29.1688 13.8714 27.985 14.0314 26.7519 14.0891 27.2285 14.9338 27.2943 15.967 26.8012 17.2272 25.7652 19.8215 21.8189 21.1376 19.4514 21.9397 14.4691 23.6266-4.94916 27.6693-4.83406 17.6668-4.80133 14.8764-2.187 13.2224 0.164384 12.4796 4.12689 11.2291 8.66527 10.6674 12.8087 10.4205 13.2033 10.3974 13.713 10.3841 14.3213 10.3841 13.5155 9.69398 12.7594 8.91305 12.1673 8.01213 7.89226 1.64509 18.9578-0.188114 22.8549-0.501276 27.7548-0.898044 38.2613-1.61302 40.5469 4.31401 43.1119 10.9344 35.5323 13.1665 30.4677 13.5273" fill="#DCA877" fill-rule="evenodd" transform="matrix(1.00307 0 0 -1 417.811 489.13)"/><path d="M-2.1473 1.85342C-2.91072 2.45914-4.39758 2.13739-5.02356 1.55263-5.64953 0.971232-6.19763-0.0351679-5.25845-0.564931-4.41716-1.0397-3.18435-0.790155-2.48007-0.219238-1.89324 0.283214-1.40387 1.26005-2.1473 1.85342" fill="#87524D" fill-rule="evenodd" transform="matrix(1.00307 0 0 -1 477.861 465.184)"/><path d="M-1.64274 1.54783C-2.46154 2.56468-4.00852 1.76843-4.8817 1.30221-5.50073 0.974425-5.40971 0.229985-5.0275-0.184881-4.60903-1.12939-3.31699-1.03873-2.55256-0.770341-1.6971-0.465331-0.878305 0.605108-1.64274 1.54783" fill="#87524D" fill-rule="evenodd" transform="matrix(1.00307 0 0 -1 489.871 469.175)"/><path d="M-1.3336 0.265749C-1.29859 0.801641-2.44865 1.23156-3.14585 1.33616-4.10392 1.48029-5.65491 1.18928-5.1147 0.238296-4.62682-0.620722-2.90191-0.727791-1.82149-0.554834-1.22894-0.459022-1.12467-0.0439255-1.3336 0.265749" fill="#87524D" fill-rule="evenodd" transform="matrix(1.00307 0 0 -1 436.827 458.199)"/><path d="M-1.94673 0.989816-2.05054 1.03415C-2.77615 1.31079-4.33079 1.53098-4.91796 0.976515-5.53974 0.403138-4.86586-0.385996-4.08853-0.541753-3.39792-0.677413-2.08515-0.806275-1.5322-0.414369-0.806984 0.0730022-1.29034 0.698693-1.94673 0.989816" fill="#87524D" fill-rule="evenodd" transform="matrix(1.00307 0 0 -1 444.833 455.206)"/><path d="M-0.732829 1.65207C-1.58395 2.40407-2.79563 2.26588-3.70431 1.78733-3.9061 1.67876-4.00732 1.51205-4.05033 1.32889L-4.10821 1.2587C-4.33878 0.860216-4.35333 0.304896-4.12244-0.0899334-3.56009-1.00206-2.05995-0.89714-1.25216-0.60175-0.372265-0.281864 0.103741 0.908473-0.732829 1.65207" fill="#87524D" fill-rule="evenodd" transform="matrix(1.00307 0 0 -1 454.842 463.188)"/><path d="M-1.35436 1.85604C-2.0808 2.35644-3.62641 2.48436-4.29115 1.8381-4.63102 1.51878-4.72408 1.04565-4.52296 0.629644L-4.39921 0.465505C-4.36854 0.340573-4.30648 0.21697-4.16741 0.108651-3.42562-0.477466-2.15819-1.02437-1.23062-0.512022-0.257033 0.0182746-0.612582 1.3304-1.35436 1.85604" fill="#87524D" fill-rule="evenodd" transform="matrix(1.00307 0 0 -1 439.829 475.161)"/><path d="M-1.42132 1.92919C-2.03371 2.27869-3.3354 2.30824-3.97862 1.95546-4.57575 1.62092-4.75944 0.846028-4.46866 0.28201-4.46866-0.0259025-4.31548-0.32287-3.96337-0.430129-3.15172-0.670547-1.40608-1.17-0.823853-0.275078-0.349401 0.445451-0.732013 1.54321-1.42132 1.92919" fill="#87524D" fill-rule="evenodd" transform="matrix(1.00307 0 0 -1 430.822 476.159)"/><path d="M-0.585306 1.44856C-1.0021 2.12697-1.79294 2.09159-2.39708 2.06567-3.11577 2.03234-3.8348 1.91551-4.23756 1.05731-4.6834 0.0711731-3.5329-0.598184-2.97217-0.74053-2.4976-0.859426-1.99432-0.981614-1.51975-0.87794-0.685835-0.701858 0.0475521 0.427038-0.585306 1.44856" fill="#87524D" fill-rule="evenodd" transform="matrix(1.00307 0 0 -1 422.815 467.179)"/><path d="M-0.628316 1.274C-0.76614 2.08691-1.63936 2.19358-2.25214 2.20555-3.14023 2.2224-4.79446 1.62357-4.56475 0.286314-4.36578-0.930428-2.87978-0.808416-2.06804-0.759013-1.16441-0.708113-0.429349 0.255624-0.628316 1.274" fill="#87524D" fill-rule="evenodd" transform="matrix(1.00307 0 0 -1 439.829 482.146)"/><path d="M-0.286347 1.885C-0.871263 3.35036-2.80663 3.30408-3.61433 2.40785-4.08769 1.88084-4.31047 0.915205-4.00427 0.105956-3.65619-0.78195-3.02941-0.754188-2.43074-0.779636-1.84582-1.05355-1.17747-1.04106-0.676292-0.42105-0.244785 0.111972 0.019864 1.09473-0.286347 1.885" fill="#87524D" fill-rule="evenodd" transform="matrix(1.00307 0 0 -1 452.84 487.135)"/><path d="M-0.76214 1.55391C-1.36873 2.44739-2.76404 2.13794-3.59831 2.1325-4.03805 2.12707-4.2654 1.73268-4.28068 1.32394-4.50803 1.00362-4.5991 0.582473-4.38671 0.0659257-3.97722-0.932267-2.46092-0.875649-1.70243-0.711222-0.822632-0.523527-0.125306 0.608843-0.76214 1.55391" fill="#87524D" fill-rule="evenodd" transform="matrix(1.00307 0 0 -1 456.843 483.144)"/><path d="M59.0349 20.981C59.2035 19.8961 58.6638 18.75 57.5333 18.2795L11.8984-0.690785C10.9369-1.08521 9.84023-0.849782 9.13163-0.0814809L-4.12869 14.1528C-4.88759 14.9838-4.97204 16.1314-4.49952 17.0083-4.24655 17.5126-3.8247 17.9207-3.25121 18.1544L40.2747 35.8567C41.1184 36.2038 42.0968 36.0463 42.8054 35.4489L58.1912 22.4707C58.6638 22.0629 58.9505 21.5297 59.0349 20.981" fill="#6F5E61" fill-rule="evenodd" transform="matrix(1.00307 0 0 -1 474.858 434.253)"/><path d="M59.0349 21.0873C59.2035 19.9977 58.6638 18.847 57.5333 18.3743L11.8984-0.674829C10.9369-1.07089 9.84023-0.834486 9.13163-0.0629937L-4.12869 14.2304C-4.88759 15.0649-4.97204 16.2172-4.49952 17.0978-1.71579 14.1845 10.7174 1.35654 10.7174 1.35654L59.0349 21.0873" fill="#36303A" fill-rule="evenodd" transform="matrix(1.00307 0 0 -1 474.858 434.253)"/><path d="M-4.75406 12.8872 8.26499-0.883035 50.1229 16.2634 34.7866 29.0501-4.75406 12.8872" fill="#36303A" fill-rule="evenodd" transform="matrix(1.00307 0 0 -1 477.861 430.262)"/><path d="M-1.80873 2.17056C-0.89221 1.24632-0.62081 0.0108565-1.23183-0.591675-1.82579-1.19457-3.06487-0.933653-3.99808-0.0130277-4.9146 0.911216-5.16931 2.14848-4.57498 2.74957-3.96433 3.3521-2.72525 3.09299-1.80873 2.17056" fill="#36303A" fill-rule="evenodd" transform="matrix(1.00307 0 0 -1 523.899 406.316)"/><path d="M8.93537 12.4577C6.57614 8.0102 4.18029 3.57838 1.72816-0.837485-0.296838-0.483124-2.60017-0.0957735-5.03341 0.335207-2.30296 5.24661 0.390497 10.1701 3.02843 15.1269 5.18297 14.155 7.15207 13.26 8.93537 12.4577" fill="#36303A" fill-rule="evenodd" transform="matrix(1.00307 0 0 -1 657.009 410.307)"/><path d="M3.00939 10.6993C6.15863 9.5531 7.91799 6.10828 6.93262 3.00734 5.9476-0.0916988 2.58735-1.67427-0.579417-0.526121-3.72866 0.620495-5.488 4.06531-4.48511 7.16244-3.51727 10.2653-0.139489 11.8459 3.00939 10.6993" fill="#FFFFFF" fill-rule="evenodd" transform="matrix(1.00307 0 0 -1 658.009 409.309)"/><path d="M-3.5811-1.13775C-3.92726-1.13775-4.25462-0.90347-4.29112-0.37215-4.50936 2.51687-5.52906 6.40613-4.36375 9.18304-3.83621 10.5038-2.76195 11.2049-1.85175 12.2435-0.413629 13.895-0.341004 15.9097 0.168474 17.9798 0.241468 18.2342 0.314461 18.5148 0.369022 18.8174 2.09838 16.7067 3.66368 14.849 5.06529 13.2162 4.99267 13.0723 4.90161 12.9191 4.82898 12.7603 4.28265 11.6662 4.26421 10.6589 3.40894 9.60713 2.171 8.03894 0.605697 6.7566-0.63224 5.17758-1.2512 4.39704-1.76068 3.55186-2.08842 2.61289-2.45265 1.61302-2.30703 0.496573-2.65283-0.449867-2.79845-0.88703-3.19881-1.13775-3.5811-1.13775" fill="#F1ADAD" fill-rule="evenodd" transform="matrix(1.00307 0 0 -1 672.021 307.537)"/><path d="M-0.216059-1.13709C-1.59992 0.457318-3.14537 2.27417-4.83462 4.33685-4.49328 5.72889-3.9722 7.57643-3.19912 9.27421-0.503289 7.46977 2.30002 6.14494 5.37313 5.55722 4.85205 4.32261 4.13306 3.22862 3.36034 2.52183 1.99464 1.30182 0.736413 0.482887-0.216059-1.13709M5.91236 7.2802C2.98305 7.80071 0.28723 8.9703-2.44454 10.7309-1.40202 12.4974-0.0185193 13.8295 1.85084 13.8295 2.28222 13.8295 2.71326 13.7608 3.19875 13.6129 6.00206 12.7377 6.5235 9.94302 5.91236 7.2802" fill="#FFCFC7" fill-rule="evenodd" transform="matrix(1.00307 0 0 -1 677.025 293.569)"/><path d="M3.69073-1.10048C0.668055-0.532809-2.08954 0.743046-4.75891 2.48198-4.51133 2.96972-4.28162 3.44372-4.01618 3.88813-1.32968 2.19111 1.33969 1.06351 4.22125 0.559926 4.09728-0.00633878 3.90294-0.567321 3.69073-1.10048" fill="#FFFFFF" fill-rule="evenodd" transform="matrix(1.00307 0 0 -1 679.027 286.584)"/></g></g></g></g></svg>