<svg width="151" height="152" xmlns="http://www.w3.org/2000/svg" xmlns:xlink="http://www.w3.org/1999/xlink" xml:space="preserve" overflow="hidden"><defs><clipPath id="clip0"><rect x="480" y="79" width="151" height="152"/></clipPath><clipPath id="clip1"><rect x="480" y="104" width="151" height="127"/></clipPath><clipPath id="clip2"><rect x="438" y="104" width="208" height="553"/></clipPath><clipPath id="clip3"><rect x="438" y="104" width="208" height="553"/></clipPath></defs><g clip-path="url(#clip0)" transform="translate(-480 -79)"><g clip-path="url(#clip1)"><g clip-path="url(#clip2)"><g clip-path="url(#clip3)"><path d="M-3.75437 55.7428C-3.75437 55.7428 7.51445 57.717 8.70545 55.7428 9.885 53.7682 19.7425 6.17512 18.6621 3.94739 17.5925 1.71993 4.54854-1.31822 3.96408-0.711312 3.36872-0.103291-3.75437 55.7428-3.75437 55.7428" fill="#36303A" fill-rule="evenodd" transform="matrix(1 0 0 -1.00658 626.138 398.955)"/><path d="M20.8551 44.4639 16.4922 8.17705 15.503-0.120857 3.70002-0.201615 2.84257 7.73907-1.49812 48.1031-3.97109 75.052 20.8551 44.4639" fill="#FFAA9C" fill-rule="evenodd" transform="matrix(1 0 0 -1.00658 533.816 628.543)"/><path d="M-1.61543 7.86704C-2.29328 7.87821-3.06663 7.95044-3.85075 7.98217L-3.02441-0.105675 8.37442-0.0225629 9.33821 8.42857C5.70465 7.61827 2.09236 7.82646-1.61543 7.86704" fill="#FFFFFF" fill-rule="evenodd" transform="matrix(1 0 0 -1.00658 540.799 628.543)"/><path d="M20.2057 47.0363 10.6053 9.95932 10.5942 9.95932 7.97115-0.202656-3.84467 0.705646-3.34891 8.89832-0.637212 54.2505 1.39086 81.2577 20.2057 47.0363" fill="#FFAA9C" fill-rule="evenodd" transform="matrix(1 0 0 -1.00658 588.123 624.639)"/><path d="M4.27404 7.2515C1.60041 7.2931-0.984954 7.40649-3.42663 8.43252L-3.89053 0.819714 8.03011-0.101717 10.074 7.88286C8.20684 7.52103 6.3179 7.23127 4.27404 7.2515" fill="#FFFFFF" fill-rule="evenodd" transform="matrix(1 0 0 -1.00658 588.123 624.639)"/><path d="M9.91363 51.2805C10.0499 43.2704 10.6641 35.3516 11.8245 27.537 13.303 25.3448 14.9524 23.2563 16.7836 21.2943 21.777 15.9249 29.887 1.82119 37.2803-0.411758 44.1162-2.47306 51.521-0.179183 55.9458 5.06717 61.3941 11.5312 60.0291 24.2761 57.9704 31.4515 56.5372 36.4259 53.0679 43.0605 49.9401 47.4212 46.6641 52.0171 34.3571 91.6605 19.32 102.257 11.6992 107.613-3.8381 115.209-3.8381 115.209-3.8381 115.209 5.07955 87.1911 5.31828 84.6519 6.36465 73.4059 9.73147 62.6432 9.91363 51.2805" fill="#DCA877" fill-rule="evenodd" transform="matrix(1 0 0 -1.00658 581.141 297.437)"/><path d="M83.7674 1.58494C79.5276-1.77454-3.77078-0.785602-3.77078-0.785602L8.9946 194.123 9.58259 203.023 15.1796 288.456C15.1796 288.456 30.116 279.642 36.9002 272.927 47.3478 262.611 52.4476 224.741 56.088 199.103 58.3042 183.562 61.8887 156.411 66.7619 125.122 67.1465 122.74 67.5195 120.348 67.9039 117.919 69.2495 109.434 70.6966 100.692 72.2233 91.8413 76.1129 69.3045 88.0189 4.94219 83.7674 1.58494" fill="#DCA877" fill-rule="evenodd" transform="matrix(1 0 0 -1.00658 560.194 470.018)"/><path d="M9.89803-0.410969C6.6053 4.96943 1.56449 9.54884-2.91224 14.039-3.46457 14.5928-4.35562 13.7551-3.80301 13.2013 0.606156 8.78699 5.59027 4.27315 8.81546-1.00961 9.22145-1.66754 10.3038-1.07298 9.89803-0.410969" fill="#BA8452" fill-rule="evenodd" transform="matrix(1 0 0 -1.00658 585.796 201.385)"/><path d="M75.7583 141.75C72.5449 159.81 62.2507 209.743 54.6516 239.078 51.4154 251.585 47.7513 268.462 44.9773 277.186 44.1317 279.858 43.365 282.215 42.7113 284.19 41.5047 287.888 40.7156 290.244 40.5914 290.731 40.2757 292.025 40.0953 292.719 40.0953 292.719 40.0953 292.719 31.3573 287.096 24.9642 284.972 24.2766 284.751 23.6225 284.568 23.025 284.435 19.2366 283.606 15.2564 282.556 11.8175 280.616 11.22 280.273 10.6451 279.908 10.0811 279.505 9.34845 278.993 8.63796 278.419 7.99536 277.785 6.42805 276.259 5.27822 274.477 4.40998 272.549 4.31967 272.367 4.24081 272.184 4.17314 271.989 2.82003 268.804 2.2001 265.265 1.76025 261.86 0.846992 255.027-4.63257 237.564-3.68548 230.683-3.0991 226.375 5.16526 197.394 11.581 174.599 15.3918 161.055 18.5487 149.705 19.0562 146.974 20.6121 138.907 19.4508 130.533 22.6755 122.961 24.1636 119.475 26.5542 115.594 27.1405 111.578 27.8508 106.707 25.7309 102.295 24.8966 97.5862 23.0023 86.9366 22.0102 76.1452 20.6574 65.4247 19.3831 55.3167 19.1239 45.1264 18.346 34.9767 17.9512 29.8604 16.057 16.9595 15.2002 11.9055 14.8845 10.1321 14.5235 8.37884 14.1402 6.62668 20.5894 3.23345 29.8012 2.68286 36.352 1.31732 40.8394 0.390514 45.4849-0.241373 50.1526-0.537693 52.9601 2.11208 53.9749 10.1321 55.0008 13.5051 58.0228 23.5733 62.1945 41.4775 64.9342 51.6373 68.9256 66.4443 70.1546 76.9094 72.9055 92.0329 75.7244 107.512 78.509 126.363 75.7583 141.75" fill="#7D4949" fill-rule="evenodd" transform="matrix(1 0 0 -1.00658 560.194 609.802)"/><path d="M71.6174 290.257C59.328 291.032 47.0057 291.319 34.6944 291.074 29.0734 290.96 20.8769 291.018 15.2777 290.316 11.1848 289.805 7.41935 288.366 4.89819 284.947 2.33328 281.484 1.37277 277.098 0.685407 272.927-0.198737 267.643-0.493359 257.395-0.449877 252.042-0.340613 240.159-4.6189 225.949-3.66953 214.125-1.7485 190.155-2.44701 166.242 1.52579 142.392 2.4969 136.58 2.46429 130.789 2.93368 124.907 3.43568 118.606 5.20396 112.439 4.06868 106.25 3.04266 100.623 5.42221 95.2083 4.94196 89.5092 4.4288 83.6976 4.63619 77.8651 5.07296 72.0642 6.07696 58.6098 9.8753 40.4323 9.74427 26.9163 9.68965 20.413 9.89702 10.9064 9.47141 4.41377 12.9422 3.42596 16.3801 2.31664 19.8401 1.44167 29.237-0.909964 36.9209-1.72362 46.5801 2.09293 46.7875 3.22325 46.9728 4.35245 47.1911 5.48165 51.0329 26.1729 58.3893 164.306 58.5966 175.182 58.804 186.119 58.3675 197.039 58.9568 207.971 60.3429 232.866 65.1126 264.714 69.8602 289.134 70.4715 289.098 71.0716 289.078 71.672 289.04 72.4469 288.991 72.3814 290.208 71.6174 290.257" fill="#7D4949" fill-rule="evenodd" transform="matrix(1 0 0 -1.00658 512.869 615.268)"/><path d="M79.2095 4.37808C65.8638 0.797146 52.1974-0.585521 38.4535-0.881973 25.5828-1.16707 12.6129-0.474318-0.224572 0.279144-4.89058 0.550912-5.05622 7.95928-0.346075 7.68752 14.4927 6.81066 29.4859 5.99535 44.3577 6.72527 55.3374 7.24299 66.2398 8.62539 76.9429 11.4653 77.6067 9.46653 78.3693 7.08243 79.2095 4.37808" fill="#36303A" fill-rule="evenodd" transform="matrix(1 0 0 -1.00658 526.058 335.701)"/><path d="M48.3881 132.677C48.3881 132.677 72.1363 108.713 73.8167 82.717 74.8183 67.2064 77.0551 53.4622 78.3686 18.3458 78.869 4.80263 74.696 5.32136 74.696 5.32136 74.696 5.32136 65.2591 0.0627063 38.5617-0.952634 11.8535-1.96909-1.76776 1.30311-1.76776 1.30311-1.76776 1.30311-2.42429 79.976-3.65947 98.8632-4.88369 117.75 1.04773 140.049 1.04773 140.049L48.3881 132.677" fill="#FFFFFF" fill-rule="evenodd" transform="matrix(1 0 0 -1.00658 526.834 326.33)"/><path d="M2.23067 27.6733C2.10362 33.0832 2.53068 38.4118 2.10362 43.8274 1.66471 49.3654 1.04129 54.8903 0.498732 60.4193 0.40633 61.1923-0.863897 61.2013-0.794594 60.4193 0.221527 50.1896 1.203 40.1554 0.948895 29.8754 0.833392 24.8625 1.98812 19.9056 1.52611 14.8939 1.02974 9.49787-0.956296 4.39115-4.02747-0.164118-4.46638-0.826751-3.35785-1.43925-2.90739-0.77886-0.13653 3.33641 1.75711 7.86005 2.54223 12.6926 3.35045 17.7469 2.34587 22.6212 2.23067 27.6733" fill="#DED1D1" fill-rule="evenodd" transform="matrix(1 0 0 -1.00658 574.158 323.207)"/><path d="M54.9979 166.467C54.9336 126.461 53.8407 0.280793 51.5689-0.87821 49.3082-2.03862 29.2814 6.30567 20.2807 9.81828 11.291 13.3392-3.03518 20.2367-3.83892 22.6742-4.66408 25.1118 5.569 153.879 5.569 163.627 5.569 173.375 10.7015 275.14 13.8948 280.464 17.3236 286.179 30.3639 291.273 40.8326 294.574 42.5041 295.1 44.1112 295.587 45.6113 296.013 51.0332 297.584 54.9336 298.475 54.9336 298.475 54.9336 298.475 54.9872 290.127 55.0193 278.27 55.03 275.03 55.0407 271.52 55.0514 267.853 55.0942 250.524 55.0942 229.528 54.9336 215.208 54.6228 186.78 55.0407 185.061 54.9979 166.467" fill="#DCA877" fill-rule="evenodd" transform="matrix(1 0 0 -1.00658 478.734 479.389)"/><path d="M26.3598 36.3532 24.9204 28.4348 23.361 19.8405 22.7068 16.2048C21.8671 11.5922 21.878 0.229081 18.9009-1.3081 15.924-2.84444-4.92594 13.8132-3.85737 22.6957-2.86499 31.0315-1.06576 46.1155-1.06576 46.693L26.3598 36.3532" fill="#FFAA9C" fill-rule="evenodd" transform="matrix(1 0 0 -1.00658 542.35 205.289)"/><path d="M45.9196 51.5203C44.3793 52.0855 42.6964 51.432 41.2105 51.0315 39.6699 50.6178 38.1292 50.1706 36.6106 49.7002 36.0207 49.649 35.4304 49.6096 34.8296 49.6141 32.3493 49.6303 30.6886 50.5381 28.5361 51.5061 25.1161 53.0612 20.4725 51.6612 17.9159 54.925 15.8616 57.5644 15.6976 61.1982 13.6 63.9175 12.2121 65.717 9.85226 68.6806 7.4812 69.1827 4.29069 69.8571 2.76092 66.5821 2.00723 62.8384 0.532033 63.4243-2.25407 60.2607-3.07353 59.2056-3.93665 58.0611-3.92574 56.7452-3.76173 55.394-3.53252 53.4213-3.14993 51.4711-2.36322 49.6359-1.63108 47.927 4.89157 37.1493 8.126 33.2076 10.4859 30.3226 12.9661 27.4266 15.8289 25.0236 18.1015 23.1217 20.7893 21.7118 22.8217 19.5328 25.0506 17.155 25.1598 14.2545 26.7771 11.5014 28.2412 8.98948 30.2405 6.90521 31.4644 4.2471 32.3057 2.46078 32.8192 0.588361 33.147-1.32765 33.7915-0.785416 34.3378-0.110126 34.7532 0.652648 35.4195 1.84334 35.7366 3.16373 35.8894 4.50676 36.0207 5.76287 35.8567 7.15425 36.2284 8.37092 36.698 9.86909 37.8124 10.9036 38.8613 11.9684 43.5049 16.641 45.1111 23.3455 43.4177 29.5218 43.8984 29.8491 44.3465 30.2199 44.7397 30.6957 45.581 31.7564 45.8869 33.0452 46.0837 34.3556 46.3023 35.6924 46.5205 36.9036 46.7937 38.0964 46.9577 38.6658 47.1108 39.2858 47.2636 39.9295 47.4822 40.6716 47.7117 41.4223 48.0067 42.2103 49.1648 45.2711 49.8423 50.0702 45.9196 51.5203" fill="#F5D2B5" fill-rule="evenodd" transform="matrix(1 0 0 -1.00658 530.713 234.964)"/><path d="M47.307 38.22C47.1645 45.3906 46.4522 49.8549 46.4522 49.8549 46.4522 49.8549 37.4437 57.6234 33.6846 59.7816 29.4762 62.172 23.5144 62.3794 18.8237 61.965 9.63992 61.1601 1.92474 53.6965-1.41793 45.4279-3.33595 40.7083-4.54137 34.9027-3.42359 29.8671-2.5469 25.8908-0.0263202 23.3169 3.06435 21.2192 3.60139 19.3538 4.16028 17.4875 4.74101 15.6221 5.59586 12.8169 6.73575 12.0602 8.42329 9.62239 11.1522 5.60998 15.7003 2.82894 20.3142 0.951478 25.0924-0.988182 30.7804-1.74382 35.9862-1.40285 39.0766-1.20756 41.2136 0.537099 42.4851 3.31701 45.8384 10.6708 46.6274 19.6104 47.1208 27.6103 47.263 29.9888 47.318 32.2554 47.3398 34.3424 47.3619 35.7077 47.351 37.0125 47.307 38.22" fill="#FFAA9C" fill-rule="evenodd" transform="matrix(1 0 0 -1.00658 537.695 177.957)"/><path d="M-0.359996 2.37396-0.359996 2.42345-0.359996 2.49285C-0.324904 2.85353-0.359996 3.18491-0.512163 3.43123-0.711219 3.74383-1.08573 3.93185-1.71769 3.90454-2.05682 3.89003-2.32606 3.71738-2.55991 3.53676-3.67166 2.63365-5.16973-0.560636-3.43751-1.3858-1.62391-2.24624-0.512163 1.15029-0.359996 2.37396" fill="#36303A" fill-rule="evenodd" transform="matrix(1 0 0 -1.00658 564.073 149.844)"/><path d="M-0.28243 2.3944-0.28243 2.44219-0.28243 2.51445C-0.254115 2.87346-0.28243 3.20487-0.405374 3.45179-0.566313 3.76414-0.859638 3.9499-1.37028 3.92429-1.64473 3.90865-1.85286 3.73626-2.03243 3.55619-2.93103 2.65327-4.13239-0.541066-2.74202-1.36603-1.29477-2.22656-0.405374 1.17003-0.28243 2.3944" fill="#36303A" fill-rule="evenodd" transform="matrix(1 0 0 -1.00658 582.692 149.844)"/><path d="M0.761221 5.64227C0.00635963 7.50032-0.564901 9.29561-0.942331 11.2718-1.08252 12.0477-2.25767 11.7203-2.1067 10.9457-1.79397 9.28801-1.35211 7.68347-0.737441 6.11625-0.349504 5.1519 0.448493 3.86901 0.394574 2.80545 0.265169 0.729202-1.99886 0.33238-3.45466-0.242785-4.16611-0.526269-3.85338-1.71532-3.13115-1.42986-1.20114-0.663913 1.33276-0.0599189 1.55894 2.42955 1.66678 3.59796 1.19229 4.592 0.761221 5.64227" fill="#F07D67" fill-rule="evenodd" transform="matrix(1 0 0 -1.00658 576.486 162.339)"/><path d="M7.72503 1.71723C7.71407 2.38325 5.4586 1.65504 5.15208 1.58545 3.50964 1.20979 1.72504 1.5291 0.126428 2.00298-0.618092 2.22622-3.23487 3.63986-3.88078 2.83343-4.19853 2.43006-2.04139-0.738994 0.37816-1.41702 1.60451-1.75788 3.9586-1.5214 5.13017-0.969314 5.78703-0.658629 7.72503 1.04783 7.72503 1.71723" fill="#F07D67" fill-rule="evenodd" transform="matrix(1 0 0 -1.00658 569.504 167.805)"/><path d="M8.38163 0.752116C7.89303 1.36302 6.91595 1.82913 6.31284 1.9629 4.0572 2.45824 1.62491 2.61213-0.599627 1.89229-1.75358 1.52023-4.09231 0.72233-3.68702-0.870437-3.63502-1.11949-3.32301-1.27477-3.08418-1.24912-1.15074-1.0362 0.866069-1.51002 2.84106-1.42756 4.15075-1.37295 7.0615-1.8352 8.16347-0.905736 8.84937-0.323793 8.77644 0.261186 8.38163 0.752116" fill="#7D4949" fill-rule="evenodd" transform="matrix(1 0 0 -1.00658 559.418 141.254)"/><path d="M2.91018 2.34653C1.49628 2.46761 0.0369951 2.3703-1.36592 2.16683-2.02201 2.05874-3.10788 1.64849-3.66222 1.07181-4.11483 0.601285-4.22785 0.0243278-3.52667-0.602114-2.39543-1.60094 0.761-1.29905 2.17491-1.43202 2.42376-1.4558 2.69514-1.46769 2.94429-1.47957 2.96683-0.132421 2.95556 1.1553 2.91018 2.34653" fill="#7D4949" fill-rule="evenodd" transform="matrix(1 0 0 -1.00658 581.917 142.035)"/><path d="M32.6053 46.5552C25.3996 47.8852 16.0833 48.0408 9.98159 43.3851 6.46072 40.6938 3.10386 37.3081 0.304508 33.8696-1.88247 31.1676-3.7305 28.2463-3.83966 24.6741-3.96 21.1525-3.18362 17.1517-1.74028 13.9522-1.01876 12.3721-0.0344251 11.0769 1.04814 9.75226 3.09294 7.24632 4.27375 5.06348 5.36723 1.97586 5.46547 1.69961 6.5153-2.15087 6.76691-1.41887 7.70702 1.2001 8.73501 6.5418 9.15062 9.28561 7.01824 12.3886 5.55308 16.0902 6.71205 19.7269 7.29168 21.5468 8.64766 23.3472 10.7798 23.0414 11.5889 22.9242 12.1577 22.5495 12.5842 22.0334 12.8137 22.8025 12.934 23.6133 13.1199 24.3827 13.2075 24.7663 15.1647 16.5403 15.3833 17.6855 15.6567 26.6247 21.5941 35.2152 27.4441 36.5499 29.4452 37.0057 31.4463 37.4045 33.4693 36.8534 34.4752 36.5794 35.3828 36.2014 36.4215 36.0249 39.9972 35.418 43.1464 35.0332 46.208 32.9743 46.4266 32.3727 47.4436 32.6938 47.3451 33.416 46.2956 40.8879 39.5379 45.2752 32.6053 46.5552" fill="#7D4949" fill-rule="evenodd" transform="matrix(1 0 0 -1.00658 533.816 162.339)"/><path d="M27.7439 14.3318C27.5572 13.4874 27.0629 12.6638 26.5462 12.1626 24.953 10.6019 22.6455 11.0313 20.6346 11.3812 18.8985 11.686 16.514 12.8086 16.0635 14.7116 15.3603 17.5493 18.5578 17.8054 20.5246 17.7845 22.096 17.767 23.6233 17.5428 25.1727 17.3 25.942 17.1797 26.766 17.121 27.3374 16.514 27.865 15.9411 27.9417 15.1266 27.7439 14.3318ZM33.3039 15.1509C33.1281 15.8428 32.5128 16.2601 32.0075 16.7029 31.4799 17.1687 31.381 17.6907 31.0513 18.2932 30.6778 18.9988 30.1174 19.5683 29.4361 19.981 27.8209 20.9579 25.8979 21.2659 24.0409 21.2572 22.118 21.2462 20.4367 22.0441 18.4589 21.6601 16.5031 21.2781 14.1736 20.4116 12.8768 18.7571 11.6355 18.2924 9.64636 18.1863 8.82237 18.3133 8.20707 18.4093 7.52583 18.6069 6.92128 18.7933 3.6689 19.81 3.42719 21.1555 3.05367 24.0896 2.70207 26.7618 1.0208 28.6857 0.877737 31.4099 0.537379 38.1134 0.757164 44.7485 0.0317593 51.4542-0.0120854 51.9122-0.451656 52.2247-0.891229 51.985-4.01179 50.2699-4.03371 46.9637-3.792 43.7572-3.41848 38.8683-3.0888 33.9707-2.61635 29.092-2.17678 24.5532-1.57251 20.0163-0.517423 15.5769 0.196739 12.6065 0.998872 9.33929 2.86677 6.84575 4.42719 2.3829 8.96512 1.42155 13.1408-0.407408 17.1405-2.16465 21.6786-1.65137 25.3155 0.558456L25.3484 0.566079C28.9417 1.55199 30.7548 5.02328 31.8096 8.31499 32.3481 9.95847 32.8754 11.6242 33.1612 13.3295 33.2601 13.8693 33.4468 14.6034 33.3039 15.1509" fill="#7D4949" fill-rule="evenodd" transform="matrix(1 0 0 -1.00658 549.332 184.204)"/><path d="M57.5405 19.6719C58.3754 23.4658 59.0349 27.3707 55.8593 30.2643 55.3759 32.4959 52.9694 34.3098 51.0684 35.3787 49.8816 36.0547 48.5413 36.5173 47.1675 36.624 45.2008 36.7755 44.4426 35.9555 42.6294 37.0084 39.8935 38.6042 36.8718 39.8779 33.6853 40.2893 31.883 40.5226 30.4767 40.2492 28.7953 39.5983 27.3449 39.0343 26.0046 38.7252 24.576 38.5596 22.5652 38.8286 20.5324 38.6109 18.5984 37.7768 17.071 37.126 15.7855 36.0742 14.3021 35.3646 13.1814 34.8266 11.9286 34.6808 10.7749 34.2346 9.63208 33.7948 8.66511 32.9577 7.70928 32.2162 5.68736 30.655 3.91845 28.8263 2.81961 26.5172 1.325 23.3677-0.114475 20.852-2.27914 18.1684-3.25707 16.9624-3.96016 15.9062-3.81742 14.2907-3.60862 11.9828-3.14708 9.54752-2.224 7.41072-1.64183 6.07832 0.951626-1.52263 0.951626-1.52263 0.951626-1.52263 3.56664 5.4544 4.39091 6.63346 7.37957 10.878 8.5551 16.4267 9.90695 21.466 13.6208 22.2257 17.3128 23.3286 20.9827 24.204 25.0814 25.1814 29.7184 26.2613 33.8499 24.8745 35.7399 24.2442 37.4982 23.592 39.4429 23.1511 39.9814 23.0294 41.0472 22.8158 42.124 22.4762L42.1461 22.436C43.3547 20.4874 44.9372 19.0438 46.3214 17.2561 47.1567 16.1729 47.4094 14.4737 48.75 13.8501 49.4532 13.5234 50.2223 13.8468 50.9145 13.6377 53.3318 12.9051 52.233 11.8796 53.2991 10.7877 53.8485 10.2325 54.3979 10.0941 55.1561 10.3077 56.0901 10.5688 57.1448 11.8805 57.4857 12.7328 57.7933 13.481 57.7933 13.8684 57.7163 14.7033 57.5184 16.5781 57.112 17.7256 57.5405 19.6719" fill="#7D4949" fill-rule="evenodd" transform="matrix(1 0 0 -1.00658 531.489 145.94)"/><path d="M3.07398 9.91611C2.40609 13.2113 0.135567 15.3511-3.34853 15.5156-4.16107 15.5529-4.14998 14.3405-3.34853 14.3035-0.999842 14.1935 0.981362 12.9007 1.69388 10.6091 2.01645 9.5379 1.92749 8.41173 2.2836 7.34684 3.3076 4.38929 5.19984 2.6692 3.40792-0.637936 3.02936-1.32569 4.10906-1.93858 4.47654-1.24943 6.79169 3.01711 3.89761 5.77148 3.07398 9.91611" fill="#522E2E" fill-rule="evenodd" transform="matrix(1 0 0 -1.00658 578.813 127.198)"/><path d="M10.7114-0.544636C6.81708 3.09023 2.00605 5.74159-3.42002 4.19331-4.1642 3.9812-3.85142 2.82205-3.10697 3.03416 1.90898 4.4659 6.29939 1.93329 9.85932-1.39556 10.4202-1.92362 11.2722-1.07574 10.7114-0.544636" fill="#522E2E" fill-rule="evenodd" transform="matrix(1 0 0 -1.00658 567.176 116.265)"/><path d="M11.0233 7.9267 10.9802 7.92553-1.81938 7.39601C-2.04412 7.38624-2.24774 7.29049-2.39757 7.12356-2.54768 6.95803-2.62259 6.74225-2.62259 6.51558L-2.39757 1.08309C-2.39757 0.856426-2.30125 0.648459-2.14072 0.495766-1.96921 0.342234-1.75516 0.247325-1.54085 0.272448L11.2694 0.804221C11.4838 0.81288 11.6978 0.908902 11.8479 1.07555 11.9978 1.23997 12.0729 1.45687 12.0619 1.68242L11.8479 7.11603C11.8265 7.56937 11.4624 7.9267 11.0233 7.9267ZM-1.57295-0.943518C-2.6547-0.943518-3.55451-0.0728574-3.59732 1.03424L-3.81136 6.46673C-3.86515 7.60425-2.98674 8.56309-1.87289 8.60972L10.9267 9.14038C12.0512 9.18615 12.9938 8.30048 13.0474 7.16515L13.251 1.73239C13.2831 1.18331 13.0795 0.655996 12.726 0.251791 12.3512-0.153531 11.8586-0.387736 11.3123-0.411742L-1.48733-0.942401-1.57295-0.943518" fill="#F5D2B5" fill-rule="evenodd" transform="matrix(1 0 0 -1.00658 566.4 336.482)"/><path d="M-0.561396-0.924053-4.00164 11.9668-2.79807 12.2646 0.653669-0.626256-0.561396-0.924053" fill="#7D4949" fill-rule="evenodd" transform="matrix(1 0 0 -1.00658 600.536 336.482)"/><path d="M-1.89267-0.994916-2.7356-0.902618-2.03426 12.9695-1.18392 12.8775-1.89267-0.994916" fill="#7D4949" fill-rule="evenodd" transform="matrix(1 0 0 -1.00658 543.902 340.387)"/><path d="M30.7358 100.071C30.4789 102.714 30.7573 106.33 27.3842 106.323 24.836 106.316 22.2233 105.697 19.7179 104.786 19.5037 104.826 19.3003 104.773 19.161 104.587 17.4157 103.918 15.7238 103.116 14.1712 102.275L14.0966 102.208C14.2783 103.437 14.4606 104.67 14.664 105.901 14.7925 106.664 13.6361 106.991 13.5076 106.222 13.4112 105.655 13.3363 105.084 13.24 104.516L13.24 104.781C13.2292 105.559 12.0298 105.562 12.0406 104.781 12.062 102.246 12.0835 99.7111 12.105 97.1773 11.9442 96.1711 11.7837 95.1664 11.6337 94.1602 11.5158 93.7056 11.4196 93.2277 11.3983 92.704 11.3876 92.2975 11.8052 92.0733 12.1369 92.1167 12.1369 91.3882 12.1477 90.6582 12.1477 89.9305 12.1906 85.0933 12.3191 80.1816 11.2805 75.43 10.306 70.9978 8.29311 66.909 7.08328 62.5493 5.93755 58.3986 5.76605 54.1083 5.88388 49.8224 6.01244 44.9766 6.51565 40.1191 6.13025 35.2733 5.75532 30.5703 4.56693 25.9542 2.88578 21.5631 1.24757 17.2729-1.22583 13.3408-2.75695 9.01702-3.83826 5.9786-3.99902 2.72134-3.62436-0.469935-2.30714-0.817379-0.87264-1.02088 0.819241-1.022 3.93515-1.02645 7.01886-0.735249 10.1348-0.96047 13.8181-1.22662 16.5056-1.58631 19.9428 0.281738 21.5059 1.1264 22.9514 2.09104 24.472 2.95185 24.6862 4.85136 24.8145 6.76368 24.8682 8.67155 25.0286 13.4742 24.793 18.281 24.9752 23.0822 25.1572 28.4759 25.9602 33.8125 26.6668 39.1508 27.2667 43.6405 27.8125 48.1506 27.8555 52.6865 27.8877 58.0284 27.0632 63.1058 28.2194 68.4054 30.5216 78.9186 31.7744 89.2873 30.7358 100.071" fill="#F5D2B5" fill-rule="evenodd" transform="matrix(1 0 0 -1.00658 541.574 306.027)"/><path d="M22.234 6.68683C22.0541 7.32965 21.739 7.77991 21.458 8.38109 20.5021 10.3776 21.0868 11.6114 21.3454 13.6222 21.8966 17.8071 19.4899 20.6946 18.2527 24.5468 16.8357 29.0024 17.4319 33.7895 15.9925 38.2571 15.2726 40.4831 14.1931 42.6058 13.6081 44.8704 12.9221 47.4677 12.8998 50.0916 12.9671 52.7549 13.1808 60.3891 11.7526 67.1607 6.60185 72.7819 6.95073 73.407 7.37781 74.0004 7.92895 74.5419 8.49118 75.0957 7.61412 75.9593 7.04067 75.4035 6.5119 74.8783 6.07337 74.3101 5.7136 73.7101 5.46612 73.9598 5.20746 74.2102 4.94881 74.454 4.35273 74.9891 3.47565 74.1299 4.07145 73.5937 4.4315 73.2618 4.7801 72.9204 5.12869 72.5709 3.57677 69.057 3.90273 64.7302 2.22735 61.1998 0.945248 58.4872-0.584336 56.1104-1.34913 53.1781-2.17006 49.9695-2.50749 46.6107-2.93457 43.3343-3.8907 36.1067-3.86807 29.0726-3.29462 21.8185-2.70971 14.3559-2.10246 6.89979-3.94685-0.450565-4.04796-0.808775-3.76696-1.2529-3.35077-1.221 1.39496-0.86167 6.10717-0.278175 10.7856 0.589931 13.4844 1.08975 16.1498 1.66541 18.8151 2.35553 19.9622 2.65777 21.3004 2.84555 21.9977 3.91796 22.5376 4.74968 22.47 5.76919 22.234 6.68683" fill="#F5D2B5" fill-rule="evenodd" transform="matrix(1 0 0 -1.00658 567.952 272.448)"/><path d="M-3.88773 24.2232C-3.88773 24.2232-1.64557 28.4171-1.50903 28.1618-1.34955 27.9054 29.1747 16.5481 29.6413 16.9361 30.0965 17.323 38.8826 35.3686 39.7249 35.1831 40.5786 34.9968 42.6613 33.5451 42.6613 33.5451 42.6613 33.5451 29.4821-1.27867 29.0152-1.27867 28.5486-1.27867-3.88773 24.2232-3.88773 24.2232" fill="#F8F0EC" fill-rule="evenodd" transform="matrix(1 0 0 -1.00658 589.675 227.936)"/><path d="M4.39923 57.8846C5.6169 59.5136 39.7383 45.4985 40.5391 45.9049 41.3509 46.3091 51.725 68.2414 52.751 67.8349 53.766 67.4296 39.1182 16.0536 38.7123 14.226 38.3065 12.3973 32.0031-1.20698 31.1909-1.20698 30.3792-1.20698-3.96782 9.45403-3.83244 10.4696-3.69704 11.4854 3.17006 56.2563 4.39923 57.8846" fill="#36303A" fill-rule="evenodd" transform="matrix(1 0 0 -1.00658 580.365 260.734)"/><path d="M-3.14322-1.17642-3.26136-1.16311C-3.58328-1.09102-3.77632-0.769955-3.71189-0.445282L5.20148 41.7938C5.27638 42.1207 5.58756 42.3267 5.89848 42.2546 6.2204 42.185 6.41344 41.8637 6.34901 41.5371L-2.56409-0.702303C-2.62853-0.98483-2.86453-1.17642-3.14322-1.17642" fill="#635E66" fill-rule="evenodd" transform="matrix(1 0 0 -1.00658 615.276 258.391)"/><path d="M7.06801-1.28388 6.87746-1.25207-3.53159 2.18855C-3.84539 2.29653-4.02487 2.64004-3.9127 2.95815-3.81188 3.27626-3.45321 3.44369-3.13941 3.34016L7.26964-0.101572C7.5948-0.208167 7.76292-0.553066 7.66182-0.870057 7.57236-1.12316 7.32587-1.28388 7.06801-1.28388" fill="#635E66" fill-rule="evenodd" transform="matrix(1 0 0 -1.00658 591.226 210.755)"/><path d="M12.4498 10.8439 10.0057-1.19886-3.84252 3.39321-1.82812 15.0934 12.4498 10.8439" fill="#635E66" fill-rule="evenodd" transform="matrix(1 0 0 -1.00658 598.209 257.61)"/><path d="M25.0107-1.1864 24.821-1.15705-3.45978 7.77813C-3.77171 7.87805-3.939 8.20568-3.82738 8.50467-3.72722 8.80903-3.37053 8.97008-3.06979 8.86907L25.1998-0.0658377C25.5232-0.166048 25.6902-0.492328 25.5898-0.792429 25.512-1.03489 25.2669-1.1864 25.0107-1.1864" fill="#635E66" fill-rule="evenodd" transform="matrix(1 0 0 -1.00658 590.45 219.346)"/><path d="M20.6939 12.7789C19.7319 14.887 18.0573 17.8329 16.0656 19.1901 12.9764 21.3014 9.18568 20.792 5.96088 19.3804 3.18863 18.1665-0.613416 16.8479-2.68433 14.5675-3.78198 13.3668-3.72516 11.5985-2.6278 10.87-3.39725 10.2509-3.9742 9.48375-3.89505 8.47225-3.79328 7.39118-2.98991 6.81542-2.03925 6.65388-2.06187 5.50983-1.4281 4.22771-0.477729 3.79224 0.189961 3.48379 0.914185 3.38438 1.66103 3.40978 1.87586 2.51094 2.92828 2.3795 3.70904 2.27209 4.79538 2.12076 5.8478 2.41043 6.89994 2.35189 7.92972 2.29334 8.95953 2.00698 9.66118 1.31277 10.2946 0.691456 10.5211-0.0833943 11.3358-0.522181 12.1391-0.948817 13.0671-1.10925 13.9723-1.11368 15.7715-1.12472 17.7178-0.560841 19.121 0.561117 22.425 3.22062 22.0855 9.75249 20.6939 12.7789" fill="#FFAA9C" fill-rule="evenodd" transform="matrix(1 0 0 -1.00658 602.863 266.981)"/><path d="M12.383 1.16772C7.82056-2.39998 2.05972-1.15629 0.0918716 0.595711-1.10628 1.66377-2.2719 5.28286-3.00824 7.99272-3.48127 9.7815-3.77794 11.1618-3.77794 11.1618L3.56602 23.7051C3.56602 23.7051 6.57809 20.6714 9.74465 16.8915 10.5032 15.9845 11.2616 15.0393 11.9873 14.0714 15.7472 9.0984 15.7031 3.76617 12.383 1.16772" fill="#FFAA9C" fill-rule="evenodd" transform="matrix(1 0 0 -1.00658 617.604 277.133)"/><path d="M27.2736-0.994489C29.6618-0.59877 32.0608-0.249604 34.4169 0.327009 36.9122 0.938398 39.3754 1.72142 41.8385 2.49913 41.6886 2.91504 41.5603 3.22382 41.5067 3.34666 40.2537 6.23954 39.4503 9.69415 37.5762 12.2578 37.4476 12.4409 37.3084 12.6123 37.1693 12.7825 36.2053 13.9296 34.8024 14.9188 33.6885 15.9326 32.6177 16.9091 31.5467 17.8857 30.4756 18.8622 28.2694 20.8652 26.0739 22.8671 23.8785 24.869 23.311 25.3822 17.9453 30.1424 13.9827 33.7313 11.5516 35.929 9.65621 37.6863 9.65621 37.7965L-3.93446 20.8282C-3.93446 20.8282-2.53157 20.0716-0.336105 18.8866 4.601 16.2383 13.4902 11.4156 19.4234 7.99799 22.5613 6.17924 24.8638 4.76239 25.3029 4.27468 26.3203 3.14669 26.9414 0.712073 27.2736-0.994489" fill="#FFAA9C" fill-rule="evenodd" transform="matrix(1 0 0 -1.00658 478.734 350.539)"/><path d="M26.3728 9.803 15.5172-1.00561C9.6981 2.39432 0.963627 7.19274-3.88405 9.82728-0.697423 13.2649 7.44113 22.0341 10.1681 24.5965 14.0652 21.026 19.3308 16.2892 19.8847 15.7789 22.0472 13.7867 24.1996 11.7953 26.3728 9.803" fill="#FFFFFF" fill-rule="evenodd" transform="matrix(1 0 0 -1.00658 482.613 341.168)"/><path d="M62.6986 77.137C61.2394 97.4132 54.615 138.437 54.615 138.437 54.615 138.437 42.3423 130.889 33.8596 115.412 28.1903 105.089 1.54547 59.7698-0.795719 55.3927-5.80322 46.0692-4.37547 36.0073 1.32517 27.5216 3.67672 24.0173 5.7239 20.5876 8.73695 17.5907 12.2118 14.1296 16.1803 11.4369 20.1695 8.61981 22.6579 6.8587 25.2298 5.18778 27.8125 3.56614 28.663 3.03661 35.0248-1.57011 35.6338-1.18647 37.5759 0.0198819 39.4238 1.50627 41.1349 2.84451 45.9641 6.6162 50.216 11.0258 53.9325 15.8812 54.3103 15.6642 54.8563 15.9725 54.8249 16.4141 54.6253 19.503 54.3733 22.7261 55.2551 25.7387 55.9901 28.2413 57.5335 30.2836 58.8876 32.4703 61.4283 36.56 62.9716 41.0671 63.7485 45.8133 65.4386 56.2476 63.4545 66.7164 62.6986 77.137" fill="#DCA877" fill-rule="evenodd" transform="matrix(1 0 0 -1.00658 442.271 332.578)"/><path d="M11.6087 1.1664C7.04787-2.36788 1.28903-1.13585-0.678411 0.599749-1.87615 1.6578-3.04109 5.243-3.77746 7.92747-2.15085 7.58174 2.64067 6.20656 6.34432 9.22424 8.66325 11.0953 8.68513 14.6011 8.97101 16.7429 9.72929 15.8444 10.4877 14.908 11.2129 13.9492 14.9715 9.02284 14.9275 3.74051 11.6087 1.1664" fill="#FFFFFF" fill-rule="evenodd" transform="matrix(1 0 0 -1.00658 618.38 277.133)"/><path d="M-1.6202 29.0478C-1.44843 29.5014-1.15919 29.9328-0.698188 30.3547 0.244978 31.1995 1.58456 31.7031 2.84927 31.7239 6.88973 31.8056 11.166 31.8056 11.8734 30.3244 12.6131 28.7492 12.988 27.0414 14.0598 22.7292 15.121 18.4064 17.0394 9.59841 17.0716 7.42609 17.1037 5.26451 16.9216 0.0883315 7.62913-0.0249141 2.25964-0.0860669 1.45595-0.333509-2.12379 2.68137-3.54912 3.87612-3.9564 6.9213-3.86008 8.4963-3.73147 10.8017-3.54912 13.096-3.32419 15.3819-3.0884 17.9639-2.7883 20.547-2.47762 23.1206-2.32729 24.4373-2.16666 25.7441-2.00576 27.051-1.89858 27.8129-1.83455 28.4516-1.6202 29.0478" fill="#36303A" fill-rule="evenodd" transform="matrix(1 0 0 -1.00658 538.471 655.875)"/><path d="M34.338 1.73889C34.0567 1.09441 33.6967 0.417242 33.0557 0.120098 32.6959-0.0338304 32.2796-0.0541287 31.8861-0.0541287 30.1876-0.0236813 28.512 0.232584 26.8361 0.539878 22.9108 1.26751 19.0079 2.24155 15.2064 3.50258 13.7329 3.98381 12.2369 4.52708 10.9435 5.40779 9.61626 6.33024 8.53656 7.59127 7.35542 8.70794 5.74715 10.2244 3.90266 11.4953 1.83322 12.2331 0.337156 12.7764-1.28238 13.0318-2.72206 13.7191-3.1046 13.9035-3.48686 14.1386-3.70054 14.5076-3.97032 14.9787-3.8804 15.5739-3.79047 16.1069-3.49813 17.7469-3.16069 19.3758-2.76716 20.9955-2.56448 21.8243-2.35079 22.6647-2.11456 23.4958-1.96853 24.0594-1.8335 25.381-1.43968 25.8016-0.989764 26.3136-0.16886 25.8016 0.550838 25.6274 1.36075 25.4115 2.17066 25.2268 2.99156 25.1045 4.57754 24.8897 6.1858 24.8693 7.70441 25.2888 9.31268 25.75 10.7411 26.6319 12.2369 27.3178 13.7442 28.0152 15.094 28.1481 16.1172 27.1954 16.4547 26.8569 17.2646 25.3404 18.2318 23.4036 18.4004 23.0447 18.5805 22.6858 18.7604 22.307 19.1652 21.5274 19.5703 20.6975 19.9751 19.8672 20.1552 19.4982 20.3351 19.1396 20.5149 18.7717 21.8985 16.0249 23.1919 13.4942 23.8555 12.8485 25.2165 11.4953 26.4422 9.98818 28.0169 8.92276 29.7715 7.73392 31.8861 7.17036 33.6181 5.97136 33.9668 5.71509 34.3268 5.43824 34.574 5.08049L34.6755 4.88596C35.1815 3.91193 34.7767 2.73321 34.338 1.73889" fill="#36303A" fill-rule="evenodd" transform="matrix(1 0 0 -1.00658 584.244 648.847)"/><path d="M-3.42779 6.15007C-3.42779 6.15007-4.35994 2.71435-4.08021 2.52335-3.78889 2.33455 4.15831-0.162965 4.53129-0.0530392 4.88081 0.0568866 5.95312 3.70313 5.95312 3.70313L-3.42779 6.15007" fill="#36303A" fill-rule="evenodd" transform="matrix(1 0 0 -1.00658 583.468 639.476)"/><path d="M1.44016 1.93213C-0.0453098 1.29996-1.55344 0.636656-3.03862-0.0151452-3.76444-0.352545-4.39935 0.697797-3.66235 1.03492-2.15422 1.69709-0.634911 2.37021 0.895868 3.02229 1.06593 2.6661 1.24745 2.30907 1.44016 1.93213" fill="#F5D2B5" fill-rule="evenodd" transform="matrix(1 0 0 -1.00658 601.312 628.543)"/><path d="M1.01272 1.81345C-0.303109 1.19079-1.61868 0.566568-2.95518-0.0330342-3.63888-0.338756-3.93937 0.974822-3.25568 1.26964-2.00188 1.8468-0.74835 2.42521 0.50492 3.02481 0.681079 2.6178 0.836557 2.22046 1.01272 1.81345" fill="#F5D2B5" fill-rule="evenodd" transform="matrix(1 0 0 -1.00658 603.639 631.667)"/><path d="M4.23836 1.23003C1.70252 1.66797-0.802282 1.46811-3.32759 1.03907-4.07294 0.915442-3.80362-0.198543-3.05855-0.0649587-0.646844 0.343914 1.75433 0.506573 4.18654 0.0877466 4.92136-0.0369321 4.97317 1.09644 4.23836 1.23003" fill="#F5D2B5" fill-rule="evenodd" transform="matrix(1 0 0 -1.00658 543.902 632.448)"/><path d="M4.23836 1.24087C1.70252 1.6783-0.802282 1.48862-3.32759 1.06008-4.07294 0.936862-3.80362-0.176071-3.05855-0.0525858-0.646844 0.356851 1.75433 0.528474 4.18654 0.10988 4.92136-0.0235459 4.97317 1.11739 4.23836 1.24087" fill="#F5D2B5" fill-rule="evenodd" transform="matrix(1 0 0 -1.00658 543.902 637.914)"/><path d="M7.77471 5.83175C3.53413 4.63807-0.283413 2.6344-3.67793-0.135819-4.27917-0.628266-3.41103-1.46531-2.80979-0.977243 0.417985 1.66563 4.05731 3.54442 8.09753 4.68481 8.85433 4.8955 8.54269 6.04354 7.77471 5.83175" fill="#F07D67" fill-rule="evenodd" transform="matrix(1 0 0 -1.00658 605.191 254.487)"/><path d="M7.81451 5.14608C3.75841 3.90186-0.0540257 2.19796-3.58937 0.0169229-4.2321-0.379123-3.62251-1.33211-2.97977-0.933029 0.489016 1.19799 4.16833 2.86957 8.12499 4.08575 8.86744 4.31079 8.5572 5.3734 7.81451 5.14608" fill="#F07D67" fill-rule="evenodd" transform="matrix(1 0 0 -1.00658 605.967 258.391)"/><path d="M5.5775 4.22101C2.47506 2.99147-0.540173 1.58553-3.49007-0.0037654-4.17595-0.371616-3.57728-1.45808-2.90233-1.09254-0.0393648 0.448372 2.88867 1.81521 5.88231 3.00537 6.60072 3.28807 6.29591 4.50718 5.5775 4.22101" fill="#F07D67" fill-rule="evenodd" transform="matrix(1 0 0 -1.00658 609.07 262.296)"/><path d="M6.47006 2.45083C3.97888-1.03849 0.213267-0.0885806-3.0242 1.61514-3.74753 1.98927-4.37901 0.893672-3.66716 0.519536 0.282156-1.54783 4.62184-2.29027 7.53784 1.81095 8.02003 2.47413 6.92932 3.10556 6.47006 2.45083" fill="#F07D67" fill-rule="evenodd" transform="matrix(1 0 0 -1.00658 616.052 266.2)"/><path d="M4.81181 90.306C4.64794 91.0764 3.47792 90.7497 3.63116 89.9794 5.22736 82.5184 4.89934 74.8453 4.86662 67.2617 4.85572 63.6719 4.84453 60.0841 4.82272 56.4943 4.81181 54.2187 5.03049 51.8715 3.09536 50.2207 2.02405 49.31 0.241891 49.0987-1.12445 48.8635-1.31041 61.8911-1.82439 74.9137-2.67702 87.9204-2.73155 88.7024-3.9452 88.707-3.89039 87.9204-1.96645 58.5818-1.71505 29.1582-3.12529-0.210154-3.15801-0.9976-1.94435-0.996754-1.90073-0.210154-1.14653 15.7411-0.873044 31.7088-1.10263 47.6701L-0.895139 47.6645C1.43373 48.0758 4.2433 48.6984 5.42423 51.0247 6.00365 52.1728 6.00365 53.4487 6.03637 54.6992 6.10181 57.2882 6.05818 59.8872 6.06909 62.4751 6.0909 71.713 6.74694 81.2127 4.81181 90.306" fill="#522E2E" fill-rule="evenodd" transform="matrix(1 0 0 -1.00658 575.71 428.63)"/><path d="M6.63451 13.3335C2.41186 9.61339-1.09576 5.29833-3.84392 0.427983-4.23511-0.24686-3.17385-0.85153-2.79398-0.176685-0.0794803 4.60269 3.36138 8.82679 7.51701 12.477 8.09768 13.0003 7.22652 13.8483 6.63451 13.3335" fill="#522E2E" fill-rule="evenodd" transform="matrix(1 0 0 -1.00658 592.778 496.569)"/><path d="M6.52262 21.8802C3.7899 14.4887 0.334608 7.41679-3.81196 0.673131-4.21584 0.0148182-3.17403-0.583673-2.75954 0.0743655 1.44038 6.8976 4.92779 14.0699 7.69207 21.5616 7.96828 22.2885 6.78825 22.5988 6.52262 21.8802" fill="#522E2E" fill-rule="evenodd" transform="matrix(1 0 0 -1.00658 527.61 599.65)"/><path d="M3.72338 18.5714C1.25074 12.5263-1.23241 6.48148-3.69428 0.435258-3.99153-0.288022-2.98334-0.909778-2.68635-0.1865-0.213712 5.8586 2.26944 11.9045 4.73158 17.9496 5.02856 18.6631 4.02037 19.2849 3.72338 18.5714" fill="#522E2E" fill-rule="evenodd" transform="matrix(1 0 0 -1.00658 590.45 489.541)"/><path d="M-2.47689 0.803655-2.47689-0.469006C-2.47689-1.17164-1.70088-1.17264-1.70088-0.469006L-1.70088 0.803655C-1.70088 1.50628-2.47689 1.50728-2.47689 0.803655" fill="#DED1D1" fill-rule="evenodd" transform="matrix(1 0 0 -1.00658 583.468 275.571)"/><path d="M-4.95116 2.11868-4.95116-0.497593C-4.95116-1.33893-3.3995-1.34014-3.3995-0.497593L-3.3995 2.11868C-3.3995 2.96032-4.95116 2.96152-4.95116 2.11868" fill="#DED1D1" fill-rule="evenodd" transform="matrix(1 0 0 -1.00658 583.468 296.656)"/><path d="M-2.66933 1.88619C-3.07887 1.21742-3.27001 0.435862-3.25182-0.386283-3.23364-1.14659-2.21434-1.14986-2.23253-0.386283-2.25094 0.244355-2.10526 0.7772-1.79595 1.28851-1.41368 1.90853-2.2873 2.50103-2.66933 1.88619" fill="#DED1D1" fill-rule="evenodd" transform="matrix(1 0 0 -1.00658 581.917 320.083)"/><path d="M-1.64676 0.0194116C-2.24421 0.498752-2.75796 1.03758-3.18769 1.68255-3.66584 2.41612-4.88416 1.73389-4.39446 0.994373-3.90476 0.255168-3.33136-0.394493-2.62648-0.943968-1.93346-1.48968-0.941874-0.529748-1.64676 0.0194116" fill="#DED1D1" fill-rule="evenodd" transform="matrix(1 0 0 -1.00658 498.905 338.825)"/><path d="M-2.25187-0.161176C-2.43422 0.147681-2.5306 0.448391-2.55203 0.801297-2.58416 1.50991-3.75267 1.51476-3.72053 0.801297-3.67769 0.252841-3.52775-0.241637-3.24874-0.720838-2.88432-1.34467-1.87647-0.785005-2.25187-0.161176" fill="#DED1D1" fill-rule="evenodd" transform="matrix(1 0 0 -1.00658 627.689 270.105)"/><path d="M18.2387-0.243398C13.921 1.68661 9.53891 3.52167 5.28568 5.59534 3.14833 6.63739 1.07546 7.78961-0.803981 9.25-2.46878 10.5329-2.65147 11.0197-1.964 13.0035-1.60965 14.0424-0.889949 15.0642-0.385164 16.0378 3.9755 24.5438 7.89559 33.2529 11.4401 42.1237 11.73 42.8567 10.5485 43.1744 10.2586 42.4479 8.02453 36.8531 5.6403 31.3206 3.06265 25.865 1.78442 23.1133 0.441722 20.3827-0.932936 17.6714-1.79205 15.9713-3.68253 13.67-3.91866 11.7998-4.31626 8.79871 0.721121 6.60725 2.81548 5.47336 7.58421 2.91092 12.675 0.903448 17.6157-1.30263 18.3354-1.6235 18.9581-0.566521 18.2387-0.243398" fill="#BA8452" fill-rule="evenodd" transform="matrix(1 0 0 -1.00658 512.869 228.716)"/><path d="M12.6615 18.6584C11.0811 25.5274 7.79551 31.6643 5.92382 38.4088 4.20818 44.5819 2.73154 50.6443-0.0238168 56.45-0.824555 58.108-1.86428 59.7353-2.36334 61.5129-3.08085 64.0534-1.95791 66.0406-1.02221 68.2711 0.412825 71.7023 1.85798 75.1327 3.28261 78.5625 3.58429 79.277 2.5651 79.8992 2.26369 79.1777 0.818256 75.7486-0.616499 72.3173-2.05153 68.8869-3.02884 66.5501-4.25581 64.277-3.66313 61.6672-2.96642 58.6122-0.959787 55.7819 0.235978 52.9143 1.69181 49.4297 2.81476 45.847 3.72966 42.1778 5.47649 35.2311 8.59591 28.914 10.5613 22.0588 12.6615 14.6815 13.5246 7.00981 14.3875-0.602925 14.4707-1.37559 15.6561-1.38401 15.5729-0.602925 14.8554 5.85053 14.1274 12.3276 12.6615 18.6584" fill="#BA8452" fill-rule="evenodd" transform="matrix(1 0 0 -1.00658 515.973 304.465)"/><path d="M2.3612-0.00469297C-0.320324 3.19343-1.87832 6.95692-2.27047 11.1808-2.5884 14.6089-3.11837 19.1727-0.765425 21.9551-0.278022 22.5345-1.09427 23.3892-1.59231 22.805-4.23126 19.6743-3.77552 15.0476-3.42593 11.1808-3.02313 6.61599-1.35898 2.59853 1.54495-0.853571 2.03263-1.43743 2.8486-0.585241 2.3612-0.00469297" fill="#BA8452" fill-rule="evenodd" transform="matrix(1 0 0 -1.00658 613.725 293.532)"/><path d="M26.8404 34.7344C29.9566 37.9313 32.6338 40.9193 35.0177 44.7293 36.9942 47.9021 37.8098 50.4921 36.7956 54.2013 35.4572 59.056 33.1252 63.7174 30.9816 68.2466 26.4326 77.8426 21.8527 87.4238 17.3037 97.0121 16.9689 97.722 15.9234 97.1036 16.2579 96.3953L28.4194 70.8147C30.5631 66.2917 32.7904 61.7856 34.5263 57.0812 35.4362 54.6276 36.597 51.8527 35.9066 49.204 35.3945 47.1786 33.9722 45.3372 32.8534 43.6152 30.3958 39.8589 26.9554 37.2332 24.3099 33.6992 22.2289 30.9297 21.6434 26.6061 18.3599 24.9032 16.5297 23.9532 14.2292 23.8386 12.2527 23.3505 10.4229 22.8989 8.6243 22.3238 6.85709 21.6392 3.11345 20.182-0.379287 18.226-3.62113 15.8605-4.24851 15.4039-3.64183 14.3435-3.01444 14.8055 1.12667 17.8188 5.67531 20.1704 10.5797 21.6319 12.2633 22.1275 14.1875 22.3594 16.0173 22.8046 16.0489 22.7183 16.1013 22.6355 16.1952 22.5611 19.646 19.7494 22.9295 16.7572 26.0038 13.5404 27.4785 11.9961 28.9005 10.4086 30.2808 8.77807 32.9683 5.5907 31.3684 2.52828 29.4652-0.308629 29.026-0.962673 30.0822-1.57488 30.5214-0.924767 31.6822 0.808504 33.3029 3.00372 33.4808 5.17284 33.6376 7.30094 31.7239 8.97862 30.4481 10.4538 26.4639 15.0826 22.0616 19.3085 17.3454 23.1814 18.5062 23.5647 19.5937 24.0834 20.4826 24.9001 23.3793 27.5469 24.0484 31.8713 26.8404 34.7344" fill="#BA8452" fill-rule="evenodd" transform="matrix(1 0 0 -1.00658 467.096 316.179)"/><path d="M26.4124 7.54288C16.8392 3.80282 6.8966 1.36315-3.31012 0.292569-4.08056 0.2119-4.08056-1.02513-3.31012-0.943604 7.00224 0.139184 17.0505 2.56893 26.7397 6.35074 27.4576 6.63393 27.141 7.82918 26.4124 7.54288" fill="#BA8452" fill-rule="evenodd" transform="matrix(1 0 0 -1.00658 495.026 354.443)"/><path d="M2.69623 21.6264C0.62212 17.9049 0.611156 13.7216-1.28894 10.0142-3.09148 6.48614-4.14484 3.25368-3.88453-0.764456-3.8193-1.54037-2.60289-1.54679-2.65715-0.764456-2.79855 1.39423-2.64647 3.51158-1.98415 5.58924-1.35416 7.53838-0.181323 9.15085 0.578827 11.0268 1.91443 14.3551 1.93608 17.7515 3.74959 21.0122 4.14034 21.6976 3.0763 22.3117 2.69623 21.6264" fill="#DEB18C" fill-rule="evenodd" transform="matrix(1 0 0 -1.00658 557.091 209.975)"/><path d="M1.34224 19.6665C0.683829 23.3403-0.513065 26.9435-0.592926 30.7184-0.682545 34.4087 1.01303 37.2476 1.60159 40.7429 2.05021 43.3139 1.60159 45.8992 1.03281 48.3962 0.155101 52.2095-0.652758 55.7569-0.562882 59.7303-0.413431 65.8498 0.524363 72.0731-2.52783 77.5834-2.90686 78.2553-3.87443 77.6424-3.49542 76.9685-0.0441677 70.7475-2.01913 63.6412-1.66014 56.8368-1.50042 53.8129-0.71259 50.9936-0.0441677 48.072 0.833539 44.2001 0.703859 41.077-0.543109 37.3597-2.44797 31.6446-1.2711 26.694-0.0541825 20.9542 1.45188 13.7807 0.234962 6.54297-0.443218-0.67512-0.52308-1.45562 0.59421-1.45029 0.673815-0.67512 1.30218 6.02592 2.54889 12.9764 1.34224 19.6665" fill="#DEB18C" fill-rule="evenodd" transform="matrix(1 0 0 -1.00658 568.728 266.981)"/><path d="M0.829994 4.45878C-0.0781808 2.38273-1.48543 0.785005-3.28205-0.229183-3.94081-0.59367-3.37176-1.71097-2.72299-1.34887-0.766938-0.248852 0.800009 1.55093 1.78816 3.80431 2.11754 4.5458 1.15938 5.20385 0.829994 4.45878" fill="#DEB18C" fill-rule="evenodd" transform="matrix(1 0 0 -1.00658 573.383 202.946)"/><path d="M12.0319-0.262324C9.03549 1.69031 5.66723 3.44966 3.35997 6.21942 0.899297 9.14387-1.39714 12.4312-2.73125 16.0029-3.01581 16.7367-4.20765 16.4211-3.93422 15.6774-2.53451 11.9525-0.194173 8.51158 2.36487 5.45865 4.80329 2.54857 8.24819 0.72752 11.4086-1.32149 12.0758-1.75596 12.6991-0.694553 12.0319-0.262324" fill="#DEB18C" fill-rule="evenodd" transform="matrix(1 0 0 -1.00658 536.144 189.671)"/><path d="M104.838-1.10457C97.5125 4.30167 75.5227 22.9785 49.7633 68.1585 48.417 70.5301 47.0819 72.8913 45.7356 75.24 31.7675 99.9586 19.3815 122.781 10.3389 139.757 3.47251 152.625-1.47503 162.139-3.77501 166.578-2.12593 167.105-0.521338 167.595 0.959283 168.022 2.82189 164.426 6.0305 158.286 10.305 150.215 18.8093 134.155 31.5431 110.465 46.3303 84.1553 48.832 79.7045 51.39 75.1669 54.0042 70.5807 75.3545 33.0927 94.3037 14.0981 103.694 6.11209 104.076 3.72704 104.457 1.3288 104.838-1.10457" fill="#36303A" fill-rule="evenodd" transform="matrix(1 0 0 -1.00658 523.731 350.539)"/></g></g></g></g></svg>