<svg width="151" height="151" xmlns="http://www.w3.org/2000/svg" xmlns:xlink="http://www.w3.org/1999/xlink" xml:space="preserve" overflow="hidden"><defs><clipPath id="clip0"><rect x="200" y="76" width="151" height="151"/></clipPath><clipPath id="clip1"><rect x="210" y="105" width="141" height="122"/></clipPath><clipPath id="clip2"><rect x="210" y="105" width="159" height="549"/></clipPath><clipPath id="clip3"><rect x="210" y="105" width="159" height="549"/></clipPath></defs><g clip-path="url(#clip0)" transform="translate(-200 -76)"><g clip-path="url(#clip1)"><g clip-path="url(#clip2)"><g clip-path="url(#clip3)"><path d="M2.95016 73.9723C2.95016 73.9723 8.80782 70.8067 13.6768 59.5673 18.5469 48.3279 22.1177 42.7911 24.696 33.3342 27.2748 23.8773 31.4166 10.6857 31.6938 7.3146 31.971 3.94377 27.5245-0.572405 22.1436-1.36089 16.7617-2.15019-2.19826 45.7641-2.19826 45.7641L2.95016 73.9723" fill="#F8F0EC" fill-rule="evenodd" transform="matrix(1 0 0 -1.00018 319.951 270.187)"/><path d="M19.0845 42.5963 15.566 19.997 12.4072-0.276137-0.360956 0.119822-1.06637 20.5215-2.01179 48.0308-2.01179 74.3128 19.0845 42.5963" fill="#FFAA9C" fill-rule="evenodd" transform="matrix(1 0 0 -1.00018 243.855 621.347)"/><path d="M5.46494 15.6324C2.98616 15.7518 0.527523 16.0106-1.91149 16.3888L-1.38161 0.211429 10.7715-0.186781 13.1572 15.9906C10.7153 15.6422 8.19755 15.493 5.46494 15.6324" fill="#FFFFFF" fill-rule="evenodd" transform="matrix(1 0 0 -1.00018 245.362 621.347)"/><path d="M24.2122 40.4043 16.5739 19.2617 9.66296 0.135869 9.50881-0.287166 8.65006-0.100143-2.15773 2.28082 0.857396 23.7284 4.46766 49.3376 9.05495 75.0549 24.2122 40.4043" fill="#FFAA9C" fill-rule="evenodd" transform="matrix(1 0 0 -1.00018 305.636 617.579)"/><path d="M5.12883 15.5139C3.46015 15.9724 1.70106 16.4891-0.0226701 17.1326L-2.11614 2.16412 8.53878-0.195836C8.8791-0.108112 9.20887-0.0397036 9.53759 0.0383623L14.4592 13.7294C11.3121 14.061 8.19062 14.656 5.12883 15.5139" fill="#FFFFFF" fill-rule="evenodd" transform="matrix(1 0 0 -1.00018 305.636 617.579)"/><path d="M70.237 160.592C65.8279 190.704 59.0522 220.517 48.3985 249.046 48.5019 249.062 48.6044 249.078 48.7076 249.093 49.4592 249.193 49.1845 250.347 48.4378 250.246 48.1612 250.209 47.8853 250.164 47.6095 250.126 47.5031 250.136 47.4017 250.116 47.3072 250.082 33.8268 248.214 20.2273 245.143 7.53778 240.171 2.27878 238.11 1.15009 232.222 0.106204 227.134-1.21051 220.712-1.44378 214.131-1.75698 207.602-1.89596 204.692-2.01219 201.783-2.14413 198.873-0.965316 194.924 0.362232 191.002 1.75995 187.089 3.88106 181.152 10.1821 149.689 13.4085 140.321 17.1024 129.596 19.9634 117.979 23.302 107.127 26.7331 95.9749 23.0431 88.9093 23.0165 78.1428 23.0075 74.6989 23.566 71.2651 23.376 67.8312 23.0135 61.2801 19.8068 55.0558 18.7984 48.5542 18.1287 44.2297 17.9336 39.8756 18.1601 35.5313 17.8835 31.5335 17.3684 27.8918 16.152 23.8246 14.7844 19.243 13.9973 14.582 13.3761 9.8914 18.4142 7.54607 27.0257 4.77527 32.2825 3.07326 34.5025 2.35075 44.4521-0.637574 44.4521-0.637574 44.4521-0.637574 73.1511 82.3982 75.6046 95.6878 78.1097 109.265 72.1823 147.315 70.237 160.592" fill="#7D4949" fill-rule="evenodd" transform="matrix(1 0 0 -1.00018 283.033 593.465)"/><path d="M54.87 101.65C58.5449 118.722 60.0213 138.161 61.1308 155.566 62.1947 172.281 61.0069 187.789 63.3965 204.375 65.4269 218.473 67.5585 232.632 67.2689 246.837 45.1088 245.228 22.9051 244.311 0.685523 244.107 0.665866 245.463 0.645936 246.819 0.626007 248.175 0.614268 248.936-0.57359 248.938-0.562942 248.175-0.541921 246.815-0.521991 245.454-0.502335 244.093-0.816839 244.09-1.13135 244.084-1.44612 244.081-2.21027 244.077-2.21218 242.893-1.44612 242.899-1.12561 242.902-0.80483 242.911-0.484316 242.912-0.372383 235.36-0.260177 227.807-0.146878 220.255-0.0109203 211.088 0.391767 201.866-0.442819 192.723-1.22663 184.121-1.93617 176.092-0.601436 167.5 0.828578 158.29 2.66947 149.416 2.25859 140.035 1.85973 130.888 0.439543 121.82 0.0663409 112.665-0.30768 103.459-0.00819024 94.2171 0.959349 85.054 1.89549 76.1975 4.37631 67.4198 4.82978 58.5336 5.27834 49.7462 1.82888 41.542 0.258812 33.0214-1.24355 24.8766-1.55724 16.5242-0.637201 8.29022-0.493325 7.00537-0.452647 5.29523-0.132136 3.7137 9.98716 1.61823 20.6058-2.15774 30.5982 0.0168594 32.9234 0.521011 35.1691 1.203 37.3633 1.99376 37.6789 3.01186 37.9677 4.02016 38.2574 4.91969 39.5684 9.03152 51.35 85.3109 54.87 101.65" fill="#7D4949" fill-rule="evenodd" transform="matrix(1 0 0 -1.00018 228.787 592.711)"/><path d="M34.8357 70.2543C33.4232 69.3746 32.0116 68.8 30.5287 68.4888 30.6486 69.2949 30.7555 70.1061 30.8479 70.9183 30.935 71.6777 29.7473 71.6717 29.6612 70.9183 29.561 70.0386 29.4421 69.1648 29.3094 68.2941 28.4787 68.2035 27.6232 68.1805 26.7222 68.2432 25.9597 68.2948 25.9627 67.105 26.7222 67.0525 27.536 66.9967 28.3268 67.0035 29.1013 67.0714 27.0551 55.1641 21.9103 44.0873 14.1794 34.7458 10.4332 30.2198 7.17381 25.9334 5.39249 20.2433 3.33165 13.6594 1.31226 7.34411-1.94221 1.25743 0.511324 0.538741 2.98449-0.12443 5.43394-0.843119 7.32161 5.70792 9.31104 12.3115 12.7705 18.2223 16.1808 24.0486 19.9635 29.9753 24.0158 35.3215 31.8172 45.6111 35.136 57.1254 35.7289 69.7404 35.7496 70.1886 35.2074 70.4859 34.8357 70.2543" fill="#36303A" fill-rule="evenodd" transform="matrix(1 0 0 -1.00018 212.965 439.739)"/><path d="M0.101614 116.702C-0.888173 105.752-0.153237 105.191 1.28268 94.193 2.39664 85.6665 0.113298 28.3345 2.07685 5.03936 9.23984 2.03528 16.333-0.765991 24.7231-0.701475 37.5985-0.600759 54.8692-1.54559 67.6797-1.12121 80.9719-0.681876 96.4201 0.731146 109.543 3.96387 116.15 5.59139 122.373 8.21465 128.288 11.449 127.964 18.8285 126.974 26.0586 126 33.4816 124.909 41.7804 124.798 54.5207 124.459 62.8067 124.092 71.8001 121.761 80.6887 122.035 89.7034 122.348 99.9612 122.925 96.4179 121.487 106.668 120.319 114.994 118.732 123.261 118.028 131.647 116.776 146.576 115.552 161.909 110.876 176.162 109.865 177.816 108.669 179.37 107.215 180.776 104.039 183.849 100.003 185.784 95.9583 187.437 90.5826 189.636 85.0254 191.371 79.4048 192.818 68.5347 195.614 57.422 197.353 46.3588 199.17 45.8067 199.261 45.4904 198.657 45.6695 198.29 36.2416 193.335 26.8137 188.38 17.387 183.425 11.6506 180.41 6.64842 177.179 3.66383 171.952 1.51471 169.394 0.812643 166.198 0.451017 162.887-0.13449 157.51-2.46538 148.212-1.99127 142.836-1.01343 131.749 1.1088 127.861 0.101614 116.702" fill="#F8F0EC" fill-rule="evenodd" transform="matrix(1 0 0 -1.00018 216.732 377.947)"/><path d="M22.7518 3.82838C23.2553 5.67797 23.482 7.61041 23.3476 9.64653 23.0795 13.6707 20.7385 19.5333 16.1214 20.069L13.8299 15.1083C13.8299 15.1083 8.72886 3.59715 7.8454 3.5305 6.96084 3.46466-1.14803 3.60318-1.90168 2.6969-2.65478 1.79062-2.47079 0.0655573 2.52251-0.408156 7.51688-0.880775 5.58255-1.43815 12.1479-0.578495 18.7152 0.280882 17.1611 0.219988 20.5042 1.70284 21.444 2.1206 22.1769 2.91222 22.7518 3.82838" fill="#FFAA9C" fill-rule="evenodd" transform="matrix(1 0 0 -1.00018 341.8 356.093)"/><path d="M27.3322 34.5628 25.93 26.9968 24.4209 18.7853 23.7799 15.3113C22.9655 10.9034 22.9744 0.0469613 20.088-1.42179 17.2018-2.89028-3.04479 13.0256-2.01385 21.5137-1.04651 29.478 0.694666 43.8908 0.694666 44.4422L27.3322 34.5628" fill="#FFAA9C" fill-rule="evenodd" transform="matrix(1 0 0 -1.00018 262.691 205.381)"/><path d="M7.39626 9.34931C4.78113 10.1656 1.90044 11.7267-0.812454 12.042-1.01681 12.0642-1.24527 11.9837-1.36599 11.8083-2.71593 9.97902-2.00538 7.1822-0.691721 5.49266 0.0803037 4.49034 1.09213 3.98919 2.20116 3.40719 3.91357 2.51008 5.39614 1.18061 7.07117 0.318578 8.30122-0.311083 9.69935-0.264501 11.0005-0.741297 11.9046-1.07996 12.6515-1.65098 13.676-1.48768 13.953-1.44083 14.2188-1.35918 14.4594-1.2189L15.9901 6.926C13.1095 7.65983 10.2407 8.45198 7.39626 9.34931" fill="#F07D67" fill-rule="evenodd" transform="matrix(1 0 0 -1.00018 272.485 185.035)"/><path d="M47.1361 35.3642C46.9823 36.4882 46.7704 37.5883 46.51 38.6759 45.66 42.3892 44.2308 45.9378 42.011 49.1308 39.6491 52.5252 36.4607 55.8831 32.6935 57.7282 28.4778 59.7863 22.6918 59.6086 18.18 58.9231 9.35873 57.5738 2.36763 49.8636-0.360014 41.6564-1.91836 36.9732-2.72195 31.2727-1.32856 26.4707-0.230062 22.6743 2.36763 20.3455 5.48486 18.5124 6.12296 16.7377 6.77299 14.964 7.44554 13.2021 8.46132 10.5402 9.60728 9.87866 11.3783 7.62005 14.2717 3.90647 18.8418 1.4938 23.4235-0.0320604 28.159-1.60546 33.7092-1.98285 38.7161-1.33295 41.6914-0.953661 43.6638 0.866445 44.7151 3.63396 47.5022 10.9671 47.6796 19.6589 47.6796 27.4407 47.6796 30.0786 47.5374 32.751 47.1361 35.3642" fill="#FFAA9C" fill-rule="evenodd" transform="matrix(1 0 0 -1.00018 255.156 177.499)"/><path d="M0.613361 2.65343 0.599966 2.69644 0.574029 2.75793C0.466292 3.07829 0.313806 3.35168 0.0849357 3.51371-0.202934 3.71796-0.602816 3.75543-1.15006 3.52348-1.44533 3.3976-1.61121 3.16353-1.73748 2.93526-2.3705 1.79472-2.48651-1.44559-0.65697-1.58651 1.24839-1.73244 0.937711 1.55009 0.613361 2.65343" fill="#36303A" fill-rule="evenodd" transform="matrix(1 0 0 -1.00018 281.526 148.864)"/><path d="M0.345319 2.17599 0.330828 2.2135 0.304003 2.26524C0.188692 2.53788 0.0305237 2.76958-0.201641 2.90418-0.493929 3.07434-0.892897 3.10032-1.43338 2.89266-1.72567 2.77938-1.88599 2.57613-2.00717 2.37826-2.61209 1.39092-2.65371-1.38797-0.824758-1.47795 1.07943-1.57162 0.694029 1.23572 0.345319 2.17599" fill="#36303A" fill-rule="evenodd" transform="matrix(1 0 0 -1.00018 298.855 148.111)"/><path d="M1.52494 5.66918C0.722837 7.39471-0.0799932 9.11914-0.882101 10.8446-1.2028 11.5343-2.11196 10.9199-1.79053 10.2292-0.988432 8.50449-0.186328 6.77895 0.616502 5.05342 1.27892 3.63018 1.82703 1.8985 0.307405 0.570977-0.203003 0.124271-0.873399-0.178011-1.43552-0.530952-2.03124-0.904327-1.50053-1.95644-0.904093-1.58306 0.507508-0.695808 2.66249 0.193405 2.66249 2.40314 2.66249 3.58344 1.98702 4.67501 1.52494 5.66918" fill="#F07D67" fill-rule="evenodd" transform="matrix(1 0 0 -1.00018 294.335 160.921)"/><path d="M8.38221 1.63049C5.32915 1.50094 2.30078 1.22055-0.67355 2.13728-1.14207 2.2812-2.41252 2.3384-1.84862 1.40623 0.520235-2.51424 6.25295-2.37005 9.12358 0.877098 9.56953 1.38202 9.14905 1.66135 8.60696 1.63928L8.38221 1.63049" fill="#F07D67" fill-rule="evenodd" transform="matrix(1 0 0 -1.00018 287.554 166.95)"/><path d="M9.0991 1.98901C6.88874 2.40818 3.76302 1.9373 2.65173 1.72073 0.976143 1.39468-1.43454 0.855746-2.07657-0.882658-2.22064-1.27307-1.80404-1.56166-1.45684-1.58382 1.61734-1.77745 4.64219-0.844407 7.77096-1.04383 8.84075-1.1119 11.612-1.75924 11.449 0.136645 11.3579 1.2029 10.3834 1.74658 9.0991 1.98901" fill="#F5D2B5" fill-rule="evenodd" transform="matrix(1 0 0 -1.00018 274.746 142.082)"/><path d="M4.12218-1.39172C3.19907-1.29879 2.28657-1.23683 1.35261-1.29879 0.409037-1.36075-2.04863-1.947-1.89897-0.248312-1.82353 0.708516-0.954173 1.20277 0.172343 1.41845 1.20295 1.6145 2.45866 1.59392 3.55287 1.49081 3.78957 0.544157 3.98213-0.413379 4.12218-1.39172" fill="#F5D2B5" fill-rule="evenodd" transform="matrix(1 0 0 -1.00018 298.102 140.575)"/><path d="M52.4364 35.3481C51.7277 36.5058 51.1056 37.7147 50.3658 38.8523 49.5917 40.0416 48.4914 40.9556 47.2446 41.5971 44.0444 43.243 40.0604 43.3341 36.5615 43.2189 35.1254 43.1714 33.7889 42.9955 32.3733 43.2825 31.064 43.5485 29.9395 44.1878 28.6625 44.563 27.0997 45.0237 25.4495 45.1526 23.8349 44.982 19.7435 44.5502 16.7444 41.9483 13.7911 39.2693 10.1547 35.9686 6.74463 32.4109 3.58624 28.637 1.03346 25.5874-2.93898 21.9593-1.84455 17.5709-1.26953 15.265 0.093194 13.1038 1.1887 11.0262 2.17838 9.15123 3.22017 7.30683 4.28425 5.47528L4.33716 5.33437 4.86034 4.49464C5.22532 3.87529 7.7354-2.19994 8.22927-1.6191 9.85199 0.286735 10.8868 3.10493 11.3182 5.91412 8.2304 9.17497 5.90588 12.9271 6.09335 17.7317 6.22898 21.1851 8.51745 23.7223 11.4922 23.0355 11.9168 22.9511 12.3766 22.8675 12.6156 23.1168 13.3606 23.8921 13.8838 24.7933 14.7578 25.5041 15.5357 26.2934 16.2475 27.1538 16.8741 28.0722 17.9715 29.6763 18.7613 31.4234 19.3207 33.2667 20.2678 32.0665 21.6227 31.3666 23.2481 30.9507 24.5025 30.6301 25.8645 30.4565 27.159 30.3691 28.8774 30.253 30.452 30.8058 32.1399 30.8038 35.1498 30.8 37.0231 28.1276 40.0448 27.677 42.3137 27.3395 44.6361 27.4089 46.3191 29.1361L46.4588 29.3625C46.6667 28.8016 47.1842 28.5209 47.6333 28.1604 49.1846 26.9116 50.934 27.0577 52.1475 28.6637 52.8747 29.6285 53.5131 30.7819 53.6861 32.001 53.8959 33.4781 53.154 34.178 52.4364 35.3481" fill="#F5D2B5" fill-rule="evenodd" transform="matrix(1 0 0 -1.00018 254.403 166.196)"/><path d="M59.9906 37.4336C58.9063 38.8456 57.6059 39.7235 56.8057 41.4039 56.3076 42.4506 56.0204 43.3757 55.1147 44.1679 53.7855 45.3282 52.0855 45.7273 50.433 45.4369 50.1556 45.6795 49.8587 45.9129 49.5221 46.1355 47.8884 47.2151 45.8185 48.4485 44.0583 49.2826 40.746 50.8511 36.3198 50.3073 32.7768 50.9919 28.9534 51.7292 25.1963 53.0564 21.2616 52.3329 18.1999 51.7702 14.2129 50.1377 11.8786 48.0345 10.7223 46.9928 10.2446 45.6087 9.53804 44.2618 8.48656 42.253 6.90762 40.6614 5.35775 39.0482 2.75881 36.3461 0.172901 33.4803-1.14734 29.8863-2.22464 26.9528-2.42495 23.5451-1.09304 20.6585-0.109387 18.5273 1.24044 18.2937 3.07856 18.2649 3.22269 17.311 3.45748 16.3769 3.86787 15.499 4.70958 13.7008 6.27926 12.5803 7.30852 10.913 8.35027 9.22371 8.5506 7.11719 10.0809 5.73537 10.5258 5.33433 11.0459 5.12461 11.5401 4.80839 12.7181 4.05407 13.4898 3.29068 14.4477 2.30606 16.3195 0.380181 18.9372-3.24677 19.2595-0.986819 19.6347 1.63326 18.6972 9.68873 19.3831 12.3 20.0481 14.8265 20.0342 16.9206 21.5735 19.0002 23.1492 21.1265 24.183 23.6201 25.743 25.7645 28.4808 29.5292 33.0729 32.0974 37.4614 33.3428 41.5828 34.5121 45.6298 34.5909 49.8557 34.4462 51.8982 34.3754 55.0061 34.3096 57.0424 34.1467 58.115 34.062 62.7701 33.7647 62.7701 33.7647 62.7701 33.7647 60.7463 36.4498 59.9906 37.4336" fill="#DCA877" fill-rule="evenodd" transform="matrix(1 0 0 -1.00018 237.828 157.907)"/><path d="M7.62306 13.2052C3.23423 9.41757-0.805455 5.07534-1.90755-0.96454-2.04584-1.7186-0.937673-2.04203-0.799654-1.28385 0.266286 4.55656 4.20226 8.7037 8.43458 12.358 9.00545 12.8495 8.18919 13.6939 7.62306 13.2052" fill="#BA8452" fill-rule="evenodd" transform="matrix(1 0 0 -1.00018 243.855 136.807)"/><path d="M33.5409 29.0091C15.3289 30.8033 0.889989 16.3375-2.04125-0.973988-2.16914-1.73329-1.0154-2.05961-0.88641-1.29422 1.96067 15.5248 15.8179 29.5498 33.5409 27.8027 34.3069 27.7273 34.3019 28.9334 33.5409 29.0091" fill="#BA8452" fill-rule="evenodd" transform="matrix(1 0 0 -1.00018 252.143 142.836)"/><path d="M25.8372 7.01562C25.4422 4.24344 24.5443 0.507091 18.1024-0.0393645 17.5636-0.0891172 16.9883-0.118914 16.3655-0.118914 14.8336-0.0989577 13.1326-0.0989577 11.3847-0.0295234 6.2358 0.169213 0.787041 0.88461-1.14081 3.4485-2.20679 4.8596-2.15783 9.63908-1.72786 14.7863-1.40379 18.7014-0.852785 22.8254-0.421992 25.8064-0.0390631 28.3602 0.248959 30.0592 0.248959 30.0592 0.248959 30.0592 1.05113 32.4741 3.07389 34.3718 3.41005 34.69 3.76904 34.9879 4.1638 35.2463 4.75085 35.6637 5.42097 36.0114 6.17583 36.2501 9.02579 37.1642 11.6477 36.8362 13.6716 36.0016 14.1387 35.8228 14.5577 35.6041 14.9524 35.3854 16.3174 34.5806 17.2285 33.6066 17.5154 32.8218 18.2334 30.8243 19.9585 24.6933 20.5214 22.557 21.0955 20.4105 26.268 10.0067 25.8372 7.01562" fill="#E0CFC7" fill-rule="evenodd" transform="matrix(1 0 0 -1.00018 240.841 652.996)"/><path d="M18.1306 10.723C17.6959 11.9568 16.6788 13.1596 15.4526 13.3449 12.5801 13.7663 9.11756 13.0363 6.27055 12.6457 3.91437 12.3167-2.53834 12.142-1.92094 7.96798-1.26449 3.53682 6.26841 4.24616 8.23748 0.699161 8.61683 0.0206467 9.62318 0.637504 9.24308 1.3262 8.18798 3.22825 6.5418 4.14321 4.61738 4.85284 3.70144 5.19196 2.05897 5.4697 1.33351 6.0659 1.07403 6.22005 0.813479 6.37419 0.553732 6.52862L0.589845 6.66212C0.454488 6.72377 0.326355 6.81626 0.215341 6.96022-0.468131 7.81353-0.746335 8.92393 0.0411955 9.83888 0.55079 10.4249 1.322 10.6614 2.00842 10.9286 2.22135 11.0109 2.44418 11.0007 2.65229 10.9286 3.43394 11.0624 4.38786 11.1241 4.74283 11.1857 5.99716 11.3914 7.25737 11.5559 8.51866 11.6894 10.2553 11.8849 12.4392 12.3991 14.1651 12.1007 16.6748 11.6793 18.8989 9.43814 15.2378 6.31254 14.6865 5.83964 13.8813 5.61338 13.2481 5.30509 11.1859 4.30782 9.58227 3.0741 9.62988 0.503725 9.64563-0.287923 10.8095-0.287923 10.7948 0.503725 10.7734 1.63477 12.5373 3.50599 13.4319 4.06119 13.9319 4.36947 14.5271 4.52362 15.0441 4.80136 15.8726 5.25361 16.7537 5.78816 17.3206 6.60046 18.2764 7.95751 18.6838 9.17082 18.1306 10.723" fill="#FFFFFF" fill-rule="evenodd" transform="matrix(1 0 0 -1.00018 246.115 651.489)"/><path d="M34.851 0.508065 34.711 0.458351C30.9641-0.931729 21.6436 0.388971 16.7792 1.68973 11.8676 3.01015 10.3239 9.64284 4.92278 12.1452-0.477002 14.6372-2.79499 17.5368-1.9734 19.5026-1.72269 20.1183-1.13878 21.409-0.408084 22.9083 0.187761 24.1792 0.896755 25.5893 1.58621 26.8898 2.66611 28.8955 3.70884 30.6134 4.29763 31.0105 5.7327 31.9538 7.8393 31.1297 10.9314 31.2389 11.4394 31.2488 12.0518 31.2985 12.7363 31.3381 13.1368 31.358 13.55 31.378 13.9869 31.4077 17.3474 31.6161 21.4819 31.6757 22.2048 29.8289 23.1734 27.3268 25.4035 21.0118 28.45 16.802 29.2675 15.6599 30.2106 14.6771 31.1614 13.7834 31.4799 13.4755 31.8083 13.1778 32.1249 12.8997 34.3777 10.8939 36.4971 9.31533 37.1274 7.42868 37.2851 6.9422 37.4302 6.47565 37.5407 6.02877 38.1257 3.69549 37.8948 1.72933 34.851 0.508065" fill="#E0CFC7" fill-rule="evenodd" transform="matrix(1 0 0 -1.00018 297.348 645.461)"/><path d="M9.67788 0.928919C8.64486 1.96907 7.43756 2.80323 5.99197 3.22517 4.46132 3.68625 2.76389 3.38228 1.24429 3.84337 1.03636 3.86307 0.865699 3.92192 0.698082 3.98077L0.543444 3.95135C-0.127853 3.88251-0.719346 4.5107-0.740332 5.1289-0.758283 5.64884-0.44431 6.06106-0.00248527 6.25732 0.410068 6.59099 0.823447 6.91493 1.26224 7.20919 1.84959 7.62141 2.46179 8.00392 3.08697 8.35728 3.92534 8.81867 4.78938 9.22093 5.66778 9.56426 5.34553 9.83911 5.0114 10.1333 4.68721 10.4376 3.70332 10.0156 2.74594 9.5446 1.82722 8.98548 0.600882 8.24931-2.18786 6.81667-2.20277 5.11918-2.21492 3.72566-0.507546 3.03863 0.643959 2.7738 3.7475 2.0379 6.39955 2.54812 8.85386 0.0653294 9.38984-0.484032 10.2139 0.379289 9.67788 0.928919" fill="#FFFFFF" fill-rule="evenodd" transform="matrix(1 0 0 -1.00018 323.718 641.693)"/><path d="M4.62011 2.25446C4.57151 2.78862 4.65648 3.6143 4.1972 4.02233 3.21808 4.85764-0.0816387 4.33311-1.07269 3.68218-1.89547 3.1384-1.81078 1.77856-1.97933 0.816869-2.00433 0.651729-2.01571 0.340962-2.03986 0.0203081-0.275462-0.0475636 1.44146-0.0475636 2.98788-0.0670701 3.61683-0.0670701 4.1972-0.0379441 4.74117 0.0106884 4.71702 0.748994 4.68064 1.50654 4.62011 2.25446" fill="#E66C6C" fill-rule="evenodd" transform="matrix(1 0 0 -1.00018 254.403 652.996)"/><path d="M0.858677 5.18335C0.25997 4.96714-0.305351 4.6286-0.845062 4.3842-1.37181 4.15868-2.19548 3.91428-2.48657 3.4441-2.76339 2.9928-2.46648 2.29736-2.40521 1.86468-2.33552 1.19743-2.37798 0.548542-2.5219-0.0905186L-2.35431-0.0437075C1.28169 1.1126 1.55755 2.97418 0.858677 5.18335" fill="#E66C6C" fill-rule="evenodd" transform="matrix(1 0 0 -1.00018 333.513 644.707)"/><path d="M1.15596 3.25576C0.744682 5.07622 0.0117508 6.77457-0.34907 8.62316-0.458975 9.19576-0.43962 10.2841-0.569572 11.185-0.930395 8.36993-1.3919 4.47577-1.66333 0.778573-0.910347-0.206776 0.263127-0.610261 1.0555 0.78787 1.51609 1.57625 1.34605 2.42994 1.15596 3.25576" fill="#E66C6C" fill-rule="evenodd" transform="matrix(1 0 0 -1.00018 241.595 638.679)"/><path d="M-0.119238 16.4356C-0.81415 15.163-1.52875 13.7838-2.12931 12.5404-1.18089 11.9768-0.186787 11.4621 0.739763 10.8403 3.20218 9.16954 5.38919 7.19762 7.36919 5.01193 8.7691 3.44809 12.2921-1.35059 15.0638 0.145374 19.7767 2.70011 4.44077 13.3661-0.119238 16.4356" fill="#E66C6C" fill-rule="evenodd" transform="matrix(1 0 0 -1.00018 298.855 634.911)"/><path d="M1.24585 0.594643C1.37244-0.148526 0.360658-0.461454 0.234065 0.272029-0.565918 4.83948-1.23011 9.4462-1.7573 14.0627-1.46151 14.3759-1.14563 14.6692-0.798049 14.9234-0.271098 10.1114 0.413425 5.34829 1.24585 0.594643" fill="#FFFFFF" fill-rule="evenodd" transform="matrix(1 0 0 -1.00018 246.115 632.65)"/><path d="M0.323576 0.266242C-0.502723 4.87737-1.17835 9.49834-1.70167 14.1678-1.30889 13.9936-0.956147 13.7803-0.624007 13.5671-0.119895 9.20789 0.52448 4.88723 1.30032 0.585786 1.43156-0.150311 0.453886-0.460527 0.323576 0.266242" fill="#FFFFFF" fill-rule="evenodd" transform="matrix(1 0 0 -1.00018 256.663 631.143)"/><path d="M6.48646 0C3.9141 2.23172 2.44291 5.41018 0.955401 8.36933-0.236558 10.7307-1.29334 13.1417-2.25189 15.5927-1.82946 15.6127-1.39329 15.6327-0.931917 15.6626-0.0555598 13.4109 0.93249 11.189 2.00588 8.99708 3.42781 6.16725 4.88525 3.0088 7.34105 0.866701 7.93332 0.348655 7.09017-0.518323 6.48646 0" fill="#FFFFFF" fill-rule="evenodd" transform="matrix(1 0 0 -1.00018 311.663 629.636)"/><path d="M58.8259 4.0834C59.9604 3.73211 59.754-0.683788 58.8259-0.985049 58.3814-1.12932 44.4329-0.938721 30.2414-0.917806 14.8306-0.895572-0.915395-1.03031-1.26421-0.832036-2.21495-0.29517-2.8098 3.63204-1.05758 4.0834-0.160405 4.31424 15.2912 4.21894 30.2414 4.20068 44.4873 4.18347 58.2734 4.25547 58.8259 4.0834" fill="#6C8685" fill-rule="evenodd" transform="matrix(1 0 0 -1.00018 303.376 332.733)"/><path d="M0.131534-1.05543 11.4245-1.05543 11.4245 9.49254 0.131534 9.49254C-1.12189 9.49254-2.13702 8.47941-2.13702 7.22846L-2.13702 1.20978C-2.13702-0.0411956-1.12189-1.05543 0.131534-1.05543" fill="#6F5E61" fill-rule="evenodd" transform="matrix(1 0 0 -1.00018 298.855 342.529)"/><path d="M54.3237 6.4328-2.18309 6.4328-2.18309-1.1017 54.3237-1.1017 54.3237 6.4328" fill="#F5D2B5" fill-rule="evenodd" transform="matrix(1 0 0 -1.00018 309.403 341.022)"/><path d="M-1.40839-0.924413 55.0636-0.924413C55.4899-0.924413 55.8344-0.613434 55.8344-0.230799L55.8344-0.111135C55.8344 0.272475 55.4899 0.582482 55.0636 0.582482L-1.40839 0.582482C-1.83469 0.582482-2.17921 0.272475-2.17921-0.111135L-2.17921-0.230799C-2.17921-0.613434-1.83469-0.924413-1.40839-0.924413" fill="#6F5E61" fill-rule="evenodd" transform="matrix(1 0 0 -1.00018 308.65 342.529)"/><path d="M-1.33661-0.868185 54.9918-0.868185C55.4574-0.868185 55.8344-0.557532 55.8344-0.175065L55.8344-0.0550842C55.8344 0.329167 55.4574 0.638931 54.9918 0.638931L-1.33661 0.638931C-1.8022 0.638931-2.17921 0.329167-2.17921-0.0550842L-2.17921-0.175065C-2.17921-0.557532-1.8022-0.868185-1.33661-0.868185" fill="#6F5E61" fill-rule="evenodd" transform="matrix(1 0 0 -1.00018 308.65 333.487)"/><path d="M-1.50029-0.61605C-1.34446-0.813811 2.09717-0.857065 7.25665-0.848815 8.38463-0.848815 9.58732-0.848815 10.863-0.839706 11.3531-0.839706 11.8597-0.839706 12.3662-0.831169 13.0543-0.831169 13.7571-0.831169 14.4764-0.822919 19.1784-0.805561 24.4848-0.788774 29.7424-0.805561 43.8138-0.848815 57.6402-1.25429 58.0823-0.944138 59.0066-0.296501 59.2104 9.19667 58.0823 9.9476 57.5345 10.3189 43.8629 10.1627 29.7424 10.1989 24.4926 10.2154 19.1784 10.233 14.4764 10.2412L10.863 10.2412C9.58732 10.2412 8.37679 10.233 7.25665 10.233 2.41664 10.1989-0.878876 10.1203-1.29648 9.9476-2.40774 9.48123-2.44899 0.541214-1.50029-0.61605" fill="#36303A" fill-rule="evenodd" transform="matrix(1 0 0 -1.00018 308.65 353.079)"/><path d="M-2.22255 9.53149-2.22255-1.00865C-1.04425-1.00865 0.211779-1.00865 1.54469-0.999725L1.54469 9.53932C0.211779 9.53932-1.05242 9.53149-2.22255 9.53149" fill="#FFFFFF" fill-rule="evenodd" transform="matrix(1 0 0 -1.00018 317.691 352.326)"/><path d="M-2.29067 9.53774-2.29067-1.01027C-1.55359-1.01027-0.800626-1.01027-0.0300378-1.0024L-0.0300378 9.53774-2.29067 9.53774" fill="#FFFFFF" fill-rule="evenodd" transform="matrix(1 0 0 -1.00018 322.965 352.326)"/><path d="M51.4887-1.33534-1.58331-1.33534C-1.90785-1.33534-2.17061-0.997262-2.17061-0.580643-2.17061-0.165749-1.90785 0.171286-1.58331 0.171286L51.4887 0.171286C51.8132 0.171286 52.076-0.165749 52.076-0.580643 52.076-0.997262 51.8132-1.33534 51.4887-1.33534" fill="#FFFFFF" fill-rule="evenodd" transform="matrix(1 0 0 -1.00018 310.156 336.501)"/><path d="M51.4887-1.32542-1.58331-1.32542C-1.90785-1.32542-2.17061-0.988093-2.17061-0.571104-2.17061-0.154465-1.90785 0.181479-1.58331 0.181479L51.4887 0.181479C51.8132 0.181479 52.076-0.154465 52.076-0.571104 52.076-0.988093 51.8132-1.32542 51.4887-1.32542" fill="#FFFFFF" fill-rule="evenodd" transform="matrix(1 0 0 -1.00018 310.156 339.515)"/><path d="M9.03046-1.13095-2.2625-1.13095-2.2625 7.91042 9.03046 7.91042C10.2828 7.91042 11.299 6.86714 11.299 5.57927L11.299 1.20022C11.299-0.0876488 10.2828-1.13095 9.03046-1.13095" fill="#F5D2B5" fill-rule="evenodd" transform="matrix(1 0 0 -1.00018 350.841 328.212)"/><path d="M-2.15492 5.69268 54.3518 5.69268 54.3518-1.08836-2.15492-1.08836-2.15492 5.69268" fill="#FFFFFF" fill-rule="evenodd" transform="matrix(1 0 0 -1.00018 297.348 325.951)"/><path d="M55.0918-1.44713-1.37911-1.44713C-1.80541-1.44713-2.151-0.982178-2.151-0.406835L-2.151-0.22736C-2.151 0.346523-1.80541 0.812937-1.37911 0.812937L55.0918 0.812937C55.5181 0.812937 55.8626 0.346523 55.8626-0.22736L55.8626-0.406835C55.8626-0.982178 55.5181-1.44713 55.0918-1.44713" fill="#F5D2B5" fill-rule="evenodd" transform="matrix(1 0 0 -1.00018 296.595 328.212)"/><path d="M55.02-0.900213-1.30818-0.900213C-1.77403-0.900213-2.15104-0.589074-2.15104-0.206611L-2.15104-0.086701C-2.15104 0.29554-1.77403 0.606682-1.30818 0.606682L55.02 0.606682C55.4858 0.606682 55.8628 0.29554 55.8628-0.086701L55.8628-0.206611C55.8628-0.589074 55.4858-0.900213 55.02-0.900213" fill="#F5D2B5" fill-rule="evenodd" transform="matrix(1 0 0 -1.00018 296.595 320.676)"/><path d="M58.8338 7.65961C59.9686 7.05725 59.7619-0.511823 58.8338-1.02884 58.3901-1.27628 44.4401-0.949276 30.2495-0.912366 14.8388-0.874634-0.90615-1.1043-1.25496-0.766367-2.20678 0.155023-2.80164 6.88527-1.04942 7.65961-0.152248 8.05598 15.2993 7.89113 30.2495 7.86024 44.4952 7.83048 58.2813 7.95352 58.8338 7.65961" fill="#7B9FBA" fill-rule="evenodd" transform="matrix(1 0 0 -1.00018 299.608 319.169)"/><path d="M-0.0626702 4.79218C-0.802946 4.79218-1.40584 4.16223-1.40584 3.38837L-1.40584 1.04649C-1.40584 0.272924-0.802946-0.35646-0.0626702-0.35646L44.663-0.35646C45.403-0.35646 46.0051 0.272924 46.0051 1.04649L46.0051 3.38837C46.0051 4.16223 45.403 4.79218 44.663 4.79218ZM-2.18662 1.04649-2.18662 3.38837C-2.18662 4.61338-1.2337 5.60867-0.0626702 5.60867L44.663 5.60867C45.8338 5.60867 46.7859 4.61338 46.7859 3.38837L46.7859 1.04649C46.7859-0.176514 45.8338-1.17266 44.663-1.17266L-0.0626702-1.17266C-1.2337-1.17266-2.18662-0.176514-2.18662 1.04649" fill="#F8F0EC" fill-rule="evenodd" transform="matrix(1 0 0 -1.00018 306.389 318.415)"/><path d="M58.8433 6.12002C59.977 5.61853 59.7714-0.689965 58.8433-1.11977 58.3988-1.32624 44.4491-1.05436 30.2586-1.02524 14.8476-0.992108-0.897456-1.18402-1.24628-0.901584-2.19811-0.133367-2.79297 5.47431-1.04073 6.12002-0.14355 6.45129 15.3082 6.31307 30.2586 6.28708 44.5056 6.26338 58.2908 6.36504 58.8433 6.12002" fill="#36303A" fill-rule="evenodd" transform="matrix(1 0 0 -1.00018 295.841 310.88)"/><path d="M0.148595-1.17647 11.4419-1.17647 11.4419 14.6457 0.148595 14.6457C-1.10456 14.6457-2.11996 13.64-2.11996 12.3995L-2.11996 1.06972C-2.11996-0.170479-1.10456-1.17647 0.148595-1.17647" fill="#87524D" fill-rule="evenodd" transform="matrix(1 0 0 -1.00018 291.321 303.344)"/><path d="M54.341 10.902-2.16628 10.902-2.16628-1.15316 54.341-1.15316 54.341 10.902" fill="#FFFFFF" fill-rule="evenodd" transform="matrix(1 0 0 -1.00018 301.869 301.837)"/><path d="M-1.39132-1.03293 55.0806-1.03293C55.5059-1.03293 55.8514-0.722001 55.8514-0.339191L55.8514-0.219793C55.8514 0.163748 55.5059 0.473943 55.0806 0.473943L-1.39132 0.473943C-1.81763 0.473943-2.16242 0.163748-2.16242-0.219793L-2.16242-0.339191C-2.16242-0.722001-1.81763-1.03293-1.39132-1.03293" fill="#87524D" fill-rule="evenodd" transform="matrix(1 0 0 -1.00018 301.115 303.344)"/><path d="M-1.31955-1.47036 55.0089-1.47036C55.4744-1.47036 55.8514-1.00385 55.8514-0.429078L55.8514-0.250629C55.8514 0.323813 55.4744 0.790319 55.0089 0.790319L-1.31955 0.790319C-1.78513 0.790319-2.16242 0.323813-2.16242-0.250629L-2.16242-0.429078C-2.16242-1.00385-1.78513-1.47036-1.31955-1.47036" fill="#87524D" fill-rule="evenodd" transform="matrix(1 0 0 -1.00018 301.115 289.78)"/><path d="M-1.91401 4.84116C-1.91401 1.5124-1.40718-1.18752-0.783342-1.18752-0.159253-1.18752 0.346579 1.5124 0.346579 4.84116 0.346579 8.1699-0.159253 10.8677-0.783342 10.8677-1.40718 10.8677-1.91401 8.1699-1.91401 4.84116" fill="#F5D2B5" fill-rule="evenodd" transform="matrix(1 0 0 -1.00018 297.348 301.837)"/><path d="M52.9759-1.5114-1.58743-1.5114C-1.91629-1.5114-2.18254-1.1743-2.18254-0.757605-2.18254-0.34125-1.91629-0.00415313-1.58743-0.00415313L52.9759-0.00415313C53.3047-0.00415313 53.571-0.34125 53.571-0.757605 53.571-1.1743 53.3047-1.5114 52.9759-1.5114" fill="#F5D2B5" fill-rule="evenodd" transform="matrix(1 0 0 -1.00018 302.622 292.041)"/><path d="M52.9759-1.50039-1.58743-1.50039C-1.91629-1.50039-2.18254-1.16451-2.18254-0.747945-2.18254-0.33242-1.91629 0.00623288-1.58743 0.00623288L52.9759 0.00623288C53.3047 0.00623288 53.571-0.33242 53.571-0.747945 53.571-1.16451 53.3047-1.50039 52.9759-1.50039" fill="#F5D2B5" fill-rule="evenodd" transform="matrix(1 0 0 -1.00018 302.622 295.055)"/><path d="M52.9759-1.48923-1.58743-1.48923C-1.91629-1.48923-2.18254-1.1519-2.18254-0.73492-2.18254-0.31828-1.91629 0.017663-1.58743 0.017663L52.9759 0.017663C53.3047 0.017663 53.571-0.31828 53.571-0.73492 53.571-1.1519 53.3047-1.48923 52.9759-1.48923" fill="#F5D2B5" fill-rule="evenodd" transform="matrix(1 0 0 -1.00018 302.622 298.069)"/><path d="M52.9759-1.47746-1.58743-1.47746C-1.91629-1.47746-2.18254-1.14013-2.18254-0.723491-2.18254-0.306851-1.91629 0.0294384-1.58743 0.0294384L52.9759 0.0294384C53.3047 0.0294384 53.571-0.306851 53.571-0.723491 53.571-1.14013 53.3047-1.47746 52.9759-1.47746" fill="#F5D2B5" fill-rule="evenodd" transform="matrix(1 0 0 -1.00018 302.622 301.083)"/><path d="M-2.01794 79.8606 25.9267 84.7632C25.9267 84.7632 33.0104 61.0192 33.7982 58.6748 34.5852 56.3293 70.3106 7.07799 70.3106 7.07799L68.6297-1.12745 56.4289 1.22584C56.4289 1.22584 18.842 34.8886 11.1663 46.981 3.49199 59.0746-2.01794 79.8606-2.01794 79.8606" fill="#FFAA9C" fill-rule="evenodd" transform="matrix(1 0 0 -1.00018 231.8 351.572)"/><path d="M12.7521 14.0474C12.7521 14.0474 24.5816 3.44517 25.4592 3.45428 26.3369 3.46312 36.662 4.49905 37.4806 3.65501 38.2995 2.81097 37.9695 1.63369 33.0827 0.732493 28.1951-0.168973 24.2858-1.27089 17.7369-0.970764 11.1879-0.669542 10.6991-1.17038 7.2777 0.0309231 3.85711 1.23334-2.10506 6.9417-2.10506 6.9417L-0.638631 12.4496 12.7521 14.0474" fill="#FFAA9C" fill-rule="evenodd" transform="matrix(1 0 0 -1.00018 290.567 357.6)"/><path d="M-2.14465 8.31192C-2.14465 8.31192 0.73606 9.31473 6.00048 8.31192 11.2652 7.30916 16.1853 3.2994 19.2879 2.59817 22.3896 1.89473 23.6804-1.66781 18.2178-0.939489 12.7551-0.210065 5.07685 0.391661 5.07685 0.391661L-2.14465 8.31192" fill="#FFAA9C" fill-rule="evenodd" transform="matrix(1 0 0 -1.00018 301.115 350.065)"/><path d="M63.4114 9.65957 63.4114 0.779869C63.4114-0.310892 62.5193-1.18392 61.4047-1.18392L-0.129177-1.18392C-1.24457-1.18392-2.13667-0.310892-2.13667 0.779869L-2.13667 9.65957C-2.13667 10.7511-1.24457 11.6241-0.129177 11.6241L61.4047 11.6241C62.5193 11.6241 63.4114 10.7511 63.4114 9.65957" fill="#E66C6C" fill-rule="evenodd" transform="matrix(1 0 0 -1.00018 290.567 287.519)"/><path d="M1.49555 11.6241 1.49555-1.18392-2.2717-1.18392-2.2717 11.6241 1.49555 11.6241" fill="#FFFFFF" fill-rule="evenodd" transform="matrix(1 0 0 -1.00018 339.54 287.519)"/><path d="M9.05412-1.26869-2.23884-1.26869-2.23884 9.27932 9.05412 9.27932C10.3076 9.27932 11.323 8.26521 11.323 7.01434L11.323 0.996282C11.323-0.254562 10.3076-1.26869 9.05412-1.26869" fill="#36303A" fill-rule="evenodd" transform="matrix(1 0 0 -1.00018 341.047 274.709)"/><path d="M-2.13154 6.20976 54.3752 6.20976 54.3752-1.32474-2.13154-1.32474-2.13154 6.20976" fill="#FFFFFF" fill-rule="evenodd" transform="matrix(1 0 0 -1.00018 287.554 273.202)"/><path d="M55.1153-1.11324-1.35692-1.11324C-1.78323-1.11324-2.12775-0.802411-2.12775-0.418989L-2.12775-0.300356C-2.12775 0.0830672-1.78323 0.393898-1.35692 0.393898L55.1153 0.393898C55.5416 0.393898 55.8862 0.0830672 55.8862-0.300356L55.8862-0.418989C55.8862-0.802411 55.5416-1.11324 55.1153-1.11324" fill="#36303A" fill-rule="evenodd" transform="matrix(1 0 0 -1.00018 286.8 274.709)"/><path d="M55.0432-1.0404-1.28488-1.0404C-1.75073-1.0404-2.12775-0.729388-2.12775-0.346203L-2.12775-0.227238C-2.12775 0.155724-1.75073 0.466728-1.28488 0.466728L55.0432 0.466728C55.5092 0.466728 55.8862 0.155724 55.8862-0.227238L55.8862-0.346203C55.8862-0.729388 55.5092-1.0404 55.0432-1.0404" fill="#36303A" fill-rule="evenodd" transform="matrix(1 0 0 -1.00018 286.8 265.666)"/><path d="M-1.20454-1.36692-1.20454-1.36692C-0.788074-1.36692-0.450741-0.951725-0.450741-0.437688L-0.450741 5.23805C-0.450741 5.75209-0.788074 6.16728-1.20454 6.16728-1.62027 6.16728-1.95761 5.75209-1.95761 5.23805L-1.95761-0.437688C-1.95761-0.951725-1.62027-1.36692-1.20454-1.36692" fill="#F5D2B5" fill-rule="evenodd" transform="matrix(1 0 0 -1.00018 350.088 273.202)"/><path d="M58.8538 5.9123C59.9873 5.41165 59.7809-0.897953 58.8538-1.32766 58.4091-1.53347 44.4597-1.26198 30.2681-1.2322 14.8571-1.20038-0.88794-1.39247-1.23676-1.11018-2.18751-0.34184-2.78264 5.26715-1.0304 5.9123-0.134034 6.24362 15.3177 6.10555 30.2681 6.07898 44.5152 6.05563 58.3003 6.15751 58.8538 5.9123" fill="#6F5E61" fill-rule="evenodd" transform="matrix(1 0 0 -1.00018 292.074 256.623)"/><path d="M0.526891 1.02338C0.526891-0.22462 0.0208435-1.23644-0.603389-1.23644-1.22827-1.23644-1.73367-0.22462-1.73367 1.02338-1.73367 2.27139-1.22827 3.28423-0.603389 3.28423 0.0208435 3.28423 0.526891 2.27139 0.526891 1.02338" fill="#FFFFFF" fill-rule="evenodd" transform="matrix(1 0 0 -1.00018 338.787 255.116)"/><path d="M0.713057 1.02338C0.713057-0.22462 0.0383888-1.23644-0.794704-1.23644-1.6258-1.23644-2.30047-0.22462-2.30047 1.02338-2.30047 2.27139-1.6258 3.28423-0.794704 3.28423 0.0383888 3.28423 0.713057 2.27139 0.713057 1.02338" fill="#FFFFFF" fill-rule="evenodd" transform="matrix(1 0 0 -1.00018 334.266 255.116)"/><path d="M58.2271-0.84614C58.0721-1.03268 54.6296-1.07251 49.4698-1.06475 48.3421-1.06475 47.1395-1.06475 45.8645-1.05594 45.3736-1.05594 44.867-1.05594 44.3593-1.04898 43.6733-1.04898 42.9696-1.04898 42.2503-1.04043 37.5483-1.02387 32.2418-1.00836 26.9842-1.02387 12.9126-1.06475-0.913933-1.44533-1.35499-1.15402-2.27917-0.54574-2.48406 6.04377-1.35499 6.74906-0.807173 7.09676 12.8635 6.95217 26.9842 6.98424 32.234 7.00055 37.5483 7.01632 42.2503 7.02487L45.8645 7.02487C47.1395 7.02487 48.3497 7.01632 49.4698 7.01632 54.311 6.98424 57.6057 6.91128 58.0233 6.74906 59.1357 6.31182 59.1759 0.241066 58.2271-0.84614" fill="#6C8685" fill-rule="evenodd" transform="matrix(1 0 0 -1.00018 289.061 264.159)"/><path d="M1.49698 6.9846 1.49698-1.2943C0.318327-1.2943-0.938359-1.2943-2.27054-1.28526L-2.27054 6.99364C-0.938359 6.99364 0.326496 6.9846 1.49698 6.9846" fill="#FFFFFF" fill-rule="evenodd" transform="matrix(1 0 0 -1.00018 337.28 264.159)"/><path d="M-0.0574987 6.99115-0.0574987-1.29678C-0.792556-1.29678-1.54669-1.29678-2.31757-1.28773L-2.31757 6.99115-0.0574987 6.99115" fill="#FFFFFF" fill-rule="evenodd" transform="matrix(1 0 0 -1.00018 333.513 264.159)"/><path d="M54.3548 9.22688-2.15193 9.22688-2.15193-1.32115 54.3548-1.32115 54.3548 9.22688" fill="#F5D2B5" fill-rule="evenodd" transform="matrix(1 0 0 -1.00018 295.841 247.581)"/><path d="M-1.37724-1.77559 55.095-1.77559C55.5213-1.77559 55.8658-1.30912 55.8658-0.73517L55.8658-0.555673C55.8658 0.019741 55.5213 0.484751 55.095 0.484751L-1.37724 0.484751C-1.80246 0.484751-2.14806 0.019741-2.14806-0.555673L-2.14806-0.73517C-2.14806-1.30912-1.80246-1.77559-1.37724-1.77559" fill="#7B9FBA" fill-rule="evenodd" transform="matrix(1 0 0 -1.00018 295.088 249.841)"/><path d="M-1.30519-1.11442 55.023-1.11442C55.4888-1.11442 55.8658-0.803813 55.8658-0.419634L55.8658-0.301458C55.8658 0.0827229 55.4888 0.392431 55.023 0.392431L-1.30519 0.392431C-1.76997 0.392431-2.14806 0.0827229-2.14806-0.301458L-2.14806-0.419634C-2.14806-0.803813-1.76997-1.11442-1.30519-1.11442" fill="#7B9FBA" fill-rule="evenodd" transform="matrix(1 0 0 -1.00018 295.088 237.031)"/><path d="M28.0326 12.9452 28.0326-1.36997 0.137871-1.36997C-1.09616-1.36997-2.10458-0.341104-2.10458 0.929906L-2.10458 10.6463C-2.10458 11.9175-1.09616 12.9452 0.137871 12.9452L28.0326 12.9452" fill="#7B9FBA" fill-rule="evenodd" transform="matrix(1 0 0 -1.00018 285.293 249.841)"/><path d="M33.3698-1.72024-1.60205-1.72024C-1.93178-1.72024-2.19765-1.38291-2.19765-0.965927-2.19765-0.55067-1.93178-0.213342-1.60205-0.213342L33.3698-0.213342C33.6996-0.213342 33.9665-0.55067 33.9665-0.965927 33.9665-1.38291 33.6996-1.72024 33.3698-1.72024" fill="#FFFFFF" fill-rule="evenodd" transform="matrix(1 0 0 -1.00018 316.184 240.045)"/><path d="M33.3698-1.70971-1.60205-1.70971C-1.93178-1.70971-2.19765-1.37157-2.19765-0.954874-2.19765-0.539908-1.93178-0.202812-1.60205-0.202812L33.3698-0.202812C33.6996-0.202812 33.9665-0.539908 33.9665-0.954874 33.9665-1.37157 33.6996-1.70971 33.3698-1.70971" fill="#FFFFFF" fill-rule="evenodd" transform="matrix(1 0 0 -1.00018 316.184 242.306)"/><path d="M33.3698-1.7004-1.60205-1.7004C-1.93178-1.7004-2.19765-1.36337-2.19765-0.947091-2.19765-0.530813-1.93178-0.193778-1.60205-0.193778L33.3698-0.193778C33.6996-0.193778 33.9665-0.530813 33.9665-0.947091 33.9665-1.36337 33.6996-1.7004 33.3698-1.7004" fill="#FFFFFF" fill-rule="evenodd" transform="matrix(1 0 0 -1.00018 316.184 244.566)"/><path d="M33.3698-1.69288-1.60205-1.69288C-1.93178-1.69288-2.19765-1.35658-2.19765-0.939949-2.19765-0.52331-1.93178-0.185981-1.60205-0.185981L33.3698-0.185981C33.6996-0.185981 33.9665-0.52331 33.9665-0.939949 33.9665-1.35658 33.6996-1.69288 33.3698-1.69288" fill="#FFFFFF" fill-rule="evenodd" transform="matrix(1 0 0 -1.00018 316.184 246.827)"/><path d="M1.05631 12.9452 1.05631-1.36997-1.95774-1.36997-1.95774 12.9452 1.05631 12.9452" fill="#FFFFFF" fill-rule="evenodd" transform="matrix(1 0 0 -1.00018 301.869 249.841)"/><path d="M-0.0878695 12.9452-0.0878695-1.36997-1.59476-1.36997-1.59476 12.9452-0.0878695 12.9452" fill="#FFFFFF" fill-rule="evenodd" transform="matrix(1 0 0 -1.00018 307.143 249.841)"/><path d="M32.4516 28.774C23.8729 23.1647 15.103 17.8784 6.16606 12.8924 7.97077 14.8715 9.83406 16.7361 11.3861 18.5051 16.4383 24.2686 21.4903 30.0322 26.5425 35.7961 27.0452 36.3685 26.2206 37.2194 25.7168 36.6428 19.9063 30.0154 14.0957 23.3869 8.28495 16.7592 3.99721 11.8675-1.71478 6.75738-2.09661-0.259402-2.1385-1.03017-0.969091-1.02714-0.928278-0.259402-0.711582 3.71231 1.44169 7.2649 4.09468 10.506 4.208 10.4881 4.3291 10.4942 4.45585 10.5641 14.1932 15.9193 23.7246 21.6471 33.0413 27.7392 33.6739 28.1525 33.0883 29.1904 32.4516 28.774" fill="#522E2E" fill-rule="evenodd" transform="matrix(1 0 0 -1.00018 292.828 426.175)"/><path d="M11.944 24.1218C7.0552 16.3701 2.43297 8.47195-1.92016 0.417067-2.27951-0.248517-1.24395-0.83575-0.88183-0.170165 3.47047 7.87471 8.09245 15.7828 12.9816 23.5345 13.3878 24.1705 12.3495 24.7677 11.944 24.1218" fill="#522E2E" fill-rule="evenodd" transform="matrix(1 0 0 -1.00018 236.321 534.687)"/><path d="M8.53531 1.11134C6.31431 6.46717 5.7984 12.5162 4.40288 18.1257 2.96426 23.9061 1.20451 29.5952-0.816832 35.1961-1.07223 35.9009-2.20535 35.5978-1.9478 34.8845 0.263478 28.7573 2.15739 22.5252 3.66741 16.1872 4.39507 13.1325 4.98048 10.0541 5.60632 6.97781 5.89323 5.56855 6.32724 4.20028 6.6384 2.80288 7.1271 0.609591 5.83962 0.614444 3.96806-0.249121 3.2835-0.564566 3.87889-1.57588 4.5594-1.26151L8.26611 0.447824C8.47571 0.544884 8.62663 0.891873 8.53531 1.11134" fill="#DBCBC3" fill-rule="evenodd" transform="matrix(1 0 0 -1.00018 255.156 263.405)"/><path d="M-1.04646 32.83C-1.18984 33.5683-2.37122 33.2548-2.22897 32.5186-0.109576 21.5026 0.674917 10.3443 0.13718-0.84232 0.10028-1.59543 1.32702-1.59355 1.36279-0.84232 1.9056 10.4507 1.09265 21.7106-1.04646 32.83" fill="#DBCBC3" fill-rule="evenodd" transform="matrix(1 0 0 -1.00018 325.225 233.263)"/><path d="M5.72047-0.0897004-1.38944-0.0897004C-2.17433-0.0897004-2.17517-1.5966-1.38944-1.5966L5.72047-1.5966C6.50507-1.5966 6.50619-0.0897004 5.72047-0.0897004" fill="#DBCBC3" fill-rule="evenodd" transform="matrix(1 0 0 -1.00018 221.252 270.941)"/></g></g></g></g></svg>