<svg width="151" height="151" xmlns="http://www.w3.org/2000/svg" xmlns:xlink="http://www.w3.org/1999/xlink" xml:space="preserve" overflow="hidden"><defs><clipPath id="clip0"><rect x="828" y="76" width="151" height="151"/></clipPath><clipPath id="clip1"><rect x="828" y="105" width="151" height="122"/></clipPath><clipPath id="clip2"><rect x="817" y="105" width="164" height="549"/></clipPath><clipPath id="clip3"><rect x="817" y="105" width="164" height="549"/></clipPath></defs><g clip-path="url(#clip0)" transform="translate(-828 -76)"><g clip-path="url(#clip1)"><g clip-path="url(#clip2)"><g clip-path="url(#clip3)"><path d="M19.4177 43.0482 12.4248-1.80316-1.90626-0.58273-2.64846 48.73-2.64846 76.2152 19.4177 43.0482" fill="#FFAA9C" fill-rule="evenodd" transform="matrix(1.00001 0 0 -1 860.348 621.34)"/><path d="M23.1659 44.0971 21.4041-1.39307 6.88703-1.81162 0.36715 47.2429-2.84026 74.6305 23.1659 44.0971" fill="#FFAA9C" fill-rule="evenodd" transform="matrix(1.00001 0 0 -1 927.334 619.764)"/><path d="M20.0637 10.6642C19.92 12.0115 19.7553 13.3341 19.6729 14.5335 19.4054 18.823 18.2226 27.9459 17.9138 27.9459 15.1057 34.8069 6.10475 36.2408 2.84381 29.1331 2.60722 28.6386 0.498353 21.2336-0.335065 18.119-0.86992 16.1522-1.64136 14.1134-2.13519 12.0487-2.45413 10.714-2.65986 9.3533-2.57751 8.00602-2.24839 2.11041 2.31885-0.733859 7.64763-1.48845 11.7726-2.08088 18.5927-1.05478 19.8891 3.81584 20.4239 5.86718 20.28 8.30336 20.0637 10.6642" fill="#36303A" fill-rule="evenodd" transform="matrix(1.00001 0 0 -1 855.619 651.286)"/><path d="M42.7633 2.60649C42.1663-0.451669 39.2323-1.16928 36.3086-1.4173 31.2542-1.83825 27.3526-1.6272 22.3082-1.4173 16.8523-1.19403-1.46161-1.44119-2.48086 1.12093-2.81022 1.9634-2.84109 3.10196-2.78955 4.20382-2.738 5.11997-2.65588 6.03611-2.64568 6.77846-2.59413 9.39089-2.48086 10.7661-2.18236 13.3653-2.00734 14.9999-2.2543 18.7755-0.277822 19.456-0.17502 19.6172 6.36215 19.1467 9.36803 19.5179 10.696 19.6792 11.9418 19.9762 13.1667 20.496 14.1757 20.9292 15.133 21.9705 16.2346 21.9819 16.9758 21.9819 19.2507 19.7412 22.4936 17.6239 22.823 17.4016 23.1833 17.1908 23.5435 16.9797 23.9966 16.6956 24.4803 16.4236 24.9745 16.1631 25.1393 16.0761 25.3761 15.9533 25.6641 15.7919 25.9833 15.6316 26.3642 15.4208 26.7865 15.1975 29.113 13.9475 32.6541 12.0284 33.4366 11.645 35.4029 10.703 37.3587 9.77578 39.2734 8.73561 42.0531 7.22501 43.3399 5.50366 42.7633 2.60649" fill="#36303A" fill-rule="evenodd" transform="matrix(1.00001 0 0 -1 933.638 639.465)"/><path d="M39.2729 8.80425C37.3583 9.8534 35.4024 10.7911 33.4362 11.7425 33.0655 11.0983 31.861 6.55918 31.5728 5.59856 30.9449 3.46914 30.5023 3.54187 28.495 3.22347 22.6786 2.29204 16.9342 2.53772 11.0357 2.68317 8.34899 2.74473 5.70335 3.04137 3.02684 3.38782 1.38994 3.61287-0.874806 4.21645-2.78951 4.24136-2.84106 3.13299-2.81019 1.99656-2.48083 1.14503-1.46159-1.43393 16.852-1.1894 22.3079-1.41417 27.3522-1.62147 31.2538-1.83163 36.3082-1.41532 39.2319-1.16249 42.1658-0.436076 42.7628 2.6428 43.3394 5.56104 42.0628 7.29189 39.2729 8.80425" fill="#F8F0EC" fill-rule="evenodd" transform="matrix(1.00001 0 0 -1 933.638 639.465)"/><path d="M1.37975 1.9496C0.329789 1.06852-0.982409-0.0263592-1.44164-1.09879-1.72269-1.72603-2.78194-1.4068-2.51944-0.769785-1.9759 0.483739-0.597952 1.56788 0.423646 2.50217 0.723525 2.31155 1.05151 2.13045 1.37975 1.9496" fill="#F8F0EC" fill-rule="evenodd" transform="matrix(1.00001 0 0 -1 955.705 624.492)"/><path d="M1.10305 2.36101C0.0364645 1.21023-0.895375-0.0585643-1.71355-1.44271-2.10697-2.16777-3.1633-1.45578-2.73855-0.744689-1.96196 0.601697-1.06118 1.84344-0.0256391 2.98233 0.29542 2.81496 0.678582 2.59437 1.10305 2.36101" fill="#F8F0EC" fill-rule="evenodd" transform="matrix(1.00001 0 0 -1 958.857 626.856)"/><path d="M20.0637 10.9014C19.097 11.4432 18.0992 11.9095 17.1525 12.2619 10.9085 14.5938 3.97522 14.8693-2.13519 12.3125-2.45413 10.952-2.65986 9.56521-2.57751 8.19193-2.24839 2.18287 2.31885-0.716143 7.64763-1.48526 11.7726-2.08938 18.5927-1.04324 19.8891 3.92113 20.4239 6.01167 20.28 8.49502 20.0637 10.9014" fill="#F8F0EC" fill-rule="evenodd" transform="matrix(1.00001 0 0 -1 855.619 651.286)"/><path d="M6.4123-0.330856C3.58803 0.468375 0.629234 0.467699-2.19503-0.331756-2.94252-0.543549-2.62062-1.4911-1.87313-1.27661 0.76405-0.529595 3.45322-0.528919 6.0904-1.27503 6.83789-1.48863 7.15979-0.541974 6.4123-0.330856" fill="#F8F0EC" fill-rule="evenodd" transform="matrix(1.00001 0 0 -1 862.712 630.797)"/><path d="M6.41319-0.342547C3.59107 0.456879 0.623679 0.455979-2.19843-0.344122-2.9457-0.555232-2.61346-1.50252-1.86647-1.28826 0.768966-0.541278 3.44579-0.540602 6.08122-1.28669 6.83877-1.50028 7.16046-0.554331 6.41319-0.342547" fill="#F8F0EC" fill-rule="evenodd" transform="matrix(1.00001 0 0 -1 862.712 626.068)"/><path d="M22.9381 94.2974C22.9381 94.2974 11.0088 87.866 8.54655 82.5001 6.07418 77.1338-2.55856 17.2939-2.55856 11.1037-2.55856 4.91226 27.4606-3.75317 33.8374-2.51558 40.2038-1.27799 60.354 67.23 54.8013 67.8492 49.2489 68.4687 22.9381 94.2974 22.9381 94.2974" fill="#36303A" fill-rule="evenodd" transform="matrix(1.00001 0 0 -1 820.944 363.643)"/><path d="M21.2318-2.66231 21.0638-2.63793-2.11977 3.96527C-2.456 4.06041-2.64508 4.41369-2.55055 4.75315-2.456 5.09262-2.10907 5.28673-1.77283 5.19628L21.4-1.40721C21.7363-1.50207 21.9254-1.85533 21.8308-2.19481 21.7574-2.47671 21.505-2.66231 21.2318-2.66231" fill="#1A161C" fill-rule="evenodd" transform="matrix(1.00001 0 0 -1 823.308 336.849)"/><path d="M25.5567 58.6831C25.5567 58.6831 23.8861 9.6214 16.2913 0.648824 8.69637-8.32834-2.81372 3.12921-2.81372 3.12921L4.94509 53.8751 25.5567 58.6831" fill="#FFAA9C" fill-rule="evenodd" transform="matrix(1.00001 0 0 -1 949.4 297.445)"/><path d="M-2.97657 3.80757C-2.97657 3.80757-0.601848 4.52484 0.253983 3.32919 1.10981 2.13355 1.75169-3.07206 1.75169-3.07206L-2.89123-2.5614-2.97657 3.80757" fill="#FFAA9C" fill-rule="evenodd" transform="matrix(1.00001 0 0 -1 976.982 226.52)"/><path d="M-0.0685488-2.81832-2.51938-2.61088 0.556853 34.2207 2.99725 34.0133-0.0685488-2.81832" fill="#36303A" fill-rule="evenodd" transform="matrix(1.00001 0 0 -1 835.918 277.744)"/><path d="M17.7169 35.9735C17.6045 36.21 17.2679 36.3439 17.0227 36.2615 12.7363 34.8316 10.2868 29.9453 7.9295 26.3963 4.6838 21.5202 2.22426 16.778 0.284981 11.2539-0.541604 8.89795-2.33797 6.39828-2.69511 3.92941-2.84813 2.81865-2.5828 1.63544-1.6338 0.956528 0.213665-0.370443 3.14265 0.123386 5.20434-0.78192 7.24553-1.68723 7.77619-3.0657 10.2054-3.11693 10.5932-3.1274 10.7872-2.82912 10.7872-2.52037 11.0115-2.51018 11.2156-2.38651 11.2566-2.07805 12.2056 4.81435 15.8391 10.8116 17.6657 17.457 19.2478 23.1868 20.4215 30.4391 17.7169 35.9735" fill="#7D4949" fill-rule="evenodd" transform="matrix(1.00001 0 0 -1 924.182 175.296)"/><path d="M48.882-0.918938C44.0559-3.99083 28.7554-3.19937 19.5565-2.21026 10.3779-1.24177-2.66935 9.20199-2.66935 9.20199-2.66935 9.20199 14.0001 18.2401 17.5912 22.1865 18.5275 23.2278 19.824 25.404 21.1924 28.08 21.388 28.434 21.5731 28.8087 21.7687 29.194 25.5038 36.6495 29.6299 46.9265 29.2287 47.3429L33.8385 42.5844 42.2658 33.9109 47.9148 28.1005C47.9148 28.1005 47.5751 27.4759 47.1018 26.5285 46.3505 25.0602 45.229 22.8215 44.4882 21.1765 44.2824 20.7181 44.0973 20.2914 43.9739 19.9582 43.8606 19.6875 43.7885 19.4583 43.7474 19.3022L43.7268 19.1355C43.7268 18.167 58.7086 10.5036 59.5212 9.84765 60.324 9.20199 53.718 2.17359 48.882-0.918938" fill="#FFAA9C" fill-rule="evenodd" transform="matrix(1.00001 0 0 -1 866.652 200.514)"/><path d="M7.12892 9.03421C6.87887 9.44526 6.52828 10.2776 6.07801 11.3361 4.40607 15.365 1.52294 22.5281-1.12968 21.1817-1.61024 20.9453-1.92061 20.4828-2.12083 19.9074-2.76141 18.1192-2.37117 15.1696-2.40118 13.998-2.50116 10.432-2.94179 6.38278-2.21089 2.86795-1.7003 0.370652-0.469001-0.0610685 1.65321-0.67769 3.21499-1.11959 4.11581-2.0752 5.50739-2.69182 6.12786-2.96946 6.80864-3.05173 7.51944-3.08254 7.73976-2.05484 9.66174 1.85043 10.773 4.04974L10.773 4.06021C9.47174 5.58098 8.15008 7.31804 7.12892 9.03421" fill="#F07D67" fill-rule="evenodd" transform="matrix(1.00001 0 0 -1 902.904 177.66)"/><path d="M42.6018 49.8925C41.0313 52.5089 38.6858 54.2013 35.9832 55.1568 32.7299 58.3962 28.7222 60.805 24.0512 61.3345 17.6775 62.0718 12.5885 58.6973 8.11139 54.4507 3.16523 49.7577 0.911522 44.2337-0.607964 37.6407-1.98465 31.6809-4.43221 23.1252-0.781347 17.529-0.710086 17.425-0.607964 17.3627-0.516222 17.3108-0.128775 13.085 2.62488 9.66907 5.39873 6.51252 8.21352 3.3251 11.895-2.63472 16.5455-3.14344 20.5226-3.5796 25.0404-0.506149 28.0081 1.89206 33.2399 6.15948 37.2682 12.9085 39.8178 19.024 40.6539 21.028 41.5309 23.1357 42.3367 25.316 42.6223 26.0741 42.8874 26.8527 43.1525 27.642 45.6001 34.9931 46.8034 42.9046 42.6018 49.8925" fill="#FFAA9C" fill-rule="evenodd" transform="matrix(1.00001 0 0 -1 895.023 175.296)"/><path d="M136.725 42.7368C133.828 49.3513 133.745 56.6296 131.689 63.4826 130.693 66.8419 128.949 69.9108 127.859 73.249 126.83 76.3699 126.83 79.719 125.574 82.7775 123.706 87.3183 119.833 90.6668 115.794 93.2902 113.894 94.5338 111.932 95.6749 109.928 96.7427 107.727 97.9556 105.474 99.0754 103.2 100.153 100.989 101.211 98.746 102.227 96.5347 103.232 94.998 103.928 91.6652 96.266 90.0458 95.4464 88.3223 94.5653 85.1141 94.6898 83.1936 94.4306 77.8776 93.6945 72.5411 93.1035 67.1734 92.9994 62.2316 92.9064 56.0539 92.3572 52.4722 96.266 50.707 98.1833 45.5159 105.037 43.2732 104.218 42.7023 104 42.1416 103.678 41.5601 103.409 39.5667 102.486 37.5942 101.512 35.6423 100.506 35.4347 100.392 35.2061 100.278 34.9985 100.153 34.6144 99.9565 34.2199 99.7492 33.8358 99.5317 31.8424 98.4946 29.8696 97.3748 27.9385 96.2037 27.4402 95.9129 26.9523 95.6126 26.4539 95.3116 25.3845 94.6693 24.3254 94.005 23.2872 93.321 23.1316 93.228 22.9759 93.1239 22.82 93.031 21.9999 92.4919 21.1694 91.9734 20.3593 91.4241 14.6389 87.6501 9.2607 83.5655 5.99032 77.3237 3.3429 72.2953 2.13844 66.6345 1.6506 61.0048 1.21446 55.8934 1.57777 50.7614 1.18333 45.6606 0.747183 39.9995-1.75485 35.0335-2.65827 29.5283-3.07356 27.1022 0.768034 25.2879 2.50175 24.5517 7.99396 22.1879 13.0814 24.8834 18.5842 24.894 22.4047 24.9042 26.1734 24.0127 29.9839 24.0646 32.2577 24.0957 34.5107 24.3133 36.7531 24.6761 38.051 21.1821 37.9161 17.2837 38.4248 13.5308 39.0269 9.16582 40.5427 4.91519 42.0065 0.726455 42.3803-0.341408 42.7543-1.399 43.0967-2.46687 43.159-2.69476 43.3252-2.8194 43.5017-2.87103 43.6782-2.91267 43.8753-2.89185 44.0207-2.79858 44.1558-2.83994 44.3114-2.82967 44.4568-2.72585 47.6755-0.766386 49.1081 2.50994 51.2677 5.45426 52.711 7.40345 54.4652 9.06226 56.2927 10.6382 58.338 12.4213 60.6844 14.7128 63.3112 15.5733 66.1249 16.4752 68.6789 14.9926 71.3366 14.2773 73.351 13.7485 75.4378 13.5722 77.5143 13.6241 82.0516 13.7587 86.661 14.8371 91.0324 15.9983 94.8735 17.0142 98.2164 18.5279 100.999 21.4103 102.006 22.4471 102.805 23.6185 104.322 24.0957 105.297 24.4066 106.336 24.1579 107.332 24.396 108.952 24.7799 110.281 25.5574 111.465 26.7288 114.808 30.0673 115.804 34.6397 120.186 37.1071 124.951 39.8027 130.797 41.1196 136.185 41.8038 136.683 41.8657 136.932 42.2804 136.725 42.7368" fill="#F7F0F0" fill-rule="evenodd" transform="matrix(1.00001 0 0 -1 826.461 288.777)"/><path d="M8.29847-2.95583C8.29847-2.95583 6.16027-2.89391 5.85498-2.95583 5.5494-3.00753 1.61947-1.1078 1.61947-1.1078 1.61947-1.1078-0.233594 14.3494-0.783408 19.9145-1.33322 25.4799-0.447302 25.0669-1.86259 31.8714-2.95185 37.1269-2.76867 43.3322-2.62611 45.9032-0.396325 44.8295 1.81274 43.7143 3.97138 42.5062 3.97138 41.1536 3.98146 39.574 4.04252 38.056 4.20554 34.3389 5.85498 26.306 6.28239 20.2759 6.67955 14.721 8.29847-2.95583 8.29847-2.95583" fill="#7B9FBA" fill-rule="evenodd" transform="matrix(1.00001 0 0 -1 932.062 235.188)"/><path d="M0.69949 0.238807 0.708545 0.278471 0.708545 0.338105C0.763378 0.65624 0.754322 0.954677 0.653965 1.18336 0.525687 1.47169 0.251525 1.6607-0.242219 1.6804-0.507326 1.69052-0.7176 1.55129-0.900458 1.41205-1.8057 0.676209-3.16795-2.04832-1.88794-2.88346-0.562158-3.76839 0.507577-0.835143 0.69949 0.238807" fill="#36303A" fill-rule="evenodd" transform="matrix(1.00001 0 0 -1 914.725 146.137)"/><path d="M0.830627 0.254657 0.841952 0.294319 0.841952 0.353949C0.89922 0.672066 0.89922 0.970485 0.773365 1.19916 0.601891 1.48746 0.258942 1.67647-0.347353 1.69617-0.678975 1.70628-0.942004 1.56706-1.17075 1.42783-2.31443 0.701881-4.00715-2.03234-2.40599-2.86743-0.747565-3.7523 0.578923-0.819224 0.830627 0.254657" fill="#36303A" fill-rule="evenodd" transform="matrix(1.00001 0 0 -1 932.062 151.654)"/><path d="M3.66577 2.18304C3.77371 4.1602 3.96764 6.1271 4.22621 8.09373 4.32318 8.88054 3.04067 8.86998 2.93273 8.09373 2.6958 6.26151 2.50157 4.41905 2.39393 2.57659 2.35063 1.82081 2.41557 0.951414 2.29696 0.205888 2.46925-0.766884 1.98442-1.45033 0.830887-1.83334-0.128399-2.01959-1.03372-1.88489-1.87469-1.42954-2.62908-1.08782-3.27582-2.154-2.53211-2.50597-0.893759-3.26175 2.05973-3.64476 3.25625-1.88489 3.96764-0.829248 3.60112 1.00296 3.66577 2.18304" fill="#F07D67" fill-rule="evenodd" transform="matrix(1.00001 0 0 -1 920.241 160.322)"/><path d="M-1.51207 2.72845C-2.98713 3.78366-2.85799 3.12056-2.8257 2.43699-2.69656 0.265738-0.823125-2.09632 1.61012-2.78984 3.67756-3.37302 6.45528-2.84017 8.16726-1.52337 8.61929-1.17163 2.2025 0.0749376-1.51207 2.72845" fill="#F07D67" fill-rule="evenodd" transform="matrix(1.00001 0 0 -1 912.361 165.839)"/><path d="M7.60681-1.66513C7.13858-0.438092 5.86009 0.572871 4.46453 0.918497 2.43457 1.40223-0.434667 1.51466-2.29871 0.495141-2.81581 0.209895-2.56209-0.420977-1.99614-0.472797-0.346875-0.619699 1.33165-0.697429 2.94199-1.07752 3.73239-1.26769 4.50346-1.52679 5.21601-1.88976 5.67457-2.12295 6.1138-2.51184 6.65049-2.63283 7.34343-2.79708 7.84119-2.28721 7.60681-1.66513" fill="#7D4949" fill-rule="evenodd" transform="matrix(1.00001 0 0 -1 913.937 139.833)"/><path d="M5.72197-0.906628C5.43663-1.74244 5.15128-2.56736 4.84389-3.3705 3.92204-2.68841 2.98901-2.01752 1.96811-1.46737 1.15617-1.02737 0.299837-0.686628-0.599976-0.455432-1.1927-0.323493-1.88417-0.356478-2.43312-0.0705087-3.14663 0.314415-3.10284 1.17262-2.38934 1.56844-0.929403 2.36038 0.991306 2.3165 2.44007 1.56844 3.54883 0.985608 4.75603 0.116506 5.72197-0.906628" fill="#7D4949" fill-rule="evenodd" transform="matrix(1.00001 0 0 -1 932.85 146.925)"/><path d="M69.5489 26.2641C69.1372 33.5451 70.4753 40.8785 69.1164 48.1075 68.4371 51.691 66.8723 55.0045 64.6485 57.8711 63.5468 59.3047 62.3012 60.6342 60.9835 61.87 60.3142 62.5141 59.6144 63.1373 58.9038 63.7503 57.5554 64.903 55.8771 65.8171 54.4256 66.8557 52.8402 68.0087 51.0902 68.9331 49.268 69.6603 45.6854 71.0936 41.7835 71.7791 37.9333 71.6545 32.5491 71.4779 26.8766 69.6603 22.1206 67.1569 19.4026 65.7339 17.0347 63.7294 14.914 61.5169 13.8641 60.4265 12.8757 59.2838 11.908 58.1205 10.5285 56.4481 9.11806 54.7448 8.08853 52.8337 7.16218 51.1198 6.79145 49.1671 6.50314 47.2557 5.937 43.4025 5.75177 39.0503 2.77634 36.1628 1.04704 34.4904-0.785633 33.8155-0.88844 31.0109-0.919308 30.2528-0.610608 29.6711-0.589933 28.9439-0.569258 28.2272-0.373841 27.4896-0.487127 26.7731-0.641478 25.807-1.20762 25.8278-1.65028 25.028-2.17536 24.0622-2.6489 23.4079-2.70044 22.2548-2.8446 19.2426-0.723893 18.9414 0.851338 16.8226 2.48831 14.6101 4.15616 14.3815 6.6473 13.5714 8.64451 12.9171 9.48876 11.5563 11.0844 10.4345 12.2991 9.57238 13.72 9.04296 15.0995 8.53371 17.4261 7.67165 20.988 4.7322 21.4925 8.57548 21.9558 12.0238 22.8618 14.7556 24.2617 17.9338 25.24 20.167 27.1856 21.2056 27.6283 23.8856 28.1944 27.3963 26.0636 31.4158 28.4003 34.5321 30.0268 36.6927 32.4154 38.1468 33.8567 40.5356 34.5155 41.6263 34.9066 42.831 35.236 44.0671 37.223 44.1605 39.21 44.3269 41.1866 44.6489 43.1838 44.9603 45.1912 45.8433 47.2295 45.677 48.2589 45.5938 49.2575 45.1889 49.999 44.4617 50.6886 43.7762 51.1106 43.0805 52.0888 42.8207 53.2625 42.5298 54.4979 42.7895 55.6301 43.101 56.5053 41.3977 57.8126 40.2865 59.3156 38.6869 62.1366 35.6746 62.5689 30.0968 63.0939 26.1499 63.135 25.8487 63.3307 25.7135 63.5573 25.7032 62.713 21.4445 61.8688 17.1963 61.0041 12.9482 60.4689 10.3619 60.0879 7.73393 59.3878 5.17882 59.0377 3.89097 58.6053 2.61341 58.0392 1.39814 57.7407 0.743791 56.0728-1.19869 57.0507-1.7076 57.9259-2.1645 59.1714-2.33081 60.1188-2.65284 60.8084-2.89172 61.8481-3.40064 62.5895-3.10975 63.5675-2.74628 64.9366 3.48579 65.2147 5.96832 65.6369 9.81132 67.4693 12.6885 68.8692 16.1785 70.2283 19.5646 69.7444 22.7118 69.5489 26.2641" fill="#7D4949" fill-rule="evenodd" transform="matrix(1.00001 0 0 -1 876.897 176.872)"/><path d="M10.7356 2.10081C10.1326 2.95419 9.44644 3.48512 8.66681 4.1306 7.6895 4.66153 6.82659 5.32763 6.05721 6.15008 5.68282 6.87861 5.39166 7.64894 5.1943 8.45049 3.86348 12.1979 1.72181 14.8523-2.03156 16.3723-2.76948 16.6845-3.09181 15.4769-2.35361 15.175-0.170465 14.2904 1.65946 12.8434 2.87587 10.7927 3.7282 9.34565 3.89466 7.76349 4.60169 6.28524 5.05902 5.30672 5.579 4.66153 6.4419 4.02636 8.96825 2.13174 10.8397 0.882592 10.9541-2.67727 10.9852-3.47882 12.2226-3.47882 12.2017-2.67727 12.1496-0.92841 11.7546 0.653783 10.7356 2.10081" fill="#522E2E" fill-rule="evenodd" transform="matrix(1.00001 0 0 -1 921.817 125.648)"/><path d="M9.02262 3.85259C4.60797 2.93416 0.667805 0.880394-2.59847-2.17415-3.18859-2.72123-2.29297-3.59821-1.70284-3.05142 1.41561-0.13088 5.14534 1.78861 9.35968 2.65565 10.1605 2.8206 9.82345 4.01783 9.02262 3.85259" fill="#522E2E" fill-rule="evenodd" transform="matrix(1.00001 0 0 -1 915.513 128.012)"/><path d="M24.1158 29.0204C17.6652 27.4018 8.66981 23.455 5.69911 16.9603 5.14875 15.7492 4.889 14.4127 4.78498 13.0864 4.68125 11.7292 4.90986 10.3613 4.25519 9.05604 3.70482 7.98065 2.62467 7.15593 1.81427 6.27867-0.564368 3.69976-2.40292 0.911727-2.69382-2.66969-2.7664-3.47369-1.51994-3.46335-1.45764-2.66969-1.0733 1.92456 2.17774 4.1381 4.69154 7.51068 6.4055 9.82873 5.62653 12.0946 6.27034 14.7364 8.02604 21.9096 18.0601 26.222 24.4379 27.8194 25.2168 28.0076 24.8948 29.2186 24.1158 29.0204" fill="#522E2E" fill-rule="evenodd" transform="matrix(1.00001 0 0 -1 884.778 138.257)"/><path d="M1.83575 10.6832C-1.11375 6.86981-1.96244 2.22567-2.65568-2.48266-2.76956-3.2815-1.57952-3.63315-1.4551-2.82347-0.813676 1.61848-0.0891111 6.1668 2.70494 9.77798 3.20173 10.4171 2.33254 11.3223 1.83575 10.6832" fill="#522E2E" fill-rule="evenodd" transform="matrix(1.00001 0 0 -1 886.354 145.349)"/><path d="M1.04566 29.6132C0.773415 30.3227-0.354348 30.0087-0.0724742 29.2888 0.831715 26.9571 1.76478 24.6049 2.23146 22.1313 2.94122 18.3396 2.13438 15.2575 0.413718 11.922-0.451426 10.2187-1.10289 8.62702-1.25827 6.69062-1.51099 3.59869-0.762717 0.577331-2.52215-2.19023-2.94015-2.84928-1.92926-3.45757-1.52088-2.80884-0.305675-0.902814-0.101624 1.10474-0.111252 3.34517-0.12088 5.64641-0.189075 7.7856 0.734369 9.94513 1.34679 11.3544 2.19268 12.6216 2.76632 14.0512 4.86593 19.2623 2.96074 24.686 1.04566 29.6132" fill="#522E2E" fill-rule="evenodd" transform="matrix(1.00001 0 0 -1 939.155 167.415)"/><path d="M30.9984-0.180787 24.6236-2.90946C24.6236-2.90946 23.3925 3.27385 22.443 8.40447 21.4936 13.5146 19.7304 18.7881 15.1606 25.5233 10.5803 32.2585 10.163 33.4746 8.11793 39.801 6.97039 43.3984 1.31544 48.9992-2.64924 52.1266-0.708664 53.2816 1.27382 54.3855 3.27696 55.4074 5.80192 52.883 10.4342 48.0998 13.3868 44.0935 18.1862 37.5627 16.5065 34.507 24.8116 21.8542 33.106 9.21168 30.9984-0.180787 30.9984-0.180787" fill="#7B9FBA" fill-rule="evenodd" transform="matrix(1.00001 0 0 -1 857.195 245.433)"/><path d="M105.229 303.771C105.229 303.771 99.5908 339.95 94.3455 361.589 93.0735 361.692 91.7898 361.754 90.5178 361.754 81.92 361.806 69.6712 361.672 61.2703 360.111 54.3287 358.818 33.3061 357.009 27.9264 356.316 25.7642 341.708 27.2644 326.872 25.7744 312.192 24.9468 304.036 18.0566 300.049 15.0978 292.435 11.539 283.298 5.76595 271.287 3.283 254.265 0.231105 233.328 0.107014 206.524-0.917307 185.558-1.73471 168.921-3.42103 133.976-0.917307 98.0753-0.576054 93.1862-1.45522 46.5329-1.67267 41.6047-1.87957 36.8047-2.88312 32.1131-2.66567 27.2881-2.40724 21.4606-1.08295 15.7477-0.917307 9.90455-0.813991 6.4555-0.958853 3.00477-1.12421-0.446237 7.37998-0.934281 15.8529-1.84297 24.3571-2.19563 29.9645-2.42714 35.4789-2.39301 40.9101-1.66293 41.4173 3.56193 42.0275 8.77659 42.5964 13.9983 43.3725 21.1887 43.2587 28.5847 44.3966 35.7118 45.4209 42.1959 47.9762 48.3421 50.1386 54.5037 53.1905 63.1827 54.0079 72.7664 55.5804 82.0012 57.5254 93.4699 59.1187 104.99 59.9876 116.593 60.9084 128.777 61.2809 136.066 63.0395 148.173 69.0713 189.816 103.894 234.317 106.026 276.885 106.244 281.223 105.229 303.771 105.229 303.771" fill="#7B9FBA" fill-rule="evenodd" transform="matrix(1.00001 0 0 -1 848.527 596.91)"/><path d="M34.1179 91.3311C32.7554 81.9082 30.3007 72.0624 27.3054 62.4329 16.9048 28.9969-0.0583687-1.73524-0.266378-2.13089-0.505575-2.53906-0.931894-2.76246-1.3688-2.76246-1.56651-2.76246-1.77452-2.71272-1.96164-2.61352-2.57538-2.27983-2.78339-1.52463-2.46093-0.931429-2.24233-0.52242 15.5944 31.7679 25.8078 66.0182 28.3663 74.604 30.4464 83.3141 31.653 91.6723 38.4964 139.23 10.5398 153.736 4.12272 156.402 4.93387 156.949 5.76591 157.466 6.58765 158.003 15.5111 153.747 40.7533 137.412 34.1179 91.3311" fill="#36303A" fill-rule="evenodd" transform="matrix(1.00001 0 0 -1 843.01 354.186)"/><path d="M25.4441 44.8733 33.6164 11.7586C33.6164 11.7586 22.0931-2.53091 17.6812-2.73839 13.2797-2.94473 10.4333 5.27472 6.96671 12.5047 3.09063 20.6077-2.63433 43.317-2.63433 43.317-2.63433 43.317 4.05698 45.3297 10.2336 45.3297 16.4207 45.3297 25.4441 44.8733 25.4441 44.8733" fill="#FFAA9C" fill-rule="evenodd" transform="matrix(1.00001 0 0 -1 842.222 307.69)"/><path d="M-2.78659 6.55865C-2.78659 6.55865-2.32093 10.2373-1.40013 10.3212-0.468797 10.3944 14.6061 8.83294 20.9692 7.2607 27.3325 5.6888 38.1343 1.31848 38.1343 1.31848 38.1343 1.31848 49.319 7.73239 54.0474 10.3212 58.7758 12.9097 64.0319 14.4819 64.425 14.398 64.8079 14.3245 68.1392 11.5789 68.1392 11.5789L44.9111-1.31213C44.9111-1.31213 26.3289-2.93652 25.3147-2.93652 24.3111-2.93652-2.78659 6.55865-2.78659 6.55865" fill="#FFFFFF" fill-rule="evenodd" transform="matrix(1.00001 0 0 -1 905.268 239.917)"/><path d="M42.4692-2.23716C46.1326 7.24254 57.956 49.8521 57.956 50.6815 57.956 51.6147 9.43778 61.2356 9.12917 60.1469 8.81016 59.0583-2.72498 3.92502-2.72498 3.96665L38.3016-2.81271C38.3016-2.81271 40.4217-2.58141 42.4692-2.23716" fill="#36303A" fill-rule="evenodd" transform="matrix(1.00001 0 0 -1 891.083 291.929)"/><path d="M-2.82731 0.748571 5.74219 1.12342 6.62949-0.740489 0.0117733-2.81731-2.82731 0.748571" fill="#36303A" fill-rule="evenodd" transform="matrix(1.00001 0 0 -1 943.095 239.917)"/><path d="M8.92955 51.1963 4.99213 36.0302-2.80114-2.8456C-1.36559-2.60739 0.0598029-2.35136 1.49535-2.12579 8.52953 1.65541 23.6749 12.6226 24.2286 13.4061 24.9975 14.5027 40.5427 67.2924 40.5427 67.2924 40.5427 67.2924 9.69847 51.8441 8.92955 51.1963" fill="#36303A" fill-rule="evenodd" transform="matrix(1.00001 0 0 -1 936.003 291.929)"/><path d="M-0.163221 10.6524C-0.163221 10.6524-2.87799-2.58634-2.87799-2.9009-2.87799-3.21575 14.5647 6.30944 14.5647 6.30944L19.1877 20.7337-0.163221 10.6524" fill="#E66C6C" fill-rule="evenodd" transform="matrix(1.00001 0 0 -1 952.552 252.526)"/><path d="M-2.11764 0.984221-2.85226-2.95324 5.2181 1.63008 6.60453 5.71576-2.11764 0.984221" fill="#F8F0EC" fill-rule="evenodd" transform="matrix(1.00001 0 0 -1 963.585 239.129)"/><path d="M-2.14359-2.76326-2.27646-2.74274C-2.60315-2.68145-2.81776-2.35449-2.74613-2.02726L7.85271 48.7623C7.91398 49.0893 8.24063 49.3139 8.57776 49.2324 8.90441 49.1711 9.119 48.8438 9.04737 48.5068L-1.55144-2.27268C-1.61268-2.55888-1.86802-2.76326-2.14359-2.76326" fill="#635E66" fill-rule="evenodd" transform="matrix(1.00001 0 0 -1 939.155 289.565)"/><path d="M-2.15039-2.78786-2.27397-2.77538C-2.6036-2.70839-2.81986-2.38457-2.75807-2.044L7.83319 50.3124C7.90515 50.6425 8.22463 50.8593 8.56476 50.7869 8.89433 50.7251 9.11065 50.395 9.03862 50.0649L-1.54243-2.29148C-1.60422-2.5909-1.86186-2.78786-2.15039-2.78786" fill="#635E66" fill-rule="evenodd" transform="matrix(1.00001 0 0 -1 932.062 291.141)"/><path d="M10.8602-3.18961 10.7469-3.17798-2.19755-0.606542C-2.53722-0.537996-2.75366-0.183629-2.70211 0.182057-2.64035 0.559377-2.32107 0.799286-1.98139 0.742378L10.9631-1.82937C11.303-1.89792 11.5195-2.25229 11.4679-2.61797 11.4059-2.94938 11.1487-3.18961 10.8602-3.18961" fill="#635E66" fill-rule="evenodd" transform="matrix(1.00001 0 0 -1 906.844 236.765)"/><path d="M15.6206-3.09819 15.5085-3.08715-2.17803 0.312456C-2.51407 0.367956-2.72821 0.713835-2.6772 1.08148-2.6161 1.43809-2.30022 1.69444-1.96417 1.61656L15.7227-1.77202C16.0587-1.83886 16.2726-2.18443 16.2215-2.54104 16.1708-2.86423 15.906-3.09819 15.6206-3.09819" fill="#635E66" fill-rule="evenodd" transform="matrix(1.00001 0 0 -1 906.056 240.705)"/><path d="M-2.37887-2.60049C-2.62421-2.60049-2.85821-2.48618-2.98088-2.28614-3.14832-2.00011-3.01431-1.66663-2.68002-1.52375L3.86379 1.27809C4.19806 1.42097 4.58846 1.30667 4.7556 1.03034 4.92274 0.744569 4.78903 0.401385 4.46579 0.258502L-2.08906-2.54333-2.37887-2.60049" fill="#635E66" fill-rule="evenodd" transform="matrix(1.00001 0 0 -1 956.493 257.254)"/><path d="M-2.21779-2.84486C-2.44594-2.84486-2.6638-2.70843-2.77802-2.48835-2.92335-2.17395-2.78858-1.79639-2.47706-1.64958L12.8222 5.76327C13.1334 5.91009 13.5072 5.78404 13.6525 5.46965 13.7978 5.15495 13.6734 4.77768 13.3619 4.63087L-1.94767-2.78198-2.21779-2.84486" fill="#635E66" fill-rule="evenodd" transform="matrix(1.00001 0 0 -1 949.4 265.135)"/><path d="M74.7174 35.1402C73.8807 36.4383 70.6795 39.8735 70.6795 39.8735 70.6795 39.8735 38.7792 26.1845 30.8276 24.8862 25.7569 24.0579 17.7329 22.8312 14.0461 18.4865 9.79114 18.7216-2.66314 19.9585-2.66314 19.9585-2.66314 19.9585 3.47111 3.27735 8.3352-0.667957 12.879-4.35845 21.6673-2.13718 26.5107-0.615645 33.2234 1.49229 40.4624 4.97015 46.7413 8.13132 54.1873 11.8801 78.5072 27.1966 78.5072 27.1966 78.5072 27.1966 75.6984 33.6068 74.7174 35.1402" fill="#FFAA9C" fill-rule="evenodd" transform="matrix(1.00001 0 0 -1 850.891 311.631)"/><path d="M38.8582 15.7803C38.6212 16.4819 37.9822 17.2039 37.2404 17.5905 37.3021 17.7225 37.3639 17.8649 37.3742 17.9973 37.5598 19.2377 36.4261 19.8173 35.3957 19.7969 34.5611 19.7868 33.7058 19.2782 32.9534 18.9834 31.2945 18.3427 25.8949 17.824 24.1429 17.4987 21.3401 16.97 18.5166 16.909 15.7134 17.2343 16.9089 17.6817 18.1044 18.1393 19.2995 18.6074 20.3714 19.0141 22.0613 19.4105 22.6898 20.5088 24.0914 22.9188 21.6182 23.5594 19.8149 23.1628 16.9089 22.5121 14.0134 21.7391 11.1175 21.0375 9.18047 20.5594 6.54233 20.407 4.87287 19.2175 3.35819 18.1293 2.38951 16.0242 1.43105 14.489-0.0941177 12.0381-1.4645 9.49601-2.71155 6.88261-3.02056 6.25207-2.22708 5.6825-1.78399 6.01819-0.75351 3.79113 0.348973 1.59456 1.63714-0.500187 2.31722-1.60854 2.68831-2.36106 3.97648-2.64557 5.87244-3.06267 8.7167-1.9034 10.5406-1.38475 13.3744-0.581314 32.4278 6.10967 33.1184 7.52324 33.17 7.64521 33.2111 7.77752 33.242 7.89947 35.7668 9.0993 37.8172 10.7873 38.1574 13.1668 38.7964 13.8989 39.2085 14.7734 38.8582 15.7803" fill="#FFAA9C" fill-rule="evenodd" transform="matrix(1.00001 0 0 -1 922.605 281.684)"/><path d="M9.11309 1.81675C5.41526 0.218138 1.61569-0.925266-2.3362-1.63443-3.09834-1.77218-2.77303-2.98956-2.01116-2.8521 1.94073-2.15342 5.7403-1.01001 9.43841 0.588592 10.1494 0.895556 9.83441 2.12371 9.11309 1.81675" fill="#F07D67" fill-rule="evenodd" transform="matrix(1.00001 0 0 -1 949.4 265.923)"/><path d="M11.1611 2.22327C6.85857 0.427235 2.24155-0.498108-2.40657-1.37803-3.19168-1.53226-2.85673-2.57539-2.07162-2.43041 2.68133-1.52327 7.39225-0.552512 11.7999 1.28894 12.5222 1.58816 11.8941 2.53172 11.1611 2.22327" fill="#F07D67" fill-rule="evenodd" transform="matrix(1.00001 0 0 -1 947.824 269.075)"/><path d="M5.56376 1.14001C3.01582-0.119898 0.349584-1.00362-2.46719-1.53185-3.27343-1.68445-2.92946-2.86275-2.12323-2.71044 0.801201-2.15175 3.5748-1.21715 6.2088 0.0936275 6.93991 0.459192 6.29487 1.50558 5.56376 1.14001" fill="#F07D67" fill-rule="evenodd" transform="matrix(1.00001 0 0 -1 948.612 273.016)"/><path d="M54.4281 204.271C53.3939 250.741 49.5049 290.649 47.3849 303.83 47.2605 304.617 45.8953 312.975 45.8953 312.975 45.8953 312.975-0.987594 223.569-2.45604 190.228-3.22142 172.806-2.40454 158.557-2.01132 142.359-1.25647 142.611-0.274 142.224-0.284243 141.197-0.36704 134.164-1.15291 127.171-1.84602 120.174-1.87703 110.484-1.9493 100.796-2.02185 91.1057-0.36704 81.2124 2.96335 71.6487 3.93558 61.5936 4.51459 55.5201 3.07716 49.7208 2.30154 43.7393 1.30854 36.1203 3.43908 30.5281 5.91106 23.54 8.81725 15.3572 7.26597 6.36255 9.88248-1.47275 12.6959-1.88967 15.5605-1.97846 18.3842-2.07892 25.8929-2.34587 33.4533-2.47108 40.8795-1.13864 44.8301-0.428875 48.6465 0.668784 52.339 2.05786 52.4632 4.34738 52.4836 6.65425 52.577 8.93523 53.5802 33.4286 53.1457 51.732 53.3939 76.247 53.6524 101.171 55.4933 156.119 54.4281 204.271" fill="#7B9FBA" fill-rule="evenodd" transform="matrix(1.00001 0 0 -1 906.056 596.122)"/><path d="M11.3261-2.62956 11.3155-2.62956C10.9624-2.619 10.7026-2.332 10.7129-1.9885 10.7337-1.35173 12.7809 61.7702 12.7498 64.0049 12.6251 65.3313 4.97681 72.2788-2.33875 78.2314-2.59861 78.4491-2.64035 78.8332-2.42193 79.1027-2.20381 79.3722-1.81931 79.403-1.54916 79.1855 2.08803 76.2298 13.9553 66.4057 13.9865 64.0249 14.0279 61.7599 12.0328 0.574012 11.9496-2.02901 11.939-2.36509 11.6689-2.62956 11.3261-2.62956" fill="#1A161C" fill-rule="evenodd" transform="matrix(1.00001 0 0 -1 834.341 360.491)"/><path d="M2.06474-0.513221C2.06474 0.793368 1.00698 1.8509-0.299527 1.8509-1.60604 1.8509-2.6638 0.793368-2.6638-0.513221-2.6638-1.8201-1.60604-2.87763-0.299527-2.87763 1.00698-2.87763 2.06474-1.8201 2.06474-0.513221" fill="#FFFFFF" fill-rule="evenodd" transform="matrix(1.00001 0 0 -1 884.778 242.281)"/><path d="M6.56979 1.70602C6.4969 3.0099 5.03196 3.52929 3.76425 3.22191 1.99803 2.78709 0.0966143 1.67395-1.32688 0.592881-2.01261 0.0734904-3.12454-1.10323-2.83355-2.17409-2.57372-3.20238-1.09821-3.06443-0.371023-2.83113 0.875823-2.42839 2.08121-1.9195 3.26575-1.34703 4.37738-0.795858 6.06071-0.477979 6.47632 0.932043 6.5595 1.21813 6.59066 1.47273 6.56979 1.70602" fill="#FFAA9C" fill-rule="evenodd" transform="matrix(1.00001 0 0 -1 970.678 225.732)"/><path d="M6.11884 2.62245C7.73433 4.16811 8.89606 6.1315 7.42814 7.90672 7.71341 8.58556 7.72387 9.37914 7.1327 9.89107 5.88644 10.9877 4.36595 10.2982 3.19378 9.72384 2.47566 9.36874 1.15562 8.46034 0.458703 8.05291-0.840131 7.29046-2.21276 6.47597-2.78301 5.03489-3.38493 3.48922-2.04397 2.41359-0.861047 2.34032-1.1039 1.7347-1.1039 1.06645-0.618188 0.450195-0.396536 0.168356-0.143217-0.00919348 0.131307-0.124112-0.639395-1.08483-0.861047-2.62015 0.701563-2.8813 2.51807-3.19446 5.10499-1.77406 6.3617-0.5315 7.34389 0.439852 7.77674 2.1734 6.11884 2.62245" fill="#FFAA9C" fill-rule="evenodd" transform="matrix(1.00001 0 0 -1 971.466 238.341)"/><path d="M3.29008 1.71145C1.29413 0.613715-0.660292-0.536354-2.5837-1.75947-3.25594-2.18798-2.63548-3.26471-1.953-2.8362-0.039828-1.61309 1.91459-0.463306 3.91055 0.624069 4.6138 1.01087 3.99333 2.09796 3.29008 1.71145" fill="#F07D67" fill-rule="evenodd" transform="matrix(1.00001 0 0 -1 973.83 231.248)"/><path d="M0.547893-0.0783693C-0.368828-0.73988-1.31306-1.35665-2.28531-1.90647-2.9333-2.27641-2.3686-3.43159-1.7206-3.06165-0.757524-2.51214 0.186707-1.90647 1.10343-1.24465 1.71449-0.796031 1.15896 0.359141 0.547893-0.0783693" fill="#F07D67" fill-rule="evenodd" transform="matrix(1.00001 0 0 -1 975.406 235.188)"/><path d="M20.9225-1.92761C20.7136-2.3969 20.5258-2.83393 20.4005-3.17505 12.1194-2.66351 4.11008 0.193876-2.71937 5.14108-2.52115 5.5036-2.33298 5.88725-2.13476 6.28175 4.70533 1.33484 12.673-1.49058 20.9225-1.92761" fill="#36303A" fill-rule="evenodd" transform="matrix(1.00001 0 0 -1 890.295 177.66)"/><path d="M39.763 7.70844C33.8445 6.91595 28.1522 6.75553 22.172 6.74826 16.3153 6.73955 9.36717 5.71718 3.74716 7.59336 2.28545 8.0801 0.0107604 8.94327-1.45095 8.0749-3.02565 7.14437-2.57286 4.38502-2.45959 2.82909-2.26393 0.301073 0.000566336-0.683515 2.26506-1.12611 7.5351-2.15807 13.4024-1.72186 18.7341-1.62161 24.8276-1.50739 30.9007-1.11565 36.9531-0.446959 38.4352-0.284217 41.5951-0.566109 42.7994 0.463814 43.7877 1.30368 43.7361 2.9927 43.8596 4.23303 44.1478 6.97 42.2747 8.0444 39.763 7.70844" fill="#F8F0EC" fill-rule="evenodd" transform="matrix(1.00001 0 0 -1 847.739 600.85)"/><path d="M45.1569 9.23556C44.4812 10.4054 43.6424 10.018 42.4246 9.73283 39.4981 9.0424 36.5716 8.29753 33.6347 7.59151 27.403 6.09006 20.9361 5.94632 14.5612 6.20321 11.3482 6.33337 8.13511 6.56832 4.92206 6.79403 3.34621 6.90428-3.4073 8.47791-2.70129 5.33039-2.63992 5.03887-2.46595 4.78488-2.36349 4.50693-1.90323 3.3276-2.49664 2.02646-1.97474 0.846263-1.5553-0.114875-0.654773-0.757939 0.266301-1.14095 2.26159-1.96758 4.55358-1.76929 6.66146-1.77045 18.3576-1.77564 30.0635-1.87955 41.1865 2.33097 42.7931 2.93622 43.7138 3.08313 44.4505 4.52685 44.8089 5.20859 45.6785 8.32259 45.1569 9.23556" fill="#F8F0EC" fill-rule="evenodd" transform="matrix(1.00001 0 0 -1 915.513 600.062)"/><path d="M23.5856-0.854939C15.0441-1.03818 6.51282-0.972211-2.01844-0.656742-2.81182-0.627716-2.81182-1.90338-2.01844-1.93329 6.51282-2.24876 15.0441-2.31502 23.5856-2.1306 24.3789-2.1136 24.3789-0.837641 23.5856-0.854939" fill="#F8F0EC" fill-rule="evenodd" transform="matrix(1.00001 0 0 -1 859.56 466.091)"/><path d="M14.9228 2.45361C9.15896 1.66716 3.45653 0.526093-2.17358-0.989343-2.94436-1.19583-2.61536-2.45241-1.85532-2.24562 3.68265-0.758616 9.26157 0.379158 14.9228 1.15154 15.7038 1.25717 15.7139 2.56014 14.9228 2.45361" fill="#F8F0EC" fill-rule="evenodd" transform="matrix(1.00001 0 0 -1 866.652 470.82)"/><path d="M24.394-1.01482C15.5852-1.29057 6.77645-1.0522-2.01169-0.298311-2.80131-0.230609-2.79087-1.76589-2.01169-1.83253 6.77645-2.58642 15.5852-2.82584 24.394-2.54904 25.1731-2.5247 25.1835-0.990486 24.394-1.01482" fill="#F8F0EC" fill-rule="evenodd" transform="matrix(1.00001 0 0 -1 858.772 473.184)"/><path d="M7.02031-0.477649C3.9238-0.261877 0.879038-0.513795-2.17602-1.20426-2.96586-1.38278-2.62283-2.93007-1.84355-2.75303 1.09716-2.08653 4.03787-1.87592 7.02031-2.08395 7.82045-2.13891 7.82045-0.534081 7.02031-0.477649" fill="#F8F0EC" fill-rule="evenodd" transform="matrix(1.00001 0 0 -1 862.712 477.124)"/><path d="M13.9996 1.38245C8.61007 0.557781 3.21057-0.266881-2.17889-1.09154-2.95153-1.20897-2.9616-2.66314-2.17889-2.54404 3.21057-1.71838 8.61007-0.89372 13.9996-0.0690555 14.7621 0.0483722 14.7722 1.50121 13.9996 1.38245" fill="#F8F0EC" fill-rule="evenodd" transform="matrix(1.00001 0 0 -1 942.307 464.515)"/><path d="M17.8977 3.38843C10.9769 2.79265 4.44653 0.34786-2.34064-0.941957-3.12113-1.08909-2.79261-2.26025-2.01239-2.11312 4.66206-0.844521 11.0899 1.58799 17.8977 2.17371 18.6886 2.24155 18.6886 3.45627 17.8977 3.38843" fill="#F8F0EC" fill-rule="evenodd" transform="matrix(1.00001 0 0 -1 939.155 468.455)"/><path d="M10.8548-1.16771-2.15889-1.16771C-2.93748-1.16771-2.9475-2.74396-2.15889-2.74396L10.8548-2.74396C11.6334-2.74396 11.6334-1.16771 10.8548-1.16771" fill="#F8F0EC" fill-rule="evenodd" transform="matrix(1.00001 0 0 -1 943.883 470.031)"/><path d="M17.0816 2.61784C10.4881 1.98524 4.0086 0.815055-2.37723-0.909497-3.14564-1.11654-2.8237-2.29064-2.045-2.08248 4.22684-0.386431 10.5918 0.778729 17.0816 1.40211 17.8708 1.47727 17.8708 2.69523 17.0816 2.61784" fill="#F8F0EC" fill-rule="evenodd" transform="matrix(1.00001 0 0 -1 939.155 474.76)"/><path d="M8.17774 103.316C8.30746 104.161 7.06373 104.525 6.92298 103.672 5.59266 95.0374 4.24091 86.3576 4.06774 77.5957 3.90557 68.8236 5.88484 60.0793 5.07374 51.3209 4.25162 42.4734 1.27737 33.9562-0.128837 25.2009-1.54575 16.3377-2.1947 7.36841-2.84364-1.58447-2.9085-2.44704-1.61061-2.44306-1.54575-1.58447-0.885792 7.68048-0.215423 16.969 1.33121 26.1285 2.70498 34.1722 5.30077 41.9846 6.2416 50.1016 7.20446 58.4295 5.41978 66.6707 5.35492 74.9944 5.26833 84.5143 6.72839 93.9435 8.17774 103.316" fill="#517996" fill-rule="evenodd" transform="matrix(1.00001 0 0 -1 908.42 497.614)"/><path d="M3.3886 3.88548C1.96576 5.61068-1.0663 0.766722-1.77786-0.0758721-2.28134-0.687539-3.0149-1.42971-2.57706-2.25216-2.18287-3.00426-1.42765-2.99433-0.781729-2.44253-0.103287-1.87087 0.312872-1.00841 0.958491-0.386809 1.64807 0.295211 2.44727 0.876808 2.93991 1.70919 3.27928 2.28085 3.92491 3.2338 3.3886 3.88548" fill="#6F5E61" fill-rule="evenodd" transform="matrix(1.00001 0 0 -1 843.798 224.944)"/><path d="M3.2795 3.86647C1.85775 5.60145-1.18314 0.757125-1.88302-0.0951926-2.39696-0.696974-3.11912-1.4392-2.69244-2.26172-2.29857-3.01387-1.54391-3.01387-0.887652-2.46231-0.209426-1.8906 0.195283-1.02808 0.840407-0.396221 1.5406 0.285853 2.32805 0.867493 2.82032 1.69001 3.15914 2.27165 3.8154 3.2244 3.2795 3.86647" fill="#6F5E61" fill-rule="evenodd" transform="matrix(1.00001 0 0 -1 888.718 220.215)"/><path d="M2.74568 3.83876C1.49173 5.57496-1.15968 0.727998-1.78165-0.114845-2.22192-0.72717-2.86338-1.4698-2.48051-2.29249-2.13582-3.04533-1.47541-3.03512-0.910836-2.49319-0.317304-1.91124 0.0463449-1.04824 0.611174-0.425977 1.21419 0.256469 1.91305 0.838429 2.34358 1.66139 2.64035 2.24335 3.20517 3.19662 2.74568 3.83876" fill="#6F5E61" fill-rule="evenodd" transform="matrix(1.00001 0 0 -1 947.036 211.547)"/><path d="M2.86909-2.71464C5.12037-1.96237 0.895138 2.11029 0.207463 2.97322-0.291669 3.59497-0.857311 4.44769-1.85527 4.30723-2.76475 4.18691-2.98655 3.52488-2.59848 2.79247-2.18812 2.03026-1.40068 1.41818-0.923824 0.665898-0.413706-0.136601-0.0253227-0.999265 0.706595-1.67151 1.2164-2.14286 2.02612-2.99558 2.86909-2.71464" fill="#6F5E61" fill-rule="evenodd" transform="matrix(1.00001 0 0 -1 857.195 247.797)"/><path d="M2.35099-3.0783C4.32122-2.25353 0.613847 2.27131 0.0216275 3.22975-0.414928 3.93187-0.909954 4.87927-1.7836 4.72321-2.57928 4.5782-2.77339 3.84266-2.43376 3.02893-2.07463 2.18209-1.3855 1.50236-0.96816 0.677592-0.52173-0.225353-0.182098-1.18379 0.458449-1.93037 0.904887-2.45435 1.61351-3.39042 2.35099-3.0783" fill="#6F5E61" fill-rule="evenodd" transform="matrix(1.00001 0 0 -1 928.91 229.672)"/><path d="M2.38839-3.16813C4.34968-2.34367 0.650382 2.18148 0.0486117 3.13992-0.378744 3.8307-0.883562 4.78914-1.7575 4.63338-2.55372 4.48836-2.73802 3.75282-2.39827 2.93909-2.04864 2.09225-1.34965 1.41221-0.932169 0.576414-0.485583-0.315188-0.15545-1.27363 0.485316-2.02021 0.931901-2.54419 1.6504-3.48025 2.38839-3.16813" fill="#6F5E61" fill-rule="evenodd" transform="matrix(1.00001 0 0 -1 913.937 202.878)"/></g></g></g></g></svg>